<svg xmlns="http://www.w3.org/2000/svg" viewBox="0 0 500 500"><g id="freepik--Icons--inject-9"><path d="M303.22,344.16a6.37,6.37,0,1,1-6.38-6.36A6.37,6.37,0,0,1,303.22,344.16Z" style="fill:#407BFF"></path><path d="M321,331.4a6.37,6.37,0,1,1-6.37-6.36A6.36,6.36,0,0,1,321,331.4Z" style="fill:#407BFF"></path><path d="M321.08,358.39a6.39,6.39,0,1,1-6.38-6.92A6.67,6.67,0,0,1,321.08,358.39Z" style="fill:#407BFF"></path><path d="M312.83,357.58c-.27.4-4.5-2-9.46-5.37s-8.74-6.42-8.47-6.82,4.51,2,9.46,5.37S313.11,357.18,312.83,357.58Z" style="fill:#407BFF"></path><path d="M313.34,331c.3.38-3,3.41-7.3,6.77s-8.08,5.76-8.38,5.38,3-3.41,7.3-6.77S313.05,330.58,313.34,331Z" style="fill:#407BFF"></path><path d="M431.6,249.81l-16.39-6L399,249.72c-2.07,1-3.89,1.61-3.89,3.59v9.86a38,38,0,0,0,5.35,19.62,33.62,33.62,0,0,0,14.94,13.53c6.63-2.21,11.58-8.1,14.61-13.14a38,38,0,0,0,5.35-19.63v-8.86A4.62,4.62,0,0,0,431.6,249.81Z" style="fill:#ebebeb"></path><path d="M431.6,249.81a4.8,4.8,0,0,1,1,.35,4.34,4.34,0,0,1,2.29,2.12,5.37,5.37,0,0,1,.49,2.25c0,.84,0,1.75,0,2.74,0,2,0,4.22,0,6.72a38.2,38.2,0,0,1-4.17,17.21A39.7,39.7,0,0,1,425.1,290a24.3,24.3,0,0,1-9.67,6.52l-.07,0-.08,0a33.43,33.43,0,0,1-13.42-11.15A37.71,37.71,0,0,1,395,266c-.12-1.64-.1-3.26-.1-4.85V256.5c0-.77,0-1.53,0-2.28,0-.38,0-.74,0-1.13a2.7,2.7,0,0,1,.34-1.14A4.13,4.13,0,0,1,397,250.5c.64-.35,1.3-.63,1.93-.93h0l16.25-5.92h.09l12.05,4.5,3.2,1.22.82.32.28.13-.29-.09-.83-.29-3.23-1.15-12.09-4.39h.09l-16.21,6h0c-.63.31-1.29.6-1.91.94a3.77,3.77,0,0,0-1.57,1.32,3.93,3.93,0,0,0-.3,2.08v2.28c0,1.53,0,3.09,0,4.67s0,3.2.11,4.82a37.41,37.41,0,0,0,6.81,19.12,33.19,33.19,0,0,0,13.25,11h-.15a24.06,24.06,0,0,0,9.53-6.41A39.67,39.67,0,0,0,431,281,38.14,38.14,0,0,0,435.19,264c0-2.5,0-4.75,0-6.72s.19-3.7-.44-4.93a4.32,4.32,0,0,0-2.19-2.12c-.32-.15-.57-.25-.74-.31Z" style="fill:#263238"></path><path d="M426.65,276.26h-3.44V257.52a8,8,0,0,0-16,0v18.74h-3.44V257.52a11.44,11.44,0,0,1,22.88,0Z" style="fill:#455a64"></path><g style="opacity:0.4"><path d="M426.65,276.26h-3.44V257.52a8,8,0,0,0-16,0v18.74h-3.44V257.52a11.44,11.44,0,0,1,22.88,0Z"></path></g><rect x="399.79" y="267.92" width="30.83" height="19.78" rx="3.39" style="fill:#407BFF"></rect><g style="opacity:0.5"><path d="M417.78,275.24a2.58,2.58,0,1,0-3.28,2.46v3.86h1.41V277.7A2.56,2.56,0,0,0,417.78,275.24Z"></path></g><path d="M401.43,285.83c-.07,0-.12-3.3-.12-7.37s.05-7.37.12-7.37.13,3.3.13,7.37S401.5,285.83,401.43,285.83Z" style="fill:#fafafa"></path><path d="M413.19,278.54a.82.82,0,0,1-.3-.17,2.86,2.86,0,0,1-.67-.68,3.62,3.62,0,0,1,1.29-5.42,3.38,3.38,0,0,1,.89-.31c.22,0,.35,0,.35,0a6.59,6.59,0,0,0-1.16.48,3.59,3.59,0,0,0-1.22,5.16A7.23,7.23,0,0,0,413.19,278.54Z" style="fill:#fafafa"></path><path d="M459.67,170.94a8.44,8.44,0,0,1,2.05-.89l.42-2,3.42-.06.49,2a8.42,8.42,0,0,1,2.08.82l1.73-1.13,2.46,2.37-1.07,1.77a8.44,8.44,0,0,1,.89,2l2,.42.06,3.42-2,.49a8.42,8.42,0,0,1-.82,2.08l1.13,1.73-2.37,2.46-1.77-1.07a8.44,8.44,0,0,1-2.05.89l-.42,2-3.42.06-.49-2a8.42,8.42,0,0,1-2.08-.82l-1.73,1.13-2.46-2.38,1.07-1.76a8.44,8.44,0,0,1-.89-2.05l-2-.42-.06-3.42,2-.5a8.51,8.51,0,0,1,.82-2.07l-1.13-1.73,2.37-2.46,1.77,1.07Zm1.83,4.56a3.67,3.67,0,1,0,5.19-.09A3.67,3.67,0,0,0,461.5,175.5Z" style="fill:#407BFF"></path><path d="M461.5,175.5a2.76,2.76,0,0,1,.68-.6,3.68,3.68,0,0,1,4,0,3.81,3.81,0,0,1,1.32,1.48,3.65,3.65,0,0,1,.33,1,3.3,3.3,0,0,1,0,1.13,3.76,3.76,0,0,1-1,2.12,3.83,3.83,0,0,1-2.08,1.09,3.31,3.31,0,0,1-1.13,0,3.63,3.63,0,0,1-1-.29,3.85,3.85,0,0,1-1.53-1.27,3.76,3.76,0,0,1-.63-1.61,3.67,3.67,0,0,1,.48-2.41,2.66,2.66,0,0,1,.58-.7s-.22.24-.51.74a3.67,3.67,0,0,0-.4,2.35,3.47,3.47,0,0,0,.63,1.53,3.61,3.61,0,0,0,1.46,1.19,3.3,3.3,0,0,0,1,.27,3.21,3.21,0,0,0,1.07,0,3.58,3.58,0,0,0,2.93-3,3.54,3.54,0,0,0-.32-2.05,3.7,3.7,0,0,0-1.24-1.43,3.67,3.67,0,0,0-3.89-.08A7.61,7.61,0,0,0,461.5,175.5Z" style="fill:#455a64"></path><path d="M459.67,170.94l-.11-.06-.34-.2c-.31-.18-.76-.44-1.33-.79h0c-.61.63-1.4,1.47-2.36,2.48v-.07l1.14,1.72,0,0,0,0a8.84,8.84,0,0,0-.8,2.06v0h0l-2,.5.06-.07c0,1.07,0,2.22.07,3.42l-.07-.08,2,.41.05,0v0a8.48,8.48,0,0,0,.89,2l0,.05,0,0-1.07,1.77,0-.11,2.47,2.37h-.12l1.72-1.14.05,0,.06,0a8.51,8.51,0,0,0,2,.81h.06v.06c.16.63.33,1.32.5,2l-.1-.08,3.42-.06-.1.08c.13-.64.27-1.33.42-2v-.06l.06,0a8.32,8.32,0,0,0,2-.88h0l.06,0,.05,0,1.77,1.07-.13,0,2.38-2.46v.13l-1.14-1.73,0-.06,0,0a8.58,8.58,0,0,0,.81-2.05v-.06l.06,0,2-.49-.07.1q0-1.75-.06-3.42l.08.09-2-.42h-.05l0-.06a8.3,8.3,0,0,0-.88-2l0,0,0-.05,1.08-1.76v.11l-2.46-2.39h.11l-1.74,1.13,0,0,0,0a8.13,8.13,0,0,0-2-.82h0v0l-.49-2,.06.05-3.42,0,.05,0c-.18.81-.32,1.47-.44,2v0h0a8.68,8.68,0,0,0-1.57.6l-.36.2-.13.06.12-.08.36-.21a7.87,7.87,0,0,1,1.56-.63l0,0,.4-2v0h0l3.42-.08h.05v0c.16.62.32,1.28.5,2l-.05-.05a8.17,8.17,0,0,1,2.1.81h-.08l1.73-1.14.05,0,.05,0,2.46,2.37.05.05,0,.06-1.07,1.77v-.1a8.54,8.54,0,0,1,.9,2.07l-.07-.06,2,.41.07,0v.08c0,1.11,0,2.25.07,3.42v.08l-.08,0-2,.49.08-.07a8.75,8.75,0,0,1-.83,2.1v-.11l1.13,1.73.05.07-.06.06-2.38,2.46-.06.07-.07-.05-1.77-1.07h.11a8.73,8.73,0,0,1-2.07.9l.07-.08c-.14.7-.28,1.39-.42,2v.08h-.09l-3.42.06h-.08l0-.08c-.17-.69-.34-1.38-.49-2l.07.07a8.5,8.5,0,0,1-2.1-.82h.1l-1.73,1.13-.06,0-.06-.06-2.46-2.38-.05,0,0-.06,1.07-1.77v.09a8.25,8.25,0,0,1-.89-2.07l.06.07-2-.43h-.07v-.07c0-1.2,0-2.34-.05-3.42v-.06l.06,0,2-.48-.05.05a8.15,8.15,0,0,1,.83-2.09v.06l-1.13-1.73,0,0,0,0,2.39-2.45,0,0,0,0,1.3.81.34.21Z" style="fill:#263238"></path><path d="M439.3,167.84a5.07,5.07,0,0,1,1.22-.53l.25-1.21,2.05,0,.3,1.2a5.09,5.09,0,0,1,1.24.49l1-.68,1.47,1.43-.64,1.05a5.14,5.14,0,0,1,.53,1.23L448,171l0,2.05-1.2.29a5.32,5.32,0,0,1-.49,1.25l.68,1-1.43,1.48-1.06-.64a5.07,5.07,0,0,1-1.22.53l-.25,1.21-2.05,0-.3-1.21a4.85,4.85,0,0,1-1.24-.49l-1,.68-1.48-1.42.64-1.06a5.25,5.25,0,0,1-.53-1.22l-1.21-.26,0-2L437,171a4.69,4.69,0,0,1,.48-1.24l-.67-1,1.42-1.47,1.06.64Zm1.09,2.73a2.2,2.2,0,1,0,3.11-.06A2.21,2.21,0,0,0,440.39,170.57Z" style="fill:#407BFF"></path><path d="M440.39,170.57a1.59,1.59,0,0,1,.41-.36,2.18,2.18,0,0,1,1.43-.34,2.25,2.25,0,0,1,2,1.85,2.57,2.57,0,0,1,0,.68,2.36,2.36,0,0,1-.61,1.27,2.27,2.27,0,0,1-1.25.65,2.16,2.16,0,0,1-.67,0,2.18,2.18,0,0,1-.63-.18,2.26,2.26,0,0,1-.91-.75,2.15,2.15,0,0,1-.38-1A2.22,2.22,0,0,1,440,171a1.67,1.67,0,0,1,.35-.42,4.49,4.49,0,0,0-.3.45,2.18,2.18,0,0,0-.25,1.4,2.2,2.2,0,0,0,.38.92,2.23,2.23,0,0,0,.88.71,1.91,1.91,0,0,0,.59.16,2,2,0,0,0,.64,0,2.13,2.13,0,0,0,1.76-1.82,2.29,2.29,0,0,0,0-.64,2.19,2.19,0,0,0-.19-.58,2.23,2.23,0,0,0-.74-.86,2.2,2.2,0,0,0-.93-.34,2.24,2.24,0,0,0-1.4.29A5,5,0,0,0,440.39,170.57Z" style="fill:#455a64"></path><path d="M439.3,167.84l-.07,0-.2-.11-.8-.47h0l-1.41,1.48v0l.69,1v0a4.85,4.85,0,0,0-.48,1.23v0h0l-1.21.3,0,0c0,.65,0,1.33,0,2l0,0,1.21.25h0v0a4.75,4.75,0,0,0,.53,1.21l0,0,0,0-.64,1.06v-.07l1.48,1.42h-.08l1-.68,0,0,0,0a4.64,4.64,0,0,0,1.23.48h0v0c.1.38.2.79.3,1.2l-.06-.05,2.05,0-.06.05c.08-.39.16-.8.25-1.22v0h0a5,5,0,0,0,1.21-.53h0l0,0,0,0,1.06.64h-.08l1.42-1.47v.08l-.67-1,0,0v0a5.18,5.18,0,0,0,.49-1.23v0h0l1.2-.3,0,.06c0-.7,0-1.38,0-2.05l0,.06-1.21-.26h0v0a5.48,5.48,0,0,0-.53-1.21l0,0,0,0c.22-.37.44-.72.65-1.06v.06l-1.47-1.42h.06l-1,.68h-.05a5,5,0,0,0-1.23-.49h0v0c-.11-.44-.2-.83-.29-1.2l0,0-2,0,0,0c-.1.48-.19.88-.26,1.21h0a4.89,4.89,0,0,0-.94.36l-.22.11-.07,0,.07-.05.21-.12a4.67,4.67,0,0,1,.94-.38h0l.25-1.21v0h0l2.05,0h0v0q.13.55.3,1.2l0,0a5.14,5.14,0,0,1,1.25.49h0l1-.68,0,0,0,0,1.48,1.42,0,0,0,0c-.2.35-.42.7-.63,1.06v-.05a5,5,0,0,1,.53,1.23l0,0L448,171h0V171c0,.67,0,1.35,0,2.05v0H448l-1.2.29.05,0a5.43,5.43,0,0,1-.5,1.26v-.07c.22.35.45.69.68,1l0,0,0,0-1.42,1.47,0,0,0,0-1.06-.64h.07a5.37,5.37,0,0,1-1.24.54l0-.05c-.09.42-.17.83-.25,1.21v0h0l-2.05,0h-.05v-.05c-.1-.41-.2-.83-.3-1.2l.05,0a5.25,5.25,0,0,1-1.26-.49h.06l-1,.68,0,0,0,0-1.47-1.42,0,0,0,0,.65-1.06v.06a4.92,4.92,0,0,1-.54-1.24l0,0-1.21-.26h0v0c0-.71,0-1.4,0-2v0h0l1.21-.29,0,0a5.17,5.17,0,0,1,.49-1.25v0l-.67-1v0l1.43-1.47h0l.78.49.2.12Z" style="fill:#263238"></path><path d="M439,185.77a11.61,11.61,0,0,1,3.09-.37l1.38-2.54,4.6,1.29L448,187a11.83,11.83,0,0,1,2.45,1.93l2.77-.83,2.34,4.17-2.15,1.94a11.22,11.22,0,0,1,.37,3.09l2.54,1.38-1.29,4.6-2.89-.14a11.86,11.86,0,0,1-1.92,2.45l.82,2.77-4.17,2.34-1.94-2.15a11.22,11.22,0,0,1-3.09.37l-1.38,2.54-4.6-1.29.14-2.89a12.13,12.13,0,0,1-2.45-1.92l-2.77.82-2.34-4.17,2.15-1.94a11.22,11.22,0,0,1-.37-3.09l-2.54-1.38,1.29-4.6,2.89.14a12.13,12.13,0,0,1,1.92-2.45l-.82-2.77,4.17-2.34,1.94,2.15Zm.61,6.83a5.13,5.13,0,1,0,7,2A5.13,5.13,0,0,0,439.65,192.6Z" style="fill:none"></path><path d="M439.65,192.6a4,4,0,0,1,1.15-.53,5.2,5.2,0,0,1,5.38,1.63,5.25,5.25,0,0,1,1.17,2.52,4.76,4.76,0,0,1,0,1.51,5.14,5.14,0,0,1-.42,1.52,5.31,5.31,0,0,1-2.22,2.43,5.25,5.25,0,0,1-3.22.62,5.11,5.11,0,0,1-1.52-.42,5,5,0,0,1-1.27-.82,5.23,5.23,0,0,1-1.75-4.71,5.11,5.11,0,0,1,1.62-3,3.65,3.65,0,0,1,1-.71,12.58,12.58,0,0,0-1,.8,5.15,5.15,0,0,0-1.48,3,5,5,0,0,0,1.71,4.47,4.88,4.88,0,0,0,1.21.77,5,5,0,0,0,4.49-.2,5,5,0,0,0,2.09-2.29,4.4,4.4,0,0,0,.41-1.43,4.62,4.62,0,0,0,0-1.44,5,5,0,0,0-2.93-3.79,5.12,5.12,0,0,0-3.32-.29A12.51,12.51,0,0,0,439.65,192.6Z" style="fill:#263238"></path><path d="M439,185.77l-.13-.13-.38-.4-1.46-1.58h.05L433,186l0-.09c.26.84.54,1.77.84,2.77v0l0,0a11.77,11.77,0,0,0-1.9,2.43l0,.05h-.06l-2.88-.14.1-.07c-.4,1.45-.83,3-1.28,4.6l-.06-.13,2.55,1.37.06,0V197a11.84,11.84,0,0,0,.37,3.06l0,.08-.06.05-2.14,1.94,0-.17,2.34,4.17-.16-.06,2.77-.83.08,0,.06.06a11.7,11.7,0,0,0,2.43,1.9l.07,0v.09c-.05.9-.1,1.89-.15,2.89l-.1-.15,4.6,1.29-.17.07,1.38-2.54,0-.08h.09a11.15,11.15,0,0,0,3.05-.36h0l.08,0,.06.06,1.94,2.15-.18,0,4.17-2.34-.07.17c-.28-.93-.55-1.86-.82-2.77l0-.09.06-.06A11.38,11.38,0,0,0,452,203.1l0-.07h.09l2.89.15-.15.11c.45-1.57.88-3.11,1.3-4.61l.07.16-2.54-1.38-.07,0v-.08a11.5,11.5,0,0,0-.36-3.06l0-.08.06,0,2.14-1.93,0,.15-2.33-4.17.13.05-2.77.82h-.06l-.05,0a12.06,12.06,0,0,0-2.42-1.92l-.05,0V187c.06-1.05.11-2,.16-2.88l.06.09-4.6-1.32.08,0-1.4,2.53v0h0a12.73,12.73,0,0,0-2.33.17l-.57.11-.19,0s.06,0,.18-.06l.57-.13a11.7,11.7,0,0,1,2.34-.23l0,0,1.36-2.55,0-.05,0,0,4.61,1.27.06,0v.07c0,.89-.09,1.83-.14,2.88l0-.08a11.76,11.76,0,0,1,2.47,1.93l-.1,0,2.76-.83.09,0,0,.08q1.13,2,2.35,4.16l.05.09-.07.06-2.14,1.94,0-.12a11.93,11.93,0,0,1,.37,3.13l-.07-.12,2.55,1.37.09.05,0,.11-1.29,4.6,0,.11H455l-2.89-.14.13-.07a11.54,11.54,0,0,1-1.94,2.48l0-.14c.28.91.55,1.83.83,2.77l0,.11-.1.05-4.17,2.35-.1,0-.08-.08-1.94-2.15.15.05h0a12.24,12.24,0,0,1-3.14.37l.14-.08c-.48.87-.95,1.74-1.38,2.54l-.06.1-.11,0-4.6-1.29-.11,0v-.12c.05-1,.1-2,.15-2.88l.07.13a12.26,12.26,0,0,1-2.48-2l.14,0-2.77.82-.1,0-.06-.09-2.33-4.18-.05-.09.08-.07,2.14-1.93,0,.13a12,12,0,0,1-.36-3.13l.06.1-2.54-1.38-.08,0,0-.09c.45-1.62.89-3.15,1.3-4.6l0-.08H429l2.88.16-.09,0a12,12,0,0,1,1.95-2.47l0,.09c-.29-1-.56-1.93-.81-2.77l0-.06.06,0,4.18-2.32,0,0,0,0,1.41,1.61.37.42A.8.8,0,0,1,439,185.77Z" style="fill:#263238"></path><path d="M429.92,127l-22.77-2.72a2.87,2.87,0,0,1-2.51-3.19l3.75-31.53A2.87,2.87,0,0,1,411.58,87L426,88.76l9.81,12.86-2.73,22.85A2.87,2.87,0,0,1,429.92,127Z" style="fill:#ebebeb"></path><path d="M429.92,127a3.37,3.37,0,0,1,.5,0,2.69,2.69,0,0,0,1.34-.46,2.78,2.78,0,0,0,1.23-1.86q.15-1.4.36-3.18c.55-4.8,1.33-11.63,2.27-19.86l0,.15-9.83-12.83L426,89l-8.34-1-4.36-.52c-.72-.07-1.51-.22-2.18-.22a2.6,2.6,0,0,0-1.8.85,2.53,2.53,0,0,0-.64,1.26c-.07.48-.12,1-.19,1.53-.12,1-.24,2.06-.37,3.08-.24,2-.48,4-.72,6-.47,3.94-.93,7.74-1.37,11.36-.22,1.81-.43,3.58-.64,5.3-.1.85-.21,1.7-.31,2.53l-.15,1.24a7,7,0,0,0-.09,1.18,2.69,2.69,0,0,0,2,2.37c.33.08.73.11,1.1.16l4.29.53,13,1.63,3.52.47.91.13a1,1,0,0,1,.31.07l-.31,0-.92-.08-3.54-.37-13-1.47-4.3-.49a10.16,10.16,0,0,1-1.16-.17,2.94,2.94,0,0,1-1.11-.54,3.09,3.09,0,0,1-1.19-2.19,6.39,6.39,0,0,1,.09-1.26c0-.41.09-.83.14-1.24.1-.83.2-1.68.3-2.54.2-1.71.4-3.48.62-5.29.42-3.63.87-7.43,1.34-11.37.23-2,.47-4,.71-6l.36-3.08c.07-.52.11-1,.2-1.57a3,3,0,0,1,.76-1.51,3.12,3.12,0,0,1,2.17-1c.83,0,1.51.15,2.26.22l4.36.52,8.34,1h.1l.07.08L436,101.49l.05.07v.09c-1,8.22-1.86,15-2.46,19.84-.15,1.2-.27,2.25-.41,3.18a2.93,2.93,0,0,1-1.34,1.94,2.78,2.78,0,0,1-1.41.42A1.81,1.81,0,0,1,429.92,127Z" style="fill:#263238"></path><path d="M426,88.76,425,97.64a2.67,2.67,0,0,0,2.34,3l8.53,1Z" style="fill:#f5f5f5"></path><path d="M425,98.43a3,3,0,0,0,2,3.14,1.43,1.43,0,0,0,.27.09c1.1.34,8.27,2.52,8.29,2.35s.29-2.39.29-2.39l-8.53-1S425.18,100.28,425,98.43Z" style="fill:#e0e0e0"></path><path d="M423.1,97.05a35.58,35.58,0,0,1-5.29-.42,32.93,32.93,0,0,1-5.24-.84,35.58,35.58,0,0,1,5.29.42A32.93,32.93,0,0,1,423.1,97.05Z" style="fill:#263238"></path><path d="M429.31,102.88c0,.11-3.91-.26-8.69-.83s-8.67-1.13-8.65-1.24a86.92,86.92,0,0,1,8.7.83C425.45,102.21,429.33,102.76,429.31,102.88Z" style="fill:#263238"></path><path d="M430.37,107.25c0,.12-4.25-.3-9.47-.92s-9.44-1.22-9.43-1.33,4.26.3,9.48.92S430.39,107.14,430.37,107.25Z" style="fill:#263238"></path><path d="M429.9,111.2c0,.12-4.25-.29-9.47-.92S411,109.06,411,109s4.25.3,9.48.92S429.92,111.09,429.9,111.2Z" style="fill:#263238"></path><path d="M429.43,115.16c0,.11-4.25-.3-9.47-.92s-9.45-1.22-9.43-1.34,4.25.3,9.47.92S429.45,115,429.43,115.16Z" style="fill:#263238"></path><path d="M429,119.11c0,.11-4.26-.3-9.48-.92s-9.44-1.22-9.42-1.34,4.25.3,9.47.93S429,119,429,119.11Z" style="fill:#263238"></path><path d="M435.84,101.62a20.26,20.26,0,0,1-3.2-.19l-3.45-.36-2.05-.23a2.93,2.93,0,0,1-2-1.15,2.12,2.12,0,0,1-.44-1.16,7.9,7.9,0,0,1,.08-1.13c.09-.7.18-1.38.26-2l.47-3.44a20.06,20.06,0,0,1,.56-3.16,19.66,19.66,0,0,1-.2,3.2c-.1,1-.22,2.2-.35,3.46-.08.65-.15,1.33-.23,2a2.4,2.4,0,0,0,.27,1.93c.82,1.17,2.45,1,3.71,1.2l3.45.47A19.76,19.76,0,0,1,435.84,101.62Z" style="fill:#263238"></path><path d="M298,50.31a8.91,8.91,0,0,0,5.3-8.23A8.36,8.36,0,1,0,286.64,42a8.89,8.89,0,0,0,5.32,8.3c-12.84,1.94-12.25,15.89-12.25,15.89l30.35.14S310.75,52.23,298,50.31Z" style="fill:#407BFF"></path></g><g id="freepik--Fingerprint--inject-9"><circle cx="392.52" cy="271.22" r="1.88" style="fill:#263238"></circle><path d="M392.52,271.22a3.32,3.32,0,0,1-.66,0l-1.89.05-7,.08-23,.08h-7.32l-.08-.13c-3.49-6.35-6.62-11.84-9-15.7-1.17-1.92-2.15-3.44-2.87-4.44a8.22,8.22,0,0,0-.9-1.08.81.81,0,0,0-.29-.19c-.07,0-.11,0-.11,0s0-.06.12-.05a.67.67,0,0,1,.34.17,6.84,6.84,0,0,1,1,1c.78,1,1.79,2.47,3,4.38,2.42,3.82,5.61,9.28,9.13,15.63l-.22-.14h7.17l23,.07,7,.09,1.89,0A2.78,2.78,0,0,1,392.52,271.22Z" style="fill:#263238"></path><circle cx="395.38" cy="112.98" r="1.88" style="fill:#263238"></circle><path d="M395.38,113a2.25,2.25,0,0,1-.61,0l-1.74,0-6.43.08-21.19.08h-9.68l.18-.08-9.82,10.76c-1.19,1.28-2.15,2.32-2.87,3.08l-.78.8c-.18.18-.28.27-.29.26a1.62,1.62,0,0,1,.23-.31l.72-.86,2.76-3.17,9.69-10.89.07-.09h9.79l21.19.08,6.43.08,1.74.05A2.92,2.92,0,0,1,395.38,113Z" style="fill:#263238"></path><path d="M303,322.41a2.89,2.89,0,1,1,.48-4.06A2.88,2.88,0,0,1,303,322.41Z" style="fill:#263238"></path><path d="M300.91,319.73c-.14,0-1.69-12.67-3.45-28.34S294.39,263,294.53,263s1.69,12.68,3.45,28.35S301.05,319.72,300.91,319.73Z" style="fill:#263238"></path><circle cx="295.1" cy="73.39" r="1.88" style="fill:#263238"></circle><path d="M294.88,73.39c.15,0,.26,6.52.26,14.57s-.11,14.58-.26,14.58S294.62,96,294.62,88,294.74,73.39,294.88,73.39Z" style="fill:#263238"></path><circle cx="416.01" cy="189.5" r="1.88" style="fill:#263238"></circle><path d="M415.35,189.5c0,.14-8.69.26-19.41.26s-19.41-.12-19.41-.26,8.69-.26,19.41-.26S415.35,189.35,415.35,189.5Z" style="fill:#263238"></path><path d="M287.61,274.85h-.26l-.74-.06-2.88-.25c-1.27-.07-2.8-.33-4.6-.6s-3.83-.69-6.1-1.16a97.54,97.54,0,0,1-15.72-5.06,91.81,91.81,0,0,1-9-4.33,73.19,73.19,0,0,1-9.24-5.89l.26,0L223.52,265l-.44.21.07-.48c.21-1.33.43-2.76.66-4.19.84-5.36,1.66-10.58,2.45-15.58l.08.23a71.45,71.45,0,0,1-14.07-18.29,81,81,0,0,1-6.84-17.09,79.08,79.08,0,0,1-2.33-12c-.16-1.42-.24-2.52-.27-3.26,0-.35,0-.63,0-.85s0-.28,0-.28a1.18,1.18,0,0,1,0,.28c0,.21,0,.49.07.84.06.74.17,1.84.35,3.25a85,85,0,0,0,2.48,11.89,81.58,81.58,0,0,0,6.91,17,71.7,71.7,0,0,0,14,18.13l.1.09,0,.13c-.78,5-1.6,10.22-2.44,15.58-.22,1.43-.44,2.86-.65,4.19l-.37-.28,15.8-7.44.14-.06.12.09a74,74,0,0,0,9.16,5.88,93.61,93.61,0,0,0,9,4.34,100.79,100.79,0,0,0,15.62,5.15c2.26.49,4.28,1,6.07,1.22s3.32.57,4.57.68l2.88.33.74.09A1.43,1.43,0,0,1,287.61,274.85Z" style="fill:#263238"></path><path d="M306,133.4a66.19,66.19,0,0,0-28.83,1.16.62.62,0,0,0,.34,1.2,64.83,64.83,0,0,1,28.16-1.15c.78.14,1.12-1.06.33-1.21Z" style="fill:#407BFF"></path><path d="M314.11,139.91a60.61,60.61,0,0,0-44.74,1.7c-.73.33-.1,1.4.63,1.08a59.26,59.26,0,0,1,43.77-1.57c.76.27,1.09-.94.34-1.21Z" style="fill:#407BFF"></path><path d="M319.82,146c-13.6-4.91-29.1-7.21-43.16-2.88a44.21,44.21,0,0,0-12.56,6.16c-.65.46,0,1.55.63,1.08,12.94-9.14,29.41-9.71,44.39-6.23a90.63,90.63,0,0,1,10.36,3.08c.76.27,1.09-.93.34-1.21Z" style="fill:#407BFF"></path><path d="M324.24,152.74c-14.77-8.21-32.93-10.38-48.89-4.41a57,57,0,0,0-14.62,8.14c-.63.48,0,1.57.64,1.08a54.89,54.89,0,0,1,25.36-10.85,57.82,57.82,0,0,1,24.9,2,60.63,60.63,0,0,1,12,5.08c.71.39,1.34-.69.64-1.08Z" style="fill:#407BFF"></path><path d="M327.5,159.93c-15.24-12.31-36.43-14.36-54-6A60.23,60.23,0,0,0,258,164.55c-.58.56.3,1.44.89.89A56.12,56.12,0,0,1,286.16,151a49.87,49.87,0,0,1,27.31,2.27,48.21,48.21,0,0,1,13.14,7.56c.62.5,1.51-.38.89-.88Z" style="fill:#407BFF"></path><path d="M296.48,152.69a46.69,46.69,0,0,0-21.69,4.43,50.81,50.81,0,0,0-18.57,15.43c-.48.64.6,1.26,1.08.63,9.32-12.29,23.64-19.81,39.18-19.24.8,0,.8-1.22,0-1.25Z" style="fill:#407BFF"></path><path d="M330,168.36a49.81,49.81,0,0,0-19.75-13c-.76-.27-1.08.94-.33,1.21a48.49,48.49,0,0,1,19.2,12.71c.55.59,1.43-.29.88-.88Z" style="fill:#407BFF"></path><path d="M331.45,177.65c-6.45-10.18-16.61-17.8-28.54-20.13a41.31,41.31,0,0,0-32.67,7.56,49.25,49.25,0,0,0-14,17c-.36.71.72,1.35,1.08.63,5.62-11,15-19.89,27-23.28A40.26,40.26,0,0,1,316.09,164a44.64,44.64,0,0,1,14.28,14.27c.43.68,1.51.05,1.08-.63Z" style="fill:#407BFF"></path><path d="M332,189.43a37.59,37.59,0,0,0-62.46-18.1c-6.67,6.26-11,14.59-13.4,23.32a.63.63,0,0,0,1.21.33c3.92-14.06,13.19-26.84,27.62-31.23a36.58,36.58,0,0,1,34.41,7.32,37.66,37.66,0,0,1,11.41,18.7.63.63,0,0,0,1.21-.34Z" style="fill:#407BFF"></path><path d="M260.36,203c.46-9.28,3.14-18.71,9.46-25.75a32.18,32.18,0,0,1,19.48-10.21,35.67,35.67,0,0,1,21.2,3.63,31.67,31.67,0,0,1,14.88,16.07c3.09,7.63,2.46,15.75,1.16,23.73a11.73,11.73,0,0,0-.09,3.83c.13.8,1.33.46,1.21-.33a17.33,17.33,0,0,1,.41-5.27c.26-1.78.47-3.56.62-5.35a51.26,51.26,0,0,0,.07-8,29.39,29.39,0,0,0-1.47-7,32.75,32.75,0,0,0-14.24-17.66,36.94,36.94,0,0,0-21.63-5.1,33.77,33.77,0,0,0-20.69,9c-6.71,6.35-10.17,15.23-11.27,24.26-.17,1.4-.28,2.8-.35,4.21,0,.81,1.21.8,1.25,0Z" style="fill:#407BFF"></path><path d="M324,219.91a20.08,20.08,0,0,1-.89-6c.09-1.27.27-2.53.39-3.79.25-2.4.49-4.8.7-7.2a44.44,44.44,0,0,0,.35-5.28.63.63,0,0,0-1.25,0,44.44,44.44,0,0,1-.35,5.28q-.33,3.7-.72,7.4c-.12,1.24-.32,2.5-.39,3.74a22.5,22.5,0,0,0,1,6.18c.18.78,1.39.45,1.2-.34Z" style="fill:#407BFF"></path><path d="M265,205.8c.23-13.16,5.07-27.11,17.65-33.15a28.79,28.79,0,0,1,29.58,3.16,27.54,27.54,0,0,1,9.84,15.4c.19.78,1.4.45,1.21-.33a29,29,0,0,0-23.25-21.74,29.57,29.57,0,0,0-29.49,12.39c-4.86,7.09-6.64,15.8-6.79,24.27a.63.63,0,0,0,1.25,0Z" style="fill:#407BFF"></path><path d="M268.94,224.54a.63.63,0,0,0,0-1.25.63.63,0,0,0,0,1.25Z" style="fill:#407BFF"></path><path d="M320.82,223.25c-3.11-10.5.89-21.48-1.3-32.11a21.09,21.09,0,0,0-6.83-12,26,26,0,0,0-12.31-5.62c-7.05-1.27-14.73-.35-20.61,3.93-5.45,4-8.55,9.86-10.46,16.18-3,9.85-2.93,20.38-1,30.41.15.79,1.36.46,1.21-.33a63.45,63.45,0,0,1,.22-27c1.45-6,3.85-12,8.39-16.28,5-4.75,11.52-6.53,18.38-6.11,9.6.59,18.74,5.83,21.39,15.52,3,11.06-1.59,22.67,1.68,33.72a.63.63,0,0,0,1.21-.33Z" style="fill:#407BFF"></path><path d="M272.35,198.06C271,208.41,272,219,273,229.27c.08.79,1.33.8,1.25,0-1-10.32-2-20.86-.65-31.21.1-.79-1.15-.78-1.25,0Z" style="fill:#407BFF"></path><path d="M318,226.66c-4.42-4.27-4.31-10.85-3.34-16.47,1-6,2.68-12,.86-18.06a21.59,21.59,0,0,0-23.18-15.24,20.69,20.69,0,0,0-14,7.88c-.49.65.6,1.27,1.08.64,6.24-8.32,18.91-9.74,27.18-3.73a21,21,0,0,1,8.05,12.15c1.41,6.22-.84,12.41-1.6,18.56-.67,5.32,0,11.24,4,15.15.58.56,1.46-.33.88-.88Z" style="fill:#407BFF"></path><path d="M314.13,228.38c-4-4-4.51-9.79-3.9-15.12.35-3.09,1-6.15,1.44-9.23a38,38,0,0,0,.78-8.36c-.66-9.08-9.6-15.1-18.18-15.14-7.6,0-13.51,5.74-16.5,12.27a20.82,20.82,0,0,0-1.51,5.91,63.65,63.65,0,0,0,0,14.07c.61,6.69,1.22,13.38,1.68,20.08,0,.8,1.3.81,1.25,0-.33-4.77-.75-9.54-1.16-14.31-.68-7.76-2.08-16.24.32-23.86,1.83-5.82,6.85-11.25,12.9-12.62,8.64-2,19.23,4.41,19.92,13.6.25,3.22-.48,6.51-1,9.67s-1.13,6.2-1.38,9.34c-.41,5.22.54,10.78,4.41,14.59.57.56,1.46-.32.88-.89Z" style="fill:#407BFF"></path><path d="M311.51,232c-5.93-7-5.89-16.22-4.27-24.77.87-4.58,2.78-9.49,1.26-14.14a12.33,12.33,0,0,0-7.24-7.31c-6.69-2.75-15.31-.15-18.82,6.32-1.74,3.23-2.25,7.09-2.53,10.69a77,77,0,0,0-.1,9.24c.36,8,1.14,16.6,4.47,24,.33.73,1.41.1,1.08-.63-2.91-6.43-3.69-13.92-4.16-20.89-.42-6.25-.62-13,1.22-19a13.81,13.81,0,0,1,17.5-8.85c3.71,1.2,6.93,4.11,7.69,8,.9,4.59-1.13,9.45-1.88,13.95-1.41,8.54-.94,17.41,4.89,24.28.52.62,1.4-.27.89-.88Z" style="fill:#407BFF"></path><path d="M308.3,235a73.31,73.31,0,0,1-5.8-14.09,27.62,27.62,0,0,1-.95-7.57,30.59,30.59,0,0,1,1.38-7.52c1.09-3.88,2.1-8.08.28-11.91a8.2,8.2,0,0,0-9.08-4.29c-4.52.81-7.58,4.64-8.94,8.8-.25.77,1,1.1,1.21.34,1.23-3.77,4-7.23,8.06-7.93a7,7,0,0,1,8.38,6.07c.73,4.34-1.35,8.5-2.14,12.68a27.19,27.19,0,0,0,.77,12.32,78.62,78.62,0,0,0,5.75,13.73c.36.72,1.44.09,1.08-.63Z" style="fill:#407BFF"></path><path d="M288.4,219.41c1,7.17,4.13,13.68,6.89,20.28.3.73,1.51.41,1.2-.33-2.7-6.48-5.91-12.92-6.84-20-.1-.79-1.35-.8-1.25,0Z" style="fill:#407BFF"></path><path d="M303.87,236.52a45.46,45.46,0,0,1-6.61-21.7,44.16,44.16,0,0,1,1-11.35c.65-2.95,1.84-6.95-1.23-9s-6,1.13-7.14,3.77c-.32.73.75,1.37,1.07.63.72-1.62,2.05-3.93,4.13-3.8,3,.19,2.9,4,2.44,6A53.87,53.87,0,0,0,296,213.55a46.73,46.73,0,0,0,6.81,23.6c.42.68,1.5.06,1.08-.63Z" style="fill:#407BFF"></path><path d="M300.51,237.33c-6.84-11.31-8.1-24.74-5.82-37.57.14-.78-1.06-1.12-1.2-.33-2.34,13.16-1.08,26.93,5.94,38.53a.63.63,0,0,0,1.08-.63Z" style="fill:#407BFF"></path><path d="M290,237.87c-7-14.46-5.72-34.41-5.7-34.61l1,.07c0,.2-1.28,19.88,5.61,34.1Z" style="fill:#407BFF"></path><path d="M289.15,200.44a34.39,34.39,0,0,0-1.36,15.41c.11.79,1.31.45,1.21-.34a32.76,32.76,0,0,1,1.36-14.74c.25-.76-1-1.09-1.21-.33Z" style="fill:#407BFF"></path><path d="M284.74,200.11l-.12.67a.52.52,0,0,0,0,.25.49.49,0,0,0,.08.23.44.44,0,0,0,.16.17.36.36,0,0,0,.21.11l.17,0a.59.59,0,0,0,.31-.09l.13-.1a.57.57,0,0,0,.16-.27l.12-.67a.53.53,0,0,0,0-.25.49.49,0,0,0-.08-.23.46.46,0,0,0-.16-.18.53.53,0,0,0-.21-.11l-.17,0a.68.68,0,0,0-.31.08l-.13.1a.61.61,0,0,0-.16.28Z" style="fill:#407BFF"></path><path d="M276.75,186.53a19.86,19.86,0,0,0-4,7.1A.63.63,0,0,0,274,194a18.27,18.27,0,0,1,3.65-6.54c.53-.61-.35-1.5-.88-.89Z" style="fill:#407BFF"></path><path d="M323.37,193.68l.12,1a.52.52,0,0,0,.05.24.6.6,0,0,0,.57.38.67.67,0,0,0,.45-.18.62.62,0,0,0,.18-.44l-.12-1a.39.39,0,0,0-.05-.24.53.53,0,0,0-.13-.2.62.62,0,0,0-.44-.18.6.6,0,0,0-.44.18.58.58,0,0,0-.19.44Z" style="fill:#407BFF"></path><path d="M307.77,154.53a41.72,41.72,0,0,0-8.44-1.64.63.63,0,1,0,0,1.25,39.79,39.79,0,0,1,8.1,1.6c.77.25,1.1-1,.34-1.21Z" style="fill:#407BFF"></path><path d="M263.52,210.72a47.26,47.26,0,0,0,.46,6.06.62.62,0,0,0,1.2-.34,45.57,45.57,0,0,1-.41-5.72.63.63,0,0,0-1.25,0Z" style="fill:#407BFF"></path><path d="M258.74,206.9l-.09,1.22a.61.61,0,0,0,.62.62.65.65,0,0,0,.44-.18.73.73,0,0,0,.19-.44l.09-1.22a.63.63,0,0,0-.19-.44.59.59,0,0,0-.44-.18.65.65,0,0,0-.44.18.67.67,0,0,0-.18.44Z" style="fill:#407BFF"></path><path d="M271,137.53l2.92-1.3a.63.63,0,0,0-.63-1.08l-2.92,1.3a.63.63,0,0,0,.63,1.08Z" style="fill:#407BFF"></path><path d="M331.18,192.34a21.53,21.53,0,0,1,.75,6.87c0,.81,1.21.8,1.25,0a22.45,22.45,0,0,0-.79-7.2.63.63,0,0,0-1.21.33Z" style="fill:#407BFF"></path><path d="M332.25,180.4l.6,2a.62.62,0,0,0,.76.43.63.63,0,0,0,.44-.77l-.6-2a.62.62,0,1,0-1.2.33Z" style="fill:#407BFF"></path><path d="M367.61,183.22s0-.39-.06-1.17,0-1.94-.16-3.45a73,73,0,0,0-2.07-13.08,71.37,71.37,0,0,0-3-9.09,69.22,69.22,0,0,0-5-10.2,73.24,73.24,0,0,0-18.39-20.55,72.3,72.3,0,0,0-49.1-14.53,72.6,72.6,0,0,0-9.69,1.36,76.38,76.38,0,0,0-9.66,2.76,72.44,72.44,0,0,0-33.6,25.2A70.06,70.06,0,0,0,231,150c-.89,1.65-1.65,3.38-2.43,5.1s-1.42,3.52-2,5.34a72.28,72.28,0,0,0,0,45.63c.58,1.82,1.3,3.58,2,5.34s1.53,3.46,2.42,5.11a71.08,71.08,0,0,0,5.89,9.49,72.5,72.5,0,0,0,33.61,25.21,76.38,76.38,0,0,0,9.66,2.76,72.56,72.56,0,0,0,9.69,1.35,71.46,71.46,0,0,0,18.65-1,72.31,72.31,0,0,0,30.45-13.5,73.34,73.34,0,0,0,18.4-20.56,70,70,0,0,0,5-10.19,71.48,71.48,0,0,0,3-9.1,72.85,72.85,0,0,0,2.07-13.08c.14-1.51.11-2.67.16-3.44s.06-1.18.06-1.18,0,1.6-.11,4.63a70.5,70.5,0,0,1-4.93,22.26,70.83,70.83,0,0,1-5,10.25,73.4,73.4,0,0,1-18.43,20.7,72.56,72.56,0,0,1-49.35,14.69A73,73,0,0,1,280,254.4a79.3,79.3,0,0,1-9.74-2.77,72.93,72.93,0,0,1-33.85-25.36,72,72,0,0,1-5.93-9.55c-.9-1.67-1.66-3.41-2.45-5.15s-1.43-3.54-2-5.38a72.71,72.71,0,0,1,0-45.95c.58-1.83,1.3-3.6,2-5.38s1.54-3.47,2.44-5.14a71,71,0,0,1,5.94-9.55,73,73,0,0,1,33.84-25.36,77.52,77.52,0,0,1,9.74-2.76,71.39,71.39,0,0,1,9.75-1.35,72.19,72.19,0,0,1,18.75,1,72.7,72.7,0,0,1,30.6,13.63,73.33,73.33,0,0,1,18.42,20.7,70,70,0,0,1,5,10.26,70.31,70.31,0,0,1,4.93,22.26C367.65,181.63,367.61,183.22,367.61,183.22Z" style="fill:#263238"></path><path d="M295.1,263.46a81.21,81.21,0,0,1,0-162.42,1.5,1.5,0,0,1,0,3,78.21,78.21,0,1,0,78.2,78.21,1.5,1.5,0,1,1,3,0A81.3,81.3,0,0,1,295.1,263.46Z" style="fill:#263238"></path></g></svg>
