<?xml version="1.0" encoding="utf-8"?>
<!-- Generator: Adobe Illustrator 27.5.0, SVG Export Plug-In . SVG Version: 6.00 Build 0)  -->
<svg version="1.1" id="Capa_1" xmlns="http://www.w3.org/2000/svg" xmlns:xlink="http://www.w3.org/1999/xlink" x="0px" y="0px"
	 viewBox="0 0 425.196 358.494" style="enable-background:new 0 0 425.196 358.494;" xml:space="preserve">
<rect style="fill:#F9B233;" width="425.196" height="358.494"/>
<path style="fill:#CA862A;" d="M213.716,296.308c0,3.48-2.82,6.3-6.3,6.3H76.337c-3.479,0-6.3-2.82-6.3-6.3l0,0
	c0-3.479,2.82-6.3,6.3-6.3h131.079C210.895,290.008,213.716,292.828,213.716,296.308L213.716,296.308z"/>
<path style="fill:#CA862A;" d="M364.373,305.305c0,3.48-3.308,6.3-7.389,6.3H203.252c-4.081,0-7.389-2.82-7.389-6.3l0,0
	c0-3.479,3.308-6.3,7.389-6.3l184.285-19.977C391.618,279.028,371.464,296.767,364.373,305.305L364.373,305.305z"/>
<path style="fill:#FFFFFF;" d="M394.031,188.986H290.663c-6.895,0-12.485-6.805-12.485-15.199c0-8.393,5.59-15.198,12.485-15.198
	h103.368c6.896,0,12.486-6.805,12.486-15.199c0-8.393-5.591-15.199-12.486-15.199h-41.285c6.896,0,12.486-6.804,12.486-15.198
	c0-8.393-5.591-15.199-12.486-15.199h-68.431c-6.897,0-12.486-6.804-12.486-15.198c0-8.393,5.589-15.198,12.486-15.198h46.958
	c6.897,0,12.487-6.805,12.487-15.199c0-8.393-5.59-15.199-12.487-15.199H26.902c-6.896,0-12.487,6.806-12.487,15.199
	c0,8.394,5.591,15.199,12.487,15.199h21.471c-6.896,0-12.487,6.805-12.487,15.198c0,8.394,5.591,15.198,12.487,15.198h49.211
	c6.896,0,12.486,6.806,12.486,15.199c0,8.394-5.59,15.198-12.486,15.198H48.373c-6.896,0-12.487,6.806-12.487,15.199
	c0,8.394,5.591,15.199,12.487,15.199h100.402c6.896,0,12.486,6.805,12.486,15.198c0,8.395-5.59,15.199-12.486,15.199H48.373
	c-6.896,0-12.487,6.805-12.487,15.198c0,8.394,5.591,15.199,12.487,15.199h27.74c6.897,0,12.486,6.805,12.486,15.198
	c0,8.395-5.59,15.198-12.486,15.198H26.902c-6.896,0-12.487,6.806-12.487,15.199c0,8.394,5.591,15.198,12.487,15.198H372.56
	c6.897,0,12.487-6.804,12.487-15.198c0-8.393-5.59-15.199-12.487-15.199h-41.286c6.897,0,12.487-6.804,12.487-15.198
	c0-8.393-5.59-15.198-12.487-15.198h62.758c6.896,0,12.486-6.805,12.486-15.199C406.518,195.792,400.927,188.986,394.031,188.986z"
	/>
<g>
	<path style="fill:#DADADA;" d="M257.042,262.993c0,8.796-1.82,10.616-10.616,10.616H62.572c-8.799,0-10.617-1.82-10.617-10.616
		V151.158c0-8.798,1.818-10.619,10.617-10.619h183.854c8.796,0,10.616,1.82,10.616,10.619V262.993z"/>
	<rect x="57.597" y="148.851" style="fill:#45BABD;" width="193.804" height="101.527"/>
	<rect x="57.597" y="148.851" style="fill:#007A86;" width="193.804" height="12.436"/>
	<polygon style="opacity:0.5;fill:#AEC8D7;" points="57.597,250.377 57.597,148.851 251.4,148.851 	"/>
	<g>
		<line style="fill:#FFFFFF;" x1="51.955" y1="250.377" x2="257.042" y2="250.377"/>
		<path style="fill:#9D9D9C;" d="M51.955,250.377c0,0,3.205-0.093,8.813-0.257c5.607-0.107,13.619-0.367,23.232-0.487
			c9.613-0.117,20.829-0.338,32.846-0.422c6.009-0.037,12.217-0.075,18.525-0.114c6.31-0.016,12.719-0.031,19.127-0.046
			c6.41,0.015,12.818,0.03,19.127,0.045c6.309,0.039,12.518,0.076,18.526,0.113c12.017,0.079,23.232,0.306,32.846,0.422
			c9.614,0.118,17.624,0.382,23.232,0.489c5.608,0.165,8.812,0.258,8.812,0.258s-3.204,0.094-8.812,0.258
			c-5.608,0.107-13.618,0.371-23.232,0.489c-9.613,0.116-20.829,0.343-32.846,0.422c-6.009,0.037-12.218,0.074-18.526,0.113
			c-6.309,0.015-12.717,0.03-19.127,0.045c-6.408-0.016-12.817-0.031-19.127-0.046c-6.309-0.039-12.517-0.077-18.525-0.114
			c-12.017-0.083-23.232-0.305-32.846-0.422c-9.613-0.12-17.625-0.38-23.232-0.487C55.16,250.471,51.955,250.377,51.955,250.377z"/>
	</g>
	<rect x="134.143" y="273.609" style="fill:#BEBEBE;" width="40.709" height="10.838"/>
	<polygon style="fill:#DADADA;" points="187.959,295.286 118.488,295.286 134.322,284.448 175.03,284.448 	"/>
	<rect x="118.488" y="295.286" style="fill:#979696;" width="69.471" height="2.963"/>
	<path style="fill:#FFFFFF;" d="M224.108,155.024c0,1.344-1.089,2.433-2.435,2.433c-1.342,0-2.432-1.089-2.432-2.433
		c0-1.344,1.09-2.434,2.432-2.434C223.02,152.59,224.108,153.68,224.108,155.024z"/>
	<path style="fill:#FFFFFF;" d="M235.287,155.024c0,1.344-1.088,2.433-2.433,2.433c-1.345,0-2.435-1.089-2.435-2.433
		c0-1.344,1.09-2.434,2.435-2.434C234.199,152.59,235.287,153.68,235.287,155.024z"/>
	<path style="fill:#FFFFFF;" d="M246.465,155.024c0,1.344-1.09,2.433-2.434,2.433c-1.344,0-2.433-1.089-2.433-2.433
		c0-1.344,1.089-2.434,2.433-2.434C245.375,152.59,246.465,153.68,246.465,155.024z"/>
	<path style="fill:#FFFFFF;" d="M179.193,155.024c0,1.344-1.088,2.433-2.433,2.433H64.151c-1.345,0-2.433-1.089-2.433-2.433l0,0
		c0-1.344,1.088-2.434,2.433-2.434h112.609C178.105,152.59,179.193,153.68,179.193,155.024L179.193,155.024z"/>
</g>
<g>
	<g>
		<path style="fill:#E18A3C;" d="M296.639,278.023c0,4.207-21.979,24.5-21.979,24.5l-58.282-2.507c-4.207,0-7.617-3.41-7.617-7.616
			l-2.098-58.339c0,0,20.602-21.204,24.809-21.204h57.549c4.207,0,7.617,3.411,7.617,7.617V278.023z"/>
		<path style="fill:#C97D36;" d="M296.639,278.023c0,4.207-21.979,24.5-21.979,24.5l-3.949-60.154l25.928-21.895V278.023z"/>
		<g>
			<path style="fill:#F6A654;" d="M276.748,297.688c0,4.207-3.41,7.617-7.617,7.617h-57.549c-4.205,0-7.617-3.41-7.617-7.617V240.14
				c0-4.206,3.412-7.617,7.617-7.617h57.549c4.207,0,7.617,3.411,7.617,7.617V297.688z"/>
			<g>
				<path style="fill:#C06A32;" d="M206.663,266.868c0,0-0.271-0.218-0.462-0.545c-0.203-0.327-0.35-0.764-0.346-1.2
					c-0.006-0.436,0.141-0.873,0.344-1.2c0.192-0.327,0.464-0.546,0.464-0.546s0.271,0.218,0.464,0.546
					c0.203,0.327,0.35,0.764,0.344,1.2c0.004,0.436-0.143,0.872-0.346,1.2C206.934,266.649,206.663,266.868,206.663,266.868z"/>
			</g>
			<g>
				<path style="fill:#C06A32;" d="M206.663,277.818c0,0-0.271-0.337-0.462-0.843c-0.203-0.506-0.35-1.18-0.346-1.855
					c-0.006-0.674,0.141-1.349,0.344-1.854c0.192-0.505,0.464-0.843,0.464-0.843s0.271,0.337,0.464,0.843
					c0.203,0.506,0.35,1.18,0.344,1.854c0.004,0.675-0.143,1.349-0.346,1.855C206.934,277.48,206.663,277.818,206.663,277.818z"/>
			</g>
			<g>
				<path style="fill:#C06A32;" d="M225.229,302.607c0,0-2.311,0.27-5.778,0.461c-0.866,0.05-1.806,0.105-2.798,0.139
					c-0.497,0.02-1.008,0.041-1.529,0.062c-0.26,0.009-0.523,0.018-0.789,0.027l-0.401,0.01l-0.202,0.005l-0.273-0.018
					c-0.27-0.021-0.542-0.041-0.816-0.062l-0.413-0.031l-0.465-0.122c-0.311-0.089-0.626-0.178-0.942-0.268
					c-0.313-0.097-0.564-0.277-0.852-0.416c-1.143-0.556-2.063-1.505-2.82-2.536l-0.457-0.851c-0.072-0.143-0.154-0.282-0.219-0.429
					l-0.143-0.46l-0.273-0.918c-0.059-0.311-0.072-0.631-0.106-0.944c-0.085-0.654-0.054-1.199-0.038-1.757
					c0.014-0.558,0.027-1.108,0.04-1.65c0.056-2.167,0.144-4.189,0.247-5.922c0.192-3.467,0.464-5.778,0.464-5.778
					s0.271,2.311,0.464,5.778c0.104,1.733,0.191,3.755,0.247,5.922c0.013,0.542,0.026,1.092,0.04,1.65
					c0.017,0.557,0.012,1.142,0.09,1.618c0.033,0.25,0.041,0.506,0.09,0.754l0.236,0.727l0.113,0.365
					c0.054,0.116,0.125,0.224,0.184,0.336l0.37,0.672c0.596,0.821,1.307,1.605,2.22,2.057c0.222,0.111,0.438,0.272,0.661,0.346
					l0.666,0.23l0.332,0.123l0.41,0.051c0.273,0.035,0.545,0.068,0.813,0.103c1.059,0.043,2.082,0.085,3.053,0.124
					c0.992,0.035,1.932,0.089,2.798,0.139C222.918,302.337,225.229,302.607,225.229,302.607z"/>
			</g>
			<g>
				<path style="fill:#C06A32;" d="M232.211,302.607c0,0-0.198,0.27-0.496,0.461c-0.297,0.204-0.693,0.35-1.091,0.346
					c-0.396,0.006-0.794-0.14-1.091-0.344c-0.298-0.192-0.496-0.463-0.496-0.463s0.198-0.271,0.496-0.463
					c0.297-0.204,0.694-0.35,1.091-0.344c0.398-0.004,0.794,0.142,1.091,0.346C232.013,302.337,232.211,302.607,232.211,302.607z"/>
			</g>
			<g>
				<path style="fill:#C06A32;" d="M238.399,302.607c0,0-0.227,0.27-0.57,0.461c-0.342,0.204-0.798,0.35-1.255,0.346
					c-0.455,0.006-0.912-0.14-1.254-0.344c-0.342-0.192-0.57-0.463-0.57-0.463s0.229-0.271,0.57-0.463
					c0.342-0.204,0.799-0.35,1.254-0.344c0.457-0.004,0.913,0.142,1.255,0.346C238.172,302.337,238.399,302.607,238.399,302.607z"/>
			</g>
			<g>
				<path style="fill:#C06A32;" d="M243.954,302.607c0,0-0.179,0.27-0.446,0.461c-0.268,0.204-0.625,0.35-0.982,0.346
					c-0.357,0.006-0.715-0.14-0.982-0.344c-0.268-0.192-0.446-0.463-0.446-0.463s0.179-0.271,0.446-0.463
					c0.268-0.204,0.625-0.35,0.982-0.344c0.357-0.004,0.715,0.142,0.982,0.346C243.775,302.337,243.954,302.607,243.954,302.607z"/>
			</g>
			<g>
				<path style="fill:#C06A32;" d="M274.051,273.534c0,0,0.07,0.83,0.156,2.282c0.069,1.452,0.215,3.527,0.305,6.017
					c0.105,2.49,0.191,5.394,0.248,8.506c0.023,1.556,0.046,3.164,0.07,4.798l0.001,0.307l0.001,0.077l-0.004,0.117l-0.004,0.038
					l-0.015,0.153l-0.059,0.613l-0.058,0.615l-0.199,0.696c-0.135,0.466-0.267,0.941-0.511,1.326
					c-0.232,0.397-0.397,0.841-0.72,1.179c-1.109,1.469-2.744,2.565-4.533,2.923c-0.887,0.155-1.825,0.217-2.587,0.178
					c-0.801-0.014-1.592-0.028-2.37-0.041c-3.111-0.056-6.016-0.143-8.506-0.248c-2.49-0.09-4.564-0.237-6.017-0.306
					c-1.452-0.085-2.282-0.157-2.282-0.157s0.83-0.072,2.282-0.157c1.452-0.069,3.526-0.216,6.017-0.306
					c2.49-0.104,5.395-0.191,8.506-0.247c1.527-0.049,3.261,0.022,4.612-0.236c1.429-0.296,2.718-1.198,3.589-2.372
					c0.269-0.26,0.387-0.621,0.581-0.931c0.214-0.317,0.29-0.649,0.397-0.974l0.169-0.487l0.065-0.614l0.065-0.613l0.017-0.153
					l0.004-0.038c-0.008,0.151-0.002,0.031-0.004,0.06v-0.019l0.001-0.077l0.001-0.307c0.024-1.634,0.047-3.242,0.07-4.798
					c0.057-3.112,0.143-6.017,0.248-8.506c0.09-2.49,0.235-4.564,0.305-6.017C273.98,274.364,274.051,273.534,274.051,273.534z"/>
			</g>
			<g>
				<path style="fill:#C06A32;" d="M274.051,263.22c0,0,0.27,0.228,0.461,0.57c0.204,0.342,0.35,0.798,0.346,1.254
					c0.006,0.456-0.139,0.912-0.344,1.254c-0.191,0.342-0.463,0.57-0.463,0.57s-0.272-0.228-0.463-0.57
					c-0.205-0.342-0.35-0.798-0.344-1.254c-0.004-0.456,0.142-0.912,0.346-1.254C273.781,263.448,274.051,263.22,274.051,263.22z"/>
			</g>
			<g>
				<path style="fill:#C06A32;" d="M206.663,258.141c0,0-0.057-1.674-0.156-4.604c-0.04-1.465-0.087-3.243-0.143-5.284
					c-0.027-1.02-0.057-2.106-0.088-3.25c-0.011-0.572-0.023-1.159-0.036-1.76c-0.004-0.3-0.01-0.604-0.015-0.912
					c0.018-0.395,0.05-0.64,0.075-0.973c-0.011-0.607,0.281-1.316,0.464-1.999c0.333-0.61,0.589-1.293,1.091-1.828
					c0.414-0.607,1.008-1.056,1.583-1.543c0.651-0.372,1.299-0.805,2.063-0.993c0.724-0.304,1.543-0.306,2.32-0.398
					c0.738-0.012,1.484-0.024,2.24-0.037c1.511-0.017,3.055-0.033,4.623-0.05c6.278-0.068,12.975-0.08,19.672-0.098
					c3.348,0.009,6.695,0.018,9.992,0.027c3.295,0.023,6.539,0.046,9.678,0.069c1.57,0.017,3.113,0.033,4.624,0.049
					c0.755,0.012,1.503,0.025,2.24,0.037l0.069,0.001l0.132,0.007l0.138,0.016l0.273,0.032l0.545,0.064
					c0.349,0.012,0.745,0.14,1.134,0.269c0.808,0.199,1.439,0.63,2.094,1.002c0.575,0.488,1.17,0.937,1.584,1.545
					c0.501,0.535,0.758,1.219,1.091,1.828c0.174,0.675,0.465,1.313,0.463,1.99c0.026,0.332,0.063,0.665,0.076,0.983
					c-0.006,0.308-0.011,0.611-0.016,0.912c-0.012,0.601-0.023,1.188-0.035,1.76c-0.031,1.144-0.06,2.23-0.088,3.25
					c-0.056,2.04-0.104,3.819-0.144,5.284c-0.101,2.93-0.157,4.604-0.157,4.604s-0.057-1.674-0.157-4.604
					c-0.04-1.465-0.088-3.243-0.143-5.284c-0.027-1.02-0.057-2.106-0.088-3.25c-0.012-0.572-0.023-1.159-0.035-1.76
					c-0.005-0.3-0.01-0.604-0.016-0.912c-0.023-0.294-0.067-0.578-0.1-0.871c-0.009-0.596-0.299-1.142-0.457-1.726
					c-0.318-0.517-0.545-1.107-1.002-1.551c-0.369-0.516-0.902-0.876-1.4-1.283c-0.57-0.292-1.141-0.653-1.752-0.773
					c-0.514-0.237-1.421-0.225-2.009-0.283c-0.737,0.012-1.485,0.025-2.24,0.037c-1.511,0.016-3.054,0.032-4.624,0.049
					c-3.139,0.022-6.383,0.045-9.678,0.069c-3.297,0.009-6.645,0.018-9.992,0.027c-6.697-0.017-13.394-0.029-19.672-0.098
					c-1.568-0.017-3.112-0.033-4.623-0.05c-0.756-0.012-1.502-0.025-2.24-0.037c-0.684,0.069-1.356,0.029-1.98,0.275
					c-0.654,0.13-1.209,0.491-1.782,0.782c-0.497,0.408-1.032,0.768-1.4,1.284c-0.456,0.444-0.685,1.035-1.001,1.551
					c-0.15,0.576-0.439,1.05-0.457,1.716c-0.034,0.297-0.068,0.591-0.101,0.882c-0.005,0.308-0.011,0.611-0.015,0.912
					c-0.013,0.601-0.025,1.188-0.036,1.76c-0.031,1.144-0.061,2.23-0.088,3.25c-0.056,2.04-0.102,3.819-0.143,5.284
					C206.72,256.467,206.663,258.141,206.663,258.141z"/>
			</g>
			<polygon style="fill:#FFFFFF;" points="248.714,254.41 246.561,252.786 245.223,254.41 243.992,252.558 242.049,254.41 
				240.35,252.815 238.77,254.41 237.237,252.558 235.438,254.41 233.957,252.558 231.999,254.41 231.999,232.523 248.714,232.523 
							"/>
			<rect x="258.949" y="292.44" style="fill:#C36331;" width="7.141" height="7.141"/>
			<rect x="248.714" y="292.44" style="fill:#C36331;" width="7.141" height="7.141"/>
		</g>
	</g>
	<g>
		<path style="fill:#E18A3C;" d="M375.362,279.293c0,4.205-21.979,24.499-21.979,24.499l-58.283-2.507
			c-4.206,0-7.617-3.41-7.617-7.616l-2.096-58.338c0,0,20.601-21.205,24.808-21.205h57.551c4.207,0,7.616,3.41,7.616,7.617V279.293z
			"/>
		<path style="fill:#C97D36;" d="M375.362,279.293c0,4.205-21.979,24.499-21.979,24.499l0.35-63.396l21.629-18.652V279.293z"/>
		<path style="fill:#F6A654;" d="M356.459,297.688c0,4.207-3.41,7.617-7.617,7.617h-57.55c-4.207,0-7.617-3.41-7.617-7.617V240.14
			c0-4.206,3.41-7.617,7.617-7.617h57.55c4.207,0,7.617,3.411,7.617,7.617V297.688z"/>
		<rect x="283.675" y="264.047" style="fill:#FFFFFF;" width="72.784" height="12.061"/>
		
			<line style="fill:none;stroke:#C06A32;stroke-width:1.6147;stroke-linecap:round;stroke-linejoin:round;stroke-miterlimit:10;stroke-dasharray:3.8084;" x1="284.1" y1="270.077" x2="356.034" y2="270.077"/>
		<g>
			<g>
				<g>
					<polygon style="fill:#3D2216;" points="310.295,240.395 306.386,240.395 306.386,244.506 307.393,244.506 307.393,241.402 
						310.295,241.402 					"/>
				</g>
				<g>
					<polygon style="fill:#3D2216;" points="329.006,240.395 329.006,241.402 331.309,241.402 331.309,244.506 332.316,244.506 
						332.316,240.395 					"/>
				</g>
			</g>
			<g>
				<g>
					<polygon style="fill:#3D2216;" points="328.406,255.893 332.316,255.893 332.316,251.782 331.309,251.782 331.309,254.885 
						328.406,254.885 					"/>
				</g>
				<g>
					<polygon style="fill:#3D2216;" points="309.696,255.893 309.696,254.885 307.393,254.885 307.393,251.782 306.386,251.782 
						306.386,255.893 					"/>
				</g>
			</g>
			<g>
				<g>
					<g>
						<rect x="310.266" y="242.368" style="fill:#3D2216;" width="1.135" height="11.469"/>
					</g>
					<g>
						<rect x="311.968" y="242.368" style="fill:#3D2216;" width="2.27" height="9.205"/>
					</g>
					<g>
						<rect x="314.617" y="242.368" style="fill:#3D2216;" width="0.379" height="9.205"/>
					</g>
					<g>
						<rect x="316.95" y="242.368" style="fill:#3D2216;" width="2.27" height="9.205"/>
					</g>
					<g>
						<rect x="315.374" y="242.368" style="fill:#3D2216;" width="1.134" height="9.205"/>
					</g>
					<g>
						<rect x="308.439" y="242.368" style="fill:#3D2216;" width="0.378" height="11.469"/>
					</g>
					<g>
						<rect x="309.131" y="242.368" style="fill:#3D2216;" width="0.757" height="11.469"/>
					</g>
					<g>
						<rect x="319.789" y="242.368" style="fill:#3D2216;" width="1.134" height="9.205"/>
					</g>
					<g>
						<rect x="321.996" y="242.368" style="fill:#3D2216;" width="0.378" height="9.205"/>
					</g>
					<g>
						<rect x="322.751" y="242.368" style="fill:#3D2216;" width="0.757" height="9.205"/>
					</g>
					<g>
						<rect x="324.013" y="242.368" style="fill:#3D2216;" width="1.135" height="9.205"/>
					</g>
					<g>
						<rect x="325.4" y="242.368" style="fill:#3D2216;" width="1.513" height="9.205"/>
					</g>
					<g>
						<rect x="327.607" y="242.368" style="fill:#3D2216;" width="2.648" height="11.469"/>
					</g>
				</g>
				<g>
					<path style="fill:#3D2216;" d="M311.931,253.533v-0.108h0.153v-1.031l-0.153,0.01v-0.073c0.042-0.014,0.082-0.03,0.114-0.046
						c0.034-0.017,0.065-0.036,0.093-0.055h0.071v1.194h0.147v0.108H311.931z"/>
					<path style="fill:#3D2216;" d="M313.056,252.919c-0.026,0.035-0.059,0.064-0.094,0.083c-0.037,0.02-0.074,0.03-0.112,0.03
						c-0.081,0-0.145-0.036-0.193-0.107c-0.049-0.071-0.072-0.169-0.072-0.291c0-0.128,0.027-0.229,0.08-0.302
						c0.054-0.073,0.127-0.111,0.218-0.111c0.104,0,0.18,0.05,0.228,0.149c0.047,0.1,0.07,0.26,0.07,0.481
						c0,0.229-0.027,0.405-0.082,0.524c-0.056,0.119-0.136,0.178-0.242,0.178c-0.069,0-0.128-0.023-0.172-0.07
						c-0.043-0.047-0.065-0.108-0.067-0.185h0.113c0.005,0.05,0.018,0.089,0.039,0.113c0.023,0.026,0.054,0.038,0.091,0.038
						c0.063,0,0.11-0.045,0.145-0.134C313.037,253.228,313.055,253.095,313.056,252.919z M313.051,252.804v-0.006
						c0.002-0.041,0.004-0.072,0.004-0.091c0-0.121-0.017-0.212-0.045-0.275c-0.032-0.063-0.076-0.095-0.137-0.095
						c-0.053,0-0.095,0.025-0.123,0.077c-0.029,0.053-0.045,0.126-0.045,0.223c0,0.095,0.014,0.167,0.043,0.217
						c0.029,0.049,0.07,0.074,0.124,0.074c0.032,0,0.061-0.01,0.095-0.032C312.997,252.874,313.025,252.843,313.051,252.804z"/>
					<path style="fill:#3D2216;" d="M313.547,252.851c-0.059-0.045-0.101-0.094-0.129-0.147c-0.028-0.055-0.043-0.113-0.043-0.178
						c0-0.09,0.027-0.164,0.078-0.22c0.053-0.055,0.121-0.083,0.208-0.083c0.087,0,0.155,0.027,0.208,0.079
						c0.054,0.053,0.08,0.122,0.08,0.208c0,0.063-0.016,0.123-0.048,0.178c-0.03,0.056-0.079,0.108-0.142,0.156
						c0.071,0.045,0.125,0.1,0.16,0.162c0.036,0.061,0.055,0.13,0.055,0.205c0,0.099-0.03,0.18-0.092,0.246
						c-0.062,0.065-0.138,0.097-0.231,0.097c-0.094,0-0.169-0.031-0.226-0.095c-0.059-0.064-0.088-0.148-0.088-0.254
						c0-0.065,0.016-0.128,0.051-0.184C313.422,252.964,313.475,252.907,313.547,252.851z M313.656,252.909
						c-0.064,0.044-0.113,0.09-0.145,0.141c-0.03,0.049-0.047,0.102-0.047,0.16c0,0.067,0.02,0.123,0.055,0.167
						c0.036,0.043,0.082,0.065,0.137,0.065c0.055,0,0.1-0.021,0.136-0.063c0.034-0.043,0.052-0.099,0.052-0.167
						c0-0.061-0.014-0.115-0.044-0.163C313.768,252.999,313.722,252.953,313.656,252.909z M313.656,252.786
						c0.061-0.043,0.102-0.086,0.129-0.13c0.027-0.045,0.041-0.092,0.041-0.145c0-0.053-0.016-0.098-0.047-0.13
						c-0.031-0.034-0.071-0.051-0.123-0.051c-0.047,0-0.087,0.017-0.117,0.052c-0.029,0.034-0.045,0.081-0.045,0.139
						c0,0.049,0.015,0.096,0.04,0.14C313.56,252.704,313.602,252.746,313.656,252.786z"/>
					<path style="fill:#3D2216;" d="M314.196,253.555l0.368-1.199h-0.429v-0.111h0.56v0.08l-0.369,1.23H314.196z"/>
					<path style="fill:#3D2216;" d="M315.257,252.888c0-0.247,0.022-0.419,0.069-0.519c0.048-0.099,0.125-0.149,0.236-0.149
						s0.191,0.05,0.238,0.149c0.047,0.1,0.07,0.272,0.07,0.519c0,0.246-0.023,0.419-0.07,0.518
						c-0.047,0.099-0.127,0.148-0.238,0.148s-0.19-0.05-0.236-0.148C315.279,253.307,315.257,253.134,315.257,252.888z
						 M315.381,252.888c0,0.216,0.014,0.362,0.04,0.44c0.027,0.077,0.075,0.116,0.142,0.116c0.068,0,0.114-0.038,0.142-0.115
						c0.026-0.076,0.038-0.223,0.038-0.441s-0.012-0.364-0.038-0.441c-0.027-0.076-0.073-0.115-0.142-0.115
						c-0.066,0-0.114,0.039-0.142,0.117C315.395,252.526,315.381,252.673,315.381,252.888z"/>
					<path style="fill:#3D2216;" d="M316.126,253.533v-0.108h0.155v-1.031l-0.155,0.01v-0.073c0.044-0.014,0.083-0.03,0.116-0.046
						c0.034-0.017,0.063-0.036,0.092-0.055h0.071v1.194h0.146v0.108H316.126z"/>
					<path style="fill:#3D2216;" d="M317.168,253.533v-0.112c0.02-0.059,0.047-0.121,0.084-0.186
						c0.037-0.066,0.101-0.159,0.188-0.281c0.006-0.007,0.012-0.017,0.023-0.03c0.12-0.166,0.181-0.296,0.181-0.393
						c0-0.061-0.015-0.108-0.046-0.145c-0.029-0.036-0.07-0.054-0.121-0.054c-0.058,0-0.101,0.024-0.13,0.067
						c-0.031,0.046-0.048,0.113-0.05,0.2h-0.113c0.003-0.126,0.028-0.22,0.079-0.282c0.049-0.062,0.123-0.093,0.223-0.093
						c0.086,0,0.154,0.027,0.204,0.081c0.051,0.054,0.076,0.128,0.076,0.222c0,0.11-0.075,0.268-0.224,0.471
						c-0.013,0.017-0.022,0.03-0.029,0.039c-0.07,0.1-0.124,0.176-0.156,0.23c-0.032,0.053-0.057,0.101-0.072,0.144h0.478v0.12
						H317.168z"/>
					<path style="fill:#3D2216;" d="M318.124,252.851c-0.058-0.045-0.101-0.094-0.128-0.147c-0.027-0.055-0.044-0.113-0.044-0.178
						c0-0.09,0.026-0.164,0.079-0.22c0.052-0.055,0.121-0.083,0.207-0.083c0.086,0,0.156,0.027,0.207,0.079
						c0.055,0.053,0.08,0.122,0.08,0.208c0,0.063-0.015,0.123-0.047,0.178c-0.031,0.056-0.078,0.108-0.143,0.156
						c0.072,0.045,0.125,0.1,0.161,0.162c0.036,0.061,0.054,0.13,0.054,0.205c0,0.099-0.029,0.18-0.092,0.246
						c-0.061,0.065-0.137,0.097-0.23,0.097c-0.095,0-0.171-0.031-0.228-0.095c-0.058-0.064-0.087-0.148-0.087-0.254
						c0-0.065,0.016-0.128,0.05-0.184C317.998,252.964,318.052,252.907,318.124,252.851z M318.232,252.909
						c-0.064,0.044-0.113,0.09-0.143,0.141c-0.031,0.049-0.047,0.102-0.047,0.16c0,0.067,0.017,0.123,0.054,0.167
						c0.036,0.043,0.082,0.065,0.136,0.065c0.056,0,0.102-0.021,0.137-0.063c0.035-0.043,0.053-0.099,0.053-0.167
						c0-0.061-0.016-0.115-0.045-0.163C318.345,252.999,318.299,252.953,318.232,252.909z M318.233,252.786
						c0.061-0.043,0.103-0.086,0.13-0.13c0.027-0.045,0.041-0.092,0.041-0.145c0-0.053-0.017-0.098-0.048-0.13
						c-0.032-0.034-0.071-0.051-0.123-0.051c-0.048,0-0.088,0.017-0.116,0.052c-0.031,0.034-0.046,0.081-0.046,0.139
						c0,0.049,0.014,0.096,0.04,0.14C318.138,252.704,318.18,252.746,318.233,252.786z"/>
					<path style="fill:#3D2216;" d="M319.074,253.533v-0.112c0.02-0.059,0.049-0.121,0.087-0.186
						c0.036-0.066,0.099-0.159,0.186-0.281c0.003-0.007,0.01-0.017,0.021-0.03c0.12-0.166,0.181-0.296,0.181-0.393
						c0-0.061-0.014-0.108-0.044-0.145c-0.031-0.036-0.072-0.054-0.123-0.054c-0.057,0-0.1,0.024-0.13,0.067
						c-0.029,0.046-0.048,0.113-0.05,0.2h-0.113c0.003-0.126,0.029-0.22,0.079-0.282c0.05-0.062,0.125-0.093,0.224-0.093
						c0.086,0,0.154,0.027,0.206,0.081c0.048,0.054,0.074,0.128,0.074,0.222c0,0.11-0.074,0.268-0.224,0.471
						c-0.013,0.017-0.022,0.03-0.029,0.039c-0.071,0.1-0.124,0.176-0.157,0.23c-0.032,0.053-0.055,0.101-0.072,0.144h0.48v0.12
						H319.074z"/>
					<path style="fill:#3D2216;" d="M319.833,252.888c0-0.247,0.024-0.419,0.07-0.519c0.048-0.099,0.125-0.149,0.236-0.149
						c0.111,0,0.191,0.05,0.237,0.149c0.047,0.1,0.07,0.272,0.07,0.519c0,0.246-0.023,0.419-0.07,0.518
						c-0.046,0.099-0.126,0.148-0.237,0.148c-0.111,0-0.19-0.05-0.237-0.148C319.855,253.307,319.833,253.134,319.833,252.888z
						 M319.959,252.888c0,0.216,0.013,0.362,0.039,0.44c0.027,0.077,0.074,0.116,0.142,0.116c0.068,0,0.114-0.038,0.142-0.115
						c0.025-0.076,0.038-0.223,0.038-0.441s-0.013-0.364-0.038-0.441c-0.027-0.076-0.073-0.115-0.142-0.115
						c-0.067,0-0.114,0.039-0.142,0.117C319.972,252.526,319.959,252.673,319.959,252.888z"/>
					<path style="fill:#3D2216;" d="M320.622,253.236h0.11c0.001,0.068,0.015,0.12,0.042,0.156c0.027,0.037,0.065,0.056,0.115,0.056
						c0.06,0,0.105-0.033,0.14-0.096c0.034-0.064,0.051-0.153,0.051-0.27c0-0.096-0.016-0.169-0.047-0.221
						c-0.031-0.051-0.075-0.076-0.131-0.076c-0.036,0-0.066,0.01-0.094,0.031c-0.027,0.023-0.049,0.053-0.065,0.093l-0.099-0.016
						l0.043-0.648h0.447l-0.013,0.113h-0.335l-0.02,0.381c0.017-0.021,0.039-0.035,0.061-0.044c0.022-0.009,0.051-0.015,0.082-0.015
						c0.096,0,0.166,0.036,0.218,0.105c0.05,0.069,0.074,0.168,0.074,0.297c0,0.15-0.028,0.267-0.087,0.35
						c-0.057,0.083-0.138,0.124-0.24,0.124c-0.081,0-0.143-0.026-0.188-0.08c-0.044-0.054-0.066-0.129-0.066-0.225V253.236z"/>
					<path style="fill:#3D2216;" d="M321.359,252.888c0-0.247,0.023-0.419,0.071-0.519c0.047-0.099,0.124-0.149,0.236-0.149
						c0.111,0,0.19,0.05,0.236,0.149c0.049,0.1,0.072,0.272,0.072,0.519c0,0.246-0.023,0.419-0.072,0.518
						c-0.046,0.099-0.125,0.148-0.236,0.148c-0.112,0-0.191-0.05-0.238-0.148C321.383,253.307,321.359,253.134,321.359,252.888z
						 M321.484,252.888c0,0.216,0.014,0.362,0.041,0.44c0.025,0.077,0.073,0.116,0.142,0.116c0.067,0,0.113-0.038,0.14-0.115
						c0.026-0.076,0.039-0.223,0.039-0.441s-0.013-0.364-0.039-0.441c-0.026-0.076-0.072-0.115-0.14-0.115
						c-0.068,0-0.116,0.039-0.142,0.117C321.498,252.526,321.484,252.673,321.484,252.888z"/>
					<path style="fill:#3D2216;" d="M322.611,253.533v-0.108h0.154v-1.031l-0.154,0.01v-0.073c0.042-0.014,0.081-0.03,0.115-0.046
						c0.034-0.017,0.063-0.036,0.09-0.055h0.072v1.194h0.147v0.108H322.611z"/>
					<path style="fill:#3D2216;" d="M323.736,252.919c-0.026,0.035-0.059,0.064-0.095,0.083c-0.036,0.02-0.073,0.03-0.111,0.03
						c-0.08,0-0.146-0.036-0.193-0.107c-0.049-0.071-0.071-0.169-0.071-0.291c0-0.128,0.025-0.229,0.078-0.302
						c0.055-0.073,0.127-0.111,0.219-0.111c0.103,0,0.18,0.05,0.227,0.149c0.049,0.1,0.071,0.26,0.071,0.481
						c0,0.229-0.027,0.405-0.082,0.524c-0.056,0.119-0.137,0.178-0.243,0.178c-0.07,0-0.126-0.023-0.17-0.07
						c-0.045-0.047-0.067-0.108-0.068-0.185h0.112c0.006,0.05,0.02,0.089,0.041,0.113c0.022,0.026,0.052,0.038,0.089,0.038
						c0.063,0,0.112-0.045,0.145-0.134C323.717,253.228,323.734,253.095,323.736,252.919z M323.73,252.804l0.002-0.006
						c0.001-0.041,0.002-0.072,0.002-0.091c0-0.121-0.016-0.212-0.046-0.275c-0.03-0.063-0.075-0.095-0.135-0.095
						c-0.054,0-0.096,0.025-0.124,0.077c-0.028,0.053-0.043,0.126-0.043,0.223c0,0.095,0.014,0.167,0.042,0.217
						c0.028,0.049,0.069,0.074,0.124,0.074c0.031,0,0.063-0.01,0.094-0.032C323.68,252.874,323.706,252.843,323.73,252.804z"/>
					<path style="fill:#3D2216;" d="M324.227,252.851c-0.057-0.045-0.101-0.094-0.128-0.147c-0.028-0.055-0.042-0.113-0.042-0.178
						c0-0.09,0.026-0.164,0.078-0.22c0.053-0.055,0.121-0.083,0.207-0.083s0.154,0.027,0.208,0.079
						c0.053,0.053,0.08,0.122,0.08,0.208c0,0.063-0.017,0.123-0.047,0.178c-0.032,0.056-0.079,0.108-0.143,0.156
						c0.072,0.045,0.125,0.1,0.161,0.162c0.035,0.061,0.053,0.13,0.053,0.205c0,0.099-0.029,0.18-0.092,0.246
						c-0.061,0.065-0.137,0.097-0.229,0.097c-0.094,0-0.171-0.031-0.228-0.095c-0.059-0.064-0.087-0.148-0.087-0.254
						c0-0.065,0.017-0.128,0.049-0.184C324.102,252.964,324.155,252.907,324.227,252.851z M324.336,252.909
						c-0.064,0.044-0.112,0.09-0.143,0.141c-0.03,0.049-0.046,0.102-0.046,0.16c0,0.067,0.018,0.123,0.053,0.167
						c0.036,0.043,0.082,0.065,0.137,0.065c0.055,0,0.102-0.021,0.137-0.063c0.035-0.043,0.051-0.099,0.051-0.167
						c0-0.061-0.015-0.115-0.043-0.163C324.45,252.999,324.401,252.953,324.336,252.909z M324.339,252.786
						c0.058-0.043,0.102-0.086,0.128-0.13c0.027-0.045,0.041-0.092,0.041-0.145c0-0.053-0.017-0.098-0.049-0.13
						c-0.03-0.034-0.071-0.051-0.12-0.051c-0.051,0-0.09,0.017-0.119,0.052c-0.03,0.034-0.045,0.081-0.045,0.139
						c0,0.049,0.015,0.096,0.04,0.14C324.241,252.704,324.281,252.746,324.339,252.786z"/>
					<path style="fill:#3D2216;" d="M324.877,253.555l0.368-1.199h-0.43v-0.111h0.561v0.08l-0.37,1.23H324.877z"/>
					<path style="fill:#3D2216;" d="M325.557,252.888c0-0.247,0.023-0.419,0.069-0.519c0.048-0.099,0.125-0.149,0.236-0.149
						c0.112,0,0.191,0.05,0.238,0.149c0.047,0.1,0.071,0.272,0.071,0.519c0,0.246-0.024,0.419-0.071,0.518
						c-0.047,0.099-0.126,0.148-0.238,0.148c-0.111,0-0.19-0.05-0.237-0.148C325.58,253.307,325.557,253.134,325.557,252.888z
						 M325.682,252.888c0,0.216,0.014,0.362,0.041,0.44c0.025,0.077,0.072,0.116,0.14,0.116c0.067,0,0.114-0.038,0.141-0.115
						c0.025-0.076,0.039-0.223,0.039-0.441s-0.014-0.364-0.039-0.441c-0.026-0.076-0.073-0.115-0.141-0.115
						c-0.067,0-0.114,0.039-0.14,0.117C325.695,252.526,325.682,252.673,325.682,252.888z"/>
					<path style="fill:#3D2216;" d="M326.324,253.533v-0.112c0.02-0.059,0.047-0.121,0.084-0.186c0.037-0.066,0.1-0.159,0.186-0.281
						c0.006-0.007,0.012-0.017,0.022-0.03c0.121-0.166,0.182-0.296,0.182-0.393c0-0.061-0.016-0.108-0.045-0.145
						c-0.03-0.036-0.072-0.054-0.123-0.054c-0.058,0-0.101,0.024-0.131,0.067c-0.029,0.046-0.046,0.113-0.049,0.2h-0.111
						c0.002-0.126,0.027-0.22,0.078-0.282c0.049-0.062,0.124-0.093,0.223-0.093c0.086,0,0.153,0.027,0.204,0.081
						c0.05,0.054,0.077,0.128,0.077,0.222c0,0.11-0.076,0.268-0.227,0.471c-0.011,0.017-0.021,0.03-0.026,0.039
						c-0.072,0.1-0.126,0.176-0.157,0.23c-0.033,0.053-0.058,0.101-0.072,0.144h0.478v0.12H326.324z"/>
				</g>
			</g>
		</g>
	</g>
	<g>
		<path style="fill:#E18A3C;" d="M336.757,203.174c0,4.208-21.979,24.5-21.979,24.5l-58.283-2.507c-4.206,0-7.617-3.41-7.617-7.617
			l-2.097-58.338c0,0,20.603-21.204,24.809-21.204h57.55c4.206,0,7.617,3.41,7.617,7.617V203.174z"/>
		<path style="fill:#C97D36;" d="M336.757,203.174c0,4.208-21.979,24.5-21.979,24.5l-1.268-62.444l23.246-19.604V203.174z"/>
		<g>
			<path style="fill:#F6A654;" d="M316.735,222.702c0,4.207-3.409,7.617-7.616,7.617H251.57c-4.207,0-7.617-3.41-7.617-7.617
				v-57.548c0-4.206,3.41-7.617,7.617-7.617h57.549c4.207,0,7.616,3.411,7.616,7.617V222.702z"/>
			
				<path style="fill:none;stroke:#C06A32;stroke-width:1.6147;stroke-linecap:round;stroke-linejoin:round;stroke-miterlimit:10;" d="
				M309.043,216.62c0,3.317-2.69,6.006-6.006,6.006h-45.385c-3.317,0-6.007-2.689-6.007-6.006v-45.385
				c0-3.316,2.69-6.006,6.007-6.006h45.385c3.316,0,6.006,2.69,6.006,6.006V216.62z"/>
			
				<line style="fill:none;stroke:#C06A32;stroke-width:1.6147;stroke-linecap:round;stroke-linejoin:round;stroke-miterlimit:10;" x1="251.645" y1="216.62" x2="293.039" y2="175.597"/>
			
				<line style="fill:none;stroke:#C06A32;stroke-width:1.6147;stroke-linecap:round;stroke-linejoin:round;stroke-miterlimit:10;" x1="309.043" y1="171.235" x2="262.996" y2="216.62"/>
			
				<line style="fill:none;stroke:#C06A32;stroke-width:1.6147;stroke-linecap:round;stroke-linejoin:round;stroke-miterlimit:10;" x1="279.501" y1="200.352" x2="298.328" y2="219.394"/>
			
				<line style="fill:none;stroke:#C06A32;stroke-width:1.6147;stroke-linecap:round;stroke-linejoin:round;stroke-miterlimit:10;" x1="308.901" y1="217.911" x2="287.961" y2="196.108"/>
			
				<line style="fill:none;stroke:#C06A32;stroke-width:1.6147;stroke-linecap:round;stroke-linejoin:round;stroke-miterlimit:10;" x1="254.642" y1="174.886" x2="273.469" y2="193.928"/>
			
				<line style="fill:none;stroke:#C06A32;stroke-width:1.6147;stroke-linecap:round;stroke-linejoin:round;stroke-miterlimit:10;" x1="278.172" y1="187.032" x2="257.233" y2="165.23"/>
			
				<line style="fill:none;stroke:#C06A32;stroke-width:1.6147;stroke-linecap:round;stroke-linejoin:round;stroke-miterlimit:10;" x1="309.043" y1="171.235" x2="311.922" y2="171.235"/>
			
				<line style="fill:none;stroke:#C06A32;stroke-width:1.6147;stroke-linecap:round;stroke-linejoin:round;stroke-miterlimit:10;" x1="309.043" y1="174.886" x2="311.129" y2="174.886"/>
			
				<line style="fill:none;stroke:#C06A32;stroke-width:1.6147;stroke-linecap:round;stroke-linejoin:round;stroke-miterlimit:10;" x1="309.043" y1="179.353" x2="311.922" y2="179.353"/>
			
				<line style="fill:none;stroke:#C06A32;stroke-width:1.6147;stroke-linecap:round;stroke-linejoin:round;stroke-miterlimit:10;" x1="309.367" y1="184.407" x2="310.947" y2="184.407"/>
			
				<line style="fill:none;stroke:#C06A32;stroke-width:1.6147;stroke-linecap:round;stroke-linejoin:round;stroke-miterlimit:10;" x1="309.043" y1="188.08" x2="311.129" y2="188.08"/>
			
				<line style="fill:none;stroke:#C06A32;stroke-width:1.6147;stroke-linecap:round;stroke-linejoin:round;stroke-miterlimit:10;" x1="309.691" y1="192.682" x2="311.922" y2="192.682"/>
			
				<line style="fill:none;stroke:#C06A32;stroke-width:1.6147;stroke-linecap:round;stroke-linejoin:round;stroke-miterlimit:10;" x1="309.043" y1="197.601" x2="311.129" y2="197.601"/>
			
				<line style="fill:none;stroke:#C06A32;stroke-width:1.6147;stroke-linecap:round;stroke-linejoin:round;stroke-miterlimit:10;" x1="309.043" y1="202.203" x2="311.922" y2="202.203"/>
			
				<line style="fill:none;stroke:#C06A32;stroke-width:1.6147;stroke-linecap:round;stroke-linejoin:round;stroke-miterlimit:10;" x1="309.619" y1="210.613" x2="312.64" y2="210.613"/>
			
				<line style="fill:none;stroke:#C06A32;stroke-width:1.6147;stroke-linecap:round;stroke-linejoin:round;stroke-miterlimit:10;" x1="309.691" y1="207.009" x2="311.129" y2="207.009"/>
			
				<line style="fill:none;stroke:#C06A32;stroke-width:1.6147;stroke-linecap:round;stroke-linejoin:round;stroke-miterlimit:10;" x1="309.691" y1="213.707" x2="311.129" y2="213.707"/>
			
				<line style="fill:none;stroke:#C06A32;stroke-width:1.6147;stroke-linecap:round;stroke-linejoin:round;stroke-miterlimit:10;" x1="258.266" y1="164.805" x2="258.266" y2="161.926"/>
			
				<line style="fill:none;stroke:#C06A32;stroke-width:1.6147;stroke-linecap:round;stroke-linejoin:round;stroke-miterlimit:10;" x1="261.914" y1="164.805" x2="261.914" y2="162.72"/>
			
				<line style="fill:none;stroke:#C06A32;stroke-width:1.6147;stroke-linecap:round;stroke-linejoin:round;stroke-miterlimit:10;" x1="266.382" y1="164.805" x2="266.382" y2="161.926"/>
			
				<line style="fill:none;stroke:#C06A32;stroke-width:1.6147;stroke-linecap:round;stroke-linejoin:round;stroke-miterlimit:10;" x1="271.435" y1="164.805" x2="271.435" y2="163.223"/>
			
				<line style="fill:none;stroke:#C06A32;stroke-width:1.6147;stroke-linecap:round;stroke-linejoin:round;stroke-miterlimit:10;" x1="275.109" y1="164.805" x2="275.109" y2="162.72"/>
			
				<line style="fill:none;stroke:#C06A32;stroke-width:1.6147;stroke-linecap:round;stroke-linejoin:round;stroke-miterlimit:10;" x1="279.711" y1="164.805" x2="279.711" y2="162.575"/>
			
				<line style="fill:none;stroke:#C06A32;stroke-width:1.6147;stroke-linecap:round;stroke-linejoin:round;stroke-miterlimit:10;" x1="284.629" y1="164.805" x2="284.629" y2="162.72"/>
			
				<line style="fill:none;stroke:#C06A32;stroke-width:1.6147;stroke-linecap:round;stroke-linejoin:round;stroke-miterlimit:10;" x1="289.232" y1="164.805" x2="289.232" y2="161.926"/>
			
				<line style="fill:none;stroke:#C06A32;stroke-width:1.6147;stroke-linecap:round;stroke-linejoin:round;stroke-miterlimit:10;" x1="297.643" y1="164.805" x2="297.643" y2="161.784"/>
			
				<line style="fill:none;stroke:#C06A32;stroke-width:1.6147;stroke-linecap:round;stroke-linejoin:round;stroke-miterlimit:10;" x1="294.039" y1="164.805" x2="294.039" y2="163.368"/>
			
				<line style="fill:none;stroke:#C06A32;stroke-width:1.6147;stroke-linecap:round;stroke-linejoin:round;stroke-miterlimit:10;" x1="300.738" y1="164.805" x2="300.738" y2="163.368"/>
			
				<line style="fill:none;stroke:#C06A32;stroke-width:1.6147;stroke-linecap:round;stroke-linejoin:round;stroke-miterlimit:10;" x1="251.645" y1="217.344" x2="248.768" y2="217.344"/>
			
				<line style="fill:none;stroke:#C06A32;stroke-width:1.6147;stroke-linecap:round;stroke-linejoin:round;stroke-miterlimit:10;" x1="251.645" y1="213.694" x2="249.561" y2="213.694"/>
			
				<line style="fill:none;stroke:#C06A32;stroke-width:1.6147;stroke-linecap:round;stroke-linejoin:round;stroke-miterlimit:10;" x1="251.645" y1="209.227" x2="248.768" y2="209.227"/>
			
				<line style="fill:none;stroke:#C06A32;stroke-width:1.6147;stroke-linecap:round;stroke-linejoin:round;stroke-miterlimit:10;" x1="251.645" y1="204.173" x2="250.063" y2="204.173"/>
			
				<line style="fill:none;stroke:#C06A32;stroke-width:1.6147;stroke-linecap:round;stroke-linejoin:round;stroke-miterlimit:10;" x1="251.645" y1="200.5" x2="249.561" y2="200.5"/>
			
				<line style="fill:none;stroke:#C06A32;stroke-width:1.6147;stroke-linecap:round;stroke-linejoin:round;stroke-miterlimit:10;" x1="251.645" y1="195.899" x2="249.416" y2="195.899"/>
			
				<line style="fill:none;stroke:#C06A32;stroke-width:1.6147;stroke-linecap:round;stroke-linejoin:round;stroke-miterlimit:10;" x1="251.645" y1="190.979" x2="249.561" y2="190.979"/>
			
				<line style="fill:none;stroke:#C06A32;stroke-width:1.6147;stroke-linecap:round;stroke-linejoin:round;stroke-miterlimit:10;" x1="251.645" y1="186.377" x2="248.768" y2="186.377"/>
			
				<line style="fill:none;stroke:#C06A32;stroke-width:1.6147;stroke-linecap:round;stroke-linejoin:round;stroke-miterlimit:10;" x1="251.645" y1="177.967" x2="248.624" y2="177.967"/>
			
				<line style="fill:none;stroke:#C06A32;stroke-width:1.6147;stroke-linecap:round;stroke-linejoin:round;stroke-miterlimit:10;" x1="251.645" y1="181.571" x2="250.209" y2="181.571"/>
			
				<line style="fill:none;stroke:#C06A32;stroke-width:1.6147;stroke-linecap:round;stroke-linejoin:round;stroke-miterlimit:10;" x1="251.645" y1="174.873" x2="250.209" y2="174.873"/>
			
				<line style="fill:none;stroke:#C06A32;stroke-width:1.6147;stroke-linecap:round;stroke-linejoin:round;stroke-miterlimit:10;" x1="302.107" y1="222.626" x2="302.107" y2="225.505"/>
			
				<line style="fill:none;stroke:#C06A32;stroke-width:1.6147;stroke-linecap:round;stroke-linejoin:round;stroke-miterlimit:10;" x1="298.458" y1="222.626" x2="298.458" y2="224.711"/>
			
				<line style="fill:none;stroke:#C06A32;stroke-width:1.6147;stroke-linecap:round;stroke-linejoin:round;stroke-miterlimit:10;" x1="293.99" y1="222.626" x2="293.99" y2="225.505"/>
			
				<line style="fill:none;stroke:#C06A32;stroke-width:1.6147;stroke-linecap:round;stroke-linejoin:round;stroke-miterlimit:10;" x1="288.936" y1="222.626" x2="288.936" y2="224.208"/>
			
				<line style="fill:none;stroke:#C06A32;stroke-width:1.6147;stroke-linecap:round;stroke-linejoin:round;stroke-miterlimit:10;" x1="285.264" y1="222.626" x2="285.264" y2="224.711"/>
			
				<line style="fill:none;stroke:#C06A32;stroke-width:1.6147;stroke-linecap:round;stroke-linejoin:round;stroke-miterlimit:10;" x1="280.662" y1="222.626" x2="280.662" y2="224.857"/>
			
				<line style="fill:none;stroke:#C06A32;stroke-width:1.6147;stroke-linecap:round;stroke-linejoin:round;stroke-miterlimit:10;" x1="275.744" y1="222.626" x2="275.744" y2="224.711"/>
			
				<line style="fill:none;stroke:#C06A32;stroke-width:1.6147;stroke-linecap:round;stroke-linejoin:round;stroke-miterlimit:10;" x1="271.142" y1="222.626" x2="271.142" y2="225.505"/>
			
				<line style="fill:none;stroke:#C06A32;stroke-width:1.6147;stroke-linecap:round;stroke-linejoin:round;stroke-miterlimit:10;" x1="262.73" y1="222.626" x2="262.73" y2="225.648"/>
			
				<line style="fill:none;stroke:#C06A32;stroke-width:1.6147;stroke-linecap:round;stroke-linejoin:round;stroke-miterlimit:10;" x1="266.335" y1="222.626" x2="266.335" y2="224.063"/>
			
				<line style="fill:none;stroke:#C06A32;stroke-width:1.6147;stroke-linecap:round;stroke-linejoin:round;stroke-miterlimit:10;" x1="259.637" y1="222.626" x2="259.637" y2="224.063"/>
		</g>
	</g>
</g>
<g>
	<g>
		<path style="fill:#301B16;" d="M161.931,77.054l-0.032,0.516v0.291l-0.097,0.387l-0.194,0.226l-0.225,0.097l-0.323,0.065h-0.259
			l-0.451,0.032l-3.582-0.193h-2.421l-2.904,0.193l-1.872-0.129h-2.389l-1.484,0.097h-0.483l-0.452-0.032l-0.355-0.064l-0.225-0.129
			l-0.162-0.194l-0.064-0.387v-0.517l0.161-1.226l0.032-0.484l-0.129-1.71v-0.516l0.064-1.71v-0.517l0.064-3.937v-0.516
			l-0.129-3.937v-0.516l-0.032-1.71v-2.743l-0.064-0.968v-0.484l0.032-0.29l0.097-0.42l0.13-0.193l0.225-0.097l0.355-0.064h0.258
			l0.484-0.032l1.582,0.097h0.516l2.291-0.032h0.323l0.226,0.129l0.162,0.226v2.808l0.064,1.872v0.517l-0.098,1.872v0.516
			l0.064,1.872v0.516l0.098,1.872v0.516l-0.193,4.26l0.031,0.323l0.033,0.161l0.064,0.162l0.161,0.129l0.388,0.064l1.097,0.064
			l0.968-0.064h0.518l4.646-0.064l0.517-0.032l1.097-0.129l0.517-0.033h0.484l0.388,0.097l0.225,0.193l0.098,0.226l0.032,0.355
			l0.032,1.807l0.032,0.517L161.931,77.054z"/>
		<path style="fill:#301B16;" d="M188.359,66.662l-0.033,0.517l-0.064,0.742l-0.064,0.484l-0.193,0.968l-0.064,0.742l-0.064,0.484
			l-0.097,0.516l-0.13,0.484l-0.322,0.678l-0.226,0.452l-0.872,1.452l-0.29,0.419l-0.323,0.42l-0.322,0.355l-0.516,0.548
			l-0.355,0.323l-0.42,0.323l-0.387,0.291l-0.581,0.387l-0.419,0.258l-0.484,0.258l-0.452,0.193l-0.645,0.258l-0.484,0.129
			l-1.032,0.323l-0.549,0.162l-0.517,0.129l-0.549,0.129l-0.549,0.097l-0.548,0.032h-1.743l-1.097-0.064l-1.065-0.129l-0.451-0.097
			l-0.484-0.129l-1.742-0.581l-0.518-0.162l-0.548-0.226l-1.032-0.452l-0.484-0.258l-0.484-0.291l-0.42-0.323l-0.42-0.355
			l-0.387-0.419l-0.355-0.42l-0.871-0.871l-0.322-0.387l-0.322-0.419l-0.259-0.42l-0.259-0.645l-0.483-1.453l-0.194-0.678
			l-0.096-0.484l-0.098-0.517l-0.097-0.484l-0.097-0.71l-0.032-0.484l-0.032-0.549v-0.549l0.032-0.548l0.032-0.581l0.064-0.548
			l0.098-0.549l0.129-0.549l0.16-0.548l0.162-0.484l0.193-0.516l0.227-0.742l0.226-0.517l0.129-0.291l0.259-0.484l0.451-0.71
			l0.322-0.452l0.162-0.258l0.387-0.387l0.549-0.452l0.42-0.323l0.42-0.29l0.968-0.646l0.419-0.258l0.452-0.258l0.452-0.226
			l0.678-0.291l0.451-0.162l0.484-0.161l0.484-0.129l1.227-0.226l0.483-0.097l1.614-0.193l1.032-0.064l0.968,0.064l0.775,0.032
			l0.549,0.064l0.548,0.097l0.549,0.129l0.549,0.097l0.517,0.129l0.484,0.129l0.483,0.161l0.678,0.258l0.452,0.194l1.064,0.613
			l0.42,0.291l0.42,0.323l0.548,0.517l0.355,0.323l0.355,0.355l0.291,0.387l0.451,0.613l0.258,0.419l0.227,0.419l0.258,0.42
			l0.355,0.646l0.258,0.419l0.227,0.484l0.161,0.452l0.161,0.742l0.193,0.968l0.064,0.549l0.098,0.548L188.359,66.662z
			 M180.484,70.857l0.291-0.452l0.322-0.71l0.193-0.484l0.162-0.742l0.064-0.484l0.064-0.774v-0.549l-0.032-0.548l-0.032-0.517
			l-0.193-0.968l-0.13-0.452l-0.355-0.71l-0.258-0.419l-0.453-0.581l-0.322-0.355l-0.484-0.516l-0.354-0.291l-0.839-0.484
			l-0.452-0.193l-0.517-0.162l-0.516-0.097l-1.033-0.064l-0.484,0.032l-0.709,0.032l-0.484,0.097l-0.84,0.226l-0.516,0.194
			l-0.742,0.387l-0.452,0.291l-0.517,0.452l-0.355,0.387l-0.355,0.484l-0.258,0.42l-0.097,0.193l-0.291,0.678l-0.161,0.484
			l-0.097,0.226l-0.097,0.452l-0.065,0.452l-0.031,0.452l-0.033,0.484v0.484l0.033,0.516l0.097,0.517l0.032,0.29l0.129,0.484
			l0.064,0.226l0.162,0.452l0.129,0.258l0.258,0.452l0.161,0.258l0.354,0.452l0.194,0.226l0.388,0.387l0.645,0.549l0.452,0.291
			l0.517,0.258l0.484,0.194l0.678,0.226l0.483,0.097l0.808,0.097l0.548,0.032l0.808-0.064l0.516-0.064l0.71-0.162l0.452-0.193
			l0.71-0.452l0.388-0.29l0.516-0.517l0.322-0.355L180.484,70.857z"/>
		<path style="fill:#301B16;" d="M213.561,65.339l0.031,0.548l-0.129,2.098v3.034l-0.064,1.355v1.904l-0.032,0.355l-0.193,0.323
			l-0.259,0.419l-0.29,0.419l-0.549,0.549l-0.388,0.355l-0.193,0.193l-0.42,0.291l-0.225,0.129l-0.42,0.258l-0.646,0.323
			l-0.484,0.194l-0.452,0.161l-0.742,0.226l-0.484,0.129l-0.516,0.097l-0.484,0.097l-0.742,0.097l-0.451,0.064l-0.484,0.097
			l-1.291,0.162l-0.484,0.032l-1-0.064l-0.742-0.064l-0.517-0.065l-0.517-0.097l-0.484-0.129l-1.129-0.323l-0.484-0.129
			l-0.484-0.161l-0.645-0.226l-0.42-0.226l-0.645-0.355l-0.388-0.29l-0.419-0.291l-0.388-0.323l-0.387-0.29l-0.355-0.323
			l-0.516-0.516l-0.323-0.387l-0.354-0.484l-0.291-0.452l-0.807-1.452l-0.227-0.517l-0.226-0.484l-0.161-0.517l-0.162-0.548
			l-0.096-0.517l-0.098-0.548l-0.064-0.517l-0.129-0.71l-0.064-0.517l-0.032-0.484v-0.484l0.097-1.453l0.064-0.258l0.098-0.549
			l0.129-0.548l0.161-0.517l0.161-0.549l0.162-0.516l0.16-0.484l0.227-0.517l0.226-0.549l0.226-0.452l0.42-0.581l0.291-0.387
			l0.355-0.419l0.354-0.387l0.388-0.355l0.839-0.71l0.42-0.323l0.387-0.291l0.388-0.258l1.066-0.613l0.484-0.291l0.548-0.226
			l0.549-0.161l0.517-0.129l1.193-0.193l0.936-0.129l0.483-0.097l0.484-0.065l0.742-0.064l0.517-0.032l0.71,0.064l0.484,0.032
			l0.742,0.097l0.451,0.097l0.711,0.129l0.483,0.129l0.71,0.226l0.484,0.161l1.162,0.581l0.484,0.291l0.419,0.29l0.161,0.097
			l0.355,0.226l0.355,0.258l0.161,0.162l0.355,0.258l0.193,0.161l0.193,0.226v0.226l-0.096,0.226l-0.194,0.291l-0.29,0.419
			l-0.323,0.355l-0.903,0.904l-0.581,0.516l-0.388,0.323l-0.355,0.258l-0.259,0.193l-0.193,0.129l-0.258,0.032l-0.355-0.226
			l-0.419-0.291l-0.42-0.258l-0.452-0.258l-0.516-0.226l-0.517-0.193l-0.549-0.129l-0.548-0.097l-1.518-0.097h-0.226l-0.517,0.032
			l-0.839,0.064l-0.517,0.129l-0.968,0.452l-0.42,0.291l-0.419,0.322l-0.355,0.355l-0.322,0.419l-0.291,0.419l-0.258,0.452
			l-0.193,0.484l-0.162,0.516l-0.129,0.484l-0.193,0.968l-0.098,0.517l-0.031,0.549v0.548l0.064,0.774l0.097,0.517l0.161,0.742
			l0.162,0.516l0.322,0.775l0.226,0.452l0.388,0.581l0.322,0.387l0.581,0.548l0.419,0.323l0.646,0.355l0.483,0.194l0.968,0.226
			l0.549,0.065l0.549,0.032h0.517l0.517-0.064l0.484-0.097l1.742-0.42l0.516-0.193l0.484-0.226l0.323-0.226l0.097-0.193v-0.355
			l0.032-0.29V71.18l-0.064-0.968v-0.549l-0.129-0.193l-0.354-0.065h-0.775l-0.516,0.032l-0.742,0.097l-0.518,0.032h-0.742
			l-0.516-0.032l-1.098-0.194l-0.193-0.064l-0.129-0.161l-0.064-0.388l-0.033-0.258l-0.031-0.517l0.031-0.807l-0.064-0.968
			l-0.064-0.484v-0.678l0.098-0.355l0.161-0.162l0.388-0.064l0.807-0.097l0.549-0.032h1.484l2.098-0.097l2.581,0.162h0.517
			l1.323-0.162l0.517-0.032l0.258,0.032l0.484,0.097l0.226,0.129l0.064,0.194l0.097,0.452L213.561,65.339z"/>
		<path style="fill:#301B16;" d="M224.109,73.439v0.517l-0.129,1.743v0.516l-0.032,1.775v0.355l-0.097,0.162l-0.258,0.097
			l-0.452,0.032l-1.646-0.032h-2.002l-1.613-0.129l-0.193-0.064l-0.098-0.097v-0.323l-0.064-0.807v-0.517l-0.031-0.484v-0.484
			l-0.098-1.743l0.033-0.517l0.096-1.743l0.033-0.516l-0.098-1.775v-0.516l-0.031-1.743v-2.775l-0.033-1.775v-0.517l0.033-1.743
			v-2.775l-0.064-1.775l0.096-0.355l0.194-0.129l0.323-0.032h0.258l0.484-0.032l0.773,0.032h0.517l1.485-0.064h2l0.355,0.064
			l0.064,0.194l0.032,0.355l0.064,0.839l0.032,0.517v3.163l0.032,1.743v0.517l-0.032,1.775v0.516l0.032,1.743v0.517l-0.064,1.743
			v2.808L224.109,73.439z"/>
		<path style="fill:#301B16;" d="M248.344,71.341l-0.031,0.549l-0.064,0.548l-0.098,0.517l-0.161,0.71l-0.161,0.452l-0.291,0.646
			l-0.226,0.419l-0.388,0.581l-0.322,0.387l-0.387,0.387l-0.388,0.355l-0.646,0.419l-0.42,0.291l-0.483,0.258l-0.452,0.226
			l-0.742,0.258l-0.969,0.323l-0.516,0.097l-0.807,0.129l-0.484,0.064l-0.71,0.065l-0.452,0.032l-0.742,0.033l-1.549,0.097h-0.71
			l-0.452-0.032l-0.742-0.064l-0.484-0.065l-0.548-0.097l-0.484-0.161l-0.71-0.226l-0.451-0.226l-0.484-0.226l-0.452-0.226
			l-0.419-0.258l-1.033-0.71l-0.387-0.323l-0.582-0.452l-0.387-0.323l-0.355-0.355l-0.258-0.291l-0.032-0.226l0.161-0.29
			l0.129-0.162l0.323-0.355l0.903-0.839l0.291-0.355l0.549-0.839l0.29-0.355l0.323-0.355l0.354-0.193l0.355,0.064l0.355,0.258
			l1.033,0.71l0.483,0.258l0.452,0.226l0.742,0.355l0.484,0.161l0.516,0.162l0.517,0.097l0.742,0.032l0.517,0.032l2.033-0.129
			l0.516-0.064l0.259-0.064l0.483-0.194l0.42-0.258l0.322-0.323l0.162-0.226l0.193-0.484l-0.032-0.548l-0.064-0.258l-0.259-0.452
			l-0.16-0.194l-0.42-0.323l-0.258-0.097l-0.484-0.194l-0.549-0.129l-0.549-0.097l-3.066-0.291l-0.967-0.194l-0.518-0.129
			l-0.709-0.258l-0.484-0.161l-0.484-0.226l-1.098-0.549l-0.419-0.29l-0.484-0.29l-0.419-0.291l-0.549-0.452l-0.291-0.42
			l-0.29-0.484l-0.194-0.484l-0.225-0.678l-0.098-0.484l-0.097-0.71l-0.065-1.033l0.032-0.516l0.064-0.775l0.097-0.484l0.13-0.419
			l0.16-0.484l0.323-0.71l0.226-0.452l0.259-0.387l0.323-0.355l0.516-0.484l0.42-0.323l0.42-0.29l0.451-0.226l0.613-0.355
			l0.968-0.387l0.484-0.162l0.742-0.129l0.517-0.097l0.968-0.129l0.71-0.129l0.517-0.064l0.483-0.032h0.518l0.968,0.097l0.483,0.065
			l0.227,0.064l0.516,0.064l1.098,0.194l0.549,0.129l0.516,0.162l0.549,0.161l0.518,0.194l0.483,0.226l0.483,0.193l0.613,0.355
			l0.452,0.226l0.42,0.291l0.29,0.29v0.323l-0.193,0.355l-0.355,0.646l-0.258,0.387l-1.227,1.614l-0.354,0.452l-0.388,0.323
			l-0.258,0.097l-0.227-0.032l-0.322-0.162l-0.484-0.291l-0.484-0.193l-0.225-0.097l-0.484-0.161l-0.259-0.064l-0.548-0.129
			l-0.742-0.161l-0.518-0.032l-0.838-0.064h-0.84l-0.549,0.032l-0.549,0.097l-0.516,0.162l-0.193,0.097l-0.388,0.291l-0.161,0.193
			l-0.227,0.452l-0.064,0.517l0.098,0.419l0.258,0.419l0.355,0.323l0.387,0.194l0.227,0.097l0.483,0.097l0.807,0.097l1.097,0.064
			l0.549,0.097l1.098,0.258l1.033,0.323l0.742,0.161l0.484,0.129l0.902,0.323l0.646,0.291l0.451,0.226l0.452,0.258l0.419,0.258
			l0.936,0.774l0.355,0.387l0.323,0.387l0.388,0.581l0.258,0.42l0.225,0.484l0.13,0.484l0.129,0.71l0.064,0.484L248.344,71.341z"/>
		<path style="fill:#301B16;" d="M269.158,57.819l-0.033,0.484l0.033,0.968l-0.033,0.516l-0.031,0.258l-0.064,0.387l-0.098,0.226
			l-0.193,0.161l-0.387,0.065h-0.518l-0.968-0.097l-0.517-0.032l-1.484,0.097h-0.516l-0.807-0.065h-0.484l-0.227,0.032l-0.322,0.097
			l-0.129,0.193l-0.033,0.419l-0.129,1.904v0.517l0.129,1.936l-0.031,0.517l-0.129,1.936l-0.033,0.517l0.064,1.904v2.969
			l-0.064,1.904l0.033,0.484l0.16,1.452l0.033,0.517l-0.098,0.387l-0.16,0.161l-0.42,0.064l-0.613-0.032l-0.807-0.097l-0.549-0.032
			l-1.453,0.097h-0.516l-1.452-0.097l-0.388-0.032l-0.193-0.097l-0.064-0.355v-0.548l0.097-1.355l0.032-0.517v-2.42l0.032-1.936
			V70.76l0.032-1.904V68.34l-0.129-1.936l-0.032-0.517v-2.453l-0.064-1.904v-0.452l-0.097-0.258l-0.323-0.064h-0.483l-1.033,0.064
			h-0.581l-0.871-0.064l-0.549-0.032l-0.548,0.032l-0.743,0.032h-0.483l-0.259-0.032l-0.354-0.065l-0.193-0.129l-0.13-0.194
			l-0.064-0.323V59.82l-0.032-0.517l0.064-0.968v-0.484l-0.097-1.227l0.032-0.516l0.097-0.419l0.13-0.226l0.193-0.097l0.322-0.065
			h0.742l1.194,0.097h0.517l1.871-0.129h0.517l1.904,0.162h0.517l2.388-0.162l1.872,0.032h0.516l2.421-0.032h2.388l1.065-0.064
			l0.549,0.032l0.259,0.032l0.387,0.064l0.226,0.129l0.161,0.226l0.064,0.387v0.226l0.033,0.484L269.158,57.819z"/>
		<path style="fill:#301B16;" d="M279.094,73.439v0.517l-0.129,1.743v0.516l-0.031,1.775v0.355l-0.098,0.162l-0.258,0.097
			l-0.451,0.032l-1.646-0.032h-2.001l-1.614-0.129l-0.193-0.064l-0.097-0.097v-0.323l-0.064-0.807v-0.517l-0.032-0.484v-0.484
			l-0.097-1.743l0.032-0.517l0.097-1.743l0.032-0.516l-0.097-1.775v-0.516l-0.032-1.743v-2.775l-0.032-1.775v-0.517l0.032-1.743
			v-2.775l-0.064-1.775l0.097-0.355l0.194-0.129l0.322-0.032h0.258l0.484-0.032l0.774,0.032h0.517l1.484-0.064h2.001l0.354,0.064
			l0.064,0.194l0.033,0.355l0.064,0.839l0.031,0.517v3.163l0.033,1.743v0.517l-0.033,1.775v0.516l0.033,1.743v0.517l-0.065,1.743
			v2.808L279.094,73.439z"/>
		<path style="fill:#301B16;" d="M304.427,75.633l-0.259,0.258l-0.58,0.517l-0.388,0.29l-0.613,0.452l-0.388,0.258l-0.645,0.355
			l-0.42,0.226l-0.742,0.355l-0.484,0.162l-0.549,0.161l-0.549,0.097l-0.807,0.161l-1.129,0.129l-0.581,0.033l-0.807,0.064h-1.679
			l-0.549-0.032l-0.548-0.065l-0.549-0.097l-0.549-0.129l-0.483-0.162l-1.453-0.387l-0.709-0.258l-0.42-0.193l-0.613-0.355
			l-0.387-0.29l-0.42-0.291l-0.452-0.29l-0.839-0.71l-0.388-0.387l-0.354-0.419l-0.355-0.484l-0.29-0.452l-0.259-0.452l-0.226-0.452
			l-0.323-0.678l-0.483-1.355l-0.226-0.646l-0.323-0.968l-0.064-0.484l-0.032-0.743l0.032-0.484l0.032-0.517v-0.548l0.065-1.097
			l0.032-0.517l0.097-0.484l0.129-0.71l0.129-0.484l0.162-0.484l0.161-0.452l0.226-0.646l0.227-0.452l0.226-0.484l0.259-0.484
			l0.29-0.484l0.29-0.452l0.323-0.419l0.354-0.452l0.388-0.419l0.388-0.355l0.419-0.355l0.388-0.323l1.032-0.71l0.42-0.258
			l0.452-0.258l0.968-0.452l0.548-0.193l0.518-0.162l1.097-0.258l0.549-0.097l0.548-0.064l1.001-0.065l0.71-0.064l0.484,0.032
			l0.71,0.032l1.194,0.161l0.451,0.097l0.742,0.129l1.13,0.323l0.452,0.193l0.709,0.42l0.452,0.258l0.839,0.581l1.001,0.71
			l0.354,0.258l0.193,0.161l0.227,0.226l0.065,0.258l-0.032,0.258l-0.193,0.258l-0.29,0.355l-0.356,0.355l-0.355,0.323l-0.354,0.291
			l-0.354,0.355l-0.549,0.646l-0.355,0.387l-0.161,0.162l-0.29,0.258l-0.227,0.097l-0.227,0.032l-0.225-0.064l-0.355-0.194
			l-0.613-0.452l-0.42-0.226l-0.709-0.323l-0.453-0.161l-0.709-0.194l-0.484-0.097l-0.807-0.064h-0.517l-0.71,0.064l-0.517,0.129
			l-0.71,0.226l-0.484,0.193l-0.419,0.162l-0.646,0.323l-0.451,0.323l-0.227,0.193l-0.387,0.42l-0.291,0.452l-0.227,0.42
			l-0.225,0.452l-0.194,0.484l-0.161,0.516l-0.098,0.549l-0.064,0.484l-0.065,0.968v0.517l0.033,0.807l0.031,0.484l0.162,0.742
			l0.161,0.484l0.226,0.548l0.259,0.484l0.483,0.71l0.355,0.387l0.613,0.517l0.42,0.29l0.645,0.323l0.484,0.194l0.71,0.193
			l0.517,0.097l0.774,0.032h0.742l0.452-0.097l0.258-0.065l0.484-0.161l0.807-0.29l0.517-0.226l0.483-0.226l0.42-0.226l0.613-0.387
			l0.42-0.323l0.322-0.226l0.193-0.064l0.291,0.064l0.354,0.226l0.355,0.323l0.129,0.194l0.323,0.355l0.516,0.645l0.322,0.388
			l0.872,1l0.29,0.388l0.162,0.161l0.161,0.291V75.633z"/>
	</g>
	<g>
		<path style="fill:#301B16;" d="M161.987,93.965c0.313-0.382,0.888-0.435,1.27-0.121c0.765,0.626,2.087,1.357,3.322,1.339
			c0.869,0,1.652-0.261,2.174-0.644c0.521-0.383,0.748-0.818,0.748-1.252c0-0.226-0.053-0.383-0.156-0.557
			c-0.105-0.174-0.262-0.348-0.521-0.522c-0.505-0.331-1.357-0.626-2.384-0.817h-0.034c-0.818-0.157-1.584-0.365-2.244-0.679
			c-0.661-0.313-1.235-0.748-1.618-1.356c-0.261-0.418-0.399-0.905-0.399-1.427c0-1.044,0.591-1.948,1.391-2.54
			c0.818-0.591,1.879-0.922,3.01-0.922c1.67,0,2.904,0.817,3.792,1.392c0.4,0.278,0.523,0.835,0.243,1.235
			c-0.26,0.418-0.816,0.54-1.234,0.261c-0.887-0.592-1.74-1.113-2.801-1.113c-0.783,0-1.479,0.243-1.948,0.591
			c-0.47,0.348-0.661,0.73-0.661,1.096c0,0.209,0.035,0.348,0.122,0.487c0.087,0.139,0.243,0.295,0.47,0.452
			c0.452,0.313,1.234,0.591,2.174,0.766h0.035c0.887,0.174,1.705,0.4,2.4,0.73c0.713,0.348,1.34,0.8,1.74,1.444
			c0.26,0.417,0.417,0.939,0.417,1.479c0,1.113-0.626,2.07-1.496,2.696c-0.853,0.626-1.983,0.991-3.218,0.991
			c-1.879-0.017-3.462-0.957-4.453-1.739C161.744,94.922,161.691,94.348,161.987,93.965z"/>
		<path style="fill:#301B16;" d="M179.195,96.036V85.772c0-0.539,0.418-0.957,0.957-0.957h0.018c0,0,0,0,0.035,0h5.636
			c0.505,0,0.956,0.418,0.956,0.957c0,0.539-0.451,0.974-0.956,0.974h-4.714v3.183h4.053c0.521,0,0.957,0.452,0.957,0.957
			c0,0.539-0.436,0.974-0.957,0.974h-4.053v3.201h4.714c0.505,0,0.956,0.435,0.956,0.974c0,0.521-0.451,0.957-0.956,0.957h-5.636
			c-0.035,0-0.035-0.018-0.035-0.018l-0.018,0.018C179.613,96.992,179.195,96.557,179.195,96.036z"/>
		<path style="fill:#301B16;" d="M203.135,95.548c0.174,0.504-0.104,1.044-0.608,1.218c-0.069,0.017-0.209,0.052-0.383,0.052
			c0,0,0,0-0.017,0c-0.174,0-0.435-0.035-0.679-0.191c-0.226-0.139-0.417-0.365-0.557-0.609c-0.243-0.504-0.365-1.131-0.365-2.087
			c-0.018-0.331-0.087-0.557-0.209-0.748c-0.104-0.191-0.313-0.365-0.521-0.504c-0.365-0.244-0.817-0.383-0.975-0.418h-2.052v3.775
			c0,0.521-0.434,0.957-0.974,0.957c-0.54,0-0.957-0.435-0.957-0.957V85.772c0-0.539,0.417-0.957,0.957-0.957c0,0,0,0,0.017,0h3.097
			c2.07,0,3.723,1.67,3.723,3.74c0,1.148-0.523,2.157-1.357,2.853c0.227,0.174,0.436,0.383,0.609,0.644
			c0.348,0.505,0.574,1.148,0.574,1.879c-0.018,0.522,0.034,0.853,0.069,1.026C202.805,95.044,203.031,95.253,203.135,95.548z
			 M200.699,88.556c0-1.009-0.8-1.809-1.791-1.809h-2.14v3.584h2.14C199.899,90.33,200.699,89.53,200.699,88.556z"/>
		<path style="fill:#301B16;" d="M214.794,96.818c-0.034-0.035-0.069-0.052-0.122-0.087c0-0.018-0.017-0.018-0.017-0.052
			c-0.035-0.035-0.069-0.07-0.087-0.104c0,0-0.018,0-0.018-0.018c-0.018-0.035-0.053-0.104-0.087-0.139l-4.262-10.159
			c-0.209-0.469,0.017-1.044,0.521-1.235c0.47-0.209,1.026,0.018,1.235,0.504l3.392,8.054l3.392-8.054
			c0.209-0.487,0.783-0.713,1.253-0.504c0.487,0.191,0.714,0.766,0.522,1.235l-4.297,10.159c-0.018,0.035-0.035,0.104-0.07,0.139
			c0,0.018,0,0.018-0.017,0.018c-0.018,0.035-0.069,0.07-0.087,0.104c-0.018,0.035-0.018,0.035-0.035,0.052
			c-0.035,0.035-0.069,0.052-0.105,0.087c0,0,0,0-0.034,0.017c-0.035,0.018-0.088,0.07-0.14,0.087c-0.017,0-0.017,0-0.034,0.017
			c-0.053,0-0.088,0.018-0.14,0.035c0,0-0.018,0-0.034,0c-0.07,0.018-0.123,0.018-0.175,0.018c-0.052,0-0.122,0-0.174-0.018
			c0,0-0.017,0-0.034,0c-0.035-0.017-0.105-0.035-0.14-0.035c0-0.017-0.018-0.017-0.018-0.017s0,0-0.017,0
			c-0.035-0.018-0.105-0.07-0.157-0.104C214.811,96.818,214.811,96.818,214.794,96.818z"/>
		<path style="fill:#301B16;" d="M228.35,85.772c0-0.539,0.418-0.957,0.957-0.957c0.523,0,0.975,0.418,0.975,0.957v10.263
			c0,0.539-0.452,0.957-0.975,0.957c-0.539,0-0.957-0.418-0.957-0.957V85.772z"/>
		<path style="fill:#301B16;" d="M238.216,90.73c0.017-3.444,2.905-6.245,6.384-6.262c1.531,0,2.922,0.504,4.018,1.357
			c0.418,0.348,0.488,0.957,0.175,1.392c-0.349,0.435-0.991,0.504-1.392,0.191c-0.766-0.626-1.723-0.957-2.801-0.957
			c-1.2,0-2.313,0.487-3.131,1.252c-0.783,0.8-1.27,1.844-1.27,3.027c0,1.183,0.486,2.261,1.27,3.027
			c0.817,0.765,1.931,1.253,3.131,1.253c1.078,0,2.018-0.331,2.801-0.957c0.4-0.295,1.043-0.226,1.392,0.191
			c0.313,0.435,0.243,1.061-0.175,1.392c-1.096,0.853-2.486,1.357-4.018,1.357C241.121,96.992,238.232,94.191,238.216,90.73z"/>
		<path style="fill:#301B16;" d="M257.391,96.036V85.772c0-0.539,0.417-0.957,0.956-0.957h0.017c0,0,0,0,0.034,0h5.637
			c0.504,0,0.957,0.418,0.957,0.957c0,0.539-0.453,0.974-0.957,0.974h-4.715v3.183h4.054c0.523,0,0.956,0.452,0.956,0.957
			c0,0.539-0.434,0.974-0.956,0.974h-4.054v3.201h4.715c0.504,0,0.957,0.435,0.957,0.974c0,0.521-0.453,0.957-0.957,0.957h-5.637
			c-0.034,0-0.034-0.018-0.034-0.018l-0.017,0.018C257.808,96.992,257.391,96.557,257.391,96.036z"/>
		<path style="fill:#301B16;" d="M272.545,93.965c0.314-0.382,0.888-0.435,1.271-0.121c0.765,0.626,2.087,1.357,3.322,1.339
			c0.87,0,1.653-0.261,2.175-0.644c0.522-0.383,0.748-0.818,0.748-1.252c0-0.226-0.053-0.383-0.156-0.557
			c-0.105-0.174-0.262-0.348-0.522-0.522c-0.505-0.331-1.356-0.626-2.384-0.817h-0.034c-0.817-0.157-1.583-0.365-2.244-0.679
			c-0.661-0.313-1.235-0.748-1.618-1.356c-0.26-0.418-0.4-0.905-0.4-1.427c0-1.044,0.591-1.948,1.392-2.54
			c0.817-0.591,1.879-0.922,3.01-0.922c1.67,0,2.904,0.817,3.791,1.392c0.4,0.278,0.522,0.835,0.244,1.235
			c-0.261,0.418-0.817,0.54-1.234,0.261c-0.888-0.592-1.74-1.113-2.801-1.113c-0.783,0-1.478,0.243-1.949,0.591
			c-0.469,0.348-0.66,0.73-0.66,1.096c0,0.209,0.034,0.348,0.121,0.487c0.088,0.139,0.244,0.295,0.47,0.452
			c0.452,0.313,1.235,0.591,2.175,0.766h0.035c0.887,0.174,1.704,0.4,2.4,0.73c0.713,0.348,1.339,0.8,1.739,1.444
			c0.261,0.417,0.417,0.939,0.417,1.479c0,1.113-0.626,2.07-1.496,2.696c-0.852,0.626-1.983,0.991-3.218,0.991
			c-1.878-0.017-3.462-0.957-4.453-1.739C272.302,94.922,272.25,94.348,272.545,93.965z"/>
	</g>
	<path style="fill:#301B16;" d="M295.884,89.487c0,1.248-1.011,2.259-2.259,2.259c-1.248,0-2.26-1.011-2.26-2.259
		c0-1.248,1.012-2.259,2.26-2.259C294.873,87.228,295.884,88.239,295.884,89.487z"/>
	<path style="fill:#301B16;" d="M152.766,89.487c0,1.248-1.011,2.259-2.259,2.259c-1.247,0-2.26-1.011-2.26-2.259
		c0-1.248,1.013-2.259,2.26-2.259C151.755,87.228,152.766,88.239,152.766,89.487z"/>
</g>
</svg>
