<?xml version="1.0" encoding="utf-8"?>
<!-- Generator: Adobe Illustrator 27.5.0, SVG Export Plug-In . SVG Version: 6.00 Build 0)  -->
<svg version="1.1" xmlns="http://www.w3.org/2000/svg" xmlns:xlink="http://www.w3.org/1999/xlink" x="0px" y="0px"
	 viewBox="0 0 750 500" style="enable-background:new 0 0 750 500;" xml:space="preserve">
<g id="BACKGROUND">
	<g>
		<rect style="fill:#FFFFFF;" width="750" height="500"/>
		<path style="fill:#DFF1F4;" d="M135.734,259.013l131.865,132.04c27.894,27.931,70.038,35.948,106.24,20.21l210.736-91.617
			c56.407-24.523,75.542-95.011,39.278-144.691l-39.974-54.762c-28.596-39.175-81.914-50.878-124.289-27.282l-56.501,31.464
			c-23.801,13.254-52.112,15.775-77.881,6.936l-90.363-30.997c-31.946-10.958-67.3-4.33-93.107,17.455l0,0
			C98.791,154.023,96.019,219.246,135.734,259.013z"/>
	</g>
</g>
<g id="OBJECTS">
	<g>
		<g>
			<g>
				<g>
					<path style="fill:#709632;" d="M649.535,311.079c-45.178,21.308-64.529,75.206-43.221,120.384l0,0h0
						C651.492,410.155,670.843,356.257,649.535,311.079L649.535,311.079L649.535,311.079z"/>
				</g>
				<path style="fill:#9DC11E;" d="M697.016,342.661c-49.951,0-90.444,40.493-90.444,90.444l0,0h0
					C656.522,433.105,697.016,392.612,697.016,342.661L697.016,342.661L697.016,342.661z"/>
			</g>
			<g>
				<g>
					<path style="fill:#709632;" d="M100.465,311.079c45.178,21.308,64.529,75.206,43.221,120.384l0,0h0
						C98.508,410.155,79.157,356.257,100.465,311.079L100.465,311.079L100.465,311.079z"/>
				</g>
				<path style="fill:#9DC11E;" d="M52.984,342.661c49.951,0,90.444,40.493,90.444,90.444l0,0h0
					C93.478,433.105,52.984,392.612,52.984,342.661L52.984,342.661L52.984,342.661z"/>
			</g>
		</g>
		<path style="fill:#579BAA;" d="M676.016,436.985H73.984c-2.385,0-4.319-1.934-4.319-4.319l0,0c0-2.385,1.934-4.319,4.319-4.319
			h602.032c2.385,0,4.319,1.934,4.319,4.319l0,0C680.335,435.051,678.401,436.985,676.016,436.985z"/>
		<g>
			<g>
				<path style="fill:#FF8B0D;" d="M627.889,428.555h-49.946c-1.752,0-3.172-1.42-3.172-3.172v-9.924
					c0-1.752,1.42-3.172,3.172-3.172h49.946c1.752,0,3.172,1.42,3.172,3.172v9.924C631.062,427.135,629.641,428.555,627.889,428.555
					z"/>
				<path style="fill:#ECB220;" d="M614.345,428.555h-49.946c-1.752,0-3.172-1.42-3.172-3.172v-9.924
					c0-1.752,1.42-3.172,3.172-3.172h49.946c1.752,0,3.172,1.42,3.172,3.172v9.924C617.518,427.135,616.097,428.555,614.345,428.555
					z"/>
				<path style="fill:#ECB220;" d="M587.257,428.555v-16.269h-22.858c-1.752,0-3.172,1.42-3.172,3.173v9.924
					c0,1.752,1.42,3.172,3.172,3.172H587.257z"/>
				<rect x="590.389" y="412.286" style="fill:#FFEEA4;" width="5.775" height="16.269"/>
				<rect x="599.215" y="412.286" style="fill:#FFEEA4;" width="3.05" height="16.269"/>
			</g>
			<g>
				<path style="fill:#FF8B0D;" d="M552.692,428.555h-49.946c-1.752,0-3.172-1.42-3.172-3.172v-9.924
					c0-1.752,1.42-3.172,3.172-3.172h49.946c1.752,0,3.172,1.42,3.172,3.172v9.924C555.864,427.135,554.444,428.555,552.692,428.555
					z"/>
				<path style="fill:#ECB220;" d="M539.148,428.555h-49.946c-1.752,0-3.173-1.42-3.173-3.172v-9.924
					c0-1.752,1.42-3.172,3.173-3.172h49.946c1.752,0,3.172,1.42,3.172,3.172v9.924C542.32,427.135,540.9,428.555,539.148,428.555z"
					/>
				<path style="fill:#ECB220;" d="M512.06,428.555v-16.269h-22.858c-1.752,0-3.173,1.42-3.173,3.173v9.924
					c0,1.752,1.42,3.172,3.173,3.172H512.06z"/>
				<rect x="515.192" y="412.286" style="fill:#FFEEA4;" width="5.775" height="16.269"/>
				<rect x="524.018" y="412.286" style="fill:#FFEEA4;" width="3.05" height="16.269"/>
			</g>
			<g>
				<path style="fill:#FF8B0D;" d="M636.673,412.286h-49.946c-1.752,0-3.172-1.42-3.172-3.172v-9.924
					c0-1.752,1.42-3.172,3.172-3.172h49.946c1.752,0,3.172,1.42,3.172,3.172v9.924C639.845,410.866,638.425,412.286,636.673,412.286
					z"/>
				<path style="fill:#ECB220;" d="M623.129,412.286h-49.946c-1.752,0-3.172-1.42-3.172-3.172v-9.924
					c0-1.752,1.42-3.172,3.172-3.172h49.946c1.752,0,3.172,1.42,3.172,3.172v9.924C626.301,410.866,624.881,412.286,623.129,412.286
					z"/>
				<path style="fill:#ECB220;" d="M596.041,412.286v-16.269h-22.858c-1.752,0-3.172,1.42-3.172,3.172v9.924
					c0,1.752,1.42,3.172,3.172,3.172H596.041z"/>
				<rect x="599.173" y="396.017" style="fill:#FFEEA4;" width="5.775" height="16.269"/>
				<rect x="607.999" y="396.017" style="fill:#FFEEA4;" width="3.05" height="16.269"/>
			</g>
			<g>
				<path style="fill:#FF8B0D;" d="M571.928,412.286h-49.946c-1.752,0-3.172-1.42-3.172-3.172v-9.924
					c0-1.752,1.42-3.172,3.172-3.172h49.946c1.752,0,3.172,1.42,3.172,3.172v9.924C575.1,410.866,573.68,412.286,571.928,412.286z"
					/>
				<path style="fill:#ECB220;" d="M558.384,412.286h-49.946c-1.752,0-3.172-1.42-3.172-3.172v-9.924
					c0-1.752,1.42-3.172,3.172-3.172h49.946c1.752,0,3.172,1.42,3.172,3.172v9.924C561.556,410.866,560.136,412.286,558.384,412.286
					z"/>
				<path style="fill:#ECB220;" d="M531.296,412.286v-16.269h-22.858c-1.752,0-3.172,1.42-3.172,3.172v9.924
					c0,1.752,1.42,3.172,3.172,3.172H531.296z"/>
				<rect x="534.428" y="396.017" style="fill:#FFEEA4;" width="5.775" height="16.269"/>
				<rect x="543.254" y="396.017" style="fill:#FFEEA4;" width="3.05" height="16.269"/>
			</g>
			<g>
				<path style="fill:#FF8B0D;" d="M627.889,396.017h-49.946c-1.752,0-3.172-1.42-3.172-3.173v-9.924
					c0-1.752,1.42-3.172,3.172-3.172h49.946c1.752,0,3.172,1.42,3.172,3.172v9.924C631.062,394.597,629.641,396.017,627.889,396.017
					z"/>
				<path style="fill:#ECB220;" d="M614.345,396.017h-49.946c-1.752,0-3.172-1.42-3.172-3.173v-9.924
					c0-1.752,1.42-3.172,3.172-3.172h49.946c1.752,0,3.172,1.42,3.172,3.172v9.924C617.518,394.597,616.097,396.017,614.345,396.017
					z"/>
				<path style="fill:#ECB220;" d="M587.257,396.017v-16.269h-22.858c-1.752,0-3.172,1.42-3.172,3.172v9.924
					c0,1.752,1.42,3.173,3.172,3.173H587.257z"/>
				<rect x="590.389" y="379.748" style="fill:#FFEEA4;" width="5.775" height="16.269"/>
				<rect x="599.215" y="379.748" style="fill:#FFEEA4;" width="3.05" height="16.269"/>
			</g>
			<g>
				<path style="fill:#FF8B0D;" d="M636.673,379.748h-49.946c-1.752,0-3.172-1.42-3.172-3.172v-9.924
					c0-1.752,1.42-3.172,3.172-3.172h49.946c1.752,0,3.172,1.42,3.172,3.172v9.924C639.845,378.328,638.425,379.748,636.673,379.748
					z"/>
				<path style="fill:#ECB220;" d="M623.129,379.748h-49.946c-1.752,0-3.172-1.42-3.172-3.172v-9.924
					c0-1.752,1.42-3.172,3.172-3.172h49.946c1.752,0,3.172,1.42,3.172,3.172v9.924C626.301,378.328,624.881,379.748,623.129,379.748
					z"/>
				<path style="fill:#ECB220;" d="M596.041,379.748v-16.269h-22.858c-1.752,0-3.172,1.42-3.172,3.173v9.924
					c0,1.752,1.42,3.172,3.172,3.172H596.041z"/>
				<rect x="599.173" y="363.479" style="fill:#FFEEA4;" width="5.775" height="16.269"/>
				<rect x="607.999" y="363.479" style="fill:#FFEEA4;" width="3.05" height="16.269"/>
			</g>
			<g>
				<path style="fill:#FF8B0D;" d="M627.889,363.479h-49.946c-1.752,0-3.172-1.42-3.172-3.172v-9.924
					c0-1.752,1.42-3.172,3.172-3.172h49.946c1.752,0,3.172,1.42,3.172,3.172v9.924C631.062,362.059,629.641,363.479,627.889,363.479
					z"/>
				<path style="fill:#ECB220;" d="M614.345,363.479h-49.946c-1.752,0-3.172-1.42-3.172-3.172v-9.924
					c0-1.752,1.42-3.172,3.172-3.172h49.946c1.752,0,3.172,1.42,3.172,3.172v9.924C617.518,362.059,616.097,363.479,614.345,363.479
					z"/>
				<path style="fill:#ECB220;" d="M587.257,363.479V347.21h-22.858c-1.752,0-3.172,1.42-3.172,3.172v9.924
					c0,1.752,1.42,3.172,3.172,3.172H587.257z"/>
				<rect x="590.389" y="347.21" style="fill:#FFEEA4;" width="5.775" height="16.269"/>
				<rect x="599.215" y="347.21" style="fill:#FFEEA4;" width="3.05" height="16.269"/>
			</g>
			<g>
				<path style="fill:#FF8B0D;" d="M636.673,347.21h-49.946c-1.752,0-3.172-1.42-3.172-3.172v-9.924c0-1.752,1.42-3.172,3.172-3.172
					h49.946c1.752,0,3.172,1.42,3.172,3.172v9.924C639.845,345.79,638.425,347.21,636.673,347.21z"/>
				<path style="fill:#ECB220;" d="M623.129,347.21h-49.946c-1.752,0-3.172-1.42-3.172-3.172v-9.924c0-1.752,1.42-3.172,3.172-3.172
					h49.946c1.752,0,3.172,1.42,3.172,3.172v9.924C626.301,345.79,624.881,347.21,623.129,347.21z"/>
				<path style="fill:#ECB220;" d="M596.041,347.21v-16.269h-22.858c-1.752,0-3.172,1.42-3.172,3.173v9.924
					c0,1.752,1.42,3.172,3.172,3.172H596.041z"/>
				<rect x="599.173" y="330.941" style="fill:#FFEEA4;" width="5.775" height="16.269"/>
				<rect x="607.999" y="330.941" style="fill:#FFEEA4;" width="3.05" height="16.269"/>
			</g>
		</g>
		<g>
			<path style="fill:none;stroke:#ECB220;stroke-width:11;stroke-miterlimit:10;" d="M225.572,278.689
				c-32.268-56.974-38.033-100.087-25.187-126.522"/>
			<g>
				<circle style="fill:#0E5EA0;" cx="375" cy="250" r="173.848"/>
				<ellipse style="fill:#1C77B5;" cx="375" cy="198.786" rx="141.8" ry="115.983"/>
				<path style="fill:#98D3E5;" d="M548.824,251.908c-27.4-25.506-37.058-12.13-42.192-5.019
					c-6.341,8.782,10.12,32.21-21.814,17.734c-31.934-14.476-77.564,29.61-65.119,75.514c11.184,41.256,40.552,38.813,50.258,55.497
					C516.958,364.926,548.175,312.087,548.824,251.908z"/>
				<path style="fill:#98D3E5;" d="M203.361,222.281c35.004,65.789,35.421,12.082,34.328-0.331
					c-1.101-12.501,5.294-31.181,38.245-20.656c32.951,10.525,101.099-27.056,93.395-80.562
					c-3.302-22.937-15.003-35.067-27.293-41.446C270.722,92.977,214.907,150.23,203.361,222.281z"/>
				<g>
					<line style="fill:none;stroke:#C0F3FF;stroke-miterlimit:10;" x1="375" y1="76.152" x2="375" y2="423.848"/>
					<g>
						<path style="fill:none;stroke:#C0F3FF;stroke-miterlimit:10;" d="M316.44,84.671c-12.722,36.478-27.436,92.187-27.981,161.23
							c-0.577,73.029,14.928,131.725,27.981,169.156"/>
						<path style="fill:none;stroke:#C0F3FF;stroke-miterlimit:10;" d="M253.605,125.573
							c-11.058,20.096-31.734,64.039-31.832,123.432c-0.099,59.876,20.768,104.173,31.832,124.28"/>
					</g>
					<g>
						<path style="fill:none;stroke:#C0F3FF;stroke-miterlimit:10;" d="M433.267,84.671c12.722,36.478,27.436,92.187,27.981,161.23
							c0.577,73.029-14.928,131.725-27.981,169.156"/>
						<path style="fill:none;stroke:#C0F3FF;stroke-miterlimit:10;" d="M496.102,125.573
							c11.058,20.096,31.734,64.039,31.832,123.432c0.099,59.876-20.768,104.173-31.832,124.28"/>
					</g>
				</g>
				<g>
					<line style="fill:none;stroke:#C0F3FF;stroke-miterlimit:10;" x1="548.702" y1="250.146" x2="201.005" y2="250.146"/>
					<g>
						<path style="fill:none;stroke:#C0F3FF;stroke-miterlimit:10;" d="M540.183,191.586
							c-36.478-12.722-92.187-27.436-161.23-27.981c-73.029-0.577-131.725,14.928-169.156,27.981"/>
						<path style="fill:none;stroke:#C0F3FF;stroke-miterlimit:10;" d="M506.632,135.696
							c-21.289-11.714-67.84-33.617-130.758-33.721c-63.43-0.105-110.357,22.001-131.656,33.721"/>
					</g>
					<g>
						<path style="fill:none;stroke:#C0F3FF;stroke-miterlimit:10;" d="M540.183,308.414
							c-36.478,12.722-92.187,27.436-161.23,27.981c-73.029,0.577-131.725-14.928-169.156-27.981"/>
						<path style="fill:none;stroke:#C0F3FF;stroke-miterlimit:10;" d="M506.854,364.275
							c-21.325,11.734-67.955,33.674-130.98,33.778c-63.537,0.105-110.543-22.038-131.88-33.778"/>
					</g>
				</g>
			</g>
			<path style="fill:none;stroke:#ECB220;stroke-width:11;stroke-miterlimit:10;" d="M200.386,152.167
				c28.717-59.095,150.438-34.853,277.008,104.173"/>
			<polygon style="fill:#ECB220;" points="492.304,272.665 447.266,263.183 482.821,227.627 			"/>
			<g>
				<path style="fill:#AD1E58;" d="M524.578,281.982c0-8.424-6.829-15.254-15.254-15.254c-8.424,0-15.254,6.829-15.254,15.254
					c0,8.424,15.254,29.328,15.254,29.328h5.389v-7.929C519.103,296.553,524.578,287.029,524.578,281.982z M501.147,283.054
					c-0.68-5.393,3.856-9.928,9.249-9.249c3.675,0.463,6.642,3.43,7.105,7.105c0.68,5.393-3.856,9.928-9.248,9.249
					C504.578,289.696,501.61,286.728,501.147,283.054z"/>
				<path style="fill:#E71C2E;" d="M529.967,281.982c0-8.424-6.829-15.254-15.254-15.254c-8.424,0-15.254,6.829-15.254,15.254
					c0,8.424,15.254,29.328,15.254,29.328S529.967,290.406,529.967,281.982z M506.536,283.054c-0.68-5.393,3.856-9.929,9.249-9.249
					c3.674,0.463,6.642,3.431,7.105,7.105c0.68,5.393-3.856,9.928-9.249,9.249C509.967,289.696,506.999,286.728,506.536,283.054z"/>
			</g>
			<circle style="fill:#1C77B5;" cx="512.018" cy="320.38" r="4.074"/>
		</g>
		<g>
			<g>
				<g>
					<rect x="214.486" y="364.801" style="fill:#E8A060;" width="90.687" height="63.754"/>
					<rect x="208.597" y="364.801" style="fill:#AD7B55;" width="34.527" height="63.754"/>
					<rect x="224.354" y="364.801" style="fill:#936B50;" width="0.794" height="63.754"/>
					<rect x="219.305" y="364.801" style="fill:#EDC09F;" width="10.891" height="24.773"/>
					<g>
						<rect x="277.131" y="368.722" style="fill:#FFFFFF;" width="23.655" height="10.398"/>
						<g>
							<rect x="278.702" y="369.875" style="fill:#626D7F;" width="0.502" height="8.092"/>
							<rect x="282.624" y="369.875" style="fill:#626D7F;" width="0.502" height="8.092"/>
							<rect x="283.785" y="369.875" style="fill:#626D7F;" width="0.904" height="8.092"/>
							<rect x="279.637" y="369.875" style="fill:#626D7F;" width="0.21" height="8.092"/>
							<rect x="280.119" y="369.875" style="fill:#626D7F;" width="0.211" height="8.092"/>
							<rect x="280.601" y="369.875" style="fill:#626D7F;" width="0.21" height="8.092"/>
							<rect x="281.083" y="369.875" style="fill:#626D7F;" width="0.21" height="8.092"/>
							<rect x="281.565" y="369.875" style="fill:#626D7F;" width="0.21" height="8.092"/>
							<rect x="285.297" y="369.875" style="fill:#626D7F;" width="0.503" height="8.092"/>
							<rect x="286.231" y="369.875" style="fill:#626D7F;" width="0.21" height="8.092"/>
							<rect x="286.713" y="369.875" style="fill:#626D7F;" width="0.21" height="8.092"/>
							<rect x="287.195" y="369.875" style="fill:#626D7F;" width="0.21" height="8.092"/>
							<rect x="287.677" y="369.875" style="fill:#626D7F;" width="0.21" height="8.092"/>
							<rect x="288.159" y="369.875" style="fill:#626D7F;" width="0.21" height="8.092"/>
						</g>
						<rect x="290.772" y="369.884" style="fill:#626D7F;" width="9.114" height="2.775"/>
						<rect x="290.772" y="373.177" style="fill:#626D7F;" width="8.121" height="1.344"/>
						<rect x="290.772" y="374.871" style="fill:#626D7F;" width="8.121" height="0.701"/>
						<rect x="290.772" y="375.95" style="fill:#626D7F;" width="8.121" height="0.701"/>
						<rect x="290.772" y="377.011" style="fill:#626D7F;" width="8.121" height="0.701"/>
					</g>
				</g>
			</g>
			<g>
				<g>
					<rect x="267.848" y="364.801" style="fill:#E8A060;" width="90.687" height="63.754"/>
					<rect x="261.959" y="364.801" style="fill:#AD7B55;" width="34.527" height="63.754"/>
					<rect x="277.716" y="364.801" style="fill:#936B50;" width="0.794" height="63.754"/>
					<rect x="272.668" y="364.801" style="fill:#EDC09F;" width="10.891" height="24.773"/>
					<g>
						<rect x="330.493" y="368.722" style="fill:#FFFFFF;" width="23.655" height="10.398"/>
						<g>
							<rect x="332.065" y="369.875" style="fill:#626D7F;" width="0.502" height="8.092"/>
							<rect x="335.986" y="369.875" style="fill:#626D7F;" width="0.502" height="8.092"/>
							<rect x="337.147" y="369.875" style="fill:#626D7F;" width="0.904" height="8.092"/>
							<rect x="332.999" y="369.875" style="fill:#626D7F;" width="0.21" height="8.092"/>
							<rect x="333.481" y="369.875" style="fill:#626D7F;" width="0.211" height="8.092"/>
							<rect x="333.963" y="369.875" style="fill:#626D7F;" width="0.21" height="8.092"/>
							<rect x="334.445" y="369.875" style="fill:#626D7F;" width="0.21" height="8.092"/>
							<rect x="334.927" y="369.875" style="fill:#626D7F;" width="0.21" height="8.092"/>
							<rect x="338.659" y="369.875" style="fill:#626D7F;" width="0.503" height="8.092"/>
							<rect x="339.594" y="369.875" style="fill:#626D7F;" width="0.21" height="8.092"/>
							<rect x="340.076" y="369.875" style="fill:#626D7F;" width="0.21" height="8.092"/>
							<rect x="340.558" y="369.875" style="fill:#626D7F;" width="0.21" height="8.092"/>
							<rect x="341.04" y="369.875" style="fill:#626D7F;" width="0.21" height="8.092"/>
							<rect x="341.522" y="369.875" style="fill:#626D7F;" width="0.21" height="8.092"/>
						</g>
						<rect x="344.134" y="369.884" style="fill:#626D7F;" width="9.114" height="2.775"/>
						<rect x="344.134" y="373.177" style="fill:#626D7F;" width="8.121" height="1.344"/>
						<rect x="344.134" y="374.871" style="fill:#626D7F;" width="8.121" height="0.701"/>
						<rect x="344.134" y="375.95" style="fill:#626D7F;" width="8.121" height="0.701"/>
						<rect x="344.134" y="377.011" style="fill:#626D7F;" width="8.121" height="0.701"/>
					</g>
				</g>
			</g>
			<g>
				<g>
					<rect x="219.56" y="301.048" style="fill:#E8A060;" width="90.687" height="63.754"/>
					<rect x="213.671" y="301.048" style="fill:#AD7B55;" width="34.527" height="63.754"/>
					<rect x="229.428" y="301.048" style="fill:#936B50;" width="0.794" height="63.754"/>
					<rect x="224.38" y="301.048" style="fill:#EDC09F;" width="10.891" height="24.773"/>
					<g>
						<rect x="282.205" y="304.968" style="fill:#FFFFFF;" width="23.655" height="10.398"/>
						<g>
							<rect x="283.776" y="306.121" style="fill:#626D7F;" width="0.502" height="8.092"/>
							<rect x="287.698" y="306.121" style="fill:#626D7F;" width="0.502" height="8.092"/>
							<rect x="288.859" y="306.121" style="fill:#626D7F;" width="0.904" height="8.092"/>
							<rect x="284.711" y="306.121" style="fill:#626D7F;" width="0.21" height="8.092"/>
							<rect x="285.193" y="306.121" style="fill:#626D7F;" width="0.211" height="8.092"/>
							<rect x="285.675" y="306.121" style="fill:#626D7F;" width="0.21" height="8.092"/>
							<rect x="286.157" y="306.121" style="fill:#626D7F;" width="0.21" height="8.092"/>
							<rect x="286.639" y="306.121" style="fill:#626D7F;" width="0.21" height="8.092"/>
							<rect x="290.371" y="306.121" style="fill:#626D7F;" width="0.503" height="8.092"/>
							<rect x="291.305" y="306.121" style="fill:#626D7F;" width="0.21" height="8.092"/>
							<rect x="291.787" y="306.121" style="fill:#626D7F;" width="0.21" height="8.092"/>
							<rect x="292.269" y="306.121" style="fill:#626D7F;" width="0.211" height="8.092"/>
							<rect x="292.751" y="306.121" style="fill:#626D7F;" width="0.21" height="8.092"/>
							<rect x="293.233" y="306.121" style="fill:#626D7F;" width="0.21" height="8.092"/>
						</g>
						<rect x="295.846" y="306.13" style="fill:#626D7F;" width="9.114" height="2.775"/>
						<rect x="295.846" y="309.423" style="fill:#626D7F;" width="8.121" height="1.344"/>
						<rect x="295.846" y="311.117" style="fill:#626D7F;" width="8.121" height="0.701"/>
						<rect x="295.846" y="312.196" style="fill:#626D7F;" width="8.121" height="0.701"/>
						<rect x="295.846" y="313.257" style="fill:#626D7F;" width="8.121" height="0.701"/>
					</g>
				</g>
			</g>
		</g>
		<g>
			<path style="fill:none;stroke:#841849;stroke-width:13;stroke-linecap:round;stroke-miterlimit:10;" d="M573.368,164.886
				c-24.718,26.369-56.537,24.795-87.308-14.868"/>
			<g>
				<path style="fill:#A56F62;" d="M491.681,153.334c7.403-3.912-0.132-13.478-0.132-13.478l-0.001-8.505
					c0,0-7.574,0.33-5.924,7.747c0,0-8.051-7.09-12.678-6.619c-2.173,0.221-7.737,6.621-8.807,11.047
					c-0.227,0.938,0.36,1.871,1.304,2.074c2.267,0.486,6.681,1.9,9.502,5.813C478.874,156.866,487.031,161.913,491.681,153.334z"/>
				<path style="fill:#8C5C53;" d="M485.624,139.099c0,0-4.41,4.402-0.734,10.656c0,0-2.271-6.067,1.095-10.331L485.624,139.099z"/>
				<path style="fill:#8C5C53;" d="M478.069,148.959c0,0,1.255-4.892,4.803-8.493C482.871,140.466,477.53,141.562,478.069,148.959z"
					/>
				<g>
					<path style="fill:#8C5C53;" d="M478.599,147.119l0.061-0.407c0,0-7.141-4.73-14.228-4.15c-0.048,0.135-0.093,0.269-0.134,0.401
						C466.992,143.025,473.383,143.571,478.599,147.119z"/>
					<path style="fill:#8C5C53;" d="M480.954,141.933l0.521-0.413c0,0-5.412-6.643-11.883-6.721c-1.128,1.144-2.305,2.6-3.291,4.122
						c2.083,0.102,8.231,0.81,13.045,5.492l0.316-0.401c0,0-5.421-6.702-12.694-5.806l2.164-2.909
						C469.132,135.298,476.052,135.619,480.954,141.933z"/>
				</g>
			</g>
			<g>
				<g>
					
						<line style="fill:none;stroke:#252538;stroke-width:15;stroke-miterlimit:10;" x1="574.995" y1="257.639" x2="574.995" y2="428.347"/>
					<g>
						<path style="fill:#841849;" d="M564.532,401.85l0.097,11.043c0,0-13.79,0.195-17.205,15.663l37.904-0.033l-0.606-26.85
							L564.532,401.85z"/>
						<path style="fill:#FFFFFF;" d="M574.582,413.496c-0.046,2.396,1.422,4.368,3.278,4.403c1.856,0.036,3.398-1.878,3.444-4.274
							s-1.422-4.367-3.278-4.403C576.17,409.186,574.628,411.1,574.582,413.496z"/>
					</g>
				</g>
				<path style="fill:#252538;" d="M580.033,228.825h14.316c10.56,0,19.199,8.64,19.199,19.199v0c0,10.56-8.64,19.199-19.199,19.199
					h-14.316c-10.56,0-19.2-8.64-19.2-19.199v0C560.833,237.465,569.473,228.825,580.033,228.825z"/>
				<g>
					
						<line style="fill:none;stroke:#252538;stroke-width:15;stroke-miterlimit:10;" x1="598.436" y1="257.639" x2="598.436" y2="428.347"/>
					<g>
						<path style="fill:#E71C2E;" d="M587.973,401.85l0.097,11.043c0,0-13.79,0.195-17.205,15.663l37.904-0.033l-0.606-26.85
							L587.973,401.85z"/>
						<path style="fill:#FFFFFF;" d="M598.024,413.496c-0.046,2.396,1.422,4.368,3.278,4.403c1.856,0.036,3.398-1.878,3.444-4.274
							c0.046-2.396-1.422-4.367-3.278-4.403C599.611,409.186,598.07,411.1,598.024,413.496z"/>
					</g>
				</g>
			</g>
			<g>
				<g>
					<g>
						<path style="fill:#E71C2E;" d="M560.796,242.453h51.99v-72.285c0-8.231-6.673-14.904-14.904-14.904H580.01
							c-10.612,0-19.215,8.603-19.215,19.215V242.453z"/>
					</g>
					<polygon style="fill:#841849;" points="566.48,234.555 605.978,234.555 602.377,206.004 570.082,206.004 					"/>
					<path style="fill:#A56F62;" d="M597.77,162.305c0.753,4.277-4.432,8.764-11.581,10.023c-7.149,1.259-13.554-1.188-14.307-5.465
						c-0.753-4.277,4.432-8.764,11.581-10.023C590.612,155.581,597.018,158.028,597.77,162.305z"/>
				</g>
				<g>
					<g>
						<path style="fill:#252538;" d="M586.217,69.783c1.873,0,3.574,2.123,5.376,2.38c1.847,0.263,4.074-1.293,5.827-0.779
							c1.784,0.523,2.817,3.04,4.484,3.802c1.685,0.771,4.263-0.091,5.809,0.904c1.555,1.001,1.836,3.707,3.228,4.913
							c1.394,1.209,4.112,1.106,5.321,2.5c1.207,1.392,0.72,4.066,1.721,5.621c0.995,1.545,3.633,2.208,4.404,3.894
							c0.762,1.667-0.459,4.094,0.064,5.878c0.514,1.753,2.857,3.135,3.12,4.982c0.257,1.802-1.6,3.785-1.6,5.658
							c0,1.873,1.857,3.856,1.6,5.658c-0.263,1.847-2.606,3.229-3.12,4.982c-0.523,1.784,0.698,4.212-0.064,5.879
							c-0.771,1.685-3.409,2.348-4.405,3.894c-1.001,1.555-0.514,4.23-1.721,5.621c-1.209,1.394-3.927,1.29-5.321,2.5
							c-1.392,1.207-1.673,3.912-3.228,4.913c-1.545,0.995-4.123,0.133-5.809,0.904c-1.667,0.762-2.7,3.279-4.483,3.802
							c-1.753,0.514-3.98-1.042-5.827-0.779c-1.802,0.257-3.503,2.38-5.376,2.38c-1.873,0-3.574-2.123-5.376-2.38
							c-1.847-0.263-4.074,1.293-5.827,0.779c-1.784-0.523-2.817-3.04-4.484-3.802c-1.685-0.771-4.263,0.091-5.809-0.904
							c-1.555-1.001-1.836-3.707-3.228-4.913c-1.394-1.209-4.112-1.105-5.321-2.5c-1.207-1.392-0.72-4.066-1.721-5.621
							c-0.995-1.545-3.633-2.208-4.404-3.894c-0.762-1.667,0.459-4.094-0.064-5.878c-0.514-1.753-2.857-3.135-3.12-4.982
							c-0.257-1.802,1.6-3.785,1.6-5.658c0-1.873-1.857-3.856-1.6-5.658c0.263-1.847,2.606-3.229,3.12-4.982
							c0.523-1.784-0.698-4.212,0.064-5.879c0.771-1.685,3.409-2.349,4.405-3.894c1.001-1.555,0.514-4.23,1.721-5.621
							c1.209-1.394,3.927-1.29,5.321-2.499c1.392-1.207,1.673-3.912,3.228-4.913c1.545-0.995,4.123-0.133,5.808-0.904
							c1.667-0.762,2.7-3.279,4.483-3.802c1.753-0.514,3.98,1.042,5.827,0.779C582.643,71.905,584.344,69.783,586.217,69.783z"/>
					</g>
					<g>
						<path style="fill:#252538;" d="M562.859,120.407h45.232V114.9c0-12.019-9.743-21.762-21.761-21.762h-1.709
							c-12.019,0-21.762,9.743-21.762,21.762V120.407z"/>
						<path style="fill:#A56F62;" d="M584.986,104.373h1.034c6.631,0,12.006,5.375,12.006,12.006v47.258H572.98v-47.258
							C572.98,109.748,578.355,104.373,584.986,104.373z"/>
						<path style="fill:#8C5C53;" d="M584.986,104.373h1.034c6.631,0,12.006,5.375,12.006,12.006v34.735
							c0,6.916-5.607,12.523-12.523,12.523l0,0c-6.916,0-12.523-5.607-12.523-12.523v-34.735
							C572.98,109.748,578.355,104.373,584.986,104.373z"/>
						<path style="fill:#8C5C53;" d="M562.187,125.498h46.677c2.042,0,3.698-1.655,3.698-3.698l0,0c0-2.042-1.655-3.698-3.698-3.698
							h-46.677c-2.042,0-3.698,1.656-3.698,3.698l0,0C558.49,123.842,560.145,125.498,562.187,125.498z"/>
						<path style="fill:#AA635F;" d="M610.626,121.8L610.626,121.8c0-0.973-0.789-1.762-1.762-1.762h-46.677
							c-0.973,0-1.762,0.789-1.762,1.762l0,0c0,0.973,0.789,1.762,1.762,1.762h46.677
							C609.837,123.562,610.626,122.773,610.626,121.8z"/>
						<path style="fill:#A56F62;" d="M585.526,153.47L585.526,153.47c11.399,0,20.64-9.241,20.64-20.64v-19.593
							c0-10.929-8.859-19.788-19.788-19.788h-1.704c-10.928,0-19.788,8.859-19.788,19.788v19.593
							C564.886,144.229,574.126,153.47,585.526,153.47z"/>
						<g>
							<path style="fill:#252538;" d="M580.219,132.892c2.215-0.451,5.301-1.234,8.189-2.497c1.899-0.831,3.694,1.549,2.768,3.707
								c-0.986,2.296-2.804,4.488-6.158,4.937c-2.748,0.368-4.543-0.28-5.714-1.251
								C577.647,136.413,578.245,133.294,580.219,132.892z"/>
							<path style="fill:#FF9292;" d="M585.018,139.039c3.354-0.449,5.172-2.641,6.158-4.937c0.139-0.324,0.21-0.651,0.235-0.973
								c-1.221-0.485-2.825-0.631-4.94-0.068c-3.268,0.87-4.777,3.271-5.446,5.67c-0.001,0.005-0.001,0.009-0.003,0.014
								C582.058,139.11,583.362,139.261,585.018,139.039z"/>
							<path style="fill:#FFABAB;" d="M583.284,136.363c0.357,0.553,1.626,0.403,2.835-0.335c1.209-0.738,1.899-1.785,1.542-2.339
								c-0.357-0.553-1.626-0.403-2.835,0.335C583.617,134.762,582.927,135.809,583.284,136.363z"/>
							<path style="fill:#FFFFFF;" d="M580.219,132.892c2.215-0.451,5.301-1.234,8.189-2.497c1.166-0.51,2.291,0.193,2.772,1.309
								c-1.656,1.618-4.234,2.983-7.285,3.68c-1.956,0.447-3.857,0.56-5.548,0.39C578.279,134.479,578.975,133.145,580.219,132.892z
								"/>
						</g>
						<path style="fill:#252538;" d="M582.815,92.809h5.319c11.022,0,19.957,8.935,19.957,19.957v1.511
							c0,0.159-0.006,0.316-0.019,0.471c-0.241,2.99-4.762,2.714-4.762-0.287v-0.728c0-5.3-4.296-9.596-9.596-9.596h-16.479
							c-5.3,0-9.596,4.296-9.596,9.596v0.728c0,3-4.521,3.277-4.762,0.287c-0.012-0.155-0.019-0.313-0.019-0.471v-1.511
							C562.859,101.744,571.794,92.809,582.815,92.809z"/>
						<g>
							<path style="fill:#8C5C53;" d="M591.124,117.392h4.561c1.038,0,1.879,0.841,1.879,1.88c0,1.038-0.841,1.879-1.879,1.879
								h-4.561c-1.038,0-1.88-0.841-1.88-1.879C589.244,118.233,590.086,117.392,591.124,117.392z"/>
							<path style="fill:#8C5C53;" d="M570.628,117.392h4.56c1.038,0,1.879,0.841,1.879,1.88c0,1.038-0.842,1.879-1.879,1.879h-4.56
								c-1.038,0-1.88-0.841-1.88-1.879C568.748,118.233,569.59,117.392,570.628,117.392z"/>
						</g>
						<g>
							<path style="fill:#252538;" d="M592.358,116.856c1.334,0,2.416,1.082,2.416,2.416c0,1.334-1.081,2.415-2.416,2.415
								s-2.416-1.081-2.416-2.415C589.942,117.938,591.024,116.856,592.358,116.856z"/>
							<path style="fill:#252538;" d="M574.055,116.856c1.334,0,2.416,1.082,2.416,2.416c0,1.334-1.082,2.415-2.416,2.415
								s-2.416-1.081-2.416-2.415C571.639,117.938,572.721,116.856,574.055,116.856z"/>
						</g>
						<g>
							<path style="fill:#252538;" d="M570.879,112.416l4.187-1.319c0.918-0.289,1.896,0.221,2.185,1.138
								c0.289,0.918-0.221,1.896-1.138,2.185l-4.187,1.319c-0.918,0.289-1.896-0.22-2.185-1.138
								C569.452,113.684,569.961,112.705,570.879,112.416z"/>
							<path style="fill:#252538;" d="M593.069,111.097l4.187,1.319c0.918,0.289,1.427,1.267,1.138,2.185
								c-0.289,0.918-1.267,1.427-2.185,1.138l-4.187-1.319c-0.918-0.289-1.427-1.267-1.138-2.185
								C591.174,111.318,592.152,110.808,593.069,111.097z"/>
						</g>
						<path style="fill:#8C5C53;" d="M581.017,143.714c0.335,1.042,2.625,1.239,5.115,0.44c2.49-0.799,4.237-2.292,3.903-3.335
							c-0.335-1.042-2.625-1.239-5.115-0.44C582.43,141.178,580.682,142.671,581.017,143.714z"/>
						<g>
							<path style="fill:#D88D87;" d="M582.791,129.306L582.791,129.306c1.899,0,3.438-1.539,3.438-3.438v-5.574
								c0-1.899-1.539-3.438-3.438-3.438l0,0c-1.898,0-3.438,1.539-3.438,3.438v5.574
								C579.354,127.767,580.893,129.306,582.791,129.306z"/>
							<path style="fill:#F79C97;" d="M580.965,127.354L580.965,127.354c0.502,0,0.908-0.407,0.908-0.908v-6.453
								c0-0.502-0.406-0.908-0.908-0.908l0,0c-0.501,0-0.908,0.407-0.908,0.908v6.453
								C580.057,126.947,580.464,127.354,580.965,127.354z"/>
						</g>
					</g>
				</g>
				<path style="fill:none;stroke:#FFFFFF;stroke-miterlimit:10;" d="M590.804,175.9c0,0,9.394,13.301,0.377,32.88"/>
				<path style="fill:none;stroke:#FFFFFF;stroke-miterlimit:10;" d="M580.486,175.9c0,0-9.394,13.301-0.377,32.88"/>
			</g>
			<g>
				<path style="fill:#FF8B0D;" d="M517.082,162.215c0-14.738-10.061-27.124-23.689-30.671v-1.021h-8.003
					c-17.503,0-31.692,14.189-31.692,31.692s14.189,31.692,31.692,31.692h8.003v-1.021
					C507.021,189.339,517.082,176.953,517.082,162.215z"/>
				
					<ellipse transform="matrix(0.2298 -0.9732 0.9732 0.2298 222.1591 605.1406)" style="fill:#ECB220;" cx="493.394" cy="162.215" rx="31.692" ry="31.692"/>
				<circle style="fill:#EDCB3A;" cx="493.394" cy="162.215" r="23.472"/>
				<g>
					<g>
						<path style="fill:#FFEEA4;" d="M512.409,157.889c-0.466-2.059-1.254-3.996-2.315-5.751l-26.777,26.777
							c1.755,1.061,3.692,1.849,5.751,2.315L512.409,157.889z"/>
						<path style="fill:#FFEEA4;" d="M496.769,143.009l-22.581,22.581c0.808,4.631,3.246,8.7,6.706,11.593l27.467-27.467
							C505.469,146.256,501.4,143.818,496.769,143.009z"/>
					</g>
				</g>
			</g>
			<path style="fill:none;stroke:#841849;stroke-width:13;stroke-linecap:round;stroke-miterlimit:10;" d="M606.166,169.227
				c-14.296,33.195-44.76,42.518-87.17,15.659"/>
			<g>
				<g>
					<path style="fill:#A56F62;" d="M523.282,187.579c6.275-4.512-1.823-12.308-1.823-12.308l-1.074-7.776
						c0,0-6.884,1.258-4.44,7.832c0,0-6.289-3.043-8.727-7.665c-2.976-5.642-10.059,7.629-8.872,13.996
						c0.644,3.458,5.875,3.651,8.949,6.873C511.577,193.021,520.113,196.011,523.282,187.579z"/>
				</g>
				<g>
					<path style="fill:#8C5C53;" d="M510.647,181.429l-0.251,0.512c0,0-7.128-2.466-11.177-7.305
						c0.109-0.328,0.222-0.654,0.345-0.978C501.008,175.752,504.181,179.11,510.647,181.429z"/>
					<path style="fill:#8C5C53;" d="M508.518,185.078c0,0-6.451-2.155-10.292-5.469c0.015-0.347,0.047-0.704,0.091-1.068
						c1.608,1.446,5.082,4.121,10.483,5.994L508.518,185.078z"/>
					<path style="fill:#8C5C53;" d="M512.635,178.075c0,0-7.345-2.292-10.859-8.8c0.269-0.403,0.544-0.774,0.822-1.11
						c1.298,2.584,4.183,6.717,10.189,9.548L512.635,178.075z"/>
				</g>
			</g>
		</g>
		<g>
			<g>
				<path style="fill:none;stroke:#FFB692;stroke-width:10;stroke-miterlimit:10;" d="M182.106,179.614
					c6.904,50.938,32.072,72.86,66.092,54.237"/>
			</g>
			<g>
				<path style="fill:#FFB692;" d="M233.2,236.386c8.518,9.212,21.498,8.397,31.703,0H233.2z"/>
			</g>
			<path style="fill:#98D3E5;" d="M176.176,200.524l-3.352-19.573c-0.672-5.538,3.272-10.572,8.81-11.244l0,0
				c5.538-0.672,10.572,3.272,11.244,8.81l3.352,19.573L176.176,200.524z"/>
			<g>
				
					<line style="fill:none;stroke:#284159;stroke-width:15;stroke-miterlimit:10;" x1="173.559" y1="257.639" x2="173.559" y2="428.347"/>
				<g>
					<path style="fill:#FF8B0D;" d="M184.021,401.85l-0.097,11.043c0,0,13.79,0.195,17.205,15.663l-37.904-0.033l0.606-26.85
						L184.021,401.85z"/>
					<path style="fill:#19283B;" d="M173.971,413.496c0.046,2.396-1.422,4.368-3.278,4.403c-1.856,0.036-3.398-1.878-3.444-4.274
						s1.422-4.367,3.278-4.403C172.383,409.186,173.925,411.1,173.971,413.496z"/>
				</g>
			</g>
			<path style="fill:#284159;" d="M168.52,228.825h-14.316c-10.56,0-19.199,8.64-19.199,19.199v0c0,10.56,8.64,19.199,19.199,19.199
				h14.316c10.56,0,19.2-8.64,19.2-19.199v0C187.72,237.465,179.08,228.825,168.52,228.825z"/>
			<g>
				<path style="fill:#C0F3FF;" d="M185.713,237.263c0.012,2.104-1.174,4.046-3.072,4.953c-4.203,2.008-10.306,4.208-17.883,4.739
					c-10.664,0.748-19.23-2.159-24.344-4.511c-1.927-0.886-3.151-2.823-3.163-4.943c-0.102-19.124-0.205-36.649-0.307-55.659
					c-0.059-10.98,8.794-19.931,19.774-19.989l10.018-0.053c10.253-0.054,18.609,8.213,18.663,18.466L185.713,237.263z"/>
			</g>
			<g>
				<g>
					<path style="fill:#FFB692;" d="M148.737,163.372c-0.715,4.191,4.385,8.558,11.39,9.753c7.006,1.195,13.264-1.234,13.979-5.425
						c0.715-4.191-4.384-8.558-11.39-9.753C155.711,156.752,149.452,159.181,148.737,163.372z"/>
				</g>
				<g>
					<path style="fill:#FFB692;" d="M161.021,100.682l-0.936,0.005c-6.001,0.032-10.826,7.657-10.776,17.031l0.246,46.473
						l22.669-0.12l-0.246-46.473C171.928,108.223,167.022,100.65,161.021,100.682z"/>
					<path style="fill:#D88D87;" d="M161.021,100.682l-0.936,0.005c-6.001,0.032-10.829,7.103-10.783,15.793l0.169,31.751
						c0.033,6.26,5.135,11.308,11.394,11.274l0,0c6.26-0.033,11.308-5.135,11.274-11.394l-0.168-31.751
						C171.925,107.669,167.022,100.65,161.021,100.682z"/>
					<path style="fill:#252538;" d="M172.958,138.601l-24.432,0.13c-5.781,0.031-10.492-4.631-10.523-10.412l-0.076-14.223
						c-0.066-12.528,10.035-22.737,22.563-22.804l0,0c12.528-0.066,22.737,10.035,22.804,22.563l0.076,14.223
						C183.4,133.859,178.739,138.57,172.958,138.601z"/>
					<path style="fill:#252538;" d="M181.012,107.227c10.835-7.556,3.478-23.852,3.478-23.852l-7.528,7.916
						c0,0,1.666-10.015-5.23-14.459l-5.308,10.543c0,0-31.244-3.852-28.486,25.918L181.012,107.227z"/>
					<path style="fill:#D88D87;" d="M182.758,124.902h-45.081c-1.972,0-3.571-1.599-3.571-3.571l0,0
						c0-1.972,1.599-3.571,3.571-3.571h45.081c1.972,0,3.571,1.599,3.571,3.571l0,0
						C186.329,123.303,184.731,124.902,182.758,124.902z"/>
					<path style="fill:#AA635F;" d="M137.678,123.063c-0.955,0-1.732-0.777-1.732-1.732c0-0.955,0.777-1.732,1.732-1.732h45.081
						c0.955,0,1.732,0.777,1.732,1.732c0,0.955-0.777,1.732-1.732,1.732H137.678z"/>
					<path style="fill:#FFB692;" d="M160.81,153.302L160.81,153.302c-11.216,0.059-20.357-8.985-20.417-20.202l-0.102-19.279
						c-0.057-10.753,8.614-19.517,19.367-19.574l1.677-0.009c10.753-0.057,19.517,8.614,19.574,19.367l0.102,19.279
						C181.071,144.102,172.027,153.243,160.81,153.302z"/>
					<path style="fill:#252538;" d="M139.921,127.578h2.852v-19.351c0,0,4.786-0.869,8.543-4.68c1.833-1.86,4.365-2.865,6.976-2.865
						h10.253c3.585,0,6.837,1.96,8.651,5.051c0.757,1.289,1.831,2.738,3.354,4.238v17.607h1.555v-22.442
						c0-1.917-0.727-3.757-2.044-5.151c-3.105-3.286-9.714-8.693-19.572-8.693c-10.411,0-16.432,6.806-18.891,10.41
						c-0.854,1.251-1.309,2.723-1.309,4.238L139.921,127.578z"/>
					<g>
						<path style="fill:#D88D87;" d="M155.848,117.571l-4.667,0.025c-1.062,0.006-1.919,0.871-1.913,1.934
							c0.006,1.062,0.871,1.919,1.934,1.913l4.667-0.025c1.062-0.006,1.919-0.871,1.913-1.934
							C157.777,118.422,156.911,117.565,155.848,117.571z"/>
						<path style="fill:#D88D87;" d="M176.824,117.459l-4.667,0.025c-1.062,0.006-1.919,0.871-1.913,1.934
							c0.006,1.063,0.871,1.919,1.934,1.913l4.667-0.025c1.062-0.006,1.919-0.871,1.913-1.934
							C178.753,118.31,177.887,117.454,176.824,117.459z"/>
					</g>
					<g>
						<path style="fill:#252538;" d="M154.997,117.306c-1.313,0.007-2.371,1.077-2.364,2.389c0.007,1.313,1.077,2.371,2.39,2.364
							c1.313-0.007,2.371-1.077,2.364-2.389C157.379,118.357,156.309,117.299,154.997,117.306z"/>
						<path style="fill:#252538;" d="M173.006,117.21c-1.313,0.007-2.371,1.077-2.364,2.39c0.007,1.313,1.077,2.371,2.389,2.364
							c1.313-0.007,2.371-1.077,2.364-2.389C175.389,118.262,174.319,117.203,173.006,117.21z"/>
					</g>
					<g>
						<path style="fill:#252538;" d="M175.754,112.827l-4.127-1.276c-0.904-0.28-1.864,0.227-2.144,1.131
							c-0.28,0.905,0.227,1.864,1.131,2.144l4.127,1.276c0.904,0.28,1.864-0.227,2.144-1.131
							C177.165,114.066,176.659,113.106,175.754,112.827z"/>
						<path style="fill:#252538;" d="M153.913,111.645l-4.113,1.32c-0.901,0.289-1.398,1.254-1.108,2.156
							c0.289,0.901,1.254,1.398,2.156,1.108l4.113-1.32c0.901-0.289,1.398-1.254,1.108-2.156
							C155.779,111.852,154.814,111.356,153.913,111.645z"/>
					</g>
					<path style="fill:#D88D87;" d="M165.922,142.799c-0.178,1.063-2.379,1.579-4.917,1.155c-2.538-0.425-4.451-1.63-4.274-2.693
						c0.178-1.062,2.379-1.579,4.917-1.155C164.186,140.531,166.099,141.737,165.922,142.799z"/>
					<path style="fill:#D88D87;" d="M164.066,129.508L164.066,129.508c-1.868,0.01-3.391-1.497-3.4-3.365l-0.029-5.485
						c-0.01-1.868,1.496-3.391,3.365-3.4l0,0c1.868-0.01,3.391,1.496,3.401,3.365l0.029,5.485
						C167.441,127.975,165.935,129.498,164.066,129.508z"/>
					<path style="fill:#F79C97;" d="M165.853,127.578L165.853,127.578c-0.493,0.003-0.896-0.395-0.898-0.889l-0.034-6.349
						c-0.003-0.493,0.395-0.896,0.889-0.898l0,0c0.494-0.003,0.896,0.396,0.898,0.889l0.034,6.349
						C166.745,127.173,166.346,127.575,165.853,127.578z"/>
					<g>
						<path style="fill:#252538;" d="M167.244,132.322c-2.354-0.467-5.636-1.28-8.71-2.605c-2.022-0.872-3.914,1.666-2.919,3.952
							c1.06,2.432,3.003,4.75,6.567,5.208c2.921,0.375,4.823-0.322,6.061-1.361C169.996,136.047,169.343,132.738,167.244,132.322z"
							/>
						<path style="fill:#FF9292;" d="M162.184,138.877c-3.564-0.458-5.507-2.775-6.567-5.208c-0.149-0.343-0.226-0.69-0.255-1.032
							c1.293-0.522,2.996-0.686,5.246-0.1c3.475,0.905,5.091,3.447,5.815,5.99c0.001,0.005,0.002,0.01,0.003,0.015
							C165.327,138.935,163.943,139.103,162.184,138.877z"/>
						<path style="fill:#FFABAB;" d="M164.01,136.025c-0.376,0.59-1.725,0.438-3.012-0.339c-1.288-0.777-2.026-1.885-1.65-2.475
							c0.376-0.589,1.724-0.438,3.012,0.34C163.647,134.328,164.386,135.436,164.01,136.025z"/>
						<path style="fill:#FFFFFF;" d="M167.244,132.322c-2.354-0.467-5.636-1.28-8.71-2.605c-1.242-0.536-2.432,0.217-2.937,1.406
							c1.767,1.709,4.513,3.144,7.756,3.866c2.08,0.463,4.099,0.573,5.893,0.383C169.314,133.996,168.567,132.585,167.244,132.322z"
							/>
					</g>
				</g>
			</g>
			<g>
				
					<line style="fill:none;stroke:#284159;stroke-width:15;stroke-miterlimit:10;" x1="150.117" y1="257.639" x2="150.117" y2="428.347"/>
				<g>
					<path style="fill:#ECB220;" d="M160.58,401.85l-0.097,11.043c0,0,13.79,0.195,17.205,15.663l-37.904-0.033l0.606-26.85
						L160.58,401.85z"/>
					<path style="fill:#19283B;" d="M150.529,413.496c0.046,2.396-1.422,4.368-3.278,4.403c-1.856,0.036-3.398-1.878-3.444-4.274
						c-0.046-2.396,1.422-4.367,3.278-4.403C148.942,409.186,150.484,411.1,150.529,413.496z"/>
				</g>
			</g>
			<g>
				<path style="fill:none;stroke:#FFB692;stroke-width:10;stroke-miterlimit:10;" d="M82.532,119.806
					c-10.79,37.352,24.261,60.897,48.035,57.02"/>
				<g>
					<path style="fill:#FFB692;" d="M83.344,126.293c7.832,3.624,10.965-8.528,10.965-8.528l6.971-5.313
						c0,0-5.002-6.003-10.052-0.017c0,0,0.783-11.028-2.495-14.527c-1.539-1.643-10.261-2.205-14.557-0.318
						c-0.911,0.4-1.309,1.464-0.885,2.364c1.018,2.162,2.616,6.663,1.171,11.421C72.449,118.002,73.407,127.841,83.344,126.293z"/>
					<path style="fill:#D88D87;" d="M91.229,112.435c0,0-6.363-0.865-9.193,6.055c0,0,3.555-5.652,9.153-5.556L91.229,112.435z"/>
					<path style="fill:#D88D87;" d="M78.427,112.402c0,0,4.794-2.027,9.962-1.369C88.389,111.034,84.154,107.34,78.427,112.402z"/>
					<g>
						<path style="fill:#D88D87;" d="M80.266,111.687l0.372-0.204c0,0-0.584-8.808-5.486-14.256
							c-0.141,0.045-0.278,0.092-0.412,0.141C76.371,99.616,79.916,105.195,80.266,111.687z"/>
						<path style="fill:#D88D87;" d="M85.988,110.379l0.664,0.169c0,0,2.065-8.586-1.914-13.939
							c-1.642-0.21-3.572-0.265-5.435-0.123c1.217,1.771,4.477,7.253,3.647,14.124l0.526,0.009c0,0,2.107-8.63-3.171-14.032
							l3.737-0.043C84.042,96.542,88.102,102.415,85.988,110.379z"/>
					</g>
				</g>
			</g>
			<path style="fill:#98D3E5;" d="M116.633,166.88l19.853,0.428c5.565,0.392,9.757,5.222,9.365,10.786v0
				c-0.393,5.565-5.221,9.758-10.786,9.365l-19.853-0.428L116.633,166.88z"/>
			<g>
				<polygon style="fill:#294459;" points="280.226,233.848 229.173,233.842 239.834,197.944 290.834,197.944 				"/>
				<rect x="205.561" y="233.836" style="fill:#3E5C70;" width="74.661" height="2.55"/>
				<rect x="229.175" y="233.836" style="fill:#252538;" width="51.047" height="2.55"/>
				<polygon style="fill:#3E5C70;" points="239.834,197.944 237.896,197.944 227.084,233.951 229.175,233.836 				"/>
				<path style="fill:#FFFFFF;" d="M264.379,213.66c-2.094-0.682-4.438,0.748-5.234,3.194c-0.797,2.446,0.256,4.982,2.35,5.664
					c2.094,0.682,4.438-0.748,5.234-3.194C267.526,216.878,266.474,214.342,264.379,213.66z"/>
			</g>
		</g>
	</g>
</g>
</svg>
