<?xml version="1.0" encoding="utf-8"?>
<!-- Generator: Adobe Illustrator 27.5.0, SVG Export Plug-In . SVG Version: 6.00 Build 0)  -->
<svg version="1.1" xmlns="http://www.w3.org/2000/svg" xmlns:xlink="http://www.w3.org/1999/xlink" x="0px" y="0px"
	 viewBox="0 0 750 500" style="enable-background:new 0 0 750 500;" xml:space="preserve">
<g id="BACKGROUND">
	<rect x="125" style="fill-rule:evenodd;clip-rule:evenodd;fill:#FFFFFF;" width="500" height="500"/>
</g>
<g id="OBJECTS">
	<g>
		<path style="fill-rule:evenodd;clip-rule:evenodd;fill:#DBD7EB;" d="M637.087,189.86c1.237-3.815,1.913-7.882,1.913-12.11
			c0-19.124-13.681-35.045-31.786-38.532c-2.064-38.674-34.071-69.399-73.261-69.399c-18.824,0-35.99,7.094-48.981,18.748
			c-29.358-29.814-69.313-48.004-118.994-48.004c-50.76,0-101.389,27.515-134.719,70.336c-10.878-4.643-22.85-7.217-35.425-7.217
			c-49.874,0-90.302,40.43-90.302,90.302c0,16.801,4.593,32.527,12.585,45.999c-10.155,16.849-14.818,36.475-14.818,54.312
			c0,3.155,0.001,5.703,0.003,7.754c0.071-0.006,0.141-0.017,0.211-0.021c0.016-0.233,0.033-0.268,0.051-0.006
			c-0.017,0.001-0.034,0.004-0.051,0.006c-0.125,1.802-0.197,15.726-0.211,0.021c-25.766,2.197-46.026,24.338-46.026,52.841
			c0,28.6,22.434,53.019,50.114,53.019h258.588h190.229C689.001,407.908,698.206,261.819,637.087,189.86z"/>
		<g>
			<path style="fill-rule:evenodd;clip-rule:evenodd;fill:#B8B0D6;" d="M115.517,342.38c-1.438-1.439-3.16-2.599-5.079-3.394
				c-1.844-0.766-3.863-1.186-5.976-1.186s-4.13,0.421-5.976,1.186c-1.917,0.795-3.641,1.955-5.079,3.394
				c-1.438,1.438-2.599,3.16-3.393,5.077c-0.765,1.846-1.186,3.863-1.186,5.976c0,2.113,0.421,4.133,1.186,5.977
				c0.793,1.917,1.954,3.641,3.393,5.079c1.438,1.438,3.16,2.599,5.077,3.392c1.844,0.766,3.863,1.188,5.978,1.188
				c2.113,0,4.132-0.422,5.976-1.186c1.918-0.795,3.641-1.956,5.079-3.393c1.438-1.439,2.599-3.162,3.392-5.079
				c0.765-1.844,1.186-3.863,1.186-5.977c0-2.112-0.421-4.13-1.186-5.976C118.115,345.54,116.955,343.817,115.517,342.38
				L115.517,342.38z M109.89,340.32c1.73,0.717,3.292,1.772,4.603,3.083c1.31,1.312,2.365,2.873,3.082,4.604
				c0.691,1.668,1.072,3.5,1.072,5.426c0,1.926-0.381,3.76-1.072,5.429c-0.717,1.73-1.772,3.292-3.082,4.603
				c-1.311,1.311-2.873,2.365-4.603,3.082c-1.668,0.691-3.502,1.073-5.428,1.073c-1.924,0-3.756-0.382-5.423-1.073
				c-1.735-0.717-3.297-1.771-4.606-3.082c-1.311-1.311-2.367-2.872-3.083-4.603c-0.691-1.669-1.072-3.503-1.072-5.429
				c0-1.926,0.381-3.758,1.072-5.426c0.717-1.73,1.772-3.292,3.083-4.604c1.31-1.31,2.871-2.366,4.603-3.083
				c1.668-0.691,3.5-1.072,5.426-1.072C106.387,339.248,108.221,339.629,109.89,340.32L109.89,340.32z M111.617,328.816
				c0.979,0.283,1.94,0.628,2.883,1.028c0.954,0.406,1.877,0.869,2.766,1.382c0.902,0.521,1.774,1.099,2.607,1.729
				c0.837,0.631,1.634,1.309,2.382,2.03c0.266,0.256,0.595,0.404,0.936,0.446c0.347,0.044,0.707-0.028,1.019-0.209
				c2.295-1.326,4.71-2.637,6.96-4.019c0.108-0.057,0.222-0.092,0.337-0.104c0.128-0.015,0.259-0.005,0.382,0.028
				c0.128,0.035,0.249,0.094,0.353,0.173c0.1,0.076,0.187,0.173,0.254,0.288c1.673,2.532,3.354,5.805,4.902,8.49
				c0.067,0.113,0.107,0.237,0.124,0.358c0.017,0.131,0.005,0.266-0.03,0.396c-0.033,0.127-0.092,0.247-0.172,0.353
				c-0.075,0.099-0.172,0.186-0.287,0.254c-2.066,1.364-4.727,2.73-6.917,3.995c-0.32,0.184-0.556,0.461-0.689,0.774
				c-0.047,0.108-0.081,0.224-0.102,0.341l-0.144,0.047l0.16,0.645c0.125,0.508,0.235,1.016,0.328,1.52
				c0.09,0.493,0.168,1.008,0.233,1.544c0.063,0.522,0.112,1.042,0.142,1.555c0.03,0.499,0.045,1.025,0.045,1.571
				c0,0.547-0.015,1.071-0.045,1.57c-0.03,0.515-0.079,1.034-0.142,1.559c-0.065,0.534-0.144,1.049-0.233,1.54
				c-0.092,0.506-0.202,1.014-0.329,1.521c-0.092,0.375-0.045,0.753,0.105,1.078c0.149,0.324,0.408,0.599,0.74,0.768l6.123,3.536
				l-0.002,0.002l0.727,0.419c0.115,0.066,0.212,0.153,0.289,0.254c0.078,0.104,0.137,0.224,0.17,0.353
				c0.035,0.13,0.047,0.266,0.03,0.394c-0.017,0.124-0.057,0.246-0.124,0.361l-4.533,7.856l-0.003-0.002l-0.366,0.635
				c-0.067,0.115-0.154,0.212-0.254,0.289c-0.104,0.078-0.224,0.137-0.353,0.17c-0.129,0.035-0.264,0.046-0.393,0.03
				c-0.122-0.017-0.244-0.057-0.359-0.123c-2.193-1.378-4.668-2.692-6.932-3.999c-0.324-0.185-0.676-0.249-1.012-0.209
				c-0.348,0.042-0.678,0.194-0.937,0.443l-0.002,0.003c-0.75,0.722-1.545,1.4-2.383,2.032c-0.832,0.627-1.704,1.205-2.605,1.725
				c-0.894,0.518-1.824,0.983-2.786,1.392c-0.944,0.4-1.924,0.748-2.933,1.037c-0.354,0.102-0.649,0.313-0.857,0.59
				c-0.211,0.277-0.331,0.624-0.331,0.986l-0.003,7.992c0,0.134-0.026,0.263-0.073,0.376c-0.05,0.118-0.126,0.229-0.219,0.322
				c-0.09,0.094-0.202,0.169-0.322,0.219c-0.115,0.047-0.241,0.073-0.376,0.073h-9.808c-0.133,0-0.26-0.026-0.376-0.073
				c-0.12-0.052-0.23-0.125-0.322-0.217c-0.094-0.096-0.169-0.206-0.217-0.324c-0.048-0.113-0.073-0.242-0.073-0.376v-7.992
				c0-0.379-0.134-0.731-0.356-1.014c-0.226-0.287-0.545-0.496-0.907-0.581c-0.979-0.282-1.939-0.626-2.881-1.027
				c-0.954-0.405-1.879-0.868-2.768-1.383c-0.902-0.52-1.772-1.099-2.605-1.727c-0.838-0.632-1.633-1.31-2.381-2.033
				c-0.277-0.266-0.628-0.416-0.986-0.447c-0.364-0.035-0.738,0.055-1.052,0.262l-6.841,3.95c-0.114,0.065-0.237,0.105-0.362,0.122
				c-0.129,0.016-0.264,0.005-0.395-0.03c-0.129-0.033-0.249-0.092-0.352-0.17c-0.099-0.077-0.187-0.174-0.252-0.289
				c-1.627-2.834-3.277-5.657-4.903-8.491c-0.067-0.113-0.107-0.237-0.122-0.36c-0.017-0.129-0.007-0.263,0.028-0.395
				c0.035-0.129,0.092-0.249,0.17-0.353c0.075-0.102,0.17-0.187,0.284-0.252l6.921-3.997c0.321-0.184,0.556-0.459,0.69-0.773
				c0.037-0.085,0.065-0.174,0.087-0.264l0.18-0.035l-0.182-0.734c-0.125-0.507-0.235-1.014-0.327-1.52
				c-0.09-0.491-0.169-1.005-0.234-1.541c-0.063-0.524-0.112-1.044-0.142-1.559c-0.03-0.499-0.045-1.023-0.045-1.57
				c0-0.546,0.015-1.07,0.045-1.569c0.03-0.513,0.079-1.032,0.142-1.556c0.067-0.542,0.145-1.059,0.234-1.546
				c0.093-0.505,0.202-1.011,0.327-1.518c0.094-0.377,0.048-0.757-0.104-1.08c-0.152-0.324-0.407-0.597-0.736-0.766l-6.854-3.956
				c-0.112-0.064-0.209-0.152-0.286-0.254c-0.077-0.101-0.135-0.223-0.17-0.353c-0.035-0.131-0.045-0.264-0.028-0.393
				c0.015-0.125,0.055-0.249,0.122-0.362c1.673-2.489,3.35-5.815,4.903-8.49c0.065-0.115,0.154-0.212,0.252-0.288
				c0.104-0.079,0.224-0.138,0.352-0.173c0.13-0.033,0.266-0.045,0.395-0.028c0.12,0.016,0.244,0.058,0.361,0.124l6.926,3.997
				c0.326,0.19,0.691,0.255,1.037,0.207c0.349-0.047,0.68-0.207,0.937-0.461c0.751-0.726,1.545-1.401,2.37-2.023
				c0.824-0.619,1.69-1.193,2.599-1.718c0.894-0.517,1.824-0.982,2.784-1.39c0.943-0.403,1.924-0.75,2.933-1.039
				c0.356-0.102,0.65-0.315,0.858-0.588c0.21-0.279,0.331-0.625,0.331-0.989l0.003-7.991c0-0.134,0.025-0.261,0.073-0.376
				c0.048-0.117,0.123-0.227,0.217-0.32c0.092-0.094,0.202-0.169,0.322-0.219c0.115-0.049,0.242-0.074,0.376-0.074h9.808
				c0.135,0,0.261,0.025,0.376,0.074c0.12,0.05,0.232,0.125,0.324,0.217c0.179,0.181,0.291,0.428,0.291,0.698v7.991
				c0,0.383,0.132,0.735,0.353,1.016C110.937,328.522,111.254,328.732,111.617,328.816L111.617,328.816z M115.064,328.516
				c1.009,0.428,1.986,0.917,2.926,1.46c0.957,0.554,1.879,1.165,2.752,1.825c0.878,0.661,1.718,1.378,2.512,2.145
				c0.03,0.028,0.068,0.045,0.11,0.05c0.041,0.005,0.085-0.001,0.12-0.021c2.328-1.345,4.66-2.684,6.985-4.035
				c0.275-0.148,0.573-0.24,0.874-0.274c0.311-0.034,0.623-0.011,0.918,0.069c0.306,0.081,0.598,0.224,0.855,0.421
				c0.248,0.189,0.463,0.427,0.626,0.713c1.687,2.732,3.291,5.693,4.904,8.487c0.163,0.284,0.264,0.592,0.304,0.904
				c0.04,0.322,0.018,0.647-0.063,0.95c-0.082,0.306-0.224,0.598-0.421,0.855c-0.188,0.247-0.429,0.462-0.713,0.626
				c-2.227,1.374-4.642,2.681-6.921,3.997c-0.035,0.02-0.062,0.053-0.079,0.09c-0.017,0.038-0.02,0.082-0.01,0.122l0.159,0.645
				l-0.01,0.003c0.07,0.314,0.135,0.634,0.194,0.957c0.102,0.553,0.186,1.1,0.25,1.632c0.065,0.531,0.115,1.077,0.149,1.641
				c0.033,0.564,0.05,1.119,0.05,1.656c0,0.538-0.017,1.091-0.05,1.655c-0.034,0.564-0.084,1.111-0.149,1.642
				c-0.065,0.535-0.148,1.079-0.25,1.632c-0.1,0.552-0.217,1.088-0.346,1.608c-0.01,0.041-0.005,0.087,0.015,0.125
				c0.018,0.042,0.048,0.075,0.085,0.094c2.542,1.357,5.124,2.954,7.64,4.407l-0.09,0.112l0.077,0.097
				c0.197,0.257,0.339,0.55,0.421,0.855c0.082,0.304,0.104,0.628,0.063,0.95c-0.04,0.31-0.14,0.618-0.306,0.901l-5.268,9.126
				l-0.097-0.059c-0.054,0.047-0.107,0.092-0.164,0.136c-0.257,0.195-0.549,0.339-0.855,0.421c-0.304,0.08-0.626,0.104-0.949,0.061
				c-0.302-0.038-0.601-0.134-0.878-0.289c-2.305-1.223-4.678-2.7-6.953-4.015c-0.033-0.019-0.075-0.025-0.115-0.021
				c-0.043,0.005-0.084,0.023-0.113,0.054c-0.795,0.765-1.634,1.481-2.51,2.143c-0.875,0.658-1.795,1.268-2.752,1.822
				c-0.947,0.546-1.931,1.039-2.945,1.47c-1.007,0.428-2.044,0.797-3.102,1.1c-0.042,0.013-0.077,0.036-0.102,0.068
				c-0.027,0.035-0.042,0.076-0.039,0.116v7.992c0,0.327-0.067,0.642-0.187,0.931c-0.125,0.3-0.306,0.569-0.531,0.791
				c-0.226,0.224-0.494,0.406-0.79,0.529c-0.289,0.121-0.603,0.188-0.93,0.188h-9.808c-0.326,0-0.641-0.066-0.928-0.188
				c-0.297-0.123-0.566-0.306-0.794-0.529c-0.222-0.222-0.404-0.491-0.529-0.791c-0.121-0.289-0.188-0.604-0.188-0.931v-7.992
				c0-0.048-0.013-0.09-0.038-0.12c-0.025-0.031-0.063-0.057-0.109-0.066l-0.032-0.012c-1.063-0.308-2.092-0.673-3.081-1.094
				c-1.007-0.43-1.984-0.917-2.925-1.462c-0.959-0.555-1.879-1.164-2.754-1.823c-0.879-0.662-1.717-1.38-2.512-2.145
				c-0.033-0.032-0.073-0.051-0.113-0.054c-0.042-0.005-0.087,0.007-0.124,0.03l-6.921,3.995c-0.286,0.163-0.591,0.264-0.898,0.304
				c-0.323,0.04-0.646,0.017-0.951-0.063c-0.306-0.082-0.598-0.226-0.855-0.421c-0.241-0.184-0.453-0.418-0.615-0.693
				c-1.819-2.923-3.536-6.126-5.271-9.128l0.093-0.057c-0.017-0.076-0.03-0.153-0.04-0.23c-0.042-0.32-0.018-0.643,0.063-0.948
				c0.081-0.304,0.222-0.598,0.421-0.853c0.187-0.249,0.428-0.465,0.712-0.626l6.921-3.997c0.035-0.021,0.063-0.054,0.079-0.09
				c0.017-0.039,0.021-0.084,0.01-0.126l-0.179-0.731l0.01-0.002c-0.062-0.285-0.12-0.574-0.174-0.868
				c-0.102-0.553-0.185-1.099-0.25-1.634c-0.065-0.529-0.115-1.077-0.148-1.642c-0.034-0.564-0.05-1.117-0.05-1.655
				c0-0.537,0.017-1.09,0.05-1.655c0.033-0.563,0.083-1.11,0.148-1.645c0.065-0.529,0.149-1.074,0.25-1.632
				c0.102-0.55,0.216-1.084,0.344-1.602c0.01-0.042,0.005-0.087-0.013-0.129c-0.017-0.038-0.049-0.07-0.089-0.09l-6.913-3.992
				c-0.286-0.165-0.524-0.379-0.71-0.626c-0.197-0.259-0.339-0.552-0.419-0.853c-0.082-0.304-0.105-0.626-0.063-0.949
				c0.039-0.302,0.135-0.601,0.292-0.882c1.647-3.051,3.536-6.129,5.279-9.147l0.099,0.059c0.052-0.048,0.107-0.094,0.162-0.135
				c0.257-0.197,0.549-0.34,0.855-0.421c0.304-0.082,0.628-0.105,0.949-0.064c0.313,0.04,0.62,0.139,0.898,0.299l0.513,0.294
				l-0.002,0.005l6.42,3.706c0.038,0.021,0.082,0.028,0.122,0.023c0.042-0.005,0.082-0.025,0.11-0.054l0.017-0.019
				c0.787-0.756,1.623-1.47,2.507-2.134c0.879-0.662,1.794-1.268,2.739-1.815c0.947-0.547,1.929-1.037,2.943-1.469
				c1.009-0.429,2.044-0.796,3.102-1.1c0.042-0.012,0.077-0.036,0.102-0.068c0.027-0.035,0.041-0.077,0.038-0.117v-7.991
				c0-0.326,0.067-0.642,0.188-0.929c0.125-0.301,0.307-0.569,0.533-0.794c0.225-0.224,0.493-0.405,0.79-0.529
				c0.287-0.12,0.603-0.186,0.928-0.186h9.808c0.327,0,0.641,0.065,0.93,0.186c0.296,0.124,0.564,0.306,0.791,0.529
				c0.443,0.443,0.717,1.053,0.717,1.723v7.991c0,0.047,0.015,0.089,0.039,0.122c0.026,0.032,0.063,0.056,0.108,0.065l0.032,0.012
				C113.046,327.728,114.075,328.095,115.064,328.516z"/>
			<path style="fill-rule:evenodd;clip-rule:evenodd;fill:#B8B0D6;" d="M645.171,270.415L645.171,270.415L645.171,270.415z
				 M640.712,253.438c-1.552-1.552-3.696-2.512-6.064-2.512c-2.368,0-4.513,0.96-6.064,2.512c-1.552,1.553-2.513,3.697-2.513,6.065
				c0,2.368,0.961,4.513,2.513,6.065c1.552,1.552,3.696,2.513,6.064,2.513c2.368,0,4.513-0.961,6.064-2.513
				c1.552-1.553,2.512-3.697,2.512-6.065C643.224,257.135,642.264,254.99,640.712,253.438L640.712,253.438z M638.859,244.938
				c1.188,0.343,2.314,0.825,3.362,1.43c1.072,0.622,2.063,1.37,2.947,2.225c0.174,0.165,0.432,0.19,0.628,0.075l3.987-2.301
				l0.021-0.013c0.228-0.124,0.488-0.145,0.727-0.082c0.244,0.065,0.465,0.224,0.6,0.458l0.017,0.028l2.805,4.855
				c0.135,0.234,0.162,0.505,0.095,0.752c-0.065,0.244-0.224,0.465-0.457,0.6l-0.027,0.017l-3.953,2.281
				c-0.207,0.12-0.302,0.359-0.249,0.582l0,0c0.146,0.588,0.258,1.193,0.333,1.811c0.073,0.604,0.111,1.221,0.111,1.848
				c0,0.628-0.038,1.244-0.111,1.849c-0.075,0.62-0.188,1.225-0.333,1.813c-0.06,0.243,0.061,0.489,0.277,0.596l3.952,2.281v0.002
				c0.233,0.136,0.393,0.355,0.457,0.6c0.067,0.247,0.04,0.518-0.095,0.752l-2.819,4.884h-0.002c-0.135,0.233-0.355,0.393-0.6,0.457
				c-0.245,0.065-0.515,0.039-0.748-0.097l-0.03-0.015l-3.958-2.285c-0.207-0.118-0.461-0.082-0.627,0.075
				c-0.885,0.855-1.875,1.604-2.947,2.223c-1.054,0.61-2.188,1.096-3.384,1.438c-0.232,0.066-0.385,0.277-0.385,0.508v4.596
				c0,0.271-0.109,0.519-0.288,0.697c-0.181,0.179-0.427,0.29-0.697,0.29h-5.642c-0.271,0-0.516-0.111-0.696-0.29
				c-0.179-0.179-0.289-0.426-0.289-0.697v-4.596c0-0.251-0.174-0.46-0.406-0.515c-1.188-0.343-2.314-0.825-3.361-1.432
				c-1.072-0.619-2.063-1.367-2.948-2.223c-0.182-0.172-0.454-0.192-0.654-0.059l-3.959,2.285c-0.233,0.134-0.502,0.16-0.75,0.095
				c-0.243-0.065-0.464-0.224-0.6-0.457l-0.017-0.028l-2.804-4.857v-0.002c-0.136-0.233-0.162-0.502-0.096-0.748
				c0.065-0.245,0.223-0.466,0.456-0.6l3.982-2.298c0.207-0.12,0.303-0.359,0.249-0.581l0,0c-0.146-0.588-0.257-1.192-0.332-1.813
				c-0.073-0.604-0.112-1.221-0.112-1.849c0-0.627,0.039-1.244,0.112-1.848c0.075-0.619,0.187-1.224,0.332-1.811
				c0.061-0.244-0.06-0.491-0.277-0.599l-3.953-2.281c-0.233-0.134-0.391-0.355-0.456-0.6c-0.066-0.245-0.04-0.515,0.096-0.75
				l0.015-0.028l2.806-4.857l0,0c0.136-0.234,0.357-0.393,0.6-0.458c0.248-0.065,0.517-0.04,0.75,0.095h-0.001l3.986,2.301
				c0.212,0.124,0.475,0.081,0.64-0.086c0.884-0.85,1.869-1.595,2.938-2.213c1.053-0.608,2.187-1.094,3.383-1.436
				c0.232-0.067,0.382-0.277,0.384-0.508v-4.596c0-0.271,0.11-0.518,0.289-0.697c0.181-0.179,0.426-0.291,0.696-0.291h5.642
				c0.271,0,0.517,0.112,0.697,0.291c0.179,0.179,0.288,0.426,0.288,0.697v4.596C638.453,244.674,638.627,244.881,638.859,244.938z"
				/>
			<g>
				<path style="fill-rule:evenodd;clip-rule:evenodd;fill:#B8B0D6;" d="M341.449,83.17h4.147c0.999,0,1.814-0.815,1.814-1.813
					v-4.147c0-0.999-0.815-1.813-1.814-1.813h-4.147c-0.999,0-1.814,0.815-1.814,1.813v4.147
					C339.635,82.355,340.451,83.17,341.449,83.17z"/>
				<path style="fill-rule:evenodd;clip-rule:evenodd;fill:#FFFFFF;" d="M355.833,83.17h4.147c0.999,0,1.814-0.815,1.814-1.813
					v-4.147c0-0.999-0.815-1.813-1.814-1.813h-4.147c-0.999,0-1.814,0.815-1.814,1.813v4.147
					C354.019,82.355,354.834,83.17,355.833,83.17z"/>
				<path style="fill-rule:evenodd;clip-rule:evenodd;fill:#B8B0D6;" d="M370.217,83.17h4.147c0.999,0,1.814-0.815,1.814-1.813
					v-4.147c0-0.999-0.815-1.813-1.814-1.813h-4.147c-0.999,0-1.814,0.815-1.814,1.813v4.147
					C368.403,82.355,369.218,83.17,370.217,83.17z"/>
				<path style="fill-rule:evenodd;clip-rule:evenodd;fill:#FFFFFF;" d="M384.601,83.17h4.148c0.997,0,1.815-0.815,1.815-1.813
					v-4.147c0-0.999-0.818-1.813-1.815-1.813h-4.148c-0.997,0-1.814,0.815-1.814,1.813v4.147
					C382.786,82.355,383.603,83.17,384.601,83.17z"/>
				<path style="fill-rule:evenodd;clip-rule:evenodd;fill:#B8B0D6;" d="M398.985,83.17h4.149c0.997,0,1.813-0.815,1.813-1.813
					v-4.147c0-0.999-0.816-1.813-1.813-1.813h-4.149c-0.997,0-1.813,0.815-1.813,1.813v4.147
					C397.172,82.355,397.988,83.17,398.985,83.17z"/>
				<path style="fill-rule:evenodd;clip-rule:evenodd;fill:#FFFFFF;" d="M370.738,67.489h4.148c0.997,0,1.814-0.817,1.814-1.814
					v-4.148c0-0.998-0.817-1.814-1.814-1.814h-4.148c-0.999,0-1.814,0.816-1.814,1.814v4.148
					C368.924,66.672,369.739,67.489,370.738,67.489z"/>
				<path style="fill-rule:evenodd;clip-rule:evenodd;fill:#B8B0D6;" d="M385.121,67.489h4.149c0.998,0,1.814-0.817,1.814-1.814
					v-4.148c0-0.998-0.815-1.814-1.814-1.814h-4.149c-0.997,0-1.814,0.816-1.814,1.814v4.148
					C383.308,66.672,384.124,67.489,385.121,67.489z"/>
				<path style="fill-rule:evenodd;clip-rule:evenodd;fill:#FFFFFF;" d="M399.507,67.489h4.146c0.999,0,1.815-0.817,1.815-1.814
					v-4.148c0-0.998-0.816-1.814-1.815-1.814h-4.146c-0.999,0-1.815,0.816-1.815,1.814v4.148
					C397.691,66.672,398.508,67.489,399.507,67.489z"/>
			</g>
			<path style="fill-rule:evenodd;clip-rule:evenodd;fill:#B8B0D6;" d="M617.86,193.175c0-0.529,0.429-0.958,0.957-0.958
				c0.529,0,0.958,0.429,0.958,0.958v4.306c0,0.529-0.429,0.958-0.958,0.958c-0.528,0-0.957-0.429-0.957-0.958V193.175
				L617.86,193.175z M611.335,196.671c-0.374-0.373-0.374-0.98,0-1.354c0.372-0.373,0.978-0.373,1.352,0l3.047,3.046
				c0.374,0.374,0.374,0.981,0,1.355c-0.375,0.374-0.98,0.374-1.354,0L611.335,196.671L611.335,196.671z M609.191,203.757
				c-0.529,0-0.957-0.427-0.957-0.955c0-0.529,0.428-0.958,0.957-0.958h4.308c0.528,0,0.957,0.429,0.957,0.958
				c0,0.528-0.429,0.955-0.957,0.955H609.191L609.191,203.757z M612.688,210.285c-0.374,0.374-0.981,0.374-1.352,0
				c-0.374-0.373-0.374-0.98,0-1.354l3.045-3.045c0.374-0.374,0.979-0.374,1.354,0c0.374,0.374,0.374,0.98,0,1.354L612.688,210.285
				L612.688,210.285z M619.775,212.428c0,0.527-0.429,0.957-0.958,0.957c-0.528,0-0.957-0.429-0.957-0.957v-4.308
				c0-0.528,0.429-0.957,0.957-0.957c0.529,0,0.958,0.429,0.958,0.957V212.428L619.775,212.428z M626.301,208.93
				c0.375,0.374,0.375,0.982,0,1.354c-0.372,0.374-0.979,0.374-1.353,0l-3.046-3.045c-0.374-0.374-0.374-0.98,0-1.354
				c0.374-0.374,0.981-0.374,1.354,0L626.301,208.93L626.301,208.93z M628.444,201.844c0.529,0,0.958,0.429,0.958,0.958
				c0,0.528-0.429,0.955-0.958,0.955h-4.308c-0.527,0-0.957-0.427-0.957-0.955c0-0.529,0.43-0.958,0.957-0.958H628.444
				L628.444,201.844z M624.948,195.316c0.373-0.373,0.981-0.373,1.353,0c0.375,0.374,0.375,0.982,0,1.354l-3.044,3.046
				c-0.374,0.374-0.98,0.374-1.354,0c-0.374-0.374-0.374-0.98,0-1.355L624.948,195.316z"/>
			<path style="fill-rule:evenodd;clip-rule:evenodd;fill:#B8B0D6;" d="M240.232,116.213c0-0.529,0.43-0.958,0.957-0.958
				c0.53,0,0.957,0.429,0.957,0.958v4.306c0,0.53-0.427,0.959-0.957,0.959c-0.527,0-0.957-0.429-0.957-0.959V116.213
				L240.232,116.213z M233.706,119.709c-0.374-0.373-0.374-0.98,0-1.355c0.374-0.372,0.98-0.372,1.355,0l3.045,3.046
				c0.374,0.375,0.374,0.98,0,1.355c-0.373,0.374-0.98,0.374-1.353,0L233.706,119.709L233.706,119.709z M231.564,126.795
				c-0.529,0-0.959-0.428-0.959-0.956c0-0.529,0.43-0.958,0.959-0.958h4.306c0.529,0,0.958,0.429,0.958,0.958
				c0,0.528-0.429,0.956-0.958,0.956H231.564L231.564,126.795z M235.06,133.322c-0.374,0.374-0.981,0.374-1.355,0
				c-0.374-0.372-0.374-0.98,0-1.354l3.046-3.045c0.372-0.374,0.98-0.374,1.353,0c0.374,0.374,0.374,0.98,0,1.355L235.06,133.322
				L235.06,133.322z M242.146,135.465c0,0.528-0.427,0.957-0.957,0.957c-0.527,0-0.957-0.429-0.957-0.957v-4.308
				c0-0.528,0.43-0.957,0.957-0.957c0.53,0,0.957,0.429,0.957,0.957V135.465L242.146,135.465z M248.674,131.968
				c0.374,0.374,0.374,0.982,0,1.354c-0.374,0.374-0.98,0.374-1.355,0l-3.045-3.044c-0.374-0.374-0.374-0.98,0-1.355
				c0.374-0.374,0.98-0.374,1.353,0L248.674,131.968L248.674,131.968z M250.816,124.881c0.528,0,0.957,0.429,0.957,0.958
				c0,0.528-0.429,0.956-0.957,0.956h-4.307c-0.528,0-0.957-0.428-0.957-0.956c0-0.529,0.429-0.958,0.957-0.958H250.816
				L250.816,124.881z M247.319,118.354c0.374-0.372,0.98-0.372,1.355,0c0.374,0.375,0.374,0.982,0,1.355l-3.046,3.046
				c-0.372,0.374-0.979,0.374-1.353,0c-0.374-0.375-0.374-0.98,0-1.355L247.319,118.354z"/>
			<path style="fill-rule:evenodd;clip-rule:evenodd;fill:#FFFFFF;" d="M127.089,273.602c0-0.529,0.429-0.959,0.957-0.959
				c0.529,0,0.958,0.43,0.958,0.959v4.306c0,0.529-0.429,0.959-0.958,0.959c-0.528,0-0.957-0.43-0.957-0.959V273.602
				L127.089,273.602z M120.564,277.097c-0.375-0.372-0.375-0.98,0-1.355c0.372-0.372,0.979-0.372,1.353,0l3.046,3.047
				c0.375,0.374,0.375,0.98,0,1.354c-0.374,0.374-0.98,0.374-1.354,0L120.564,277.097L120.564,277.097z M118.421,284.184
				c-0.529,0-0.957-0.428-0.957-0.957c0-0.527,0.428-0.957,0.957-0.957h4.308c0.528,0,0.957,0.43,0.957,0.957
				c0,0.529-0.429,0.957-0.957,0.957H118.421L118.421,284.184z M121.916,290.711c-0.374,0.374-0.98,0.374-1.353,0
				c-0.375-0.373-0.375-0.98,0-1.354l3.044-3.045c0.374-0.374,0.98-0.374,1.354,0c0.375,0.374,0.375,0.98,0,1.354L121.916,290.711
				L121.916,290.711z M129.005,292.853c0,0.528-0.429,0.957-0.958,0.957c-0.528,0-0.957-0.429-0.957-0.957v-4.308
				c0-0.527,0.429-0.957,0.957-0.957c0.529,0,0.958,0.43,0.958,0.957V292.853L129.005,292.853z M135.53,289.356
				c0.374,0.374,0.374,0.981,0,1.354c-0.374,0.374-0.98,0.374-1.353,0l-3.046-3.045c-0.374-0.374-0.374-0.98,0-1.354
				c0.375-0.374,0.98-0.374,1.354,0L135.53,289.356L135.53,289.356z M137.673,282.27c0.529,0,0.959,0.43,0.959,0.957
				c0,0.529-0.429,0.957-0.959,0.957h-4.308c-0.528,0-0.957-0.428-0.957-0.957c0-0.527,0.429-0.957,0.957-0.957H137.673
				L137.673,282.27z M134.177,275.742c0.373-0.372,0.979-0.372,1.353,0c0.374,0.375,0.374,0.982,0,1.355l-3.045,3.047
				c-0.374,0.374-0.98,0.374-1.354,0c-0.374-0.374-0.374-0.98,0-1.354L134.177,275.742z"/>
			<path style="fill-rule:evenodd;clip-rule:evenodd;fill:#FFFFFF;" d="M654.803,316.071c1.978,0,3.591-1.614,3.591-3.593
				c0-1.977-1.613-3.591-3.591-3.591c-1.979,0-3.592,1.613-3.592,3.591C651.211,314.457,652.824,316.071,654.803,316.071z"/>
			<path style="fill-rule:evenodd;clip-rule:evenodd;fill:#FFFFFF;" d="M289.488,87.237c1.979,0,3.592-1.615,3.592-3.592
				c0-1.979-1.613-3.591-3.592-3.591c-1.979,0-3.593,1.611-3.593,3.591C285.896,85.622,287.509,87.237,289.488,87.237z"/>
			<path style="fill-rule:evenodd;clip-rule:evenodd;fill:#B8B0D6;" d="M207.129,346.458c0-0.527,0.429-0.957,0.959-0.957
				c0.528,0,0.957,0.43,0.957,0.957v4.308c0,0.528-0.429,0.957-0.957,0.957c-0.53,0-0.959-0.429-0.959-0.957V346.458
				L207.129,346.458z M200.604,349.956c-0.374-0.375-0.374-0.98,0-1.354c0.373-0.375,0.98-0.375,1.353,0l3.046,3.044
				c0.374,0.374,0.374,0.982,0,1.354c-0.374,0.375-0.98,0.375-1.355,0L200.604,349.956L200.604,349.956z M198.461,357.042
				c-0.528,0-0.957-0.429-0.957-0.957c0-0.529,0.429-0.957,0.957-0.957h4.307c0.528,0,0.957,0.428,0.957,0.957
				c0,0.528-0.429,0.957-0.957,0.957H198.461L198.461,357.042z M201.957,363.569c-0.372,0.374-0.98,0.374-1.353,0
				c-0.374-0.374-0.374-0.98,0-1.354l3.045-3.047c0.374-0.372,0.98-0.372,1.355,0c0.374,0.375,0.374,0.982,0,1.354L201.957,363.569
				L201.957,363.569z M209.045,365.712c0,0.528-0.429,0.957-0.957,0.957c-0.53,0-0.959-0.429-0.959-0.957v-4.308
				c0-0.529,0.429-0.956,0.959-0.956c0.528,0,0.957,0.427,0.957,0.956V365.712L209.045,365.712z M215.571,362.215
				c0.374,0.374,0.374,0.98,0,1.354c-0.373,0.374-0.979,0.374-1.353,0l-3.046-3.047c-0.374-0.372-0.374-0.979,0-1.354
				c0.374-0.372,0.98-0.372,1.354,0L215.571,362.215L215.571,362.215z M217.713,355.128c0.53,0,0.959,0.428,0.959,0.957
				c0,0.528-0.429,0.957-0.959,0.957h-4.307c-0.528,0-0.957-0.429-0.957-0.957c0-0.529,0.429-0.957,0.957-0.957H217.713
				L217.713,355.128z M214.218,348.602c0.374-0.375,0.98-0.375,1.353,0c0.374,0.374,0.374,0.979,0,1.354L212.526,353
				c-0.374,0.375-0.98,0.375-1.354,0c-0.374-0.372-0.374-0.98,0-1.354L214.218,348.602z"/>
			<path style="fill-rule:evenodd;clip-rule:evenodd;fill:#FFFFFF;" d="M207.395,314.019c1.978,0,3.591-1.613,3.591-3.591
				c0-1.979-1.613-3.593-3.591-3.593c-1.979,0-3.592,1.613-3.592,3.593C203.803,312.405,205.416,314.019,207.395,314.019z"/>
		</g>
		<path style="fill-rule:evenodd;clip-rule:evenodd;fill:#B2AACD;" d="M567.421,94.983H423.18
			c-13.601,0-24.727,11.127-24.727,24.726v212.647c0,13.601,11.125,24.726,24.727,24.726h144.241
			c13.6,0,24.726-11.125,24.726-24.726V119.709C592.146,106.108,581.019,94.983,567.421,94.983z"/>
		<g>
			<g>
				<path style="fill-rule:evenodd;clip-rule:evenodd;fill:#897C9C;" d="M603.173,248.699
					c-12.775-28.065-37.444-7.305-44.934,19.822c-7.102,25.723-16.785,119.321-33.916,153.944l8.249,3.003
					C569.597,386.555,619.528,284.631,603.173,248.699z"/>
				<path style="fill-rule:evenodd;clip-rule:evenodd;fill:#6E466B;" d="M529.539,424.364
					c46.192-65.766,58.03-175.61,58.072-175.984c0.077-0.68-0.414-1.294-1.096-1.371c-0.682-0.075-1.294,0.416-1.371,1.096
					c-0.042,0.374-11.89,110.346-57.992,175.39L529.539,424.364z"/>
			</g>
			<g>
				<path style="fill-rule:evenodd;clip-rule:evenodd;fill:#734C72;" d="M625.719,324.897c23.87-1.496,18.662,22.96,2.829,37.983
					c-10.713,10.165-44.605,33.844-69.479,55.422l-17.146-6.243C562.688,373.272,601.045,326.444,625.719,324.897z"/>
				<path style="fill-rule:evenodd;clip-rule:evenodd;fill:#938AAD;" d="M548.047,414.29c32.675-44.257,83.363-78.72,83.567-78.86
					c0.438-0.299,1.037-0.188,1.339,0.251c0.3,0.438,0.188,1.037-0.25,1.338c-0.202,0.139-50.357,34.244-82.795,77.949
					L548.047,414.29z"/>
			</g>
		</g>
		<path style="fill-rule:evenodd;clip-rule:evenodd;fill:#131E3A;" d="M70.021,405.663h559.334c6.511,0,11.842,5.331,11.842,11.842
			l0,0c0,6.512-5.33,11.842-11.842,11.842H589.4c-3.619,0-6.579,2.963-6.579,6.578v0.002c0,3.618,2.96,6.579,6.579,6.579h14.617
			c4.521,0,8.224,3.701,8.224,8.222v0.002c0,4.52-3.7,8.225-8.224,8.225H96.665c-4.521,0-8.222-3.701-8.222-8.225v-0.002
			c0-4.522,3.701-8.222,8.222-8.222h11.514c3.618,0,6.579-2.961,6.579-6.579v-0.002c0-3.617-2.961-6.578-6.579-6.578H70.021
			c-6.512,0-11.841-5.328-11.841-11.842l0,0C58.179,410.991,63.512,405.663,70.021,405.663L70.021,405.663z M76.188,458.954
			c4.341,0,7.895-3.555,7.895-7.896V450.4c0-4.342-3.554-7.895-7.895-7.895l0,0c-4.342,0-7.895,3.553-7.895,7.895v0.658
			C68.294,455.401,71.846,458.954,76.188,458.954L76.188,458.954z"/>
		<path style="fill-rule:evenodd;clip-rule:evenodd;fill:#0D172B;" d="M88.443,406.728v0.002c0,4.523,3.701,8.225,8.222,8.225
			h507.353c4.523,0,8.224-3.705,8.224-8.225v-0.002c0-0.361-0.032-0.715-0.077-1.064H88.521
			C88.475,406.013,88.443,406.366,88.443,406.728z"/>
		<g>
			<path style="fill-rule:evenodd;clip-rule:evenodd;fill:#F1910E;" d="M260.868,405.663h264.526
				c14.384,0,26.153-11.769,26.153-26.151V222.601c0-7.997-3.639-15.184-9.341-19.99h0.078c-2.883-2.267-6.135-4.298-9.286-6.327
				c-8.881-5.72-82.195-47.74-103.554-61.409c-29.639-18.97-43.004-18.992-72.627,0c-20.717,13.281-94.673,55.689-103.553,61.409
				c-3.152,2.029-6.404,4.061-9.287,6.327h0.079c-5.702,4.807-9.34,11.993-9.34,19.99v156.911
				C234.716,393.895,246.484,405.663,260.868,405.663z"/>
			<path style="fill-rule:evenodd;clip-rule:evenodd;fill:#FFFFFF;" d="M287.801,366.126h210.661
				c17.175,0,31.228-14.053,31.228-31.229V126.212c0-27.951,31.229-31.229,31.229-31.229h-28.081h-3.148H287.801
				c-17.176,0-31.229,14.053-31.229,31.229v208.685C256.572,352.073,270.625,366.126,287.801,366.126z"/>
			<path style="fill-rule:evenodd;clip-rule:evenodd;fill:#FBC900;" d="M393.132,405.663h132.262
				c14.384,0,26.153-11.769,26.153-26.151V222.601c0-0.643-0.024-1.281-0.071-1.914c0.066,1.276,0.506,16.938-17.963,28.48
				c-19.266,12.043-140.381,78.267-140.381,78.267s-121.117-66.225-140.383-78.267c-18.469-11.543-18.03-27.204-17.963-28.48
				c-0.047,0.633-0.07,1.271-0.07,1.914v156.911c0,14.383,11.767,26.151,26.152,26.151H393.132z"/>
			<path style="fill-rule:evenodd;clip-rule:evenodd;fill:#F6AF00;" d="M356.817,295.673
				c-20.717,13.281-94.673,55.689-103.553,61.409c-8.881,5.721-18.548,11.442-18.548,22.43c0,14.383,11.769,26.151,26.152,26.151
				h264.526c14.384,0,26.153-11.769,26.153-26.151h-0.002c0-10.987-9.667-16.709-18.547-22.43
				c-8.881-5.72-82.195-47.74-103.554-61.409C399.806,276.703,386.44,276.682,356.817,295.673z"/>
			<path style="fill-rule:evenodd;clip-rule:evenodd;fill:#938AAD;" d="M286.395,178.324h221.129c1.167,0,2.116,0.952,2.116,2.118
				l0,0c0,1.166-0.949,2.116-2.116,2.116H286.395c-1.169,0-2.12-0.95-2.12-2.116l0,0
				C284.275,179.276,285.226,178.324,286.395,178.324z"/>
			<path style="fill-rule:evenodd;clip-rule:evenodd;fill:#938AAD;" d="M286.395,196.394h221.129c1.167,0,2.116,0.952,2.116,2.116
				l0,0c0,1.167-0.949,2.118-2.116,2.118H286.395c-1.169,0-2.12-0.95-2.12-2.118l0,0
				C284.275,197.346,285.226,196.394,286.395,196.394z"/>
			<path style="fill-rule:evenodd;clip-rule:evenodd;fill:#938AAD;" d="M358.996,214.46h148.528c1.167,0,2.116,0.954,2.116,2.118
				l0,0c0,1.166-0.949,2.119-2.116,2.119H358.996c-1.168,0-2.118-0.954-2.118-2.119l0,0
				C356.878,215.414,357.829,214.46,358.996,214.46z"/>
			<path style="fill-rule:evenodd;clip-rule:evenodd;fill:#938AAD;" d="M371.053,232.53h136.471c1.167,0,2.116,0.952,2.116,2.118
				l0,0c0,1.166-0.949,2.116-2.116,2.116H371.053c-1.168,0-2.119-0.95-2.119-2.116l0,0
				C368.934,233.482,369.886,232.53,371.053,232.53z"/>
			<path style="fill-rule:evenodd;clip-rule:evenodd;fill:#938AAD;" d="M358.739,250.6h148.785c1.167,0,2.116,0.95,2.116,2.116l0,0
				c0,1.167-0.949,2.118-2.116,2.118H358.739c-1.169,0-2.12-0.951-2.12-2.118l0,0C356.62,251.55,357.57,250.6,358.739,250.6z"/>
			<g>
				<g>
					<path style="fill-rule:evenodd;clip-rule:evenodd;fill:#D73B47;" d="M487.96,164.585c11.941,0,21.681-9.739,21.681-21.679
						c0-11.94-9.739-21.679-21.681-21.679c-11.94,0-21.68,9.739-21.68,21.679C466.28,154.846,476.02,164.585,487.96,164.585z"/>
					<path style="fill-rule:evenodd;clip-rule:evenodd;fill:#FFFFFF;" d="M476.748,157.118c3.083,2.436,6.978,3.892,11.212,3.892
						c4.235,0,8.13-1.455,11.214-3.892c-0.196-6.003-5.166-10.851-11.214-10.851l0,0
						C481.912,146.267,476.943,151.115,476.748,157.118L476.748,157.118z M487.96,127.48c-4.448,0-8.054,3.606-8.054,8.056
						c0,4.448,3.605,8.053,8.054,8.053c4.449,0,8.055-3.605,8.055-8.053C496.015,131.086,492.409,127.48,487.96,127.48z"/>
				</g>
				<g>
					<path style="fill-rule:evenodd;clip-rule:evenodd;fill:#D73B47;" d="M453.878,130.568H412.16c-1.241,0-2.252,1.012-2.252,2.251
						l0,0c0,1.239,1.011,2.25,2.252,2.25h41.718c1.239,0,2.25-1.01,2.25-2.25l0,0C456.128,131.581,455.117,130.568,453.878,130.568z
						"/>
					<path style="fill-rule:evenodd;clip-rule:evenodd;fill:#D73B47;" d="M453.878,140.473h-23.635c-1.239,0-2.25,1.01-2.25,2.249
						l0,0c0,1.241,1.011,2.251,2.25,2.251h23.635c1.239,0,2.25-1.01,2.25-2.251l0,0
						C456.128,141.483,455.117,140.473,453.878,140.473z"/>
					<path style="fill-rule:evenodd;clip-rule:evenodd;fill:#D73B47;" d="M422.216,140.473h-3.454c-1.238,0-2.249,1.01-2.249,2.249
						l0,0c0,1.241,1.011,2.251,2.249,2.251h3.454c1.239,0,2.25-1.01,2.25-2.251l0,0
						C424.466,141.483,423.455,140.473,422.216,140.473z"/>
					<path style="fill-rule:evenodd;clip-rule:evenodd;fill:#D73B47;" d="M453.878,150.741h-18.13c-1.239,0-2.25,1.011-2.25,2.25
						l0,0c0,1.239,1.011,2.251,2.25,2.251h18.13c1.239,0,2.25-1.012,2.25-2.251l0,0
						C456.128,151.751,455.117,150.741,453.878,150.741z"/>
				</g>
			</g>
			<g>
				<path style="fill-rule:evenodd;clip-rule:evenodd;fill:#EE9BB1;" d="M290.946,114.685h67.728c3.668,0,6.669,3.001,6.669,6.671
					v40.021c0,3.668-3.001,6.669-6.669,6.669h-67.728c-3.669,0-6.671-3.001-6.671-6.669v-40.021
					C284.275,117.686,287.277,114.685,290.946,114.685z"/>
				<path style="fill-rule:evenodd;clip-rule:evenodd;fill:#FFFFFF;" d="M343.522,139.331c0,2.198-0.353,4.217-1.056,6.04
					c-0.696,1.824-1.69,3.253-2.973,4.296c-1.291,1.04-2.778,1.557-4.475,1.557c-1.127,0-2.128-0.274-3.005-0.815
					c-0.868-0.539-1.495-1.259-1.877-2.143h-0.368c-1.65,1.971-3.747,2.958-6.298,2.958c-2.706,0-4.842-0.815-6.398-2.442
					c-1.557-1.627-2.338-3.848-2.338-6.672c0-3.224,1.023-5.821,3.075-7.785c2.049-1.971,4.716-2.957,8.017-2.957
					c1.314,0,2.763,0.126,4.349,0.376c1.582,0.251,2.879,0.555,3.905,0.907l-0.524,11.195c0,2.12,0.579,3.184,1.737,3.184
					c0.977,0,1.759-0.711,2.338-2.143c0.58-1.425,0.877-3.293,0.877-5.602c0-2.457-0.518-4.623-1.542-6.509
					c-1.025-1.886-2.463-3.324-4.317-4.317c-1.855-0.994-3.975-1.487-6.36-1.487c-3.092,0-5.767,0.633-8.042,1.901
					c-2.276,1.266-4.028,3.098-5.243,5.483c-1.212,2.393-1.822,5.148-1.822,8.284c0,4.209,1.128,7.447,3.38,9.7
					c2.253,2.253,5.522,3.372,9.802,3.372c1.619,0,3.394-0.172,5.335-0.533c1.939-0.359,3.856-0.883,5.733-1.572v4.396
					c-3.27,1.393-6.899,2.089-10.89,2.089c-5.804,0-10.333-1.525-13.58-4.585c-3.247-3.05-4.865-7.299-4.865-12.735
					c0-3.771,0.829-7.197,2.487-10.271c1.659-3.081,4.014-5.492,7.08-7.244c3.066-1.745,6.587-2.621,10.576-2.621
					c3.364,0,6.368,0.688,9.004,2.064c2.646,1.37,4.687,3.325,6.126,5.859C342.802,133.097,343.522,136.023,343.522,139.331
					L343.522,139.331z M320.054,142.196c0,3.222,1.313,4.833,3.941,4.833c1.378,0,2.425-0.484,3.137-1.455
					c0.72-0.97,1.159-2.542,1.308-4.725l0.304-5.063c-0.782-0.164-1.659-0.251-2.636-0.251c-1.917,0-3.404,0.595-4.459,1.784
					C320.585,138.51,320.054,140.137,320.054,142.196z"/>
			</g>
			
				<ellipse transform="matrix(0.3844 -0.9232 0.9232 0.3844 -186.9457 484.6719)" style="fill-rule:evenodd;clip-rule:evenodd;fill:#FFFFFF;" cx="269.947" cy="382.513" rx="7.402" ry="7.402"/>
			<path style="fill-rule:evenodd;clip-rule:evenodd;fill:#FFFFFF;" d="M298.686,389.915c4.077,0,7.402-3.325,7.402-7.402
				c0-4.077-3.325-7.402-7.402-7.402c-4.077,0-7.402,3.325-7.402,7.402C291.284,386.59,294.609,389.915,298.686,389.915z"/>
			
				<ellipse transform="matrix(0.3844 -0.9232 0.9232 0.3844 -151.5623 537.7347)" style="fill-rule:evenodd;clip-rule:evenodd;fill:#FFFFFF;" cx="327.426" cy="382.513" rx="7.402" ry="7.402"/>
			<path style="fill-rule:evenodd;clip-rule:evenodd;fill:#FFFFFF;" d="M478.02,311.414c4.077,0,7.402-3.325,7.402-7.402
				c0-4.076-3.325-7.401-7.402-7.401c-4.077,0-7.402,3.325-7.402,7.401C470.618,308.089,473.943,311.414,478.02,311.414z"/>
			<path style="fill-rule:evenodd;clip-rule:evenodd;fill:#FFFFFF;" d="M506.76,311.414c4.076,0,7.402-3.325,7.402-7.402
				c0-4.076-3.326-7.401-7.402-7.401c-4.077,0-7.401,3.325-7.401,7.401C499.358,308.089,502.683,311.414,506.76,311.414z"/>
			<path style="fill-rule:evenodd;clip-rule:evenodd;fill:#FFFFFF;" d="M535.5,311.414c4.077,0,7.402-3.325,7.402-7.402
				c0-4.076-3.325-7.401-7.402-7.401s-7.402,3.325-7.402,7.401C528.098,308.089,531.423,311.414,535.5,311.414z"/>
		</g>
		<g>
			<path style="fill-rule:evenodd;clip-rule:evenodd;fill:#938AAD;" d="M592.146,326.503c8.793,9.809,12.454,18.155,9.701,24.074
				c-4.596,9.888-25.9,10.459-56.622,3.387c-29.694-6.832-68.66-20.639-109.855-39.79c-22.676-10.544-43.679-21.616-62.042-32.49
				c-10.425-6.175-20.004-12.291-28.559-18.212c-2.599-1.784-2.832-4.421-1.935-5.286c0.898-0.867,2.652-0.1,2.652-0.1h0.001
				c8.957,6.29,19.13,12.824,30.295,19.438c18.224,10.792,39.084,21.789,61.623,32.268c40.882,19.007,79.506,32.695,108.901,39.462
				c28.368,6.528,47.662,6.808,51.158-0.712c1.66-3.569-0.319-8.73-5.347-15.035c0.019-0.381,0.027-0.765,0.027-1.149V326.503z"/>
			<g>
				<polygon style="fill-rule:evenodd;clip-rule:evenodd;fill:#B2AACA;" points="340.854,234.641 327.123,266.226 276.893,209.855 
					340.716,227.274 				"/>
				<path style="fill-rule:evenodd;clip-rule:evenodd;fill:#C8C1DF;" d="M327.123,266.226l-19.371-21.739
					c0.368-2.574,0.346-5.574,0.346-5.574l19.66,5.929L327.123,266.226z"/>
				<polygon style="fill-rule:evenodd;clip-rule:evenodd;fill:#DBD7EB;" points="276.893,209.855 361.161,226.559 340.854,234.641 
									"/>
				<polygon style="fill-rule:evenodd;clip-rule:evenodd;fill:#DBD7EB;" points="276.893,209.855 301.203,266.759 327.757,244.842 
									"/>
			</g>
		</g>
		<g>
			<g>
				<path style="fill-rule:evenodd;clip-rule:evenodd;fill:#000814;" d="M218.864,234.048l5.059,4.112
					c0,0-3.412,84.847-4.157,104.084c-0.743,19.237-2.216,49.426-2.505,50.318c-0.288,0.888-1.633,1.354-3.086,1.496
					c-1.453,0.139-7.182,0.064-8.311,0.174c-1.131,0.108-1.557-0.809-2.009-2.873c-0.451-2.065-4.709-69.543-5.161-77.548
					c-0.456-8.006-9.744-63.453-9.595-75.731C189.247,225.801,218.864,234.048,218.864,234.048z"/>
				<path style="fill-rule:evenodd;clip-rule:evenodd;fill:#000814;" d="M194.209,234.665l4.548,4.354
					c0,0-13.751,84.299-16.839,103.415c-3.088,19.113-7.746,50.643-8.144,51.513c-0.396,0.872-1.795,1.267-3.264,1.332
					c-1.466,0.063-7.173-0.309-8.316-0.258c-1.141,0.049-1.455-0.887-1.653-2.965c-0.201-2.079,3.289-71.029,3.811-79.024
					c0.521-7.993-1.987-63.679-0.342-75.897C165.655,224.917,194.209,234.665,194.209,234.665z"/>
			</g>
			<path style="fill-rule:evenodd;clip-rule:evenodd;fill:#020E28;" d="M207.529,386.864c3.384-0.118,6.764-0.031,10.144,0.114
				c0.571-9.784,1.537-30.326,2.094-44.734c0.602-15.527,2.939-73.785,3.818-95.685c-10.794,0.128-20.264-0.628-22.479,7.783
				c-2.565,9.749,5.388,61.059,5.644,77.731C206.934,344.078,206.59,371.486,207.529,386.864z"/>
			<g>
				<path style="fill-rule:evenodd;clip-rule:evenodd;fill:#020E28;" d="M175.178,406.326c0,0-34.461,0.32-35.774,0
					c-1.314-0.32-1.873-0.932-1.835-2.307c0.039-1.374,0.053-1.916,0.083-2.946c0.027-1.03,0.489-2.086,4.421-3.116
					c3.932-1.03,5.069-1.417,8.011-1.956c2.942-0.539,6.452-6.782,7.167-7.177c0.717-0.393,1.888-0.393,4-0.393
					c2.115,0,3.823-0.118,3.902,2.161c0.182,5.241,7.849,2.575,8.434,1.548c0,0,1.609-0.094,1.963,0.838
					c0.354,0.935-0.483,7.58-0.395,8.267c0.09,0.687-0.271,1.008-0.271,1.008s0.719,0.466,0.849,0.687
					c0.13,0.22,0.167,0.835,0.149,1.473C175.864,405.05,175.925,406.277,175.178,406.326z"/>
				<path style="fill-rule:evenodd;clip-rule:evenodd;fill:#020E28;" d="M150.387,396.988c0.208-0.033,0.398-0.982,0.398-0.982
					s6.096-6.787,6.811-7.182c0.717-0.393,2.782-0.24,4.889-0.393c10.598-0.765,1.287,6.563-0.819,8.569
					C160.711,397.911,154.741,397.13,150.387,396.988z"/>
				<path style="fill-rule:evenodd;clip-rule:evenodd;fill:#020B1C;" d="M175.178,406.326c0.747-0.049,0.686-1.276,0.703-1.914
					c0.018-0.638-0.02-1.253-0.149-1.473c-0.129-0.221-0.849-0.687-0.849-0.687s0.361-0.321,0.271-1.008
					c-0.032-0.249,0.058-1.282,0.168-2.539c-1.098,1.024-3.094,2.044-6.697,2.044c-5.261,0-22.098,0-30.945,0
					c-0.016,0.108-0.025,0.216-0.028,0.323c-0.03,1.03-0.044,1.572-0.083,2.946c-0.038,1.375,0.521,1.986,1.835,2.307
					C140.717,406.647,175.178,406.326,175.178,406.326z"/>
				<path style="fill-rule:evenodd;clip-rule:evenodd;fill:#020E28;" d="M173.241,404.764c0.747-0.049,0.686-1.276,0.703-1.914
					c0.006-0.205,0.003-0.401-0.004-0.59c-5.762,0.044-33.341,0.255-34.424-0.011c-1.105-0.268-1.607-0.695-1.774-1.542
					c-0.032-0.003-0.051-0.006-0.075-0.01c-0.005,0.052-0.01,0.155-0.016,0.376c-0.018,0.6-0.044,1.572-0.083,2.946
					c-0.008,0.29,0.017,0.539,0.063,0.766C140.412,405.068,173.241,404.764,173.241,404.764z"/>
				<path style="fill-rule:evenodd;clip-rule:evenodd;fill:#131E3A;" d="M157.663,389.946c-0.2-0.068-0.294-0.243-0.214-0.394
					c0.083-0.149,0.311-0.216,0.509-0.147l2.973,1.011l4.551-1.063c0.203-0.047,0.425,0.042,0.495,0.2
					c0.069,0.157-0.039,0.322-0.244,0.371l-3.706,0.863l2.146,0.731c0.2,0.067,0.295,0.244,0.214,0.393
					c-0.02,0.039-0.049,0.07-0.084,0.096c-0.012,0.115-0.112,0.217-0.263,0.252l-3.708,0.865l2.15,0.729
					c0.199,0.068,0.293,0.246,0.212,0.395c-0.053,0.097-0.167,0.158-0.297,0.172l-4.006,0.936l1.827,0.72l0.01,0.003l0.002,0.002
					l0.006,0.002l0.004,0.002l0.004,0.001l0.006,0.002l0.004,0.002l0.004,0.001l0.004,0.002l0.004,0.004l0.004,0.001l0.004,0.002
					l0.004,0.002l0.004,0.003l0.004,0.002l0.006,0.003h0.002l0.003,0.004l0.002,0.001l0.006,0.004l0.002,0.001l0.006,0.004
					l0.002,0.002l0.006,0.003v0.002l0.007,0.003v0.002l0.006,0.003l0,0l0.006,0.007l0,0l0.007,0.005l0,0l0.006,0.005l0,0
					l0.006,0.007l0.006,0.005l0.005,0.005l0.006,0.007l0,0l0.006,0.007l0.016,0.018l0.008,0.012l0,0l0.004,0.007h0.002l0.003,0.007
					h0.001l0.003,0.006h0.001c0.006,0.014,0.012,0.027,0.018,0.042l0,0l0.004,0.014l0.002,0.002v0.005v0.001l0.001,0.006
					c0.003,0.013,0.006,0.026,0.006,0.041v0.002v0.005v0.002v0.007v0.001l-0.004,0.029l0,0v0.006l0,0l-0.004,0.016l0,0l-0.002,0.007
					l0,0l-0.002,0.006v0.002l-0.001,0.005l-0.006,0.014v0.002l-0.002,0.007h-0.001l-0.002,0.006l0,0l-0.004,0.006l-0.002,0.003
					l-0.001,0.003l-0.003,0.004l-0.001,0.003l-0.003,0.004l-0.002,0.003l-0.002,0.003l-0.002,0.004l-0.001,0.003l-0.003,0.004
					l-0.004,0.003l-0.002,0.002l-0.001,0.003l-0.002,0.004l-0.004,0.003l-0.002,0.002l-0.004,0.005l-0.006,0.005v0.002l-0.006,0.005
					l0,0l-0.003,0.005l-0.002,0.002l-0.006,0.003v0.002l-0.006,0.005l0,0l-0.006,0.005l0,0l-0.007,0.005l0,0l-0.006,0.005
					l-0.006,0.006l-0.007,0.005l-0.006,0.003h-0.002l-0.006,0.005l0,0l-0.008,0.004l0,0l-0.008,0.005l0,0l-0.008,0.003l0,0
					l-0.008,0.004l0,0l-0.008,0.003l0,0l-0.007,0.003v0.002l-0.008,0.002l0,0l-0.008,0.003l0,0l-0.008,0.004l0,0l-0.01,0.003l0,0
					l-0.008,0.004l0,0l-0.018,0.005l0,0l-0.008,0.001h-0.001l-0.008,0.002l0,0l-0.008,0.002h-0.002l-0.008,0.002h-0.002
					l-0.008,0.001l0,0l-0.007,0.002h-0.003l-0.008,0.002h-0.001h-0.008h-0.001l-0.006,0.001h-0.004h-0.006h-0.004l-0.006,0.002
					h-0.003h-0.006h-0.004h-0.006h-0.004h-0.003h-0.011l-7.085-0.03h-0.01c-0.032,0.002-0.065,0-0.094-0.005v-0.002h-0.01l0,0
					l-0.028-0.006l-0.008-0.002h-0.002l-0.018-0.005l-0.008-0.002l-0.002-0.002l-0.006-0.001l-0.002-0.002
					c-0.014-0.003-0.028-0.01-0.041-0.015l-0.002-0.002c-0.075-0.033-0.135-0.087-0.171-0.152v-0.002l-0.008-0.013
					c-0.021-0.051-0.026-0.101-0.016-0.147h0.002v-0.007l0,0l0.007-0.021l0.003-0.007l0,0l0.012-0.024v-0.002
					c0.005-0.01,0.014-0.022,0.02-0.03l0.002-0.001c0.042-0.058,0.108-0.103,0.193-0.126h0.002l0.02-0.005l3.525-0.821l-1.987-0.782
					c-0.195-0.076-0.275-0.257-0.183-0.4c0.057-0.089,0.163-0.144,0.283-0.157l3.667-0.855l-2.148-0.731
					c-0.198-0.066-0.295-0.243-0.214-0.393c0.021-0.036,0.051-0.069,0.086-0.095c0.01-0.115,0.11-0.217,0.262-0.252l3.708-0.864
					L157.663,389.946L157.663,389.946z M158.453,396.039l-1.114-0.439l-1.828,0.427L158.453,396.039L158.453,396.039z
					 M161.218,394.068l-2.007-0.683l-3.659,0.854l1.833,0.723L161.218,394.068L161.218,394.068z M163.195,391.829l-2.289-0.778
					l-3.956,0.922l2.288,0.78L163.195,391.829z"/>
			</g>
			<path style="fill-rule:evenodd;clip-rule:evenodd;fill:#000814;" d="M207.704,128.459c0,0,9.539,3.943,13.158,6.906
				c3.619,2.961,20.385,44.51,23.353,52.208c0,0,1.167,3.04-1.33,5.023c-2.497,1.982-6.684,1.909-9.107,0.294
				c-2.423-1.617-10.429-14.542-10.429-14.542L207.704,128.459z"/>
			<path style="fill-rule:evenodd;clip-rule:evenodd;fill:#E8685B;" d="M185.15,107.733l0.222,5.223c0,0,0,11.117,0,12.321
				c0,0.955-0.74,1.947-1.909,2.497c-0.304,0.142-0.543,0.633-0.917,0.64c-4.578,5.762,0.476,11.501,3.868,12.025
				c3.394,0.524,19.775-3.424,20.873-4.364c0.768-0.658-4.141-6.602-3.689-8.509c-0.354-0.097,0.05,0.005-0.308-0.112
				c-0.93-0.306-0.768-0.499-1.583-0.718c-1.859-0.498-0.643-10.906-0.717-13.563C202.777,110.898,185.15,107.733,185.15,107.733z"
				/>
			<path style="fill-rule:evenodd;clip-rule:evenodd;fill:#020E28;" d="M205.823,127.687c-1.085-0.272-3.213-0.856-4.117-0.952
				c-1.265,6.614-8.125,13.238-18.244,1.039c-3.826,0.658-12.92,3.097-18.886,6.565c-0.048,0.079-2.93,4.727-2.93,7.548
				c0,2.414,2.966,20.211,2.997,36.335c1.167,6.751,2.051,14.096,2.051,22.754c0,11.668-4.328,23.57-4.209,39.71
				c1.314,0.217,20.321-2.205,32.206-3.858c12.329-1.715,27.354,7.896,30.13,2.34c0.556-1.114-1.411-3.638-1.755-6.103
				C217.53,193.374,232.497,137.273,205.823,127.687z"/>
			<path style="fill-rule:evenodd;clip-rule:evenodd;fill:#000618;" d="M197.574,133.523c-1.314,0.858-2.904,1.266-4.736,0.957
				c0.671,3.357,1.797,9.266,2.721,15.481c0.194,1.323,1.423,2.238,2.746,2.044c1.323-0.194,2.238-1.423,2.044-2.746
				C199.423,143.031,198.263,136.956,197.574,133.523z"/>
			<path style="fill-rule:evenodd;clip-rule:evenodd;fill:#000814;" d="M164.782,220.59c-0.845,6.327,0.693,10.567-2.109,14.517
				c-2.57,3.624-1.485,4.735-0.187,5.837c4.466,2.143,7.77-0.919,13.146-1.67c-0.414-5.303,0.991-10.968,3.755-10.968
				c2.766,0,36.283,0,39.578,0c1.617,0,2.846,0.646,3.678,1.303c-0.327-3.017-0.553-6.113-0.7-9.267
				c-7.86-1.117-33.173-3.101-43.378-3.302C170.509,216.884,166.978,218.61,164.782,220.59z"/>
			<path style="fill-rule:evenodd;clip-rule:evenodd;fill:#000814;" d="M165.732,133.7c-3.427,1.094-10.723,8.699-12.036,14.095
				c-1.313,5.396-7.729,28.006-7.439,38.8h18.088c0,0,4.521-19.401,3.938-30.486C167.7,145.024,165.732,133.7,165.732,133.7z"/>
			<path style="fill-rule:evenodd;clip-rule:evenodd;fill:#9B6C96;" d="M197.895,226.445h43.787c4.762,0,8.659-4.164,8.659-9.251
				v-55.502c0-0.228-0.009-0.453-0.023-0.677c0.021,0.451,0.167,5.991-5.948,10.073c-6.378,4.259-46.475,27.685-46.475,27.685
				s-40.098-23.426-46.476-27.685c-6.115-4.082-5.969-9.622-5.946-10.073c-0.017,0.224-0.023,0.449-0.023,0.677v55.502
				c0,5.087,3.894,9.251,8.656,9.251H197.895z"/>
			<path style="fill-rule:evenodd;clip-rule:evenodd;fill:#734C72;" d="M185.872,187.54c-6.858,4.697-31.341,19.696-34.282,21.721
				c-2.94,2.023-6.14,4.047-6.14,7.934c0,5.087,3.894,9.251,8.656,9.251h87.576c4.762,0,8.659-4.164,8.659-9.251l0,0
				c0-3.887-3.202-5.911-6.142-7.934c-2.939-2.024-27.21-16.887-34.282-21.721C200.105,180.829,195.681,180.821,185.872,187.54z"/>
			<path style="fill-rule:evenodd;clip-rule:evenodd;fill:#81577F;" d="M185.872,193.75c-6.858-4.698-31.341-19.698-34.282-21.721
				c-2.94-2.024-6.14-4.048-6.14-7.933c0-5.089,3.894-9.252,8.656-9.252h87.576c4.762,0,8.659,4.162,8.659,9.252l0,0
				c0,3.885-3.202,5.909-6.142,7.933c-2.939,2.023-27.21,16.886-34.282,21.721C200.105,200.46,195.681,200.467,185.872,193.75z"/>
			<g>
				<path style="fill-rule:evenodd;clip-rule:evenodd;fill:#E8685B;" d="M172.942,96.52c-0.139,0.018-0.275,0.042-0.409,0.068
					l-0.005,0.001l0,0c-2.495,0.523-4.389,2.712-4.441,5.37c-0.057,3.088,2.4,5.641,5.486,5.699c3.09,0.059,5.642-2.398,5.701-5.486
					c0.033-1.795-0.782-3.409-2.076-4.458c0.142,1.652-0.12,3.696-2.228,3.902l0.06-3.225
					C175.055,97.085,173.838,96.483,172.942,96.52z"/>
				<path style="fill-rule:evenodd;clip-rule:evenodd;fill:#E8685B;" d="M213.316,96.52c0.139,0.018,0.274,0.042,0.409,0.068
					l0.005,0.001h-0.001c2.495,0.523,4.391,2.712,4.441,5.37c0.059,3.088-2.398,5.641-5.486,5.699
					c-3.088,0.059-5.641-2.398-5.699-5.486c-0.035-1.795,0.782-3.409,2.076-4.458c-0.142,1.652,0.121,3.696,2.228,3.902
					l-0.062-3.225C211.203,97.085,212.419,96.483,213.316,96.52z"/>
			</g>
			<path style="fill-rule:evenodd;clip-rule:evenodd;fill:#F4AD85;" d="M193.13,68.578L193.13,68.578
				c-10.534,0-19.152,8.618-19.152,19.152v17.418c0,10.534,8.618,19.152,19.152,19.152l0,0c10.532,0,19.15-8.618,19.15-19.152
				V87.729C212.28,77.196,203.662,68.578,193.13,68.578z"/>
			<path style="fill-rule:evenodd;clip-rule:evenodd;fill:#EF8871;" d="M188.895,123.824c1.363,0.311,2.781,0.476,4.235,0.476l0,0
				c10.532,0,19.15-8.618,19.15-19.152V87.729c0-7.218-4.048-13.537-9.984-16.8c-11.297,4.977-25.552,12.486-25.552,12.486
				l2.479,5.847c0,0,0.15-3.347,5.538-3.347c5.388,0,11.673,0,15.008,0c3.336,0,3.912,2.181,3.912,4.555
				c0,2.373-0.538,8.226,4.426,9.557c0,0,0,3.399,0,6.028C208.106,108.684,208.345,123.822,188.895,123.824z"/>
			<g>
				<path style="fill-rule:evenodd;clip-rule:evenodd;fill:#FFFFFF;" d="M188.196,110.355c-0.108,2.736,2.022,5.041,4.757,5.148
					c2.736,0.108,5.041-2.023,5.148-4.757h-0.008c0.018-0.471-0.351-0.87-0.82-0.89l-8.177-0.321c-0.471-0.02-0.872,0.351-0.89,0.82
					H188.196z"/>
				<path style="fill-rule:evenodd;clip-rule:evenodd;fill:#FFFFFF;" d="M189.89,114.284c0.822,0.72,1.888,1.172,3.065,1.219
					c0.96,0.038,1.869-0.201,2.645-0.645c-0.339-1.03-1.421-1.835-2.759-1.939C191.565,112.823,190.421,113.392,189.89,114.284z"/>
				<path style="fill-rule:evenodd;clip-rule:evenodd;fill:#FFFFFF;" d="M197.381,109.87l-7.687-0.302
					c-0.155,0.843,0.204,1.719,0.769,1.927c0.686,0.256,6.255,0.329,6.665-0.093C197.327,111.197,197.379,110.518,197.381,109.87z"
					/>
			</g>
			<g>
				<path style="fill-rule:evenodd;clip-rule:evenodd;fill:#E8685B;" d="M203.988,106.095c-1.391-0.025-2.54,1.081-2.567,2.472
					c-0.027,1.39,1.081,2.539,2.47,2.565c1.391,0.027,2.54-1.08,2.567-2.47C206.483,107.271,205.377,106.122,203.988,106.095z"/>
				<path style="fill-rule:evenodd;clip-rule:evenodd;fill:#E8685B;" d="M182.324,105.684c-1.389-0.025-2.538,1.081-2.565,2.47
					c-0.026,1.392,1.079,2.541,2.47,2.565c1.392,0.027,2.54-1.079,2.567-2.47C184.821,106.86,183.715,105.711,182.324,105.684z"/>
			</g>
			<path style="fill-rule:evenodd;clip-rule:evenodd;fill:#000814;" d="M181.267,96.759c-0.335,0.167-0.743,0.032-0.912-0.304
				c-0.167-0.335-0.03-0.745,0.304-0.912c1.802-0.929,4.21-1.036,5.979,0.025c0.32,0.192,0.426,0.611,0.234,0.932
				c-0.191,0.32-0.611,0.426-0.932,0.234C184.509,95.875,182.716,96.065,181.267,96.759z"/>
			<path style="fill-rule:evenodd;clip-rule:evenodd;fill:#000814;" d="M205.718,96.76c-1.452-0.695-3.244-0.885-4.675-0.026
				c-0.321,0.192-0.74,0.086-0.932-0.234c-0.192-0.321-0.087-0.74,0.234-0.932c1.769-1.061,4.177-0.954,5.98-0.025
				c0.334,0.167,0.471,0.576,0.304,0.912C206.46,96.79,206.051,96.926,205.718,96.76z"/>
			<g>
				<path style="fill-rule:evenodd;clip-rule:evenodd;fill:#000814;" d="M203.637,99.048L203.637,99.048
					c0.909,0,1.653,0.745,1.653,1.654v2.158c0,0.909-0.745,1.653-1.653,1.653l0,0c-0.91,0-1.655-0.745-1.655-1.653v-2.158
					C201.982,99.794,202.727,99.048,203.637,99.048z"/>
				<path style="fill-rule:evenodd;clip-rule:evenodd;fill:#000814;" d="M183.346,99.048L183.346,99.048
					c-0.909,0-1.654,0.745-1.654,1.654v2.158c0,0.909,0.745,1.653,1.654,1.653l0,0c0.91,0,1.653-0.745,1.653-1.653v-2.158
					C184.999,99.794,184.256,99.048,183.346,99.048z"/>
			</g>
			<path style="fill-rule:evenodd;clip-rule:evenodd;fill:#252534;" d="M185.315,82.589c-2.063,0-6.05,0.977-6.05,5.094
				c0,4.119-0.78,7.384-3.407,7.384c0,0,0,1.425,0,3.232c0,1.805-0.177,3.632-1.88,3.632c0-3.885-1.186-5.413-1.186-5.413
				s0-5.197,0-9.742c0-4.543,1.28-10.649,7.244-14.838c7.718-5.421,18.472-5.421,26.191,0c5.964,4.189,7.242,10.295,7.242,14.838
				c0,4.545,0,9.742,0,9.742s-1.184,1.528-1.184,5.413c-1.705,0-1.88-1.827-1.88-3.632c0-1.807,0-3.232,0-3.232
				c-2.627,0-3.409-3.265-3.409-7.384c0-4.117-3.987-5.094-6.049-5.094C195.735,82.589,190.524,82.589,185.315,82.589z"/>
			<path style="fill-rule:evenodd;clip-rule:evenodd;fill:#020E28;" d="M208.337,73.677c2.367,2.288,5.165,5.077,5.473,5.869
				c0.396,1.01-0.137,3.324-0.479,4.723c-1.154,4.622-2.928,10.798-2.928,10.798c-2.627,0-3.409-3.265-3.409-7.384
				c0-3.053-2.193-4.379-4.167-4.862l-0.341-8.315L208.337,73.677z"/>
			<g>
				<path style="fill-rule:evenodd;clip-rule:evenodd;fill:#000814;" d="M206.084,84.483c0,0,3.74-2.918,2.766-8.752
					c-2.316-13.908-25.474-18.377-30.569-2.39c-8.553,0.927-10.126,15.56,0.64,19.217c0,0,0.749,0.132,0.691-0.391
					c-0.057-0.524-2.393-9.312,4.899-9.312c7.293,0,13.588,0,15.833,0C202.586,82.856,203.67,82.93,206.084,84.483z"/>
				<path style="fill-rule:evenodd;clip-rule:evenodd;fill:#000814;" d="M184.183,81.411c0.177-0.057,0.368,0.041,0.426,0.219
					c0.057,0.177-0.042,0.367-0.219,0.424c-1.33,0.431-2.337,1.575-2.895,2.891c-0.324,0.767-0.495,1.59-0.486,2.365
					c0.009,0.755,0.189,1.459,0.563,2.011c0.401,0.588,1.036,1.007,1.934,1.126c0.186,0.025,0.316,0.195,0.292,0.379
					c-0.023,0.186-0.194,0.316-0.379,0.292c-1.11-0.147-1.9-0.675-2.407-1.42c-0.453-0.664-0.669-1.499-0.678-2.383
					c-0.01-0.865,0.179-1.782,0.538-2.632C181.501,83.2,182.651,81.906,184.183,81.411z"/>
				<path style="fill-rule:evenodd;clip-rule:evenodd;fill:#000814;" d="M179.458,72.887c0.187,0.008,0.331,0.165,0.322,0.353
					c-0.007,0.187-0.166,0.33-0.353,0.322c-1.196-0.055-2.387,0.115-3.494,0.481c-1.543,0.508-2.921,1.393-3.933,2.569
					c-1.004,1.169-1.647,2.629-1.724,4.293c-0.044,0.932,0.092,1.932,0.438,2.984c0.06,0.179-0.038,0.369-0.215,0.428
					c-0.177,0.058-0.369-0.039-0.428-0.215c-0.372-1.131-0.516-2.213-0.469-3.227c0.083-1.826,0.787-3.424,1.886-4.702
					c1.092-1.272,2.577-2.228,4.234-2.774C176.904,73.009,178.175,72.827,179.458,72.887z"/>
				<path style="fill-rule:evenodd;clip-rule:evenodd;fill:#000814;" d="M202.109,67.704c0.105,0.149,0.079,0.362-0.059,0.476
					c-0.138,0.112-0.334,0.084-0.439-0.063c-1.493-2.101-4.732-3.726-8.358-4.351c-2.475-0.426-5.126-0.38-7.516,0.306
					c-2.368,0.68-4.481,1.991-5.907,4.096c-1.335,1.971-2.076,4.649-1.876,8.175c0.01,0.187-0.122,0.348-0.294,0.357
					c-0.172,0.012-0.32-0.132-0.331-0.317c-0.21-3.698,0.578-6.522,1.996-8.616c1.518-2.242,3.753-3.631,6.251-4.349
					c2.477-0.712,5.217-0.76,7.774-0.319C197.127,63.748,200.52,65.469,202.109,67.704z"/>
			</g>
			<g>
				<path style="fill-rule:evenodd;clip-rule:evenodd;fill:#0F1630;" d="M205.586,68.955c-2.036-2.308-4.797-3.999-7.798-4.934
					c-1.284,5.84-4.73,13.594-13.989,13.111c-3.807-0.199-6.637-1.219-8.747-2.622c-0.574,0.389-1.089,0.857-1.537,1.39
					c2.997,1.813,6.895,3.043,11.959,3.043C196.382,78.943,202.405,73.613,205.586,68.955z"/>
				<path style="fill-rule:evenodd;clip-rule:evenodd;fill:#0F1630;" d="M174.936,74.433c-0.683,0.314-1.323,0.709-1.894,1.169
					c-0.199-0.129-0.394-0.259-0.586-0.393c0.563-0.478,1.188-0.889,1.857-1.228C174.514,74.136,174.721,74.288,174.936,74.433z"/>
				<path style="fill-rule:evenodd;clip-rule:evenodd;fill:#0F1630;" d="M202.109,67.704c0.105,0.149,0.079,0.362-0.059,0.476
					c-0.138,0.112-0.334,0.084-0.439-0.063c-0.862-1.212-2.305-2.267-4.069-3.063c0.057-0.221,0.109-0.439,0.161-0.655
					C199.605,65.246,201.172,66.386,202.109,67.704L202.109,67.704z M177.938,75.98l0.017,0.362c0.01,0.187-0.122,0.348-0.294,0.357
					c-0.172,0.012-0.32-0.132-0.331-0.317c-0.013-0.224-0.021-0.442-0.027-0.66C177.51,75.813,177.721,75.898,177.938,75.98z"/>
			</g>
			<path style="fill-rule:evenodd;clip-rule:evenodd;fill:#FFFFFF;" d="M184.626,126.949l10.649,7.517l-6.552,7.384
				c0,0-0.802,0.609-1.38,0.065c-0.578-0.546-4.987-13.931-4.987-13.931l3.017-3.322
				C185.372,124.663,185.754,126.393,184.626,126.949z"/>
			<path style="fill-rule:evenodd;clip-rule:evenodd;fill:#FFFFFF;" d="M195.274,134.466l5.842-8.417c0,0-0.219-0.651-0.282-1.171
				l2.243,2.118l0.362,11.711c0,0-0.16,0.867-0.994,0.833C201.611,139.509,195.274,134.466,195.274,134.466z"/>
			<path style="fill-rule:evenodd;clip-rule:evenodd;fill:#D73B47;" d="M248.537,172.205c7.6,0,13.796-6.197,13.796-13.796
				c0-7.6-6.196-13.796-13.796-13.796c-7.599,0-13.795,6.196-13.795,13.796C234.741,166.008,240.938,172.205,248.537,172.205z"/>
			<path style="fill-rule:evenodd;clip-rule:evenodd;fill:#FFFFFF;" d="M248.508,167.328v-3.573h-7.245v-2.964l7.683-11.302h2.861
				v11.29h2.208v2.976h-2.208v3.573H248.508L248.508,167.328z M248.508,160.779v-6.068l-4.062,6.068H248.508z"/>
			<path style="fill-rule:evenodd;clip-rule:evenodd;fill:#F8CAB0;" d="M193.636,104.744c0,0,1.03,2.235,1.149,2.925
				c0.119,0.688-0.546,1.069-1.942,0.847C191.448,108.293,192.686,103.379,193.636,104.744z"/>
			<g>
				<path style="fill-rule:evenodd;clip-rule:evenodd;fill:#F4AD85;" d="M143.643,184.692c2.565-1.846,5.772-2.654,5.388-0.346
					c-0.117,0.705-1.476,1.795-1.46,1.966c0.042,0.387,1.565-0.987,2.388,0.831c0.642,1.413-1.505,2.569-2.211,3.204
					c-0.327,0.292,2.656-1.398,2.649,0.837c-0.001,0.601-0.934,1.481-1.976,2.193c-0.636,0.436,1.291,0.16,1.437,1.682
					c0.167,1.749-4.126,2.752-4.226,3.771l-0.194,1.962c0,0-2.437-0.924-2.758-2.308c-0.32-1.385,0.321-2.425,0.321-2.425
					s-1.795-0.922-1.411-2.134c0.386-1.213,1.475-1.559,1.475-1.559s-1.796-0.865-1.604-2.019c0.194-1.154,1.348-2.308,1.348-2.308
					S139.345,187.461,143.643,184.692z"/>
				<path style="fill-rule:evenodd;clip-rule:evenodd;fill:#EF8871;" d="M149.834,194.895c-0.186,0.429-0.765,0.877-2.151,1.57
					c-0.99,0.496-1.715,0.835-2.233,1.106c-0.792,0.414-1.107,0.668-1.166,1.076c-0.035,0.247-0.286,0.684-0.603,1.165
					c0.795,0.615,1.757,0.98,1.757,0.98l0.012-0.108l0.182-1.854c0.1-1.019,4.393-2.022,4.226-3.771
					C149.852,195.002,149.844,194.947,149.834,194.895z"/>
			</g>
			<g>
				<path style="fill-rule:evenodd;clip-rule:evenodd;fill:#F4AD85;" d="M252.356,184.692c-2.565-1.846-5.771-2.654-5.386-0.346
					c0.117,0.705,1.477,1.795,1.458,1.966c-0.041,0.387-1.563-0.987-2.388,0.831c-0.64,1.413,1.506,2.569,2.213,3.204
					c0.326,0.292-2.656-1.398-2.649,0.837c0.001,0.601,0.934,1.481,1.976,2.193c0.637,0.436-1.291,0.16-1.436,1.682
					c-0.167,1.749,4.125,2.752,4.225,3.771l0.192,1.962c0,0,2.437-0.924,2.759-2.308c0.321-1.385-0.321-2.425-0.321-2.425
					s1.795-0.922,1.41-2.134c-0.384-1.213-1.475-1.559-1.475-1.559s1.795-0.865,1.603-2.019c-0.192-1.154-1.346-2.308-1.346-2.308
					S256.656,187.461,252.356,184.692z"/>
				<path style="fill-rule:evenodd;clip-rule:evenodd;fill:#EF8871;" d="M246.167,194.895c0.185,0.429,0.765,0.877,2.151,1.57
					c0.991,0.496,1.714,0.835,2.233,1.106c0.792,0.414,1.107,0.668,1.165,1.076c0.035,0.247,0.284,0.684,0.603,1.165
					c-0.795,0.615-1.759,0.98-1.759,0.98l-0.01-0.108l-0.182-1.854c-0.1-1.019-4.393-2.022-4.225-3.771
					C246.148,195.002,246.157,194.947,246.167,194.895z"/>
			</g>
			<g>
				<path style="fill-rule:evenodd;clip-rule:evenodd;fill:#020E28;" d="M202.725,406.326c0,0,32.064,0.32,33.285,0
					c1.223-0.32,1.743-0.932,1.708-2.307c-0.036-1.374-0.049-1.916-0.077-2.946c-0.025-1.03-0.455-2.086-4.114-3.116
					c-3.658-1.03-4.716-1.417-7.453-1.956c-2.738-0.539-6.003-6.782-6.668-7.177c-0.668-0.393-1.756-0.393-3.722-0.393
					c-1.967,0-3.557-0.118-3.63,2.161c-0.169,5.241-7.302,2.575-7.848,1.548c0,0-1.497-0.094-1.826,0.838
					c-0.329,0.935,0.45,7.58,0.368,8.267c-0.084,0.687,0.252,1.008,0.252,1.008s-0.669,0.466-0.789,0.687
					c-0.121,0.22-0.155,0.835-0.139,1.473C202.087,405.05,202.03,406.277,202.725,406.326z"/>
				<path style="fill-rule:evenodd;clip-rule:evenodd;fill:#020E28;" d="M225.791,396.988c-0.193-0.033-0.371-0.982-0.371-0.982
					s-5.672-6.787-6.337-7.182c-0.667-0.393-2.588-0.24-4.549-0.393c-9.86-0.765-1.197,6.563,0.762,8.569
					C216.185,397.911,221.74,397.13,225.791,396.988z"/>
				<path style="fill-rule:evenodd;clip-rule:evenodd;fill:#020B1C;" d="M202.725,406.326c-0.694-0.049-0.638-1.276-0.654-1.914
					c-0.016-0.638,0.019-1.253,0.139-1.473c0.121-0.221,0.789-0.687,0.789-0.687s-0.336-0.321-0.252-1.008
					c0.03-0.249-0.054-1.282-0.156-2.539c1.021,1.024,2.878,2.044,6.231,2.044c4.895,0,20.561,0,28.792,0
					c0.015,0.108,0.023,0.216,0.026,0.323c0.028,1.03,0.041,1.572,0.077,2.946c0.035,1.375-0.484,1.986-1.708,2.307
					C234.788,406.647,202.725,406.326,202.725,406.326z"/>
				<path style="fill-rule:evenodd;clip-rule:evenodd;fill:#020E28;" d="M204.527,404.764c-0.694-0.049-0.638-1.276-0.654-1.914
					c-0.005-0.205-0.002-0.401,0.004-0.59c5.361,0.044,31.02,0.255,32.028-0.011c1.028-0.268,1.495-0.695,1.651-1.542
					c0.03-0.003,0.047-0.006,0.069-0.01c0.005,0.052,0.009,0.155,0.015,0.376c0.017,0.6,0.041,1.572,0.077,2.946
					c0.007,0.29-0.016,0.539-0.059,0.766C235.071,405.068,204.527,404.764,204.527,404.764z"/>
				<path style="fill-rule:evenodd;clip-rule:evenodd;fill:#131E3A;" d="M219.021,389.946l-1.998,0.731l3.45,0.864
					c0.141,0.035,0.234,0.137,0.243,0.252c0.032,0.025,0.061,0.059,0.08,0.095c0.076,0.149-0.015,0.326-0.199,0.393l-1.999,0.731
					l3.412,0.855c0.111,0.014,0.21,0.068,0.263,0.157c0.086,0.144,0.011,0.324-0.17,0.4l-1.849,0.782l3.28,0.821l0.018,0.005h0.002
					c0.078,0.023,0.141,0.068,0.179,0.126l0.002,0.001c0.005,0.009,0.013,0.021,0.018,0.03v0.002l0.011,0.024l0,0l0.002,0.007
					l0.007,0.021l0,0v0.007h0.003c0.009,0.047,0.005,0.097-0.015,0.147l-0.007,0.013v0.002c-0.033,0.065-0.089,0.119-0.159,0.152
					l-0.001,0.002c-0.013,0.005-0.025,0.012-0.039,0.015l-0.002,0.002l-0.006,0.001l-0.002,0.002l-0.007,0.002l-0.016,0.005h-0.002
					l-0.007,0.002l-0.026,0.006l0,0h-0.009v0.002c-0.027,0.005-0.058,0.007-0.087,0.005h-0.009l-6.592,0.03h-0.01h-0.003h-0.004
					h-0.005h-0.003h-0.006h-0.003l-0.006-0.002h-0.003h-0.005h-0.004l-0.005-0.001h-0.001h-0.008h-0.001l-0.008-0.002h-0.002
					l-0.007-0.002l0,0l-0.007-0.001h-0.001l-0.007-0.002h-0.002l-0.007-0.002l0,0l-0.008-0.002h-0.001l-0.007-0.001l0,0
					l-0.017-0.005l0,0l-0.007-0.004l0,0l-0.009-0.003l0,0l-0.007-0.004l0,0l-0.008-0.003l0,0l-0.007-0.002v-0.002l-0.007-0.003l0,0
					l-0.008-0.003l0,0l-0.007-0.004l0,0l-0.007-0.003l0,0l-0.007-0.005l0,0l-0.007-0.004l0,0l-0.005-0.005h-0.002l-0.006-0.003
					l-0.007-0.005l-0.006-0.006l-0.006-0.005l0,0l-0.006-0.005l0,0l-0.006-0.005l0,0l-0.005-0.005v-0.002l-0.005-0.003l-0.002-0.002
					l-0.003-0.005l0,0l-0.006-0.005v-0.002l-0.005-0.005l-0.004-0.005l-0.002-0.002l-0.003-0.003l-0.002-0.004l-0.001-0.003
					l-0.002-0.002l-0.004-0.003l-0.002-0.004l-0.001-0.003l-0.002-0.004l-0.001-0.003l-0.002-0.003l-0.002-0.004l-0.001-0.003
					l-0.002-0.004l-0.001-0.003l-0.002-0.003l-0.003-0.006l0,0l-0.003-0.006h-0.001l-0.001-0.007v-0.002l-0.006-0.014l-0.001-0.005
					v-0.002l-0.003-0.006l0,0l-0.002-0.007l0,0l-0.003-0.016l0,0v-0.006l0,0l-0.004-0.029v-0.001v-0.007v-0.002v-0.005v-0.002
					c0-0.015,0.004-0.028,0.006-0.041l0.001-0.006v-0.001v-0.005l0.002-0.002l0.003-0.014l0,0c0.006-0.015,0.012-0.028,0.017-0.042
					h0.001l0.002-0.006h0.001l0.002-0.007h0.002l0.003-0.007l0,0l0.007-0.012l0.015-0.018l0.005-0.007l0,0l0.006-0.007l0.005-0.005
					l0.005-0.005l0.005-0.007l0,0l0.006-0.005l0,0l0.006-0.005l0,0l0.006-0.007l0,0l0.006-0.003v-0.002l0.007-0.003v-0.002
					l0.006-0.003l0.002-0.002l0.005-0.004l0.002-0.001l0.006-0.004l0.002-0.001l0.003-0.004h0.001l0.006-0.003l0.003-0.002
					l0.004-0.003l0.004-0.002l0.003-0.002l0.004-0.001l0.003-0.004l0.004-0.002l0.003-0.001l0.004-0.002l0.005-0.002l0.003-0.001
					l0.004-0.002l0.005-0.002l0.001-0.002l0.009-0.003l1.7-0.72l-3.727-0.936c-0.121-0.014-0.227-0.075-0.276-0.172
					c-0.075-0.148,0.013-0.326,0.198-0.395l2-0.729l-3.45-0.865c-0.141-0.035-0.233-0.137-0.245-0.252
					c-0.033-0.025-0.06-0.057-0.079-0.096c-0.074-0.148,0.013-0.325,0.2-0.393l1.997-0.731l-3.448-0.863
					c-0.19-0.049-0.291-0.214-0.227-0.371c0.066-0.158,0.272-0.247,0.46-0.2l4.235,1.063l2.766-1.011
					c0.185-0.068,0.396-0.002,0.474,0.147C219.295,389.703,219.207,389.878,219.021,389.946L219.021,389.946z M218.286,396.039
					l2.737-0.012l-1.701-0.427L218.286,396.039L218.286,396.039z M215.713,394.068l3.565,0.894l1.706-0.723l-3.404-0.854
					L215.713,394.068L215.713,394.068z M217.556,392.753l2.128-0.78l-3.681-0.922l-2.13,0.778L217.556,392.753z"/>
			</g>
		</g>
	</g>
</g>
<g id="DESIGNED_BY_FREEPIK">
	<path style="fill:#1C262D;" d="M384.396,475.844c-0.941,0.966-1.562,2.167-1.791,3.473l-0.748-0.132
		c0.107-0.604,0.289-1.19,0.539-1.743l-0.451-0.234c-0.057,0.026-0.117,0.045-0.184,0.052c-0.33,0.039-0.631-0.197-0.67-0.528
		c-0.037-0.331,0.199-0.631,0.529-0.67c0.31-0.036,0.592,0.169,0.66,0.466l0.465,0.241c0.305-0.522,0.676-1.01,1.107-1.453
		L384.396,475.844z M386.346,474.444c0.936-0.447,1.941-0.674,2.996-0.674c0.496,0,0.992,0.053,1.475,0.158l0.16-0.741
		c-0.535-0.116-1.084-0.175-1.635-0.175c-0.172,0-0.342,0.006-0.51,0.017l-0.074-0.626c0.188-0.149,0.297-0.389,0.266-0.645
		c-0.045-0.393-0.402-0.674-0.795-0.628c-0.393,0.046-0.674,0.402-0.627,0.796c0.029,0.254,0.189,0.461,0.404,0.563l0.072,0.624
		c-0.713,0.116-1.402,0.332-2.059,0.646L386.346,474.444z M395.797,474.362c-0.309,0.038-0.535,0.304-0.529,0.608l-0.416,0.363
		c-0.418-0.43-0.891-0.813-1.408-1.14l-0.404,0.642c1.135,0.715,2.021,1.727,2.564,2.925l0.69-0.313
		c-0.25-0.554-0.566-1.071-0.941-1.545l0.402-0.351c0.061,0.012,0.125,0.016,0.189,0.007c0.332-0.04,0.566-0.341,0.525-0.672
		C396.43,474.557,396.129,474.321,395.797,474.362z M388.795,483.221c-0.387,0.023-0.775,0.035-1.158,0.035
		c-0.879,0-1.732-0.061-2.478-0.18c-0.391-0.062-0.846-0.154-1.27-0.292c1.047,1.861,3.068,3.125,5.389,3.125
		c2.855,0,5.262-1.916,5.949-4.503c-0.682,0.449-1.506,0.825-2.459,1.122C391.588,482.897,390.213,483.136,388.795,483.221z
		 M395.373,479.725c0.025,0.191,0.041,0.387,0.045,0.581c-1.375,1.201-3.791,1.985-6.672,2.159
		c-2.641,0.159-4.674-0.248-5.348-0.731c-0.09-0.412-0.137-0.836-0.137-1.261c0-3.277,2.729-5.943,6.08-5.943
		C392.4,474.529,394.994,476.763,395.373,479.725z M389.031,479.194c0-1.021-0.83-1.85-1.85-1.85c-1.02,0-1.85,0.83-1.85,1.85
		c0,1.02,0.83,1.85,1.85,1.85C388.201,481.044,389.031,480.214,389.031,479.194z M393.279,478.775c0-0.75-0.609-1.36-1.359-1.36
		s-1.361,0.61-1.361,1.36s0.611,1.36,1.361,1.36S393.279,479.525,393.279,478.775z M403.119,477.165
		c0-0.666,0.293-0.938,0.844-1.007c0.576-0.071,1.088,0.122,1.383,0.238v-1.729c-0.434-0.187-0.947-0.308-1.59-0.308
		c-1.674,0-2.568,1.102-2.568,2.782v0.889h-1.34v1.717h1.34v5.455h1.932v-5.455h2.229v-1.717h-2.229V477.165z M409.973,477.839
		c-0.881,0-1.568,0.304-2.02,0.977v-0.784h-1.873v7.172h1.932v-3.908c0-1.065,0.615-1.613,1.51-1.613
		c0.168,0,0.35,0.017,0.525,0.046l1.021-1.552C410.82,477.967,410.387,477.839,409.973,477.839z M417.715,481.606
		c0,0.222-0.016,0.488-0.037,0.651h-5.084c0.207,1.036,0.932,1.487,1.842,1.487c0.623,0,1.295-0.252,1.815-0.688l1.133,1.243
		c-0.814,0.748-1.852,1.089-3.057,1.089c-2.199,0-3.725-1.496-3.725-3.753c0-2.258,1.48-3.797,3.627-3.797
		C416.293,477.839,417.707,479.371,417.715,481.606z M415.775,480.94c-0.178-0.918-0.732-1.436-1.561-1.436
		c-0.91,0-1.443,0.548-1.613,1.436H415.775z M425.369,481.606c0,0.222-0.016,0.488-0.037,0.651h-5.086
		c0.207,1.036,0.934,1.487,1.844,1.487c0.621,0,1.295-0.252,1.813-0.688l1.133,1.243c-0.814,0.748-1.85,1.089-3.057,1.089
		c-2.199,0-3.723-1.496-3.723-3.753c0-2.258,1.48-3.797,3.627-3.797C423.947,477.839,425.361,479.371,425.369,481.606z
		 M423.43,480.94c-0.178-0.918-0.734-1.436-1.563-1.436c-0.91,0-1.443,0.548-1.613,1.436H423.43z M433.715,481.613
		c0,2.154-1.496,3.775-3.473,3.775c-0.961,0-1.643-0.378-2.109-0.933v3.708h-1.924v-10.133h1.887v0.792
		c0.467-0.585,1.154-0.984,2.139-0.984C432.219,477.839,433.715,479.46,433.715,481.613z M431.73,481.613
		c0-1.095-0.711-1.976-1.85-1.976c-1.096,0-1.844,0.844-1.844,1.976c0,1.133,0.748,1.977,1.844,1.977
		C431.02,483.59,431.73,482.709,431.73,481.613z M435.582,474.441c-0.697,0-1.229,0.548-1.229,1.243
		c0,0.696,0.531,1.229,1.229,1.229c0.695,0,1.236-0.533,1.236-1.229C436.818,474.989,436.277,474.441,435.582,474.441z
		 M434.627,485.203h1.932v-7.172h-1.932V485.203z M441.373,481.406l3.479-3.375h-2.367l-2.703,2.554v-6.04h-1.932v10.658h1.932
		v-2.901l2.717,2.901h2.377L441.373,481.406z M308.162,475.368h1.099v9.771h-1.099v-1.055c-0.527,0.718-1.392,1.23-2.388,1.23
		c-1.846,0-3.149-1.406-3.149-3.706c0-2.256,1.289-3.721,3.149-3.721c0.952,0,1.816,0.469,2.388,1.245V475.368z M308.162,480.012
		c-0.396-0.615-1.245-1.143-2.124-1.143c-1.421,0-2.27,1.172-2.27,2.739s0.85,2.725,2.27,2.725c0.879,0,1.729-0.498,2.124-1.113
		V480.012z M317.565,481.682v0.278h-5.727c0.088,1.333,1.025,2.446,2.549,2.446c0.806,0,1.626-0.322,2.182-0.894l0.527,0.718
		c-0.703,0.703-1.654,1.084-2.812,1.084c-2.095,0-3.604-1.509-3.604-3.721c0-2.051,1.465-3.706,3.486-3.706
		C316.307,477.888,317.565,479.558,317.565,481.682z M316.482,481.154c-0.015-1.055-0.718-2.358-2.329-2.358
		c-1.509,0-2.256,1.274-2.314,2.358H316.482z M319.616,479.895c0-0.63,0.601-1.113,1.567-1.113c0.908,0,1.685,0.381,2.109,0.893
		l0.513-0.762c-0.571-0.571-1.421-1.025-2.622-1.025c-1.685,0-2.637,0.938-2.637,2.036c0,2.622,4.38,1.567,4.38,3.281
		c0,0.703-0.586,1.216-1.67,1.216c-0.967,0-1.86-0.469-2.329-1.011l-0.571,0.791c0.718,0.762,1.699,1.113,2.857,1.113
		c1.831,0,2.783-0.952,2.783-2.139C323.996,480.422,319.616,481.447,319.616,479.895z M325.959,475.573
		c-0.396,0-0.732,0.337-0.732,0.747c0,0.41,0.337,0.732,0.732,0.732c0.41,0,0.747-0.322,0.747-0.732
		C326.706,475.91,326.369,475.573,325.959,475.573z M325.417,485.139h1.099v-7.075h-1.099V485.139z M333.458,478.064h1.099v6.87
		c0,2.344-1.641,3.076-3.369,3.076c-1.201,0-2.022-0.235-2.855-1.055l0.556-0.82c0.586,0.703,1.289,0.967,2.3,0.967
		c1.172,0,2.271-0.571,2.271-2.124v-1.011c-0.513,0.718-1.377,1.26-2.373,1.26c-1.846,0-3.15-1.377-3.15-3.662
		c0-2.271,1.289-3.677,3.15-3.677c0.952,0,1.802,0.469,2.373,1.245V478.064z M333.458,480.012c-0.381-0.615-1.23-1.143-2.109-1.143
		c-1.421,0-2.27,1.128-2.27,2.695c0,1.553,0.849,2.695,2.27,2.695c0.879,0,1.728-0.542,2.109-1.157V480.012z M340.006,477.888
		c-1.055,0-2.021,0.615-2.52,1.201v-1.025h-1.099v7.075h1.099v-5.171c0.41-0.571,1.23-1.099,2.095-1.099
		c0.952,0,1.582,0.395,1.582,1.641v4.629h1.099v-4.966C342.262,478.635,341.485,477.888,340.006,477.888z M350.566,481.682v0.278
		h-5.727c0.088,1.333,1.025,2.446,2.548,2.446c0.806,0,1.626-0.322,2.183-0.894l0.527,0.718c-0.703,0.703-1.655,1.084-2.813,1.084
		c-2.094,0-3.604-1.509-3.604-3.721c0-2.051,1.465-3.706,3.486-3.706C349.307,477.888,350.566,479.558,350.566,481.682z
		 M349.482,481.154c-0.015-1.055-0.718-2.358-2.329-2.358c-1.509,0-2.256,1.274-2.314,2.358H349.482z M357.1,475.368h1.099v9.771
		H357.1v-1.055c-0.527,0.718-1.392,1.23-2.388,1.23c-1.846,0-3.149-1.406-3.149-3.706c0-2.256,1.289-3.721,3.149-3.721
		c0.952,0,1.816,0.469,2.388,1.245V475.368z M357.1,480.012c-0.396-0.615-1.245-1.143-2.124-1.143c-1.421,0-2.27,1.172-2.27,2.739
		s0.85,2.725,2.27,2.725c0.879,0,1.729-0.498,2.124-1.113V480.012z M370.077,481.608c0,2.3-1.304,3.706-3.149,3.706
		c-0.996,0-1.86-0.513-2.388-1.23v1.055h-1.099v-9.771h1.099v3.765c0.571-0.776,1.421-1.245,2.388-1.245
		C368.773,477.888,370.077,479.353,370.077,481.608z M368.935,481.608c0-1.567-0.85-2.739-2.285-2.739
		c-0.864,0-1.728,0.527-2.109,1.143v3.208c0.381,0.615,1.245,1.113,2.109,1.113C368.085,484.333,368.935,483.176,368.935,481.608z
		 M373.988,483.864l-2.358-5.801h-1.186l2.959,7.148l-0.469,1.069c-0.249,0.586-0.571,0.747-1.055,0.747
		c-0.176,0-0.439-0.044-0.601-0.117l-0.176,0.995c0.205,0.059,0.571,0.103,0.806,0.103c0.938-0.015,1.655-0.411,2.08-1.436
		l3.545-8.511h-1.201L373.988,483.864z"/>
</g>
</svg>
