<?xml version="1.0" encoding="utf-8"?>
<!-- Generator: Adobe Illustrator 27.5.0, SVG Export Plug-In . SVG Version: 6.00 Build 0)  -->
<svg version="1.1" xmlns="http://www.w3.org/2000/svg" xmlns:xlink="http://www.w3.org/1999/xlink" x="0px" y="0px"
	 viewBox="0 0 500 500" style="enable-background:new 0 0 500 500;" xml:space="preserve">
<g id="BACKGROUND">
	<rect style="fill:#11B3FC;" width="500" height="500"/>
</g>
<g id="OBJECTS">
	<g>
		<ellipse style="fill:#0C9CDB;" cx="250" cy="387.564" rx="237.079" ry="23.827"/>
		<g>
			<g>
				<g>
					<g>
						<path style="fill:#FCFFFA;" d="M189.251,123.002h-25.437c-3.358,0-6.08-2.722-6.08-6.08v-0.783c0-3.358,2.722-6.08,6.08-6.08
							h25.437c3.358,0,6.08,2.722,6.08,6.08v0.783C195.331,120.28,192.609,123.002,189.251,123.002z"/>
						<g>
							<circle style="fill:#11B3FC;" cx="167.89" cy="116.53" r="2.75"/>
							<circle style="fill:#11B3FC;" cx="176.533" cy="116.53" r="2.75"/>
							<circle style="fill:#11B3FC;" cx="185.176" cy="116.53" r="2.75"/>
						</g>
					</g>
					<polygon style="fill:#FCFFFA;" points="162.861,122.796 169.697,122.796 166.279,127.923 					"/>
				</g>
				<g>
					<g>
						<path style="fill:#FCFFFA;" d="M188.879,142.37h25.437c3.358,0,6.08-2.722,6.08-6.08v-0.783c0-3.358-2.722-6.08-6.08-6.08
							h-25.437c-3.358,0-6.08,2.722-6.08,6.08v0.783C182.799,139.648,185.521,142.37,188.879,142.37z"/>
						<g>
							<circle style="fill:#11B3FC;" cx="210.241" cy="135.898" r="2.75"/>
							<circle style="fill:#11B3FC;" cx="201.598" cy="135.898" r="2.75"/>
							<circle style="fill:#11B3FC;" cx="192.955" cy="135.898" r="2.75"/>
						</g>
					</g>
					<polygon style="fill:#FCFFFA;" points="215.269,142.165 208.434,142.165 211.851,147.291 					"/>
				</g>
			</g>
			<g>
				<path style="fill:#EE3554;" d="M387.017,210.229c1.676,0.59,3.092,1.92,3.532,3.639c4.574-1.715,9.149-3.43,13.724-5.145
					c-0.176-1.725-0.352-3.449-0.529-5.173c1.845-1.433,3.69-2.866,5.535-4.299c1.554,0.588,3.107,1.176,4.661,1.764
					c3.343-3.826,6.686-7.653,10.029-11.479c-0.835-1.394-1.67-2.787-2.505-4.181c0.63-3.802,4.246-6.879,8.099-6.892
					c0.728-5.037,1.457-10.075,2.185-15.112c-1.307-0.613-2.615-1.226-3.922-1.84c-0.259-2.535-0.518-5.069-0.777-7.603
					c1.156-0.865,2.313-1.73,3.469-2.595c-1.312-3.63-2.624-7.26-3.936-10.89c-0.276-0.765-0.496-2.215-1.018-2.824
					c-0.735-0.858-0.288-0.344-1.435-0.372c-1.635-0.04-2.924-0.099-4.346-1.069c-1.601-1.093-2.753-2.711-3.87-4.295
					c0.564-1.54,1.127-3.08,1.691-4.619c-4.048-3.071-8.095-6.143-12.143-9.214c-1.403,0.89-2.805,1.78-4.208,2.67
					c-2.097-1.03-4.193-2.061-6.29-3.091c-0.176-1.725-0.352-3.449-0.528-5.174c-4.827-0.755-9.653-1.509-14.48-2.264
					c-0.127,2.665-2.589,4.913-5.251,5.09c-2.662,0.177-5.265-1.521-6.47-3.901c-4.79,1.989-9.581,3.977-14.371,5.966
					c0.192,1.962,0.384,3.923,0.577,5.885c-2.705,2.676-7.507,2.824-10.373,0.32c-3.3,4.327-6.6,8.655-9.9,12.982
					c1.046,1.487,2.091,2.974,3.137,4.461c-0.718,1.716-1.437,3.431-2.155,5.147c-1.971,0.201-3.942,0.403-5.913,0.604
					c-0.703,5.299-1.406,10.598-2.11,15.897c1.367,0.401,2.733,0.802,4.1,1.203c0.25,2.45,0.501,4.899,0.751,7.349
					c-1.257,0.669-2.515,1.338-3.772,2.008c1.76,5.047,3.521,10.095,5.281,15.142c1.971-0.201,3.942-0.403,5.912-0.604
					c1.05,1.535,2.101,3.07,3.151,4.605c-0.723,1.668-1.447,3.335-2.17,5.003c4.107,3.571,8.213,7.142,12.32,10.712
					c2.3-3.032,7.033-3.858,10.223-1.784c0.208,1.96,0.417,3.92,0.625,5.88c5.093,0.979,10.187,1.958,15.28,2.937
					c0.7-2.574,2.906-4.763,5.548-5.128C385.263,209.822,386.173,209.932,387.017,210.229z M356.807,170.784
					c-4.526-12.509,1.946-26.319,14.456-30.845s26.319,1.946,30.845,14.456c4.526,12.509-1.946,26.319-14.456,30.845
					C375.143,189.766,361.333,183.294,356.807,170.784z"/>
				<path style="fill:#C92C42;" d="M402.108,154.395c-4.526-12.509-18.336-18.981-30.845-14.456s-18.981,18.336-14.456,30.845
					c4.526,12.509,18.336,18.981,30.845,14.456C400.161,180.714,406.633,166.904,402.108,154.395z M364.012,168.178
					c-3.086-8.53,1.327-17.947,9.857-21.033c8.53-3.086,17.947,1.327,21.033,9.857c3.086,8.53-1.327,17.947-9.857,21.033
					S367.099,176.707,364.012,168.178z"/>
			</g>
			<g>
				<path style="fill:#EE3554;" d="M98.956,381.822c1.288,0.453,2.375,1.475,2.713,2.795c3.514-1.317,7.027-2.634,10.541-3.952
					c-0.135-1.325-0.271-2.649-0.406-3.974c1.417-1.101,2.834-2.201,4.251-3.302c1.193,0.452,2.387,0.903,3.58,1.355
					c2.568-2.939,5.135-5.878,7.703-8.817c-0.641-1.07-1.283-2.141-1.924-3.211c0.484-2.92,3.261-5.283,6.221-5.294
					c0.559-3.869,1.119-7.738,1.679-11.607c-1.004-0.471-2.008-0.942-3.012-1.413c-0.199-1.947-0.398-3.893-0.597-5.84
					c0.888-0.664,1.776-1.329,2.664-1.993c-1.008-2.788-2.015-5.576-3.023-8.365c-0.212-0.587-0.381-1.701-0.782-2.169
					c-0.564-0.659-0.221-0.264-1.102-0.286c-1.256-0.03-2.246-0.076-3.338-0.821c-1.229-0.839-2.114-2.082-2.972-3.299
					c0.433-1.183,0.866-2.365,1.299-3.548c-3.109-2.359-6.218-4.718-9.326-7.077c-1.077,0.684-2.155,1.367-3.232,2.051
					c-1.61-0.791-3.221-1.583-4.831-2.374c-0.135-1.325-0.271-2.649-0.406-3.974c-3.707-0.58-7.415-1.159-11.122-1.739
					c-0.097,2.047-1.989,3.774-4.033,3.909c-2.044,0.136-4.044-1.168-4.969-2.996c-3.679,1.527-7.359,3.055-11.038,4.582
					c0.148,1.507,0.295,3.013,0.443,4.52c-2.078,2.055-5.766,2.169-7.967,0.246c-2.535,3.324-5.069,6.648-7.604,9.971
					c0.803,1.142,1.606,2.284,2.409,3.426c-0.552,1.318-1.103,2.636-1.655,3.953c-1.514,0.155-3.028,0.309-4.541,0.464
					c-0.54,4.07-1.08,8.14-1.62,12.21c1.05,0.308,2.099,0.616,3.149,0.924c0.192,1.881,0.384,3.763,0.577,5.644
					c-0.966,0.514-1.931,1.028-2.897,1.542c1.352,3.877,2.704,7.754,4.056,11.63c1.514-0.155,3.027-0.309,4.541-0.464
					c0.807,1.179,1.614,2.358,2.42,3.537c-0.556,1.281-1.111,2.562-1.667,3.842c3.154,2.743,6.309,5.485,9.463,8.228
					c1.766-2.329,5.402-2.963,7.852-1.37c0.16,1.505,0.32,3.011,0.48,4.516c3.912,0.752,7.824,1.504,11.736,2.256
					c0.538-1.977,2.232-3.658,4.261-3.939C97.608,381.51,98.307,381.594,98.956,381.822z M75.752,351.526
					c-3.476-9.608,1.495-20.215,11.103-23.691s20.215,1.495,23.691,11.103c3.476,9.608-1.495,20.215-11.103,23.691
					S79.228,361.134,75.752,351.526z"/>
				<path style="fill:#C92C42;" d="M110.547,338.938c-3.476-9.608-14.083-14.579-23.691-11.103s-14.579,14.083-11.103,23.691
					c3.476,9.608,14.083,14.579,23.691,11.103S114.023,348.546,110.547,338.938z M81.287,349.524
					c-2.37-6.552,1.019-13.784,7.571-16.155s13.784,1.019,16.155,7.571c2.37,6.552-1.019,13.784-7.571,16.155
					S83.657,356.075,81.287,349.524z"/>
			</g>
			<g>
				<g>
					<g>
						<g>
							<path style="fill:#214856;" d="M362.762,348.393H105.129c-9.497,0-17.196-7.699-17.196-17.196V174.374
								c0-9.497,7.699-17.196,17.196-17.196h257.634c9.497,0,17.196,7.699,17.196,17.196v156.823
								C379.959,340.694,372.26,348.393,362.762,348.393z"/>
						</g>
						<g>
							<g>
								<rect x="98.989" y="177.327" style="fill:#D4FAFC;" width="269.913" height="153.493"/>
							</g>
						</g>
						<g>
							<g>
								<rect x="190.044" y="348.393" style="fill:#214856;" width="87.803" height="18.861"/>
								<rect x="176.386" y="367.255" style="fill:#214856;" width="115.12" height="18.861"/>
							</g>
						</g>
					</g>
					<path style="fill:#FCFFFA;" d="M367.466,178.781c-12.913,12.944-141.34,138.721-267.951,150.591l-1.19-151.665
						c0,0,246.597-0.967,268.677-0.108C367.609,177.622,367.895,178.351,367.466,178.781z"/>
				</g>
				<g>
					<g>
						<g>
							<g>
								<rect x="197.044" y="246.404" style="fill:#FF7F00;" width="73.804" height="50.8"/>
							</g>
							<g>
								<polygon style="fill:#FF9A00;" points="197.044,246.269 233.945,209.07 270.847,246.269 								"/>
								<g>
									<rect x="207.347" y="227.667" style="fill:#FCFFFA;" width="53.196" height="61.079"/>
								</g>
								<g>
									<g>
										<polygon style="fill:#FF7F00;" points="197.044,297.158 233.945,271.862 270.847,297.158 										"/>
									</g>
									<polygon style="fill:#FF9A00;" points="270.847,246.269 233.945,271.862 270.847,297.158 									"/>
									<polygon style="fill:#FF9A00;" points="197.044,246.269 233.945,271.862 197.044,297.158 									"/>
								</g>
							</g>
						</g>
					</g>
					<g>
						<g>
							<g>
								<g>
									<path style="fill:#214856;" d="M230.071,238.404c-0.315-0.208-0.524-0.462-0.714-0.724
										c-0.176-0.268-0.345-0.539-0.415-0.852l0.693,0.214c-0.32,0.136-0.587,0.104-0.863,0.118
										c-0.269,0.006-0.516,0.043-0.761,0.117c-0.484,0.144-0.993,0.425-1.523,0.429c-0.526,0.057-1.059,0.023-1.551-0.164
										c-0.491-0.181-0.956-0.441-1.342-0.854c-0.024-0.026-0.023-0.066,0.003-0.09c0.009-0.008,0.021-0.014,0.032-0.016
										c0.554-0.119,1.04-0.116,1.516-0.108c0.477-0.012,0.922,0.103,1.381,0.184c0.454,0.037,0.934,0.279,1.422,0.258
										c0.483,0.027,0.93-0.409,1.173-0.675c0.138-0.151,0.372-0.161,0.523-0.023c0.022,0.02,0.042,0.043,0.058,0.067l0.113,0.17
										c0.177,0.267,0.256,0.577,0.328,0.889c0.058,0.318,0.097,0.645,0.029,1.017c-0.007,0.036-0.041,0.061-0.078,0.054
										C230.087,238.412,230.078,238.408,230.071,238.404z"/>
								</g>
								<g>
									<g>
										<path style="fill:#214856;" d="M231.289,237.883c-0.315-0.208-0.524-0.462-0.714-0.724
											c-0.176-0.268-0.345-0.539-0.415-0.852l-0.045-0.197c-0.045-0.2,0.08-0.398,0.28-0.443c0.03-0.007,0.061-0.009,0.09-0.009
											c0.36,0.008,0.984-0.013,1.299-0.381c0.352-0.338,0.51-0.852,0.797-1.206c0.259-0.388,0.484-0.789,0.822-1.125
											c0.324-0.35,0.657-0.702,1.127-1.02c0.029-0.02,0.069-0.014,0.089,0.015c0.007,0.01,0.011,0.022,0.012,0.034
											c0.031,0.565-0.102,1.08-0.311,1.56c-0.205,0.485-0.548,0.893-0.954,1.234c-0.369,0.38-0.924,0.553-1.363,0.803
											c-0.223,0.126-0.42,0.279-0.611,0.469c-0.2,0.19-0.362,0.406-0.682,0.542l0.325-0.649
											c0.177,0.267,0.256,0.577,0.328,0.889c0.058,0.318,0.097,0.645,0.029,1.017c-0.007,0.036-0.041,0.061-0.078,0.054
											C231.305,237.892,231.297,237.888,231.289,237.883z"/>
									</g>
									<g>
										<g>
											<path style="fill:#214856;" d="M227.981,243.223c-0.371,0.185-0.716,0.229-1.052,0.223
												c-0.166-0.015-0.334-0.015-0.493-0.066c-0.158-0.055-0.309-0.145-0.458-0.249l-0.165-0.082
												c-0.148-0.403-0.419-0.671-0.787-0.833c-0.384-0.145-0.743-0.317-1.048-0.548c-0.326-0.209-0.604-0.469-0.823-0.795
												c-0.225-0.319-0.42-0.671-0.528-1.117c-0.009-0.036,0.013-0.073,0.049-0.081c0.009-0.002,0.018-0.002,0.026-0.001
												c0.454,0.068,0.822,0.231,1.16,0.426c0.344,0.189,0.628,0.443,0.865,0.748c0.258,0.283,0.461,0.625,0.64,0.995
												c0.195,0.352,0.486,0.598,0.901,0.71l-0.164-0.082c0.176-0.043,0.35-0.072,0.517-0.065
												c0.166,0.011,0.323,0.071,0.483,0.118c0.315,0.117,0.62,0.283,0.899,0.59c0.026,0.029,0.024,0.073-0.005,0.099
												C227.992,243.216,227.986,243.22,227.981,243.223z"/>
										</g>
										<g>
											<path style="fill:#214856;" d="M229.478,247.765c-0.603,0.144-1.133,0.064-1.645-0.069
												c-0.518-0.114-0.899-0.649-1.403-0.808l0.209-0.098c-0.173,0.373-0.204,0.801-0.27,1.225
												c-0.084,0.415-0.24,0.799-0.395,1.186c-0.354,0.746-0.922,1.412-1.739,1.831c-0.031,0.016-0.069,0.004-0.084-0.027
												c-0.006-0.012-0.008-0.026-0.006-0.038c0.126-0.898,0.381-1.631,0.782-2.317c0.221-0.331,0.426-0.671,0.687-0.989
												c0.278-0.309,0.577-0.62,0.712-0.996c0.03-0.084,0.126-0.126,0.21-0.098c0.501,0.169,1.124-0.038,1.61,0.176
												c0.492,0.195,0.967,0.444,1.368,0.916c0.023,0.028,0.02,0.069-0.008,0.092
												C229.497,247.758,229.488,247.763,229.478,247.765z"/>
										</g>
										<g>
											<path style="fill:#214856;" d="M232.045,251.843c-0.581,0.177-1.096,0.123-1.596,0.014
												c-0.493-0.133-0.971-0.32-1.383-0.739l0.188-0.073c-0.195,0.786-0.523,1.489-0.858,2.187
												c-0.384,0.668-0.916,1.244-1.677,1.678c-0.031,0.017-0.069,0.007-0.087-0.024c-0.006-0.011-0.009-0.023-0.008-0.035
												c0.052-0.875,0.334-1.606,0.763-2.246c0.478-0.61,0.963-1.215,1.582-1.737c0.03-0.025,0.064-0.042,0.099-0.051
												l0.089-0.022c0.57-0.141,1.075-0.051,1.565,0.094c0.483,0.169,0.95,0.392,1.352,0.847
												c0.024,0.027,0.022,0.07-0.006,0.094C232.062,251.836,232.053,251.84,232.045,251.843z"/>
										</g>
									</g>
									<g>
										<g>
											<path style="fill:#214856;" d="M235.807,239.78c-0.029-0.414,0.062-0.749,0.195-1.057
												c0.077-0.148,0.141-0.303,0.249-0.43c0.111-0.125,0.252-0.231,0.404-0.329l-0.054,0.176
												c0.206-0.377,0.23-0.757,0.11-1.141c-0.143-0.385-0.25-0.768-0.276-1.15c-0.057-0.383-0.043-0.764,0.058-1.143
												c0.092-0.379,0.229-0.757,0.494-1.132c0.021-0.03,0.063-0.038,0.094-0.016c0.007,0.005,0.013,0.012,0.018,0.019
												c0.247,0.387,0.366,0.771,0.441,1.154c0.083,0.383,0.08,0.764,0.005,1.144c-0.044,0.38-0.168,0.759-0.329,1.136
												c-0.137,0.378-0.131,0.76,0.057,1.145l-0.054,0.176c-0.028,0.179-0.067,0.351-0.137,0.503
												c-0.073,0.15-0.189,0.272-0.293,0.401c-0.228,0.246-0.498,0.465-0.888,0.606c-0.036,0.013-0.077-0.006-0.09-0.042
												C235.809,239.793,235.807,239.786,235.807,239.78z"/>
										</g>
										<g>
											<path style="fill:#214856;" d="M238.045,244.016c-0.064-0.617,0.085-1.131,0.285-1.622
												c0.182-0.499,0.762-0.806,0.986-1.285c0.035-0.081,0.134-0.117,0.216-0.084c0.365,0.163,0.797,0.161,1.212,0.175
												c0.41,0.032,0.798,0.119,1.189,0.188c0.773,0.185,1.479,0.507,2.214,1.038c0.028,0.02,0.035,0.059,0.016,0.087
												c-0.008,0.011-0.019,0.019-0.031,0.023c-0.868,0.301-1.742,0.25-2.525-0.01c-0.386-0.155-0.772-0.309-1.129-0.535
												c-0.352-0.246-0.683-0.519-1.072-0.652l0.215-0.084c-0.233,0.474-0.111,1.119-0.387,1.572
												c-0.258,0.462-0.567,0.9-1.088,1.236c-0.03,0.02-0.071,0.011-0.091-0.02C238.05,244.036,238.046,244.026,238.045,244.016
												z"/>
										</g>
										<g>
											<path style="fill:#214856;" d="M239.218,248.685c-0.05-0.605,0.112-1.097,0.324-1.563
												c0.234-0.454,0.518-0.881,1.015-1.195l0.077-0.048c0.033-0.021,0.07-0.033,0.106-0.037
												c0.805-0.086,1.578-0.018,2.349,0.058c0.759,0.133,1.483,0.435,2.15,1.002c0.027,0.023,0.03,0.063,0.007,0.09
												c-0.008,0.01-0.019,0.016-0.03,0.02c-0.84,0.25-1.623,0.236-2.372,0.051c-0.736-0.24-1.471-0.489-2.173-0.892
												l0.183-0.085c0.017,0.587-0.178,1.062-0.422,1.51c-0.267,0.436-0.584,0.846-1.114,1.143
												c-0.032,0.018-0.073,0.007-0.09-0.025C239.221,248.704,239.219,248.694,239.218,248.685z"/>
										</g>
									</g>
								</g>
							</g>
							
								<ellipse transform="matrix(0.9197 -0.3927 0.3927 0.9197 -77.7093 111.5281)" style="fill:#214856;" cx="233.729" cy="245.692" rx="5.111" ry="8.518"/>
						</g>
						<g>
							<path style="fill:#FFFFFF;" d="M228.895,241.252c0.21,1.029,0.472,2.003,0.774,2.961c0.316,0.951,0.64,1.891,1.066,2.79
								c0.409,0.904,0.853,1.795,1.368,2.657c0.494,0.879,1.071,1.708,1.615,2.616c-1.764-1.15-3.125-2.885-4.003-4.818
								c-0.435-0.971-0.737-2.002-0.893-3.051C228.667,243.36,228.641,242.281,228.895,241.252z"/>
						</g>
					</g>
				</g>
				<polygon style="fill:#142B33;" points="190.044,348.393 277.847,348.393 277.847,355.611 				"/>
			</g>
			<g>
				<g>
					
						<rect x="288.983" y="183.692" transform="matrix(0.9902 -0.1396 0.1396 0.9902 -23.133 42.4305)" style="fill:#FA977A;" width="3.663" height="4.762"/>
					<path style="fill:#214856;" d="M292.991,187.513l0.287,2.033c0.052,0.369-0.206,0.709-0.575,0.758
						c-2.113,0.281-8.497,1.079-8.381,0.445c0.14-0.76,4.615-2.254,4.615-2.254L292.991,187.513z"/>
				</g>
				<g>
					
						<rect x="295.066" y="186.742" transform="matrix(0.9902 -0.1396 0.1396 0.9902 -23.4994 43.3096)" style="fill:#FA977A;" width="3.663" height="4.762"/>
					<path style="fill:#214856;" d="M299.073,190.564l0.287,2.033c0.052,0.369-0.206,0.709-0.575,0.758
						c-2.113,0.281-8.497,1.079-8.381,0.445c0.139-0.76,4.615-2.254,4.615-2.254L299.073,190.564z"/>
				</g>
				<g>
					<path style="fill:#FF7F00;" d="M283.9,145.849c-0.428,0.294-0.829,0.622-1.197,0.99c-4.622,4.61-1.505,13.719-0.172,19.068
						c1.663,6.672,3.839,13.28,6.393,19.666h4.964l-4.081-26.524c-0.464-3.018,1.871-5.739,4.924-5.739h21.493l1.574-5.352
						c-6.717,0-15.008-4.576-21.725-4.575C292.329,143.382,287.284,143.524,283.9,145.849z"/>
				</g>
				<g>
					<path style="fill:#FF9A00;" d="M289.926,149.382c-0.428,0.294-0.829,0.622-1.197,0.99c-4.622,4.61-1.505,13.719-0.172,19.068
						c1.663,6.672,3.839,13.28,6.393,19.666h4.964l-4.081-26.525c-0.464-3.018,1.871-5.739,4.924-5.739h14.422
						c3.905,0,7.071-3.166,7.071-7.071l0,0c0-1.577-1.279-2.856-2.856-2.856c-5.765,0-11.53-0.001-17.296,0
						C298.354,146.915,293.309,147.057,289.926,149.382z"/>
				</g>
				<g>
					<path style="fill:#F08668;" d="M311.781,106.995l-1.541,4.842l5.762-1.163c0,0-0.698-2.397,0.241-3.891
						C316.243,106.783,312.859,106.298,311.781,106.995z"/>
					<path style="fill:#FA977A;" d="M306.972,98.832l0.003,0.02c0.517-9.182,7.318-5.993,7.318-5.993
						c2.319,0.618,6.243,3.476,5.379,6.329c-0.864,2.853-1.775,8.859-6.626,9.793c-4.077,0.785-5.854,0.1-6.104-5.835
						c-0.225-0.049-0.482-0.161-0.744-0.403C305.447,102.05,306.972,98.832,306.972,98.832z"/>
				</g>
				<g>
					<path style="fill:#214856;" d="M321.108,95.665c-0.316-1.035-0.843-2.01-1.612-2.767c-1.193-1.174-2.841-1.722-4.451-2.028
						c-1.648-0.313-3.412-0.451-4.999,0.21c-0.265,0.11-0.522,0.242-0.765,0.396c-1.806,1.145-2.795,3.436-4.803,4.169
						c0.051-0.019,0.565,0.386,0.655,0.437c0.274,0.156,0.561,0.289,0.856,0.399c1.141,0.421,2.366,0.372,3.553,0.223
						c1.558-0.195,3.117-0.39,4.675-0.586c0.368-0.046,0.757-0.089,1.095,0.062c0.554,0.248,0.768,0.913,0.888,1.507
						c0.594,2.927,0.757,5.951,0.557,8.931c0.717-0.564,1.034-1.177,1.667-1.834c1.059-1.101,2.002-2.346,2.539-3.776
						c0.567-1.51,0.654-3.189,0.297-4.762C321.217,96.051,321.166,95.857,321.108,95.665z"/>
					<path style="fill:#214856;" d="M304.502,95.605c-0.039-0.055-0.077-0.111-0.108-0.171
						C304.395,95.433,304.381,95.571,304.502,95.605z"/>
				</g>
				
					<ellipse transform="matrix(0.3334 -0.9428 0.9428 0.3334 115.7668 366.6851)" style="fill:#FA977A;" cx="317.182" cy="101.479" rx="1.398" ry="0.864"/>
				<path style="fill:#FFFFFF;" d="M316.883,109.805c-1.877-0.104-2.516,0.446-4.652,0.946c0,0-6.267,0.863-7.783,9.436
					c-1.516,8.574-0.614,24.522-0.614,24.522s4.634,2.14,8.862,2.997c7.615,1.888,10.18,0.339,10.18,0.339
					C326.329,133.756,320.864,110.026,316.883,109.805z"/>
				<g>
					<g>
						<path style="fill:none;stroke:#214856;stroke-width:0.8387;stroke-miterlimit:10;" d="M251.427,222.422
							c0.318,1.91,1.497,4.55,3.931,3.661c1.432-0.523,2.5-2.105,2.403-3.634c-0.1-1.575-1.4-2.824-2.735-3.498
							c-0.054-0.027-0.743-0.3-0.743-0.337v-3.808"/>
						<polygon style="fill:#214856;" points="251.268,221.313 250.657,223.333 252.518,223.013 						"/>
					</g>
				</g>
				<g>
					
						<line style="fill:none;stroke:#214856;stroke-width:0.8387;stroke-miterlimit:10;" x1="254.805" y1="103.21" x2="254.283" y2="215.849"/>
					<path style="fill:none;stroke:#FF9A00;stroke-width:1.1183;stroke-miterlimit:10;" d="M289.222,133.456
						c0,0-12.515-27.117-34.417-30.246"/>
				</g>
				<g>
					<g>
						<path style="fill:#FA977A;" d="M293.212,134.429c0,0-3.96,0.543-6.315-2.267l4.157-0.369l-2.396-0.596
							c0,0,0.287-0.884,1.788-0.555l1.467,0.306c0,0,1.28-0.276,1.914,0.822L293.212,134.429z"/>
						<path style="fill:#FA977A;" d="M319.664,120.43c1.586-1.927,0.798-4.573-0.739-6.162c-0.947-0.98-2.238-1.812-3.629-1.363
							c-0.8,0.259-1.483,0.842-2.007,1.531c-0.567,0.744-1.106,1.678-1.325,2.601c0,0.001-2.269,9.547-4.761,11.711
							c-2.492,2.163-13.665,2.644-13.665,2.644l-0.325,3.036c0,0,11.912,3.441,16.842-0.637
							C314.985,129.714,318.29,122.099,319.664,120.43z"/>
					</g>
					<path style="fill:#FFFFFF;" d="M310.214,120.93c0,0,1.554-10.538,7.098-8.925c5.543,1.613,2.997,9.006,2.042,11.955
						L310.214,120.93z"/>
				</g>
			</g>
			<g>
				<g>
					
						<line style="fill:none;stroke:#EE3554;stroke-width:2.2366;stroke-miterlimit:10;" x1="154.596" y1="229.407" x2="154.596" y2="400.451"/>
					
						<line style="fill:none;stroke:#EE3554;stroke-width:2.2366;stroke-miterlimit:10;" x1="183.853" y1="229.407" x2="183.853" y2="400.451"/>
					
						<line style="fill:none;stroke:#EE3554;stroke-width:2.2366;stroke-miterlimit:10;" x1="154.596" y1="244.901" x2="183.853" y2="244.901"/>
					
						<line style="fill:none;stroke:#EE3554;stroke-width:2.2366;stroke-miterlimit:10;" x1="154.596" y1="265.792" x2="183.853" y2="265.792"/>
					
						<line style="fill:none;stroke:#EE3554;stroke-width:2.2366;stroke-miterlimit:10;" x1="154.596" y1="286.682" x2="183.853" y2="286.682"/>
					
						<line style="fill:none;stroke:#EE3554;stroke-width:2.2366;stroke-miterlimit:10;" x1="154.596" y1="307.573" x2="183.853" y2="307.573"/>
					
						<line style="fill:none;stroke:#EE3554;stroke-width:2.2366;stroke-miterlimit:10;" x1="154.596" y1="328.464" x2="183.853" y2="328.464"/>
					
						<line style="fill:none;stroke:#EE3554;stroke-width:2.2366;stroke-miterlimit:10;" x1="154.596" y1="349.354" x2="183.853" y2="349.354"/>
					
						<line style="fill:none;stroke:#EE3554;stroke-width:2.2366;stroke-miterlimit:10;" x1="154.596" y1="370.245" x2="183.853" y2="370.245"/>
					
						<line style="fill:none;stroke:#EE3554;stroke-width:2.2366;stroke-miterlimit:10;" x1="154.596" y1="391.136" x2="183.853" y2="391.136"/>
				</g>
				<g>
					<path style="fill:#FA977A;" d="M150.814,280.259c0,0-3.538-1.858-3.823-5.514l3.598,2.114l-1.604-1.877
						c0,0,0.747-0.553,1.778,0.587l1.016,1.101c0,0,1.202,0.519,1.08,1.781L150.814,280.259z"/>
					<g>
						<g>
							<g>
								
									<rect x="159.404" y="337.896" transform="matrix(0.9991 -0.0419 0.0419 0.9991 -14.1275 7.0626)" style="fill:#FA977A;" width="3.934" height="5.114"/>
								<g>
									<path style="fill:#FF7F00;" d="M163.545,342.221l0.092,2.203c0.017,0.4-0.295,0.736-0.694,0.75
										c-2.288,0.078-9.195,0.259-9.004-0.406c0.229-0.797,5.169-1.923,5.169-1.923L163.545,342.221z"/>
								</g>
							</g>
							<g>
								
									<rect x="175.048" y="362.926" transform="matrix(0.9991 -0.0419 0.0419 0.9991 -15.1628 7.7403)" style="fill:#FA977A;" width="3.934" height="5.114"/>
								<g>
									<path style="fill:#FF7F00;" d="M179.189,367.252l0.092,2.203c0.017,0.4-0.295,0.736-0.694,0.75
										c-2.288,0.078-9.195,0.259-9.004-0.406c0.229-0.797,5.169-1.923,5.169-1.923L179.189,367.252z"/>
								</g>
							</g>
						</g>
						<path style="fill:#142B33;" d="M163.891,305.079l17.893,1.118l-2.578,59.354l-4.692,0.145l-2.704-49.832
							c-0.019-0.356-0.211-0.681-0.514-0.869l-2.597-1.618c-0.318-0.198-0.716-0.22-1.053-0.057l-7.48,3.606
							c-1.373,0.662-2.053,2.229-1.6,3.684l5.73,18.399l-5.865,0.182l-10.747-20.879c-1.002-1.946-0.422-4.332,1.36-5.602
							L163.891,305.079z"/>
					</g>
					<g>
						<path style="fill:#F08668;" d="M170.677,264.639l-1.476,4.638l5.519-1.114c0,0-0.668-2.295,0.231-3.726
							C174.951,264.436,171.71,263.971,170.677,264.639z"/>
						<path style="fill:#FA977A;" d="M166.071,256.822l0.003,0.019c0.495-8.794,7.009-5.74,7.009-5.74
							c2.221,0.592,5.979,3.329,5.152,6.062c-0.827,2.732-1.7,8.485-6.346,9.379c-3.904,0.751-5.607,0.096-5.846-5.588
							c-0.216-0.047-0.461-0.154-0.713-0.386C164.611,259.903,166.071,256.822,166.071,256.822z"/>
					</g>
					<path style="fill:#FF9A00;" d="M185.171,282.997c-0.104-3.039-0.743-6.032-1.38-9.005c-0.205-0.957-0.419-1.937-0.943-2.764
						c-0.43-0.678-1.049-1.219-1.725-1.653c-1.658-1.064-3.641-1.506-5.601-1.705c-2.765-0.281-5.611-0.11-8.226,0.83
						c-2.616,0.939-4.989,2.69-6.386,5.093c-1.406,2.418-1.747,5.31-1.736,8.106l0,3.433l-6.115-7.95l-3.129,3.129l8.17,10.893
						c0.705,0.939,1.98,1.241,3.031,0.715l2.189-1.094l0.011,0.015c0.366,0.282,0.174,1.307,0.169,1.783
						c-0.014,1.436-0.062,2.872-0.125,4.307c-0.125,2.871-0.314,5.739-0.422,8.611c6.307,0,12.525,0.456,18.832,0.456
						c-0.012-2.859,0.065-6.173,0.053-9.032c-0.004-0.962-0.006-1.943,0.284-2.861c0.278-0.883,0.81-1.659,1.25-2.473
						C184.817,289.157,185.276,286.037,185.171,282.997z"/>
					<path style="fill:#142B33;" d="M166.916,253.129c0,0,1.101-6.962,8.83-2.597c1.467,0.828,2.732,3.06,3.238,4.72
						c0.553,1.816,0.01,3.693-0.108,5.528c-0.119,1.838,0.199,3.68,1.026,5.334c4.155,8.311,4.155,12.985,0,12.466
						c-4.155-0.519-3.117-4.155-5.194-3.636c-2.078,0.519-5.194-1.039-3.636-4.155c1.558-3.116,1.039-12.985,1.039-12.985
						S166.397,256.765,166.916,253.129z"/>
				</g>
			</g>
			<g>
				<g>
					<g>
						<g>
							<rect x="321.097" y="226.8" style="fill:#214856;" width="116.68" height="8.604"/>
							<rect x="321.097" y="235.404" style="fill:#FCFFFA;" width="116.68" height="38.328"/>
						</g>
						<circle style="fill:#EE3554;" cx="430.672" cy="230.711" r="2.347"/>
						<g>
							<circle style="fill:#FF9A00;" cx="424.415" cy="230.711" r="2.347"/>
						</g>
						<circle style="fill:#11B3FC;" cx="418.157" cy="230.711" r="2.347"/>
					</g>
					<g>
						<g>
							<g>
								<path style="fill:#EE3554;" d="M343.368,243.063l-10.985,18.408c-0.749,1.255,0.155,2.848,1.617,2.848h21.971
									c1.461,0,2.366-1.593,1.617-2.848l-10.985-18.408C345.871,241.839,344.098,241.839,343.368,243.063z"/>
								<path style="fill:#FFFFFF;" d="M343.666,244.11l-10.212,17.112c-0.611,1.024,0.127,2.323,1.319,2.323h20.425
									c1.192,0,1.93-1.299,1.319-2.323l-10.212-17.112C345.708,243.112,344.262,243.112,343.666,244.11z"/>
							</g>
							<g>
								
									<text transform="matrix(1 0 0 1 341.8818 262.3418)" style="fill:#EE3554; font-family:'SpartanMB-Bold'; font-size:18.5895px;">!</text>
							</g>
						</g>
						<g>
							
								<text transform="matrix(1 0 0 1 370.0859 259.9326)" style="fill:#214856; font-family:'SpartanMB-Bold'; font-size:15.8312px;">ERROR</text>
						</g>
					</g>
				</g>
				<g>
					<g>
						<g>
							<rect x="35.27" y="264.346" style="fill:#214856;" width="95.937" height="7.075"/>
							<rect x="35.27" y="271.421" style="fill:#FFFFFF;" width="95.937" height="31.515"/>
						</g>
						<circle style="fill:#EE3554;" cx="41.112" cy="267.562" r="1.929"/>
						<g>
							<circle style="fill:#FF9A00;" cx="46.258" cy="267.562" r="1.929"/>
						</g>
						<circle style="fill:#11B3FC;" cx="51.403" cy="267.562" r="1.929"/>
					</g>
					<g>
						<path style="fill:#EE3554;" d="M92.248,297.673H74.23c-2.048,0-3.708-1.66-3.708-3.708v-0.478c0-2.048,1.66-3.708,3.708-3.708
							h18.018c2.048,0,3.708,1.66,3.708,3.708v0.478C95.956,296.013,94.296,297.673,92.248,297.673z"/>
						<g>
							<path style="fill:#D4FAFC;" d="M111.983,287.149H54.495c-2.503,0-4.532-2.029-4.532-4.532v-0.584
								c0-2.503,2.029-4.532,4.532-4.532h57.487c2.503,0,4.532,2.029,4.532,4.532v0.584
								C116.514,285.12,114.485,287.149,111.983,287.149z"/>
							<g>
								<circle style="fill:#214856;" cx="56.757" cy="282.325" r="2.021"/>
								<circle style="fill:#214856;" cx="62.819" cy="282.325" r="2.021"/>
								<circle style="fill:#214856;" cx="68.882" cy="282.325" r="2.021"/>
								<circle style="fill:#214856;" cx="74.945" cy="282.325" r="2.021"/>
								<circle style="fill:#214856;" cx="81.008" cy="282.325" r="2.021"/>
								<circle style="fill:#214856;" cx="87.071" cy="282.325" r="2.021"/>
								<circle style="fill:#214856;" cx="93.134" cy="282.325" r="2.021"/>
								<circle style="fill:#214856;" cx="99.197" cy="282.325" r="2.021"/>
							</g>
						</g>
					</g>
				</g>
				<g>
					<g>
						<g>
							<g>
								<g>
									<path style="fill:#FFFFFF;" d="M150.667,153.637c-30.127-4.108-48.374-16.132-49.66-17.001v-0.052
										c0,0-0.015,0.01-0.038,0.026c-0.023-0.016-0.038-0.026-0.038-0.026v0.052c-1.286,0.868-19.533,12.893-49.66,17.001
										c0,0-8.518,63.89,49.66,96.586v0.043c0.013-0.007,0.025-0.014,0.038-0.022c0.013,0.007,0.025,0.014,0.038,0.022v-0.043
										C159.185,217.526,150.667,153.637,150.667,153.637z"/>
									<g>
										<path style="fill:#FF7F00;" d="M146.455,157.009c-27.574-3.76-44.274-14.765-45.451-15.56v-0.047
											c0,0-0.014,0.009-0.035,0.024c-0.021-0.014-0.035-0.024-0.035-0.024v0.047c-0.45,0.304-3.176,2.102-7.905,4.415
											c2.801,1.816,19.119,11.776,45.082,15.316c0,0,7.038,52.828-37.992,83.756c0.273,0.157,0.538,0.318,0.815,0.473v0.04
											c0.012-0.007,0.023-0.013,0.035-0.02c0.012,0.007,0.023,0.013,0.035,0.02v-0.04
											C154.251,215.484,146.455,157.009,146.455,157.009z"/>
									</g>
									<g>
										<path style="fill:#FF9A00;" d="M92.66,145.62v-0.047c0,0-0.014,0.009-0.035,0.024c-0.021-0.014-0.035-0.024-0.035-0.024
											v0.047c-0.267,0.18-1.338,0.887-3.144,1.913c1.301-0.576,2.492-1.136,3.583-1.669
											C92.856,145.751,92.729,145.667,92.66,145.62z"/>
									</g>
									<g>
										<path style="fill:#FF9A00;" d="M138.112,161.18c-25.963-3.54-42.281-13.501-45.082-15.316
											c-1.09,0.533-2.282,1.093-3.583,1.669c-7.813,3.462-19.363,7.485-33.964,9.476c0,0-0.133,1.006-0.245,2.808
											c-0.745,11.92-0.586,59.005,44.882,85.12C145.149,214.009,138.112,161.18,138.112,161.18z"/>
									</g>
								</g>
								<g>
									<g>
										<path style="fill:#FFFFFF;" d="M111.463,216.868H90.475c-5.007,0-9.066-4.059-9.066-9.066v-21.249
											c0-5.007,4.059-9.066,9.066-9.066h20.989c5.007,0,9.066,4.059,9.066,9.066v21.249
											C120.53,212.809,116.471,216.868,111.463,216.868z"/>
									</g>
								</g>
							</g>
							<path style="fill:none;stroke:#FFFFFF;stroke-width:2.2366;stroke-miterlimit:10;" d="M90.552,180.051
								c-0.702-5.866,1.454-16,8.359-17.275c9.089-1.678,12.391,10.765,11.703,17.275"/>
						</g>
					</g>
				</g>
			</g>
			<g>
				<g>
					<g>
						<g>
							<path style="fill:#FF7F00;" d="M357.57,300.306v-3.265c0-3.864-3.133-6.997-6.997-6.997h-36.385
								c-3.864,0-6.997,3.133-6.997,6.997v3.265v1.866v85.832h124.084v-87.698H357.57z"/>
						</g>
						<g>
							<g>
								
									<rect x="361.167" y="289.602" transform="matrix(0.979 0.2038 -0.2038 0.979 76.3127 -72.8741)" style="fill:#FFFFFF;" width="61.716" height="89.053"/>
								<g>
									<g>
										
											<rect x="372.688" y="299.242" transform="matrix(0.979 0.2038 -0.2038 0.979 69.6063 -74.9226)" style="fill:#11B3FC;" width="51.862" height="2.593"/>
										
											<rect x="371.737" y="303.812" transform="matrix(0.979 0.2038 -0.2038 0.979 70.5175 -74.6329)" style="fill:#11B3FC;" width="51.862" height="2.593"/>
										
											<rect x="370.786" y="308.382" transform="matrix(0.979 0.2038 -0.2038 0.979 71.4287 -74.3432)" style="fill:#11B3FC;" width="51.862" height="2.593"/>
										
											<rect x="369.835" y="312.951" transform="matrix(0.979 0.2038 -0.2038 0.979 72.34 -74.0535)" style="fill:#11B3FC;" width="51.862" height="2.593"/>
										
											<rect x="368.883" y="317.521" transform="matrix(0.979 0.2038 -0.2038 0.979 73.2512 -73.7638)" style="fill:#11B3FC;" width="51.862" height="2.593"/>
										
											<rect x="367.932" y="322.091" transform="matrix(0.979 0.2038 -0.2038 0.979 74.1624 -73.4741)" style="fill:#11B3FC;" width="51.862" height="2.593"/>
										
											<rect x="366.981" y="326.66" transform="matrix(0.979 0.2038 -0.2038 0.979 75.0736 -73.1844)" style="fill:#11B3FC;" width="51.862" height="2.593"/>
									</g>
									<g>
										
											<rect x="376.661" y="360.929" transform="matrix(0.979 0.2038 -0.2038 0.979 82.8255 -72.6708)" style="fill:#11B3FC;" width="35.266" height="9.854"/>
										<g>
											
												<rect x="375.885" y="348.402" transform="matrix(0.979 0.2038 -0.2038 0.979 79.5074 -73.2798)" style="fill:#11B3FC;" width="39.415" height="2.074"/>
											
												<rect x="375.039" y="352.464" transform="matrix(0.979 0.2038 -0.2038 0.979 80.3174 -73.0223)" style="fill:#11B3FC;" width="39.415" height="2.074"/>
											
												<rect x="374.194" y="356.526" transform="matrix(0.979 0.2038 -0.2038 0.979 81.1274 -72.7648)" style="fill:#11B3FC;" width="39.415" height="2.074"/>
										</g>
									</g>
								</g>
							</g>
						</g>
						<path style="fill:#FF9A00;" d="M357.57,310.033v-3.265c0-3.864-3.133-6.997-6.997-6.997h-36.385
							c-3.864,0-6.997,3.133-6.997,6.997v3.265v1.866v73.531c0,6.794,5.508,12.302,12.302,12.302h99.481
							c6.794,0,12.302-5.508,12.302-12.302v-75.397H357.57z"/>
					</g>
				</g>
				<g>
					<g>
						<g>
							<g>
								<g>
									<path style="fill:#FF7F00;" d="M308.691,358.203h-3.737c3.783,0,6.85,3.067,6.85,6.85v18.434c0,3.783-3.067,6.85-6.85,6.85
										h3.737c3.783,0,6.85-3.067,6.85-6.85v-18.434C315.541,361.27,312.474,358.203,308.691,358.203z"/>
								</g>
								<path style="fill:#FF9A00;" d="M311.805,383.487v-18.434c0-3.783-3.067-6.85-6.85-6.85h-38.611
									c-3.783,0-6.85,3.067-6.85,6.85v18.434c0,3.783,3.067,6.85,6.85,6.85h38.611
									C308.738,390.338,311.805,387.271,311.805,383.487z"/>
							</g>
							<g>
								<rect x="259.493" y="364.929" style="fill:#FFFFFF;" width="56.048" height="7.473"/>
							</g>
						</g>
						<g>
							<path style="fill:#FFFFFF;" d="M308.262,381.913h-4.871c-1.544,0-2.796-1.252-2.796-2.796v-2.629
								c0-1.544,1.252-2.796,2.796-2.796h4.871c1.544,0,2.796,1.252,2.796,2.796v2.629
								C311.057,380.661,309.806,381.913,308.262,381.913z"/>
						</g>
						<rect x="260.988" y="377.633" style="fill:#FFFFFF;" width="23.914" height="2.989"/>
						<g>
							<rect x="260.988" y="382.117" style="fill:#FFFFFF;" width="5.978" height="2.242"/>
							<rect x="268.461" y="382.117" style="fill:#FFFFFF;" width="5.978" height="2.242"/>
							<rect x="275.934" y="382.117" style="fill:#FFFFFF;" width="5.978" height="2.242"/>
							<rect x="283.407" y="382.117" style="fill:#FFFFFF;" width="5.978" height="2.242"/>
						</g>
						<g>
							<g>
								<circle style="fill:#FFFFFF;" cx="304.068" cy="385.991" r="2.813"/>
							</g>
							<g>
								<circle style="fill:#FFFFFF;" cx="307.584" cy="385.991" r="2.813"/>
							</g>
						</g>
					</g>
					<g>
						<g>
							<g>
								<path style="fill:#C92C42;" d="M292.934,369.329l-3.752,0.015c2.971,0.74,5.18,3.411,5.193,6.613l0.073,18.433
									c0.015,3.783-3.04,6.862-6.823,6.877l-38.595,0.153c0.54,0.135,1.102,0.213,1.685,0.21l42.347-0.168
									c3.783-0.015,6.838-3.094,6.823-6.877l-0.073-18.433C299.796,372.369,296.717,369.314,292.934,369.329z"/>
								<path style="fill:#EE3554;" d="M294.447,394.39l-0.073-18.433c-0.013-3.201-2.222-5.873-5.193-6.613l-38.595,0.153
									c-3.783,0.015-6.838,3.094-6.823,6.877l0.073,18.433c0.013,3.201,2.222,5.873,5.193,6.613l38.595-0.153
									C291.407,401.253,294.462,398.174,294.447,394.39z"/>
							</g>
							<g>
								
									<rect x="243.777" y="376.139" transform="matrix(1 -0.004 0.004 1 -1.5012 1.0786)" style="fill:#FFFFFF;" width="56.048" height="7.473"/>
							</g>
						</g>
						<g>
							<path style="fill:#FFFFFF;" d="M292.598,393.04l-4.871,0.019c-1.544,0.006-2.801-1.241-2.807-2.785l-0.01-2.629
								c-0.006-1.544,1.241-2.801,2.785-2.807l4.871-0.019c1.544-0.006,2.801,1.241,2.807,2.785l0.01,2.629
								C295.389,391.778,294.142,393.034,292.598,393.04z"/>
						</g>
						
							<rect x="245.314" y="388.901" transform="matrix(1 -0.004 0.004 1 -1.5429 1.0212)" style="fill:#FFFFFF;" width="23.914" height="2.989"/>
						<g>
							
								<rect x="245.33" y="393.42" transform="matrix(1 -0.004 0.004 1 -1.5594 0.9858)" style="fill:#FFFFFF;" width="5.978" height="2.242"/>
							
								<rect x="252.803" y="393.39" transform="matrix(1 -0.004 0.004 1 -1.5592 1.0153)" style="fill:#FFFFFF;" width="5.978" height="2.242"/>
							
								<rect x="260.276" y="393.361" transform="matrix(1 -0.004 0.004 1 -1.559 1.0449)" style="fill:#FFFFFF;" width="5.978" height="2.242"/>
							
								<rect x="267.749" y="393.331" transform="matrix(1 -0.004 0.004 1 -1.5589 1.0745)" style="fill:#FFFFFF;" width="5.978" height="2.242"/>
						</g>
						<g>
							<g>
								<circle style="fill:#FFFFFF;" cx="288.421" cy="397.135" r="2.813"/>
							</g>
							<g>
								<circle style="fill:#FFFFFF;" cx="291.937" cy="397.121" r="2.813"/>
							</g>
						</g>
					</g>
				</g>
				<g>
					<g>
						<g>
							<g>
								<g>
									
										<rect x="380.936" y="371.051" transform="matrix(0.9847 -0.1744 0.1744 0.9847 -60.2441 76.9139)" style="fill:#1EA549;" width="53.379" height="20.558"/>
									
										<rect x="382.739" y="373.162" transform="matrix(0.9847 -0.1744 0.1744 0.9847 -60.2441 76.9139)" style="fill:#1EC149;" width="49.772" height="16.337"/>
								</g>
								<circle style="fill:#1EA549;" cx="407.625" cy="381.33" r="6.312"/>
							</g>
							<g>
								
									<text transform="matrix(0.9847 -0.1744 0.1744 0.9847 405.5679 383.8762)" style="fill:#FFFFFF; font-family:'SpartanMB-Bold'; font-size:7.3492px;">$</text>
							</g>
						</g>
						<g>
							<g>
								<g>
									<rect x="380.936" y="377.63" style="fill:#1EA549;" width="53.379" height="20.558"/>
									<rect x="382.739" y="379.74" style="fill:#1EC149;" width="49.772" height="16.337"/>
								</g>
								<circle style="fill:#1EA549;" cx="407.625" cy="387.909" r="6.312"/>
							</g>
							<g>
								
									<text transform="matrix(1 0 0 1 405.1797 390.1172)" style="fill:#FFFFFF; font-family:'SpartanMB-Bold'; font-size:7.3492px;">$</text>
							</g>
						</g>
					</g>
					<g>
						<g>
							<g>
								<path style="fill:#FFD145;" d="M380.686,399.78v1.744c0,0.408,0.237,0.779,0.607,0.951c1.739,0.81,6.98,2.758,12.579-0.004
									c0.357-0.176,0.583-0.542,0.583-0.94v-1.513C394.454,400.019,388.087,403.76,380.686,399.78z"/>
								<g>
									<ellipse style="fill:#FFD145;" cx="387.57" cy="399.82" rx="6.884" ry="2.029"/>
									<g>
										<path style="fill:#FF7F00;" d="M387.57,397.95c-3.038,0-5.58,0.619-6.239,1.45c1.04-0.624,3.229-1.055,5.761-1.055
											c3.538,0,6.407,0.84,6.407,1.876c0,0.147-0.059,0.289-0.168,0.426c0.413-0.248,0.645-0.527,0.645-0.821
											C393.977,398.79,391.108,397.95,387.57,397.95z"/>
									</g>
									<path style="fill:#FF9A00;" d="M387.093,398.329c-2.533,0-4.721,0.433-5.761,1.062c-0.109,0.138-0.168,0.281-0.168,0.429
										c0,1.043,2.868,1.889,6.407,1.889c2.533,0,4.721-0.433,5.761-1.062c0.109-0.138,0.168-0.281,0.168-0.429
										C393.499,399.175,390.631,398.329,387.093,398.329z"/>
								</g>
							</g>
							<g>
								<path style="fill:#FFD145;" d="M383.077,397.389v1.744c0,0.408,0.237,0.779,0.606,0.951c1.739,0.81,6.98,2.758,12.579-0.004
									c0.357-0.176,0.583-0.542,0.583-0.94v-1.513C396.845,397.628,390.478,401.368,383.077,397.389z"/>
								<g>
									<ellipse style="fill:#FFD145;" cx="389.961" cy="397.429" rx="6.884" ry="2.029"/>
									<g>
										<path style="fill:#FF7F00;" d="M389.961,395.559c-3.038,0-5.58,0.619-6.239,1.45c1.04-0.625,3.229-1.055,5.761-1.055
											c3.538,0,6.407,0.84,6.407,1.876c0,0.147-0.059,0.289-0.168,0.426c0.413-0.248,0.645-0.527,0.645-0.821
											C396.368,396.399,393.499,395.559,389.961,395.559z"/>
									</g>
									<path style="fill:#FF9A00;" d="M389.484,395.938c-2.533,0-4.721,0.433-5.761,1.062c-0.109,0.138-0.168,0.281-0.168,0.429
										c0,1.043,2.868,1.889,6.407,1.889c2.533,0,4.721-0.433,5.761-1.062c0.109-0.138,0.168-0.281,0.168-0.429
										C395.89,396.784,393.022,395.938,389.484,395.938z"/>
								</g>
							</g>
							<g>
								<path style="fill:#FFD145;" d="M379.73,394.998v1.744c0,0.408,0.237,0.779,0.607,0.951c1.739,0.81,6.98,2.758,12.579-0.004
									c0.357-0.176,0.583-0.542,0.583-0.94v-1.513C393.498,395.237,387.131,398.977,379.73,394.998z"/>
								<g>
									<ellipse style="fill:#FFD145;" cx="386.614" cy="395.038" rx="6.884" ry="2.029"/>
									<g>
										<path style="fill:#FF7F00;" d="M386.614,393.168c-3.038,0-5.58,0.619-6.239,1.45c1.04-0.625,3.229-1.055,5.761-1.055
											c3.538,0,6.407,0.84,6.407,1.876c0,0.147-0.059,0.289-0.168,0.426c0.413-0.248,0.645-0.527,0.645-0.821
											C393.02,394.008,390.152,393.168,386.614,393.168z"/>
									</g>
									<path style="fill:#FF9A00;" d="M386.136,393.547c-2.533,0-4.721,0.433-5.761,1.062c-0.109,0.138-0.168,0.281-0.168,0.429
										c0,1.043,2.868,1.889,6.407,1.889c2.533,0,4.721-0.433,5.761-1.062c0.109-0.138,0.168-0.281,0.168-0.429
										C392.543,394.393,389.674,393.547,386.136,393.547z"/>
								</g>
							</g>
							<g>
								<path style="fill:#FFD145;" d="M383.077,392.129v1.744c0,0.408,0.237,0.779,0.606,0.951c1.739,0.81,6.98,2.758,12.579-0.004
									c0.357-0.176,0.583-0.542,0.583-0.94v-1.513C396.845,392.368,390.478,396.108,383.077,392.129z"/>
								<g>
									<ellipse style="fill:#FFD145;" cx="389.961" cy="392.169" rx="6.884" ry="2.029"/>
									<g>
										<path style="fill:#FF7F00;" d="M389.961,390.298c-3.038,0-5.58,0.619-6.239,1.45c1.04-0.625,3.229-1.055,5.761-1.055
											c3.538,0,6.407,0.84,6.407,1.876c0,0.147-0.059,0.289-0.168,0.426c0.413-0.248,0.645-0.527,0.645-0.821
											C396.368,391.138,393.499,390.298,389.961,390.298z"/>
									</g>
									<path style="fill:#FF9A00;" d="M389.484,390.678c-2.533,0-4.721,0.433-5.761,1.062c-0.109,0.138-0.168,0.281-0.168,0.429
										c0,1.043,2.868,1.889,6.407,1.889c2.533,0,4.721-0.433,5.761-1.062c0.109-0.138,0.168-0.281,0.168-0.429
										C395.89,391.524,393.022,390.678,389.484,390.678z"/>
								</g>
							</g>
						</g>
						<g>
							<g>
								<path style="fill:#FFD145;" d="M380.686,389.738v1.744c0,0.408,0.237,0.779,0.607,0.951c1.739,0.81,6.98,2.758,12.579-0.004
									c0.357-0.176,0.583-0.542,0.583-0.94v-1.513C394.454,389.977,388.087,393.717,380.686,389.738z"/>
								<g>
									<ellipse style="fill:#FFD145;" cx="387.57" cy="389.778" rx="6.884" ry="2.029"/>
									<g>
										<path style="fill:#FF7F00;" d="M387.57,387.907c-3.038,0-5.58,0.619-6.239,1.45c1.04-0.625,3.229-1.055,5.761-1.055
											c3.538,0,6.407,0.84,6.407,1.876c0,0.147-0.059,0.289-0.168,0.426c0.413-0.248,0.645-0.527,0.645-0.821
											C393.977,388.747,391.108,387.907,387.57,387.907z"/>
									</g>
									<path style="fill:#FF9A00;" d="M387.093,388.287c-2.533,0-4.721,0.433-5.761,1.062c-0.109,0.138-0.168,0.281-0.168,0.429
										c0,1.043,2.868,1.889,6.407,1.889c2.533,0,4.721-0.433,5.761-1.062c0.109-0.138,0.168-0.281,0.168-0.429
										C393.499,389.133,390.631,388.287,387.093,388.287z"/>
								</g>
							</g>
							<g>
								<path style="fill:#FFD145;" d="M383.077,387.347v1.744c0,0.408,0.237,0.779,0.606,0.951c1.739,0.81,6.98,2.758,12.579-0.004
									c0.357-0.176,0.583-0.542,0.583-0.94v-1.513C396.845,387.586,390.478,391.326,383.077,387.347z"/>
								<g>
									<ellipse style="fill:#FFD145;" cx="389.961" cy="387.387" rx="6.884" ry="2.029"/>
									<g>
										<path style="fill:#FF7F00;" d="M389.961,385.516c-3.038,0-5.58,0.619-6.239,1.45c1.04-0.625,3.229-1.055,5.761-1.055
											c3.538,0,6.407,0.84,6.407,1.876c0,0.147-0.059,0.289-0.168,0.426c0.413-0.248,0.645-0.527,0.645-0.821
											C396.368,386.356,393.499,385.516,389.961,385.516z"/>
									</g>
									<path style="fill:#FF9A00;" d="M389.484,385.896c-2.533,0-4.721,0.433-5.761,1.062c-0.109,0.138-0.168,0.281-0.168,0.429
										c0,1.043,2.868,1.889,6.407,1.889c2.533,0,4.721-0.433,5.761-1.062c0.109-0.138,0.168-0.281,0.168-0.429
										C395.89,386.741,393.022,385.896,389.484,385.896z"/>
								</g>
							</g>
							<g>
								<path style="fill:#FFD145;" d="M379.73,384.956v1.744c0,0.408,0.237,0.779,0.607,0.951c1.739,0.81,6.98,2.758,12.579-0.004
									c0.357-0.176,0.583-0.542,0.583-0.94v-1.513C393.498,385.195,387.131,388.935,379.73,384.956z"/>
								<g>
									<ellipse style="fill:#FFD145;" cx="386.614" cy="384.996" rx="6.884" ry="2.029"/>
									<g>
										<path style="fill:#FF7F00;" d="M386.614,383.125c-3.038,0-5.58,0.619-6.239,1.45c1.04-0.625,3.229-1.055,5.761-1.055
											c3.538,0,6.407,0.84,6.407,1.876c0,0.147-0.059,0.289-0.168,0.426c0.413-0.248,0.645-0.527,0.645-0.821
											C393.02,383.965,390.152,383.125,386.614,383.125z"/>
									</g>
									<path style="fill:#FF9A00;" d="M386.136,383.505c-2.533,0-4.721,0.433-5.761,1.062c-0.109,0.138-0.168,0.281-0.168,0.429
										c0,1.043,2.868,1.889,6.407,1.889c2.533,0,4.721-0.433,5.761-1.062c0.109-0.138,0.168-0.281,0.168-0.429
										C392.543,384.35,389.674,383.505,386.136,383.505z"/>
								</g>
							</g>
							<g>
								<path style="fill:#FFD145;" d="M383.077,382.087v1.744c0,0.408,0.237,0.779,0.606,0.951c1.739,0.81,6.98,2.758,12.579-0.004
									c0.357-0.176,0.583-0.542,0.583-0.94v-1.513C396.845,382.325,390.478,386.066,383.077,382.087z"/>
								<g>
									<ellipse style="fill:#FFD145;" cx="389.961" cy="382.126" rx="6.884" ry="2.029"/>
									<g>
										<path style="fill:#FF7F00;" d="M389.961,380.256c-3.038,0-5.58,0.619-6.239,1.45c1.04-0.624,3.229-1.055,5.761-1.055
											c3.538,0,6.407,0.84,6.407,1.876c0,0.147-0.059,0.289-0.168,0.426c0.413-0.248,0.645-0.527,0.645-0.821
											C396.368,381.096,393.499,380.256,389.961,380.256z"/>
									</g>
									<path style="fill:#FF9A00;" d="M389.484,380.636c-2.533,0-4.721,0.433-5.761,1.062c-0.109,0.138-0.168,0.281-0.168,0.429
										c0,1.043,2.868,1.889,6.407,1.889c2.533,0,4.721-0.433,5.761-1.062c0.109-0.138,0.168-0.281,0.168-0.429
										C395.89,381.481,393.022,380.636,389.484,380.636z"/>
								</g>
							</g>
						</g>
					</g>
				</g>
			</g>
		</g>
	</g>
</g>
</svg>
