<?xml version="1.0" encoding="utf-8"?>
<!-- Generator: Adobe Illustrator 27.5.0, SVG Export Plug-In . SVG Version: 6.00 Build 0)  -->
<svg version="1.1" xmlns="http://www.w3.org/2000/svg" xmlns:xlink="http://www.w3.org/1999/xlink" x="0px" y="0px"
	 viewBox="0 0 500 500" style="enable-background:new 0 0 500 500;" xml:space="preserve">
<g id="BACKGROUND">
	<rect id="XMLID_865_" style="fill:#EBF3FA;" width="500" height="500"/>
</g>
<g id="OBJECTS">
	<g id="XMLID_686_">
		<polyline id="XMLID_751_" style="fill:none;stroke:#004876;stroke-width:1.6334;stroke-miterlimit:10;" points="384.689,293.091 
			384.689,373.796 308.216,373.796 		"/>
		<path id="XMLID_750_" style="fill:#003764;" d="M386.113,293.091c0,0.786-0.637,1.424-1.424,1.424
			c-0.786,0-1.424-0.638-1.424-1.424s0.638-1.424,1.424-1.424C385.476,291.667,386.113,292.305,386.113,293.091z"/>
	</g>
	<g id="XMLID_145_">
		<g id="XMLID_382_">
			<path id="XMLID_684_" style="fill:#2B6EAE;" d="M424.569,287.523H154.067c-8.081,0-14.631-6.551-14.631-14.631V98.409
				c0-8.081,6.551-14.631,14.631-14.631h270.502c8.081,0,14.631,6.551,14.631,14.631v174.483
				C439.201,280.972,432.65,287.523,424.569,287.523z"/>
			<rect id="XMLID_683_" x="150.698" y="96.457" style="fill:#CBE3F3;" width="277.315" height="167.762"/>
			<rect id="XMLID_682_" x="158.077" y="103.517" style="fill:#FFFFFF;" width="262.298" height="152.12"/>
			<circle id="XMLID_390_" style="fill:#003764;" cx="289.079" cy="276.44" r="6.045"/>
			<rect id="XMLID_389_" x="158.077" y="103.517" style="fill:#8FC7E8;" width="262.298" height="12.488"/>
			<path id="XMLID_388_" style="fill:#FFFFFF;" d="M169.549,109.761c0,1.57-1.273,2.843-2.842,2.843
				c-1.57,0-2.842-1.273-2.842-2.843c0-1.57,1.273-2.842,2.842-2.842C168.277,106.918,169.549,108.191,169.549,109.761z"/>
			<circle id="XMLID_384_" style="fill:#FFFFFF;" cx="175.234" cy="109.761" r="2.842"/>
			<circle id="XMLID_383_" style="fill:#FFFFFF;" cx="184.574" cy="109.761" r="2.842"/>
		</g>
		<path id="XMLID_97_" style="opacity:0.53;fill:#B0D6EE;" d="M150.698,264.219h277.315V96.457
			C428.013,96.457,429.803,277.801,150.698,264.219z"/>
		<g id="XMLID_298_">
			<path id="XMLID_381_" style="fill:#8FC7E8;" d="M188.324,148.023v-2.636c1.717-1.451,2.843-3.867,2.843-6.606
				c0-4.438-2.952-8.036-6.594-8.036c-3.642,0-6.594,3.598-6.594,8.036c0,2.739,1.126,5.155,2.843,6.606v2.636
				c-9.376,0.67-9.51,7.099-9.51,7.099h13.26h13.26C197.834,155.122,197.7,148.693,188.324,148.023z"/>
			<rect id="XMLID_380_" x="171.314" y="160.954" style="fill:#8FC7E8;" width="92.634" height="3.257"/>
			<rect id="XMLID_379_" x="171.314" y="166.871" style="fill:#8FC7E8;" width="92.634" height="3.257"/>
			<rect id="XMLID_378_" x="171.314" y="173.218" style="fill:#8FC7E8;" width="92.634" height="3.257"/>
			<rect id="XMLID_377_" x="171.314" y="179.135" style="fill:#8FC7E8;" width="92.634" height="3.257"/>
		</g>
		<rect id="XMLID_297_" x="318.5" y="138.463" style="fill:#8FC7E8;" width="92.634" height="3.257"/>
		<rect id="XMLID_292_" x="318.5" y="144.38" style="fill:#8FC7E8;" width="92.634" height="3.257"/>
		<rect id="XMLID_273_" x="318.5" y="150.727" style="fill:#8FC7E8;" width="92.634" height="3.257"/>
		<rect id="XMLID_198_" x="318.5" y="156.644" style="fill:#8FC7E8;" width="92.634" height="3.257"/>
		<g id="XMLID_192_">
			<rect id="XMLID_197_" x="318.5" y="214.716" style="fill:#8FC7E8;" width="92.634" height="3.257"/>
			<rect id="XMLID_196_" x="318.5" y="220.633" style="fill:#8FC7E8;" width="92.634" height="3.257"/>
			<rect id="XMLID_195_" x="318.5" y="226.98" style="fill:#8FC7E8;" width="92.634" height="3.257"/>
			<rect id="XMLID_194_" x="318.5" y="232.897" style="fill:#8FC7E8;" width="92.634" height="3.257"/>
		</g>
		<g id="XMLID_183_">
			<polygon id="XMLID_190_" style="opacity:0.78;fill:#F4CD00;" points="360.425,201.416 398.396,201.416 379.41,169.884 			"/>
			<g id="XMLID_186_">
				<path id="XMLID_188_" style="fill:#FFFFFF;" d="M381.344,196.447c0,1.068-0.866,1.934-1.934,1.934
					c-1.068,0-1.934-0.866-1.934-1.934s0.866-1.934,1.934-1.934C380.478,194.514,381.344,195.379,381.344,196.447z"/>
				<path id="XMLID_187_" style="fill:#FFFFFF;" d="M379.756,192.913c1.519,0,1.739-2.647,1.739-2.647l0.611-5.294
					c0.815-5.294-2.35-5.091-2.35-5.091h-0.692c0,0-3.164-0.204-2.35,5.091l0.611,5.294c0,0,0.22,2.647,1.739,2.647H379.756z"/>
			</g>
		</g>
		
			<ellipse id="XMLID_143_" transform="matrix(0.1583 -0.9874 0.9874 0.1583 63.23 438.9564)" style="opacity:0.78;fill:#F4CD00;" cx="289.079" cy="182.392" rx="60.887" ry="60.887"/>
		<g id="XMLID_135_">
			<path id="XMLID_142_" style="fill:#001A44;stroke:#001A44;stroke-width:1.0743;stroke-miterlimit:10;" d="M306.479,217.678
				h-34.258c-4.168,0-7.577-3.41-7.577-7.577v-32.357c0-4.167,3.41-7.577,7.577-7.577h34.258c4.167,0,7.577,3.41,7.577,7.577v32.357
				C314.057,214.268,310.647,217.678,306.479,217.678z"/>
			<path id="XMLID_141_" style="fill:#003764;" d="M303.35,212.396H269.1c-2.75,0-5-2.25-5-5v-32.775c0-2.75,2.25-5,5-5h34.25
				c2.75,0,5,2.25,5,5v32.775C308.35,210.146,306.1,212.396,303.35,212.396z"/>
			<path id="XMLID_140_" style="fill:none;stroke:#003764;stroke-width:3.9339;stroke-miterlimit:10;" d="M274.172,161.124v-5.166
				c0,0-0.872-11.34,11.734-12.109h1.491c12.607,0.769,11.734,12.109,11.734,12.109v14.416"/>
			<g id="XMLID_136_">
				<path id="XMLID_138_" style="fill:#001A44;stroke:#001A44;stroke-width:1.0946;stroke-miterlimit:10;" d="M293.358,196.132
					c0,3.135-2.541,5.676-5.676,5.676c-3.135,0-5.676-2.541-5.676-5.676c0-3.135,2.541-5.676,5.676-5.676
					C290.816,190.456,293.358,192.997,293.358,196.132z"/>
				
					<circle id="XMLID_137_" style="fill:#001A44;stroke:#001A44;stroke-width:1.0946;stroke-miterlimit:10;" cx="287.682" cy="187.098" r="3.946"/>
			</g>
		</g>
	</g>
	<g id="XMLID_125_">
		<path id="XMLID_134_" style="opacity:0.53;fill:#B0D6EE;" d="M435.412,349.255h-92.389c-3.078,0-5.573-2.495-5.573-5.573v-17.828
			c0-3.078,2.495-5.573,5.573-5.573h92.389c3.078,0,5.573,2.495,5.573,5.573v17.828C440.984,346.76,438.489,349.255,435.412,349.255
			z"/>
		<path id="XMLID_133_" style="fill:#8FC7E8;" d="M433.628,347.796h-92.389c-3.078,0-5.573-2.495-5.573-5.573v-17.828
			c0-3.078,2.495-5.573,5.573-5.573h92.389c3.078,0,5.573,2.495,5.573,5.573v17.828
			C439.201,345.301,436.706,347.796,433.628,347.796z"/>
		<g id="XMLID_129_">
			<rect id="XMLID_132_" x="369.286" y="326.994" style="fill:#2B6EAE;" width="63.057" height="1.821"/>
			<rect id="XMLID_131_" x="369.286" y="332.344" style="fill:#2B6EAE;" width="63.057" height="1.821"/>
			<rect id="XMLID_130_" x="369.286" y="338.55" style="fill:#2B6EAE;" width="30.807" height="1.821"/>
		</g>
		<g id="XMLID_126_">
			<g id="XMLID_128_">
				<path id="XMLID_3_" style="fill:#2B6EAE;" d="M352.796,344.443c-5.668,0-10.278-4.61-10.278-10.277
					c0-5.668,4.61-10.278,10.278-10.278c5.667,0,10.277,4.61,10.277,10.278C363.074,339.832,358.464,344.443,352.796,344.443z
					 M352.796,325.737c-4.647,0-8.429,3.781-8.429,8.429c0,4.647,3.781,8.428,8.429,8.428c4.648,0,8.428-3.78,8.428-8.428
					C361.224,329.518,357.444,325.737,352.796,325.737z"/>
			</g>
			<g id="XMLID_127_">
				
					<rect id="XMLID_2_" x="343.47" y="333.293" transform="matrix(0.7071 -0.7071 0.7071 0.7071 -132.9962 347.355)" style="fill:#2B6EAE;" width="18.653" height="1.851"/>
			</g>
		</g>
	</g>
	<g id="XMLID_110_">
		<path id="XMLID_124_" style="fill:#8FC7E8;" d="M435.412,389.312h-92.389c-3.078,0-5.573-2.495-5.573-5.573v-17.828
			c0-3.078,2.495-5.573,5.573-5.573h92.389c3.078,0,5.573,2.495,5.573,5.573v17.828
			C440.984,386.817,438.489,389.312,435.412,389.312z"/>
		<g id="XMLID_118_">
			<path id="XMLID_123_" style="fill:#2B6EAE;" d="M433.628,387.427h-92.389c-3.078,0-5.573-2.495-5.573-5.573v-17.828
				c0-3.078,2.495-5.573,5.573-5.573h92.389c3.078,0,5.573,2.495,5.573,5.573v17.828
				C439.201,384.932,436.706,387.427,433.628,387.427z"/>
			<g id="XMLID_119_">
				<rect id="XMLID_122_" x="369.286" y="366.624" style="fill:#FFFFFF;" width="63.057" height="1.821"/>
				<rect id="XMLID_121_" x="369.286" y="371.974" style="fill:#FFFFFF;" width="63.057" height="1.821"/>
				<rect id="XMLID_120_" x="369.286" y="378.181" style="fill:#FFFFFF;" width="30.807" height="1.821"/>
			</g>
		</g>
		<g id="XMLID_111_">
			<circle id="XMLID_117_" style="fill:#FCE444;" cx="352.796" cy="372.94" r="10.428"/>
			<g id="XMLID_112_">
				
					<ellipse id="XMLID_116_" transform="matrix(0.229 -0.9734 0.9734 0.229 -91.0147 630.9743)" style="fill:none;stroke:#F59A00;stroke-miterlimit:10;" cx="352.796" cy="372.94" rx="8.028" ry="8.028"/>
				
					<text id="XMLID_115_" transform="matrix(1 0 0 1 349.9883 376.649)" style="opacity:0.78;fill:#F59A00; font-family:'MyriadPro-Regular'; font-size:11.5895px;">$</text>
			</g>
		</g>
	</g>
	<g id="XMLID_106_">
		<g id="XMLID_107_">
			<polyline id="XMLID_109_" style="fill:none;stroke:#004876;stroke-width:0.9022;stroke-miterlimit:10;" points="286.225,135.095 
				287.12,66.88 86.405,66.88 86.033,349.762 99.17,349.726 			"/>
			<path id="XMLID_108_" style="fill:#003764;" d="M287.607,135.067c0,0.786-0.638,1.424-1.424,1.424s-1.424-0.637-1.424-1.424
				c0-0.786,0.638-1.424,1.424-1.424S287.607,134.281,287.607,135.067z"/>
		</g>
	</g>
	<g id="XMLID_98_">
		<circle id="XMLID_103_" style="fill:#8FC7E8;" cx="89.122" cy="191.045" r="27.222"/>
		
			<ellipse id="XMLID_102_" transform="matrix(0.9226 -0.3858 0.3858 0.9226 -66.7823 48.0728)" style="fill:#F4CD00;" cx="86.405" cy="190.456" rx="27.222" ry="27.222"/>
		<g id="XMLID_99_">
			<path id="XMLID_101_" style="fill:#003764;" d="M90.021,192.996v-2.558h-2.466v-3.917h2.466v-1.886h-2.393v-1.958h2.393v-2.031
				h-2.393v-2.031h2.393v-3.191l-4.279-4.927h-2.953v22.499c-2.876,1.359-4.87,4.277-4.87,7.668c0,4.687,3.799,8.486,8.486,8.486
				s8.486-3.799,8.486-8.486C94.891,197.273,92.897,194.355,90.021,192.996z"/>
			<path id="XMLID_100_" style="fill:#F4CD00;" d="M88.157,203.396c0,0.967-0.784,1.752-1.752,1.752s-1.752-0.784-1.752-1.752
				c0-0.967,0.784-1.752,1.752-1.752S88.157,202.428,88.157,203.396z"/>
		</g>
	</g>
	<g id="XMLID_10_">
		<path id="XMLID_96_" style="fill:#F7C5B4;" d="M120.024,389.136c-6.924-3.957-20.899-10.866-28.091-14.311
			c-9.913,34.883-6.096,48.074,8.273,49.735c4.769,0.551,9.411,1.593,14.149,0.818c11.384-1.861,22.523-5.214,33.042-9.947
			c-0.697-3.784-0.541-8.661-1.238-12.445c-9.387-1.532-20.023-3.758-29.41-5.29L120.024,389.136z"/>
		<g id="XMLID_88_">
			<path id="XMLID_20_" style="fill:#DA806C;" d="M110.335,398.776c0,0,0.345-0.281,0.901-0.586
				c0.563-0.299,1.293-0.687,2.217-0.844c0.918-0.099,1.712,0.017,2.346,0.106c0.625,0.096,1.047,0.236,1.047,0.236
				s-0.409,0.176-1.033,0.304c-0.311,0.07-0.677,0.127-1.066,0.167c-0.388,0.049-0.797,0.059-1.162,0.119
				c-0.723,0.111-1.551,0.349-2.178,0.422C110.78,398.793,110.335,398.776,110.335,398.776z"/>
		</g>
		<path id="XMLID_87_" style="fill:#F7C5B4;" d="M277.172,389.136c6.924-3.957,20.899-10.866,28.092-14.311
			c9.913,34.883,6.096,48.074-8.273,49.735c-4.769,0.551-9.411,1.593-14.149,0.818c-11.384-1.861-22.523-5.214-33.042-9.947
			c0.697-3.784,0.541-8.661,1.239-12.445c9.387-1.532,20.023-3.758,29.409-5.29L277.172,389.136z"/>
		<g id="XMLID_84_">
			<path id="XMLID_18_" style="fill:#DA806C;" d="M286.861,398.776c0,0-0.445,0.017-1.072-0.076
				c-0.626-0.073-1.454-0.311-2.178-0.422c-0.365-0.059-0.774-0.07-1.162-0.119c-0.389-0.04-0.754-0.097-1.066-0.167
				c-0.624-0.128-1.033-0.304-1.033-0.304s0.423-0.141,1.047-0.236c0.634-0.089,1.428-0.205,2.346-0.106
				c0.924,0.157,1.654,0.545,2.217,0.844C286.516,398.494,286.861,398.776,286.861,398.776z"/>
		</g>
		<g id="XMLID_82_">
			<path id="XMLID_83_" style="fill:#222720;" d="M131.367,425.603c-0.028-16.768,0.546-27.697,0.764-49.257l-7.589,15.984
				l-34.174-18.303c2.997-10.396,8.554-19.078,14.583-28.86c12.51-20.3,34.975-33.221,59.355-40.223
				c9.588-2.754,19.541-5.23,33.459-5.352h1.669c13.917,0.122,25.646,2.364,35.373,4.577c23.251,5.288,44.93,20.699,57.44,40.999
				c6.029,9.783,11.586,18.464,14.583,28.86l-34.174,18.303l-7.589-15.984c0.218,21.582,0.793,32.511,0.764,49.309L131.367,425.603z
				"/>
		</g>
		<path id="XMLID_81_" style="fill:#F7C5B4;" d="M185.869,262.915c-0.879,7.017-5.138,28.968-6.348,31.263
			c-1.936,3.674-9.788,8.365-12.935,10.121c0,0,0.772,12.462,33.715,12.785c32.42,0.318,34.504-12.917,34.504-12.917
			c-3.146-1.756-12.204-4.577-13.706-9.99c-0.694-2.5-4.993-23.295-5.872-30.311L185.869,262.915z"/>
		<path id="XMLID_80_" style="fill:#F7C5B4;" d="M236.386,206.219c2.746,14.869-1.161,44.79-4.352,56.614
			c-1.296,4.806-2.691,9.775-5.786,13.673c-15.291,19.261-35.675,13.173-42.375,8.769c-5.258-3.456-9.444-8.201-11.868-14.007
			c-6.185-14.816-8.723-31.139-7.328-47.133c0,0-1.778-41.738,40.912-41.738C205.59,182.397,231.801,181.391,236.386,206.219z"/>
		<path id="XMLID_79_" style="fill:#F7C5B4;" d="M166.587,247.143c-0.917,1.327-3.042,1.288-4.305,0.284
			c-1.263-1.004-1.826-2.645-2.135-4.228c-0.302-1.549-0.42-3.133-0.351-4.71c0.05-1.13,0.226-2.328,0.962-3.187
			c0.734-0.856,1.991-1.221,3.07-0.893c1.079,0.329,1.918,1.334,2.05,2.453L166.587,247.143z"/>
		<path id="XMLID_78_" style="fill:#F7C5B4;" d="M234.751,236.863c0.351-1.072,0.971-2.124,2.05-2.453
			c1.078-0.329,2.336,0.037,3.07,0.893c0.736,0.859,0.912,2.057,0.962,3.187c0.069,1.577-0.049,3.161-0.351,4.71
			c-0.308,1.583-0.872,3.224-2.135,4.228c-1.263,1.004-3.388,1.043-4.305-0.284C234.042,247.143,233.111,241.877,234.751,236.863z"
			/>
		<g id="XMLID_75_">
			<path id="XMLID_16_" style="fill:#DA806C;" d="M199.567,248.56c0,0-0.089,0.253-0.134,0.601
				c-0.065,0.385-0.156,0.983-0.236,1.694c-0.175,1.424-0.376,3.338-0.57,5.248c-0.1,0.952-0.198,1.915-0.257,2.79
				c-0.038,0.425-0.011,0.805,0.044,1.045c0.06,0.235,0.177,0.377,0.387,0.53c0.413,0.319,0.992,0.469,1.364,0.603
				c0.394,0.124,0.619,0.194,0.619,0.194c0.24,0.075,0.373,0.331,0.298,0.57c-0.058,0.183-0.22,0.304-0.401,0.318l-0.022,0.001
				c0,0-0.246,0.017-0.69-0.013c-0.223-0.01-0.497-0.036-0.817-0.111c-0.319-0.077-0.699-0.169-1.104-0.414
				c-0.394-0.233-0.842-0.708-1.001-1.281c-0.177-0.562-0.114-1.072-0.083-1.544c0.082-0.927,0.199-1.882,0.321-2.845
				c0.257-1.921,0.572-3.831,0.865-5.262c0.149-0.718,0.285-1.304,0.408-1.742c0.07-0.228,0.125-0.416,0.171-0.51
				c0.044-0.104,0.067-0.16,0.067-0.16l0.002-0.005c0.087-0.21,0.328-0.309,0.538-0.222
				C199.539,248.128,199.638,248.356,199.567,248.56z"/>
		</g>
		<path id="XMLID_74_" style="fill:#3C3C3B;" d="M205.807,245.005c-0.775-2.336-0.176-5.11,1.675-6.731
			c0.161,0.201,0.323,0.401,0.484,0.601c0.49-0.444,0.98-0.888,1.471-1.332c0.215,0.16,0.43,0.321,0.645,0.481
			c3.591-2.482,7.97-3.806,12.335-3.731c1.874,0.032,3.907,0.4,5.156,1.797c-0.374,0.383-0.917,0.577-1.449,0.641
			c-7.377,0.876-11.926,2.281-19.703,8.478C206.421,245.208,205.951,245.437,205.807,245.005z"/>
		<path id="XMLID_73_" style="fill:#3C3C3B;" d="M169.21,193.166c4.79-8.278,15.073-13.265,24.504-12.049
			c4.223,0.544,20.245-10.409,40.024,13.615c2.884,3.503,7.024,14.737,5.705,27.541c-9.801-0.042-20.18-3.772-28.8-8.478
			c2.012,4.213,5.054,7.921,8.779,10.705c-10.798,0.949-21.911-2.369-30.46-9.093c0.149,2.145,0.552,4.272,1.196,6.322
			c-11.995-3.06-12.533-13.082-12.533-13.082c0.466,4.081-0.03,8.282-1.275,12.205c-1.691,5.323-4.715,10.153-8.385,14.342
			c-1.016,1.16-2.586,2.369-3.927,1.616c-0.664-0.373-1.022-1.121-1.29-1.837C156.242,217.551,166.496,197.609,169.21,193.166"/>
		<path id="XMLID_72_" style="fill:#3C3C3B;" d="M231.184,215.029c-0.903,6.325,0.261,12.93,3.275,18.564
			c0.353,0.66,0.83,1.378,1.571,1.484c0.632,0.09,1.249-0.326,1.588-0.866c0.34-0.54,0.46-1.185,0.572-1.813
			c1.165-6.474,2.283-13.399-0.354-19.425c-0.195-0.444-0.419-0.894-0.791-1.206c-0.429-0.361-1.009-0.494-1.569-0.506
			c-2.312-0.047-4.433,2.102-4.354,4.413"/>
		<path id="XMLID_71_" style="fill:#F7C5B4;" d="M216.73,285.16c0,0-13.474,10.087-32.857,0.116
			C183.874,285.276,200.975,304.073,216.73,285.16z"/>
		<polygon id="XMLID_70_" style="fill:#2B6EAE;" points="270.332,421.355 127.752,421.355 109.082,314.626 289.281,314.626 		"/>
		<line id="XMLID_69_" style="fill:#2B6EAE;" x1="109.082" y1="314.626" x2="289.281" y2="314.626"/>
		<path id="XMLID_68_" style="opacity:0.37;fill:#2B6EAE;" d="M127.752,421.355h142.579l18.949-106.729
			C289.281,314.626,274.159,437.753,127.752,421.355"/>
		<rect id="XMLID_67_" x="38.23" y="421.355" style="fill:#003764;" width="321.902" height="8.499"/>
		<path id="XMLID_66_" style="fill:#3C3C3B;" d="M193.335,245.005c0.775-2.336,0.176-5.11-1.675-6.731
			c-0.161,0.201-0.323,0.401-0.484,0.601c-0.49-0.444-0.98-0.888-1.47-1.332c-0.215,0.16-0.43,0.321-0.645,0.481
			c-3.591-2.482-7.97-3.806-12.335-3.731c-1.874,0.032-3.907,0.4-5.156,1.797c0.374,0.383,0.917,0.577,1.449,0.641
			c7.377,0.876,11.926,2.281,19.703,8.478C192.722,245.208,193.192,245.437,193.335,245.005z"/>
		<g id="XMLID_63_">
			<path id="XMLID_14_" style="fill:#DA806C;" d="M207.074,265.321c0,0-0.083,0.148-0.239,0.397
				c-0.151,0.232-0.431,0.642-0.784,1.026c-0.347,0.407-0.812,0.825-1.339,1.238c-0.535,0.404-1.15,0.773-1.793,1.088
				c-0.652,0.295-1.328,0.54-1.981,0.693c-0.654,0.146-1.276,0.236-1.811,0.243c-0.534,0.029-0.98-0.023-1.287-0.055
				c-0.308-0.039-0.482-0.072-0.482-0.072c-0.283-0.054-0.47-0.328-0.416-0.611c0.042-0.219,0.215-0.381,0.423-0.417l0.042-0.007
				c0,0,0.16-0.028,0.436-0.058c0.276-0.025,0.667-0.095,1.128-0.185c0.924-0.171,2.119-0.521,3.247-1.036
				c1.126-0.519,2.176-1.196,2.908-1.792c0.378-0.3,0.652-0.52,0.871-0.738c0.213-0.203,0.341-0.314,0.341-0.314
				c0.201-0.174,0.506-0.152,0.68,0.049C207.154,264.927,207.17,265.149,207.074,265.321z"/>
		</g>
		<path id="XMLID_62_" style="fill:#222720;" d="M242.493,213.755c-0.352-2.183-1.74-3.811-3.578-5.036l0.186,0.012
			c0.353-8.827-3.329-14.115-6.809-19.659c-3.48-5.544-10.532-10.143-16.695-12.347c-6.983-2.497-14.739-5.833-21.931-4.024
			c-6.463,1.626-12.312,8.654-17.847,12.367c-5.213,3.497-9.616,11.226-11.523,17.5c-0.632,0.183-1.219,0.389-1.67,0.606
			c-3.104,1.498-3.776,6.067-4.427,9.452c-0.139,0.723-0.274,1.493-0.001,2.177c0.742,1.855,3.444,1.489,5.329,0.827
			c12.614-4.427,25.987-7.135,39.332-6.348c13.345,0.787,26.686,5.248,36.885,13.891
			C241.176,220.728,242.944,216.553,242.493,213.755z"/>
		<path id="XMLID_57_" style="fill:#3C3C3B;" d="M220.545,251.786c0,1.818-1.108,3.292-2.474,3.292
			c-1.366,0-2.474-1.474-2.474-3.292c0-1.818,1.108-3.292,2.474-3.292C219.438,248.495,220.545,249.969,220.545,251.786z"/>
		<path id="XMLID_56_" style="fill:#3C3C3B;" d="M182.618,251.771c0,1.818-1.108,3.292-2.474,3.292s-2.474-1.474-2.474-3.292
			c0-1.818,1.108-3.292,2.474-3.292S182.618,249.953,182.618,251.771z"/>
		<g id="XMLID_12_">
			<path id="XMLID_55_" style="fill:#FFFFFF;" d="M205.257,350.575c23.795,5.69,13.032,31.973,13.032,31.973
				c2.428,11.251-8.514,10.078-8.514,10.078s-3.823,1.216-2.606,6.082c0,0-3.301,1.216-8.341,1.216c-5.039,0-8.92-1.216-8.92-1.216
				c1.216-4.865-2.606-6.082-2.606-6.082s-10.823,1.248-8.514-10.078c0,0-10.426-25.022,13.032-31.973
				C191.82,350.575,197.264,348.664,205.257,350.575z"/>
			<path id="XMLID_51_" style="fill:#2B6EAE;" d="M201.607,373.08c0.607-1.018,1.637-1.748,2.802-1.968
				c1.165-0.22,2.367-0.048,3.529,0.183c1.383,0.275,2.75,0.632,4.091,1.07c1.01,0.33,2.059,0.744,2.707,1.586
				c0.667,0.867,0.786,2.035,0.736,3.128c-0.061,1.329-0.344,2.671-1.006,3.825c-0.662,1.154-1.733,2.108-3.019,2.453
				c-2.318,0.622-4.675-0.79-6.499-2.35c-1.865-1.595-3.445-3.337-3.684-5.779C201.264,375.229,201.317,373.566,201.607,373.08z"/>
			<path id="XMLID_48_" style="fill:#2B6EAE;" d="M196.367,374.142c-0.371-1.126-1.217-2.063-2.306-2.532
				c-1.089-0.468-2.299-0.562-3.484-0.59c-1.41-0.033-2.822,0.018-4.226,0.153c-1.057,0.102-2.172,0.277-2.987,0.958
				c-0.84,0.701-1.211,1.815-1.4,2.892c-0.23,1.311-0.247,2.681,0.148,3.952c0.395,1.271,1.232,2.435,2.412,3.052
				c2.127,1.112,4.735,0.248,6.855-0.877c2.168-1.15,4.089-2.506,4.855-4.837C196.233,376.314,196.543,374.679,196.367,374.142z"/>
			<path id="XMLID_47_" style="fill:#2B6EAE;" d="M199.016,379.427c0.238,0.124,0.53,0.372,0.706,0.607
				c0.905,1.201,1.53,2.702,1.901,4.28c0.126,0.537,0.193,1.212-0.154,1.568c-0.257,0.263-0.637,0.226-0.954,0.097
				c-0.317-0.129-0.618-0.336-0.95-0.374c-0.373-0.042-0.736,0.134-1.093,0.272c-0.562,0.217-1.228,0.323-1.693-0.125
				c-0.349-0.337-0.495-0.923-0.47-1.47c0.025-0.548,0.197-1.067,0.387-1.563c0.347-0.91,0.758-1.781,1.228-2.602
				C197.923,380.116,198.587,379.204,199.016,379.427z"/>
		</g>
	</g>
</g>
</svg>
