<?xml version="1.0" encoding="utf-8"?>
<!-- Generator: Adobe Illustrator 27.5.0, SVG Export Plug-In . SVG Version: 6.00 Build 0)  -->
<svg version="1.1" xmlns="http://www.w3.org/2000/svg" xmlns:xlink="http://www.w3.org/1999/xlink" x="0px" y="0px"
	 viewBox="0 0 2475 1650" style="enable-background:new 0 0 2475 1650;" xml:space="preserve">
<g id="Background">
	<rect style="fill:#FFFFFF;" width="2475" height="1650"/>
</g>
<g id="Illustration">
	<g>
		<linearGradient id="SVGID_1_" gradientUnits="userSpaceOnUse" x1="131.0087" y1="843.0022" x2="2344.2981" y2="843.0022">
			<stop  offset="0" style="stop-color:#DAE3FE"/>
			<stop  offset="1" style="stop-color:#E9EFFD"/>
		</linearGradient>
		<path style="fill:url(#SVGID_1_);" d="M1038.813,295.109c0,0-213.574-174.17-381.137-114.249
			c-167.564,59.921-87.685,216.154-192.338,265.621c-104.653,49.466-189.629-22.58-295.807,127.517
			c-106.178,150.098,33.068,257.705,106.297,346.37c77.615,93.976,142.244,130.858,13.857,189.438
			c-128.387,58.58-164.533,294.101,54.676,348.953c219.209,54.852,871.464,55.34,996.582,58.098
			c125.118,2.758,613.332,11.637,850.203-225.455s159.806-317.864,30.887-408.747c-128.918-90.883-62.525-240.875,0-397.722
			c62.525-156.847-80.388-315.049-309.742-251.083S1320.517,462.084,1038.813,295.109z"/>
		<g>
			<path style="fill:#91B3FA;" d="M619.439,1236.979c0,0-33.52-509.403-197.218-818.109c-11.004-20.752-36.188-18.987-44.363,3.182
				C323.19,570.293,196.401,1028.212,619.439,1236.979z"/>
			<path style="fill:#BDD0FB;" d="M583.361,1196.948c0.834,1.375-0.698,2.946-1.673,1.716
				c-35.973-45.347-170.195-259.154-182.759-631.249c-0.04-1.196,1.412-1.34,1.537-0.151
				C409.654,654.846,451.435,979.465,583.361,1196.948z"/>
		</g>
		<g>
			<path style="fill:#BDD0FB;" d="M131.914,793.518c-2.324-2.379,0.156-6.259,3.278-5.113
				c49.828,18.289,228.119,96.172,325.023,302.786c88.662,189.043,119.899,336.197,129.309,391.407
				c1.86,10.918-8.717,19.807-19.146,16.08c-61.813-22.088-231.661-92.992-278.69-219.136
				C235.486,1128.798,242.804,907.042,131.914,793.518z"/>
			
				<linearGradient id="SVGID_00000148642912488990968400000003296189744180959914_" gradientUnits="userSpaceOnUse" x1="260.1623" y1="1200.3574" x2="575.7985" y2="1200.3574">
				<stop  offset="0" style="stop-color:#DAE3FE"/>
				<stop  offset="1" style="stop-color:#E9EFFD"/>
			</linearGradient>
			<path style="fill:url(#SVGID_00000148642912488990968400000003296189744180959914_);" d="M260.162,919.875
				c0,0,151.047,104.402,315.636,560.964C575.799,1480.84,386.083,1030.763,260.162,919.875z"/>
		</g>
		<g>
			<path style="fill:#91B3FA;" d="M983.814,183.586c47.706,43.092,315.085,305.203,114.193,600.287
				c0,0-220.446-127.243-123.167-597.37C975.691,182.39,980.698,180.77,983.814,183.586z"/>
			<path style="fill:#BDD0FB;" d="M997.156,246.601c17.336,37.285,33.492,75.053,48.938,113.135
				c15.405,38.094,29.964,76.542,43.332,115.425c13.336,38.889,25.557,78.203,35.611,118.146
				c5.089,19.953,9.461,40.108,13.06,60.428c3.567,20.321,6.345,40.836,7.478,61.558c0.119,2.168-1.543,4.022-3.711,4.141
				c-2.168,0.119-4.022-1.543-4.141-3.711l-0.002-0.036l-0.001-0.017c-0.922-20.298-3.471-40.567-6.816-60.702
				c-3.375-20.136-7.526-40.174-12.402-60.049c-9.625-39.784-21.438-79.066-34.378-117.961
				c-12.972-38.892-27.147-77.395-42.176-115.564c-15.065-38.147-30.868-76.048-47.81-113.38l-0.009-0.02
				c-0.38-0.837-0.009-1.824,0.828-2.205C995.79,245.409,996.771,245.774,997.156,246.601z"/>
		</g>
		<g>
			<path style="fill:#BDD0FB;" d="M1177.85,180.59c28.054,43.337,181.016,302.203-36.117,489.373
				c0,0-144.571-144.498,28.549-488.974C1171.797,177.976,1176.018,177.759,1177.85,180.59z"/>
			
				<linearGradient id="SVGID_00000041294219422475877200000006765845543564362389_" gradientUnits="userSpaceOnUse" x1="1172.1262" y1="430.3744" x2="1203.0398" y2="430.3744">
				<stop  offset="0" style="stop-color:#DAE3FE"/>
				<stop  offset="1" style="stop-color:#E9EFFD"/>
			</linearGradient>
			<path style="fill:url(#SVGID_00000041294219422475877200000006765845543564362389_);" d="M1175.432,232.187
				c5.741,32.529,10.465,65.179,14.574,97.932c4.074,32.752,7.419,65.606,9.75,98.554c2.305,32.946,3.656,65.995,3.194,99.094
				c-0.179,16.548-0.956,33.108-2.369,49.64c-1.438,16.528-3.529,33.048-6.945,49.403c-0.444,2.126-2.527,3.489-4.653,3.045
				c-2.126-0.444-3.489-2.527-3.045-4.653c0.002-0.008,0.003-0.015,0.005-0.023l0.008-0.038c3.51-15.892,5.759-32.115,7.364-48.405
				c1.581-16.298,2.541-32.688,2.906-49.105c0.835-32.835-0.13-65.747-2.051-98.597c-1.946-32.855-4.906-65.662-8.597-98.39
				c-3.724-32.717-8.072-65.404-13.421-97.877l-0.004-0.022c-0.149-0.908,0.465-1.764,1.373-1.914
				C1174.422,230.684,1175.273,231.29,1175.432,232.187z"/>
		</g>
		<g>
			<path style="fill:#BDD0FB;" d="M2199.678,575.176c-1.313-6.217-10.107-6.543-11.85-0.432
				c-16.84,59.08-65.852,212.613-140.625,293.884c-121.749,132.328-203.299,347.687-126.13,459.727
				C1921.073,1328.355,2342.74,1252.581,2199.678,575.176z"/>
			
				<linearGradient id="SVGID_00000169526454496851639060000016392464647000292538_" gradientUnits="userSpaceOnUse" x1="1948.319" y1="959.6716" x2="2187.5698" y2="959.6716">
				<stop  offset="0" style="stop-color:#DAE3FE"/>
				<stop  offset="1" style="stop-color:#E9EFFD"/>
			</linearGradient>
			<path style="fill:url(#SVGID_00000169526454496851639060000016392464647000292538_);" d="M2187.566,659.526
				c-0.159,1.913-0.445,3.502-0.678,5.214l-0.796,5.039l-1.702,10.051c-1.18,6.691-2.459,13.362-3.74,20.032
				c-2.609,13.331-5.384,26.629-8.281,39.902c-5.839,26.535-12.386,52.911-19.333,79.181c-6.914,26.281-14.55,52.373-22.732,78.292
				c-8.207,25.911-16.783,51.715-26.204,77.223c-18.735,51.044-40.237,101.127-65.196,149.486
				c-3.053,6.078-6.456,11.976-9.666,17.972l-4.883,8.958c-1.665,2.966-3.408,5.888-5.109,8.833
				c-3.453,5.861-6.769,11.802-10.334,17.595l-10.794,17.319c-14.855,22.794-30.693,44.964-48.061,65.894
				c-0.347,0.418-0.966,0.475-1.384,0.129c-0.408-0.339-0.473-0.938-0.152-1.355l0.008-0.011
				c16.556-21.464,31.911-43.794,46.146-66.824l10.482-17.39c3.46-5.816,6.673-11.779,10.022-17.66
				c1.648-2.955,3.339-5.887,4.951-8.862l4.726-8.987c3.106-6.015,6.402-11.927,9.351-18.023
				c12.288-24.128,23.589-48.751,34.334-73.608c10.734-24.869,20.443-50.167,29.983-75.519
				c18.873-50.799,35.051-102.578,49.746-154.761c7.294-26.109,14.068-52.367,20.365-78.741c3.168-13.182,6.214-26.395,9.096-39.644
				c1.425-6.627,2.817-13.262,4.166-19.904l1.978-9.97l0.933-4.991c0.279-1.642,0.607-3.392,0.792-4.856l0.028-0.218
				c0.068-0.534,0.555-0.912,1.089-0.844C2187.237,658.544,2187.609,659.01,2187.566,659.526z"/>
		</g>
		<g>
			<path style="fill:#BDD0FB;" d="M1844.43,1494.765c0,0,2.851-100.957,105.266-202.421
				c95.024-94.141,328.496-311.831,382.822-432.913c2.406-5.364,10.382-3.715,10.399,2.164
				c0.183,63.062-11.771,221.04-121.879,377.371C2079.047,1440.565,1844.43,1494.765,1844.43,1494.765z"/>
			
				<linearGradient id="SVGID_00000177449301324598100700000000230289297545465510_" gradientUnits="userSpaceOnUse" x1="1871.8236" y1="1224.3604" x2="2294.9346" y2="1224.3604">
				<stop  offset="0" style="stop-color:#DAE3FE"/>
				<stop  offset="1" style="stop-color:#E9EFFD"/>
			</linearGradient>
			<path style="fill:url(#SVGID_00000177449301324598100700000000230289297545465510_);" d="M2294.934,972.051
				c-1.806,13.843-5.354,27.414-9.641,40.698l-1.574,4.999l-1.758,4.935l-3.525,9.875l-3.933,9.718
				c-1.342,3.227-2.548,6.52-4.084,9.66c-11.393,25.541-25.009,50.132-40.712,73.31c-3.688,5.961-7.974,11.5-12.05,17.191
				c-4.165,5.623-8.081,11.445-12.588,16.804l-13.154,16.372c-2.133,2.782-4.552,5.315-6.866,7.939l-7.001,7.824l-7.002,7.824
				l-3.513,3.901l-3.687,3.734l-14.753,14.937c-2.477,2.467-4.88,5.029-7.417,7.418l-7.601,7.181l-15.202,14.362
				c-20.436,18.969-41.007,37.799-62.045,56.09c-10.448,9.228-21.038,18.283-31.582,27.393l-31.927,26.956
				c-21.3,17.935-42.603,35.843-63.293,54.37c-5.242,4.565-10.238,9.369-15.324,14.093c-2.573,2.334-4.975,4.828-7.437,7.267
				c-2.435,2.464-4.943,4.866-7.321,7.383c-4.646,5.127-9.491,10.102-13.77,15.538c-4.586,5.208-8.468,10.928-12.541,16.536
				l-0.032,0.044c-0.319,0.44-0.934,0.537-1.374,0.218c-0.42-0.305-0.526-0.883-0.256-1.317c7.42-11.891,16.099-22.946,25.43-33.377
				c2.327-2.612,4.777-5.103,7.161-7.663c2.409-2.533,4.765-5.126,7.279-7.547c4.972-4.903,9.871-9.898,14.994-14.634
				c20.302-19.176,41.458-37.33,62.409-55.671l31.44-27.478c10.454-9.179,20.963-18.296,31.316-27.582
				c20.803-18.466,41.328-37.229,61.698-56.158l15.148-14.334l7.574-7.167c2.528-2.386,4.919-4.877,7.386-7.311l14.698-14.683
				l3.675-3.671l3.499-3.835l6.976-7.693c18.865-20.285,36.025-42.095,51.979-64.717c3.878-5.733,7.865-11.401,11.661-17.192
				l10.894-17.692c3.51-5.969,6.791-12.07,10.204-18.103c1.753-2.994,3.23-6.127,4.797-9.218l4.66-9.295
				c3.043-6.227,5.77-12.601,8.686-18.9l3.904-9.643l1.951-4.827l1.769-4.893c1.144-3.274,2.391-6.52,3.453-9.824l3.106-9.943
				c1.862-6.683,3.797-13.381,4.975-20.235c0.008-0.067,0.069-0.114,0.135-0.107
				C2294.893,971.922,2294.939,971.986,2294.934,972.051z"/>
		</g>
		<g>
			<g>
				
					<linearGradient id="SVGID_00000180363423270863142940000008449440006319326604_" gradientUnits="userSpaceOnUse" x1="1473.5687" y1="-570.718" x2="1173.5703" y2="1405.2775">
					<stop  offset="0" style="stop-color:#09005D"/>
					<stop  offset="1" style="stop-color:#1A0F91"/>
				</linearGradient>
				<path style="fill:url(#SVGID_00000180363423270863142940000008449440006319326604_);" d="M1967.28,1458.859
					c0,14.388-11.784,26.161-26.187,26.161H525.046c-14.402,0-26.186-11.772-26.186-26.161l-11.783-813.764
					c0-14.388,16.952-42.479,48.02-40.368l1383.918-35.809c18.071-0.468,35.543,6.488,48.34,19.243
					c12.797,12.755,19.799,30.195,19.372,48.248L1967.28,1458.859z"/>
				
					<linearGradient id="SVGID_00000136401159926730274400000015464752417539113904_" gradientUnits="userSpaceOnUse" x1="1221.0155" y1="1462.9272" x2="1251.0183" y2="409.8195">
					<stop  offset="0" style="stop-color:#4042E2"/>
					<stop  offset="1" style="stop-color:#4F52FF"/>
				</linearGradient>
				<path style="fill:url(#SVGID_00000136401159926730274400000015464752417539113904_);" d="M1941.427,1433.76
					c0,13.625-11.148,24.774-24.774,24.774H559.195c-13.626,0-24.774-11.149-24.774-24.774l-11.119-738.742
					c1.31-44.456,40.285-60.434,63.911-59.49l1326.359-35.584c12.696-0.341,24.97,4.551,33.962,13.52s13.937,21.243,13.619,33.939
					L1941.427,1433.76z"/>
				<g>
					<path style="fill:#7D97F4;" d="M549.091,1081.14c-1.072,0-1.949-0.861-1.965-1.937l-0.88-59.911
						c-0.015-1.086,0.851-1.978,1.937-1.995c1.006,0.026,1.978,0.851,1.995,1.937l0.88,59.911c0.015,1.086-0.851,1.978-1.937,1.995
						C549.111,1081.14,549.102,1081.14,549.091,1081.14z"/>
					<path style="fill:#7D97F4;" d="M546.935,934.327c-1.072,0-1.949-0.861-1.965-1.937l-3.37-229.458
						c0.07-15.314,4.787-27.547,14.022-36.395c16.805-16.102,43.103-15.287,44.21-15.248l423.57-11.367
						c1.08-0.027,1.989,0.826,2.018,1.912c0.03,1.086-0.827,1.989-1.912,2.018l-423.682,11.367
						c-1.178-0.036-25.87-0.803-41.483,14.156c-8.437,8.083-12.746,19.367-12.811,33.537l3.37,229.42
						c0.015,1.086-0.851,1.978-1.937,1.995C546.955,934.327,546.945,934.327,546.935,934.327z"/>
				</g>
				<g style="opacity:0.32;">
					<path style="fill:#7D97F4;" d="M594.226,1392.778c1.421-61.058,0.892-601.741-2.611-648.437
						c-3.503-46.696,69.222-55.454,180.878-60.709c111.656-5.255,1053.741-26.06,1077.998-28.027
						c54.523-4.421,65.809,77.075,60.354,253.996c-4.098,132.919-10.89,351.881-14.015,452.576
						c-0.931,29.983-25.437,53.772-55.434,53.854c-226.704,0.623-1095.595,3.113-1153.437,4.836
						C621.393,1422.85,593.662,1416.989,594.226,1392.778z"/>
				</g>
			</g>
			
				<linearGradient id="SVGID_00000062887955469794936610000010858931867691379357_" gradientUnits="userSpaceOnUse" x1="1280.2784" y1="381.9962" x2="1264.278" y2="922.0021">
				<stop  offset="0" style="stop-color:#09005D"/>
				<stop  offset="1" style="stop-color:#1A0F91"/>
			</linearGradient>
			<path style="fill:url(#SVGID_00000062887955469794936610000010858931867691379357_);" d="M2074.651,1526.554H420.197
				c-4.128,0-7.505-3.377-7.505-7.505v-56.49c0-4.128,3.377-7.505,7.505-7.505h1654.454c4.128,0,7.505,3.377,7.505,7.505v56.49
				C2082.156,1523.176,2078.779,1526.554,2074.651,1526.554z"/>
		</g>
		<g>
			<g>
				
					<linearGradient id="SVGID_00000034799781443226991680000011467589697243451536_" gradientUnits="userSpaceOnUse" x1="1333.2727" y1="1006.7213" x2="1795.5764" y2="-203.071">
					<stop  offset="0" style="stop-color:#FE7062"/>
					<stop  offset="1" style="stop-color:#FF928E"/>
				</linearGradient>
				<path style="fill:url(#SVGID_00000034799781443226991680000011467589697243451536_);" d="M1509.192,160.803l-468.643,387.434
					c9.099,4.38,19.409,6.635,30.29,6.068l887.914-46.268c15.269-0.796,29.016-7.036,39.42-16.771L1649.665,164.79
					C1611.831,129.348,1549.385,127.575,1509.192,160.803z"/>
			</g>
			
				<linearGradient id="SVGID_00000018218600798373691530000018249826152873723809_" gradientUnits="userSpaceOnUse" x1="1529.9915" y1="1325.9999" x2="1529.9915" y2="746.0003">
				<stop  offset="0" style="stop-color:#FE7062"/>
				<stop  offset="1" style="stop-color:#FF928E"/>
			</linearGradient>
			<path style="fill:url(#SVGID_00000018218600798373691530000018249826152873723809_);" d="M1940.878,1209.801H1086.12
				c-34.509,0-62.484-27.975-62.484-62.484V590.739c0-33.158,25.9-60.542,59.007-62.387l887.741-49.481
				c37.168-2.072,67.892,28.612,65.869,65.783l-32.983,606.059C2001.466,1183.853,1974.068,1209.801,1940.878,1209.801z"/>
			<g>
				
					<linearGradient id="SVGID_00000168079157294694296300000018198507280927139989_" gradientUnits="userSpaceOnUse" x1="1511.8757" y1="675.7993" x2="1568.8822" y2="-230.2923">
					<stop  offset="0" style="stop-color:#FE7062"/>
					<stop  offset="1" style="stop-color:#FF928E"/>
				</linearGradient>
				<path style="fill:url(#SVGID_00000168079157294694296300000018198507280927139989_);" d="M1533.456,873.956l467.239-389.127
					c-9.115-4.348-19.433-6.564-30.312-5.958l-887.741,49.481c-15.266,0.851-28.991,7.14-39.359,16.914l349.687,325.212
					C1430.932,905.783,1493.384,907.329,1533.456,873.956z"/>
			</g>
			<g>
				<defs>
					<path id="SVGID_00000118395024012189588370000016306386107593257358_" d="M1533.456,873.956l452.291-376.678
						c7.049-5.87,3.494-17.29-5.634-18.198c-3.18-0.316-6.429-296.6-9.729-296.416l-887.741,49.48
						c-10.58,0.59-20.421,300-28.917,305.164c-5.778,3.512-6.46,11.661-1.509,16.266l340.753,316.904
						C1430.932,905.783,1493.384,907.329,1533.456,873.956z"/>
				</defs>
				<clipPath id="SVGID_00000074411945923747947750000001095902660548189838_">
					<use xlink:href="#SVGID_00000118395024012189588370000016306386107593257358_"  style="overflow:visible;"/>
				</clipPath>
				<path style="clip-path:url(#SVGID_00000074411945923747947750000001095902660548189838_);fill:#91B3FA;" d="M1818.194,976.167
					h-590.415V305.393c0-25.67,20.026-46.883,45.653-48.36l493.535-28.441c27.802-1.602,51.227,20.512,51.227,48.36V976.167z"/>
				<path style="clip-path:url(#SVGID_00000074411945923747947750000001095902660548189838_);fill:#BDD0FB;" d="M1797.991,976.167
					h-550.008V351.299c0-23.913,18.655-43.674,42.529-45.05l459.758-26.495c25.899-1.492,47.721,19.108,47.721,45.05V976.167z"/>
				<g style="clip-path:url(#SVGID_00000074411945923747947750000001095902660548189838_);">
					
						<linearGradient id="SVGID_00000124861914486298474990000015760652177254160002_" gradientUnits="userSpaceOnUse" x1="1585.7932" y1="327.836" x2="1479.7931" y2="619.8361">
						<stop  offset="0" style="stop-color:#FE7062"/>
						<stop  offset="1" style="stop-color:#FF928E"/>
					</linearGradient>
					
						<circle style="fill:url(#SVGID_00000124861914486298474990000015760652177254160002_);" cx="1521.686" cy="504.432" r="117.486"/>
					<path style="opacity:0.67;fill:#FFFFFF;" d="M1413.385,500.643c-0.035,0-0.07-0.001-0.105-0.003
						c-1.085-0.057-1.917-0.981-1.86-2.066c0.243-4.646,0.783-9.312,1.606-13.869c0.192-1.067,1.212-1.785,2.284-1.585
						c1.068,0.192,1.778,1.215,1.585,2.284c-0.793,4.394-1.314,8.895-1.548,13.376
						C1415.292,499.829,1414.424,500.643,1413.385,500.643z"/>
					<path style="opacity:0.67;fill:#FFFFFF;" d="M1424.807,457.594c-0.298,0-0.6-0.067-0.884-0.211
						c-0.97-0.489-1.358-1.671-0.869-2.641c18.907-37.459,56.701-60.729,98.632-60.729c6.691,0,13.393,0.603,19.918,1.792
						c1.068,0.195,1.777,1.219,1.582,2.286c-0.194,1.069-1.22,1.769-2.286,1.582c-6.293-1.147-12.757-1.729-19.213-1.729
						c-40.438,0-76.887,22.442-95.123,58.569C1426.218,457.2,1425.526,457.594,1424.807,457.594z"/>
					
						<ellipse transform="matrix(0.9987 -0.0519 0.0519 0.9987 -24.2398 79.7234)" style="opacity:0.67;fill:#FFFFFF;" cx="1524.246" cy="506.992" rx="99.437" ry="99.437"/>
					
						<linearGradient id="SVGID_00000064347337057297219010000014529993106970760075_" gradientUnits="userSpaceOnUse" x1="1576.9152" y1="324.613" x2="1470.9152" y2="616.6128">
						<stop  offset="0" style="stop-color:#FE7062"/>
						<stop  offset="1" style="stop-color:#FF928E"/>
					</linearGradient>
					<path style="fill:url(#SVGID_00000064347337057297219010000014529993106970760075_);" d="M1554.691,469.418
						c0,16.837-13.649,35.014-30.487,35.014c-16.837,0-30.486-18.177-30.486-35.014c0-16.837,13.649-28.783,30.486-28.783
						C1541.041,440.635,1554.691,452.581,1554.691,469.418z"/>
					
						<linearGradient id="SVGID_00000032634879369323801540000015920560382338268343_" gradientUnits="userSpaceOnUse" x1="1599.2861" y1="332.7342" x2="1493.286" y2="624.7344">
						<stop  offset="0" style="stop-color:#FE7062"/>
						<stop  offset="1" style="stop-color:#FF928E"/>
					</linearGradient>
					<path style="fill:url(#SVGID_00000032634879369323801540000015920560382338268343_);" d="M1486.37,569.257h74.423
						c7.834,0,14.77-5.063,17.158-12.525l4.005-12.517c2.932-9.165-1.835-19.087-10.872-22.391
						c-30.287-11.074-61.605-9.653-93.687,1.022c-8.988,2.991-13.975,12.604-11.495,21.746l3.084,11.367
						C1471.113,563.808,1478.237,569.257,1486.37,569.257z"/>
				</g>
				
					<linearGradient id="SVGID_00000165913135020091017310000015159255391417463739_" gradientUnits="userSpaceOnUse" x1="1329.851" y1="682.4442" x2="1731.7306" y2="682.4442">
					<stop  offset="0" style="stop-color:#DAE3FE"/>
					<stop  offset="1" style="stop-color:#E9EFFD"/>
				</linearGradient>
				
					<path style="clip-path:url(#SVGID_00000074411945923747947750000001095902660548189838_);fill:url(#SVGID_00000165913135020091017310000015159255391417463739_);" d="
					M1329.851,695.324v5.36c0,15.923,13.367,28.583,29.267,27.718l346.362-18.845c15.085-0.821,26.744-13.554,26.235-28.652
					l-0.594-17.634c-0.537-15.933-14.353-28.141-30.231-26.712l-345.768,31.119C1340.813,668.965,1329.851,680.958,1329.851,695.324
					z"/>
				
					<linearGradient id="SVGID_00000037682370191764554190000004814990485692664729_" gradientUnits="userSpaceOnUse" x1="1340.5686" y1="787.1986" x2="1702.2673" y2="787.1986">
					<stop  offset="0" style="stop-color:#DAE3FE"/>
					<stop  offset="1" style="stop-color:#E9EFFD"/>
				</linearGradient>
				
					<path style="clip-path:url(#SVGID_00000074411945923747947750000001095902660548189838_);fill:url(#SVGID_00000037682370191764554190000004814990485692664729_);" d="
					M1340.606,796.405L1340.606,796.405c-0.812,15.788,11.707,29.066,27.516,29.183l306.106,2.269
					c15.379,0.114,27.92-12.298,27.964-27.678l0.074-25.798c0.047-16.201-13.732-28.998-29.885-27.757l-306.181,23.53
					C1352.282,771.223,1341.323,782.463,1340.606,796.405z"/>
				<g style="clip-path:url(#SVGID_00000074411945923747947750000001095902660548189838_);">
					<path style="fill:#91B3FA;" d="M1406.319,683.367l-8.543,14.273l0.016,0.217l15.021-3.3l0.549,7.378l-15.328-0.824l0.016,0.217
						l10.621,12.3l-6.044,4.378l-7.163-14.74l-0.201,0.015l-5.398,15.784l-6.022-3.48l8.568-13.946l-0.016-0.217l-14.728,3.169
						l-0.549-7.378l14.934,0.962l-0.016-0.217l-10.437-12.534l5.851-4.253l7.356,14.617l0.201-0.015l5.004-15.646L1406.319,683.367z
						"/>
					<path style="fill:#91B3FA;" d="M1448.046,680.262l-8.543,14.273l0.016,0.217l15.021-3.3l0.549,7.378l-15.328-0.824l0.016,0.217
						l10.621,12.3l-6.044,4.378l-7.163-14.74l-0.201,0.015l-5.397,15.784l-6.022-3.48l8.567-13.946l-0.016-0.217l-14.728,3.169
						l-0.549-7.378l14.934,0.962l-0.016-0.217l-10.436-12.534l5.851-4.253l7.356,14.617l0.201-0.015l5.003-15.645L1448.046,680.262z
						"/>
					<path style="fill:#91B3FA;" d="M1489.774,677.158l-8.543,14.273l0.016,0.217l15.022-3.3l0.549,7.378l-15.328-0.824l0.016,0.217
						l10.621,12.3l-6.044,4.378l-7.163-14.74l-0.201,0.015l-5.397,15.784l-6.022-3.48l8.567-13.947l-0.016-0.217l-14.728,3.169
						l-0.549-7.378l14.934,0.962l-0.016-0.217l-10.437-12.534l5.851-4.253l7.356,14.616l0.201-0.015l5.003-15.645L1489.774,677.158z
						"/>
					<path style="fill:#91B3FA;" d="M1531.501,674.053l-8.543,14.273l0.016,0.217l15.021-3.3l0.549,7.378l-15.328-0.823l0.016,0.217
						l10.621,12.3l-6.044,4.378l-7.163-14.74l-0.201,0.015l-5.398,15.784l-6.022-3.48l8.568-13.946l-0.016-0.218l-14.728,3.169
						l-0.549-7.378l14.934,0.962l-0.016-0.217l-10.436-12.534l5.851-4.253l7.356,14.617l0.201-0.015l5.003-15.646L1531.501,674.053z
						"/>
					<path style="fill:#91B3FA;" d="M1573.228,670.948l-8.543,14.273l0.016,0.217l15.021-3.3l0.549,7.378l-15.328-0.824l0.016,0.218
						l10.621,12.3l-6.044,4.378l-7.163-14.74l-0.201,0.015l-5.397,15.784l-6.022-3.48l8.567-13.946l-0.016-0.217l-14.728,3.169
						l-0.549-7.378l14.934,0.962l-0.016-0.217l-10.436-12.534l5.851-4.253l7.356,14.616l0.201-0.015l5.003-15.645L1573.228,670.948z
						"/>
					
						<rect x="1589.063" y="695.325" transform="matrix(0.9972 -0.0742 0.0742 0.9972 -47.4504 120.9556)" style="fill:#91B3FA;" width="30.322" height="7.58"/>
				</g>
			</g>
		</g>
		<g>
			<g>
				<path style="fill:#7D97F4;" d="M452.572,1340.273c-3.81,5.638-18.953,133.289-21.323,180.434
					c-0.16,3.188,2.39,5.847,5.582,5.847l0,0c2.753,0,5.096-2.006,5.52-4.725l27.698-177.495L452.572,1340.273z"/>
				<path style="fill:#7D97F4;" d="M574.322,1340.273c3.81,5.638,18.953,133.289,21.323,180.434c0.16,3.188-2.39,5.847-5.582,5.847
					l0,0c-2.753,0-5.095-2.006-5.52-4.725l-27.698-177.495L574.322,1340.273z"/>
				<path style="fill:#7D97F4;" d="M429.665,1330.311l-0.013,1.391c-0.091,10.015,8.536,18.229,19.339,18.413l128.024,2.178
					c10.647,0.181,19.522-7.513,20.039-17.372l0.067-1.274c0.539-10.282-8.193-18.945-19.296-19.144l-128.079-2.295
					C438.784,1312.011,429.758,1320.148,429.665,1330.311z"/>
			</g>
			<g>
				<g>
					
						<linearGradient id="SVGID_00000138562136705411942970000015145025526693298600_" gradientUnits="userSpaceOnUse" x1="8100.8604" y1="2547.7437" x2="8118.3604" y2="2424.2441" gradientTransform="matrix(1 0 0 1 -7559.5503 0)">
						<stop  offset="0" style="stop-color:#4042E2"/>
						<stop  offset="1" style="stop-color:#4F52FF"/>
					</linearGradient>
					<path style="fill:url(#SVGID_00000138562136705411942970000015145025526693298600_);" d="M678.725,1516.07
						c-22.758,0-32.827-1.952-37.33-3.733c0.875,3.737,4.204,6.688,8.41,6.688h80.511c2.712,0,4.423-2.595,3.775-4.945
						C724.914,1514.818,705.422,1516.07,678.725,1516.07z"/>
					
						<linearGradient id="SVGID_00000021841349670804555880000011246716885016452514_" gradientUnits="userSpaceOnUse" x1="8052.8423" y1="2633.9888" x2="8037.3418" y2="2723.4893" gradientTransform="matrix(1 0 0 1 -7559.5503 0)">
						<stop  offset="0" style="stop-color:#4042E2"/>
						<stop  offset="1" style="stop-color:#4F52FF"/>
					</linearGradient>
					<path style="fill:url(#SVGID_00000021841349670804555880000011246716885016452514_);" d="M734.092,1514.08
						c-0.13-0.474-0.323-0.94-0.659-1.37c-6.133-7.83-18.453-20.127-35.211-19.891c-24.551,0.346-33.11,3.009-52.189,0.15
						l-4.5,14.919c-0.459,1.52-0.467,3.04-0.137,4.45c4.502,1.781,14.572,3.733,37.33,3.733
						C705.422,1516.07,724.914,1514.818,734.092,1514.08z"/>
				</g>
				
					<linearGradient id="SVGID_00000077297314706619281600000015729406100949937562_" gradientUnits="userSpaceOnUse" x1="8205.583" y1="1487.7057" x2="8230.7012" y2="1487.7057" gradientTransform="matrix(1 0 0 1 -7559.5503 0)">
					<stop  offset="0" style="stop-color:#FF928E"/>
					<stop  offset="1" style="stop-color:#FEB3B1"/>
				</linearGradient>
				<path style="fill:url(#SVGID_00000077297314706619281600000015729406100949937562_);" d="M651.557,1476.892l-5.525,18.79
					c0,0,12.24,5.572,23.004,1.099l2.114-16.279L651.557,1476.892z"/>
				<g>
					
						<linearGradient id="SVGID_00000091718817793479441930000012954029571174578877_" gradientUnits="userSpaceOnUse" x1="8232.6436" y1="2566.4258" x2="8250.1436" y2="2442.9255" gradientTransform="matrix(1 0 0 1 -7559.5503 0)">
						<stop  offset="0" style="stop-color:#4042E2"/>
						<stop  offset="1" style="stop-color:#4F52FF"/>
					</linearGradient>
					<path style="fill:url(#SVGID_00000091718817793479441930000012954029571174578877_);" d="M818.427,1504.237
						c-17.741,14.255-26.807,19.047-31.427,20.485c3.011,2.352,7.446,2.556,10.725-0.079l62.762-50.429
						c2.114-1.698,1.83-4.783-0.14-6.201C853.653,1474.335,839.238,1487.516,818.427,1504.237z"/>
					
						<linearGradient id="SVGID_00000093895709465979697910000017542495808203649453_" gradientUnits="userSpaceOnUse" x1="8176.707" y1="2655.4417" x2="8161.207" y2="2744.9414" gradientTransform="matrix(1 0 0 1 -7559.5503 0)">
						<stop  offset="0" style="stop-color:#4042E2"/>
						<stop  offset="1" style="stop-color:#4F52FF"/>
					</linearGradient>
					<path style="fill:url(#SVGID_00000093895709465979697910000017542495808203649453_);" d="M860.346,1468.015
						c-0.397-0.286-0.838-0.528-1.368-0.65c-9.662-2.234-26.931-4.058-39.848,6.622c-18.923,15.646-23.935,23.073-40.589,32.804
						l5.791,14.393c0.591,1.467,1.531,2.651,2.668,3.538c4.619-1.438,13.686-6.231,31.427-20.485
						C839.238,1487.516,853.653,1474.335,860.346,1468.015z"/>
				</g>
				
					<linearGradient id="SVGID_00000162313483135701672090000000651567840531735972_" gradientUnits="userSpaceOnUse" x1="8066.6938" y1="1374.3672" x2="8265.5293" y2="1374.3672" gradientTransform="matrix(1 0 0 1 -7559.5503 0)">
					<stop  offset="0" style="stop-color:#09005D"/>
					<stop  offset="1" style="stop-color:#1A0F91"/>
				</linearGradient>
				<path style="fill:url(#SVGID_00000162313483135701672090000000651567840531735972_);" d="M533.375,1262.818
					c0,0,136.253,11.125,164.205,24.283c27.951,13.158-22.81,197.576-22.81,197.576s-7.609,3.662-24.541-1.602
					c0,0,17.363-136.093,4.443-165.604l-147.527-24.13L533.375,1262.818z"/>
				
					<linearGradient id="SVGID_00000026149645989912866110000005685851879026681773_" gradientUnits="userSpaceOnUse" x1="8324.5527" y1="1489.8197" x2="8354.54" y2="1489.8197" gradientTransform="matrix(1 0 0 1 -7559.5503 0)">
					<stop  offset="0" style="stop-color:#FF928E"/>
					<stop  offset="1" style="stop-color:#FEB3B1"/>
				</linearGradient>
				<path style="fill:url(#SVGID_00000026149645989912866110000005685851879026681773_);" d="M765.003,1480.886
					c1.265,1.153,13.538,25.905,13.538,25.905s13.663-2.956,16.449-11.603l-12.294-22.341L765.003,1480.886z"/>
				
					<linearGradient id="SVGID_00000007404691301988824420000008977610335948582067_" gradientUnits="userSpaceOnUse" x1="8247.3066" y1="1291.5243" x2="8029.0171" y2="1539.0211" gradientTransform="matrix(1 0 0 1 -7559.5503 0)">
					<stop  offset="0" style="stop-color:#09005D"/>
					<stop  offset="1" style="stop-color:#1A0F91"/>
				</linearGradient>
				<path style="fill:url(#SVGID_00000007404691301988824420000008977610335948582067_);" d="M451.31,1261.679
					c0,0-4.44,10.684-4.259,24.882c0.25,19.635,16.036,35.568,35.648,36.547l161.074,7.345c3.402,0.155,6.279,2.509,7.132,5.806
					c3.785,14.641,22.286,59.6,112.724,149.313c2.406,2.387,6.154,2.793,9.02,0.983l12.874-8.132
					c1.351-0.854,1.783-2.626,0.975-4.005l-93.785-160.153c-4.926-8.129-12.844-14.002-22.053-16.356l-137.285-35.093
					L451.31,1261.679z"/>
				
					<linearGradient id="SVGID_00000013874094394078429950000006199349129122618247_" gradientUnits="userSpaceOnUse" x1="8157.9844" y1="1067.2529" x2="8172.7686" y2="1029.9713" gradientTransform="matrix(1 0 0 1 -7559.5503 0)">
					<stop  offset="0" style="stop-color:#FF928E"/>
					<stop  offset="1" style="stop-color:#FEB3B1"/>
				</linearGradient>
				<path style="fill:url(#SVGID_00000013874094394078429950000006199349129122618247_);" d="M610.047,1011.506
					c0,0-17.255,30.508-34.848,45.288l36.363,20.288c0,0,8.194-32.297,26.914-41.755L610.047,1011.506z"/>
				
					<linearGradient id="SVGID_00000079463097755416866760000001111175714540908427_" gradientUnits="userSpaceOnUse" x1="612.4378" y1="1176.5898" x2="301.9541" y2="1473.5746">
					<stop  offset="0" style="stop-color:#FE7062"/>
					<stop  offset="1" style="stop-color:#FF928E"/>
				</linearGradient>
				<path style="fill:url(#SVGID_00000079463097755416866760000001111175714540908427_);" d="M448.385,1262.818
					c0,0,43.484,10.597,84.99,0c0,0,58.079-78.074,80.548-99.324c0,0,35.84,56.556,115.615,64.571l4.449-9.942
					c0,0-63.509-29.276-83.06-74.26c-19.552-44.983-27.404-64.169-45.191-75.906c-11.078-7.309-17.711-12.303-21.138-15.029
					c-1.877-1.493-4.467-1.662-6.515-0.414C559.204,1064.018,470.383,1124.851,448.385,1262.818z"/>
				
					<linearGradient id="SVGID_00000159448357370419204310000006996646842217066663_" gradientUnits="userSpaceOnUse" x1="-633.9785" y1="1140.5562" x2="-612.4885" y2="1140.5562" gradientTransform="matrix(-1 0 0 1 -22.4158 0)">
					<stop  offset="0" style="stop-color:#CB236D"/>
					<stop  offset="1" style="stop-color:#4C246D"/>
				</linearGradient>
				<path style="fill:url(#SVGID_00000159448357370419204310000006996646842217066663_);" d="M590.073,1121.508
					c0,0,7.73,20.152,21.49,38.097L590.073,1121.508z"/>
				
					<linearGradient id="SVGID_00000091721162688028077780000011776069737324040346_" gradientUnits="userSpaceOnUse" x1="8284.29" y1="1212.2428" x2="8353.5576" y2="1212.2428" gradientTransform="matrix(1 0 0 1 -7559.5503 0)">
					<stop  offset="0" style="stop-color:#FF928E"/>
					<stop  offset="1" style="stop-color:#FEB3B1"/>
				</linearGradient>
				<path style="fill:url(#SVGID_00000091721162688028077780000011776069737324040346_);" d="M724.74,1212.93l8.98-2.393
					l27.263-6.313c3.282-0.76,6.732-0.178,9.583,1.616l23.441,14.749l-64.736-0.109L724.74,1212.93z"/>
				<g>
					
						<linearGradient id="SVGID_00000142172248376124301490000003479615952510676126_" gradientUnits="userSpaceOnUse" x1="10805.8838" y1="2005.6323" x2="10731.6514" y2="2062.4316" gradientTransform="matrix(0.8947 0.4465 -0.4465 0.8947 -8114.9048 -5601.8452)">
						<stop  offset="0" style="stop-color:#FF928E"/>
						<stop  offset="1" style="stop-color:#FEB3B1"/>
					</linearGradient>
					<path style="fill:url(#SVGID_00000142172248376124301490000003479615952510676126_);" d="M666.892,992.714
						c0,0-1.701,32.486-7.912,46.884c-6.21,14.397-7.728,24.992-25.333,19.73c-17.604-5.262-27.222-20.14-27.65-37.782
						c0,0-0.852-27.28,6.141-34.789C619.131,979.248,666.892,992.714,666.892,992.714z"/>
					
						<linearGradient id="SVGID_00000183244665645012023190000003690874090817237397_" gradientUnits="userSpaceOnUse" x1="10796.6758" y1="1993.5986" x2="10722.4434" y2="2050.3977" gradientTransform="matrix(0.8947 0.4465 -0.4465 0.8947 -8114.9048 -5601.8452)">
						<stop  offset="0" style="stop-color:#FF928E"/>
						<stop  offset="1" style="stop-color:#FEB3B1"/>
					</linearGradient>
					<path style="fill:url(#SVGID_00000183244665645012023190000003690874090817237397_);" d="M615.765,1017.088
						c0,0,4.076-19.26-5.953-18.294c-10.029,0.966-5.566,21.081,0.26,24.786L615.765,1017.088z"/>
				</g>
				
					<linearGradient id="SVGID_00000124878780667413080780000016656882441263734423_" gradientUnits="userSpaceOnUse" x1="610.5934" y1="946.6158" x2="651.0855" y2="1149.0105">
					<stop  offset="0" style="stop-color:#09005D"/>
					<stop  offset="1" style="stop-color:#1A0F91"/>
				</linearGradient>
				<path style="fill:url(#SVGID_00000124878780667413080780000016656882441263734423_);" d="M660.672,1010.11
					c3.951,0.461,7.401-2.567,7.564-6.541c0.631-15.342-2.463-45.92-36.876-47.416c-46.032-2.002-54.822,35.358-44.423,50.702
					c8.92,13.161-0.348,34.911-3.165,40.834c-0.566,1.189-0.788,2.515-0.587,3.816c0.744,4.831,4.589,16.021,24.024,20.772
					c3.113,0.761,6.35-0.76,7.756-3.64l3.306-6.77c1.61-3.296,5.527-4.727,8.882-3.243c5.315,2.35,13.41,4.772,20.486,2.075
					c8.152-3.107,12.233-18.165,13.966-27.08c0.714-3.672-1.672-7.221-5.337-7.969l-11.445-2.336
					c-3.176-0.648-5.457-3.442-5.457-6.683l0,0c0-3.672,2.902-6.675,6.571-6.817C650.337,1009.641,656.133,1009.58,660.672,1010.11z
					"/>
			</g>
			<g>
				<g>
					
						<linearGradient id="SVGID_00000111905594872291398910000015372722633129122741_" gradientUnits="userSpaceOnUse" x1="744.3081" y1="-10369.166" x2="559.0596" y2="-10190.0664" gradientTransform="matrix(-1.388 -0.0686 -0.0685 1.3855 -13796.0635 -215.9469)">
						<stop  offset="0" style="stop-color:#09005D"/>
						<stop  offset="1" style="stop-color:#1A0F91"/>
					</linearGradient>
					<path style="fill:url(#SVGID_00000111905594872291398910000015372722633129122741_);" d="M699.73,1233.287
						c0.106,0.005,0.212,0.008,0.318,0.008l138.297-0.138c3.419-0.003,6.187-2.772,6.183-6.184
						c-0.003-3.414-2.788-6.234-6.198-6.173l-138.297,0.138c-3.419,0.002-6.187,2.771-6.183,6.184
						C693.854,1230.427,696.459,1233.125,699.73,1233.287z"/>
				</g>
				<g>
					
						<linearGradient id="SVGID_00000125575494609159548160000000434152835153894312_" gradientUnits="userSpaceOnUse" x1="5852.4678" y1="-14663.6162" x2="5667.2271" y2="-14484.5244" gradientTransform="matrix(0.6475 -1.2297 -1.2274 -0.6463 -265.6464 -7927.8447)">
						<stop  offset="0" style="stop-color:#09005D"/>
						<stop  offset="1" style="stop-color:#1A0F91"/>
					</linearGradient>
					<path style="fill:url(#SVGID_00000125575494609159548160000000434152835153894312_);" d="M891.903,1097.851
						c-0.049,0.093-0.096,0.188-0.141,0.285l-58.189,125.459c-1.439,3.101-0.096,6.779,3.001,8.214
						c3.097,1.436,6.828,0.1,8.21-3.017l58.19-125.459c1.439-3.102,0.095-6.779-3-8.214
						C896.974,1093.728,893.429,1094.953,891.903,1097.851z"/>
				</g>
			</g>
			<g>
				<path style="fill:#7D97F4;" d="M761.309,1240.229c-0.604,2.502-58.31,218.926-72.94,273.793
					c-1.686,6.324,3.023,12.532,9.494,12.532l0,0c4.512,0,8.446-3.109,9.539-7.54l64.057-259.717L761.309,1240.229z"/>
				<path style="fill:#7D97F4;" d="M792.908,1240.229c0.604,2.502,58.31,218.926,72.94,273.793
					c1.686,6.324-3.023,12.532-9.495,12.532l0,0c-4.513,0-8.445-3.109-9.538-7.54l-64.057-259.717L792.908,1240.229z"/>
				<path style="fill:#7D97F4;" d="M795.313,1233.152h-35.939v28.862c0,4.148,3.323,7.511,7.422,7.511h4.93v64.828
					c0,3.141,2.515,5.686,5.618,5.686l0,0c3.103,0,5.618-2.545,5.618-5.686v-64.828h2.502c5.44,0,9.849-4.463,9.849-9.969V1233.152z
					"/>
				<path style="fill:#BDD0FB;" d="M671.006,1226.219h200.675c2.805,0,5.254,1.921,5.955,4.669l2.802,10.986
					c1.008,3.954-1.955,7.803-5.99,7.779l-205.914-1.198c-3.991-0.023-6.903-3.828-5.929-7.745l2.437-9.789
					C665.731,1228.157,668.188,1226.219,671.006,1226.219z"/>
			</g>
		</g>
		<g>
			<path style="fill:#BDD0FB;" d="M804.35,1168.489c-0.666,0-1.336-0.224-1.888-0.685c-1.542-1.287-3.055-2.601-4.542-3.938
				c-1.211-1.089-1.31-2.954-0.221-4.164c1.089-1.211,2.954-1.31,4.164-0.221c1.433,1.289,2.893,2.555,4.379,3.796
				c1.25,1.044,1.417,2.904,0.373,4.154C806.032,1168.129,805.194,1168.489,804.35,1168.489z M790.07,1154.986
				c-0.788,0-1.573-0.314-2.154-0.934c-1.37-1.464-2.712-2.95-4.025-4.459c-1.069-1.229-0.941-3.091,0.288-4.16
				c1.229-1.072,3.091-0.942,4.16,0.288c1.267,1.455,2.561,2.889,3.883,4.301c1.112,1.189,1.051,3.055-0.138,4.168
				C791.516,1154.722,790.792,1154.986,790.07,1154.986z M777.524,1139.864c-0.906,0-1.8-0.416-2.378-1.202
				c-1.185-1.612-2.341-3.244-3.469-4.895c-0.919-1.345-0.573-3.18,0.772-4.099c1.345-0.919,3.18-0.572,4.099,0.772
				c1.089,1.595,2.206,3.172,3.35,4.727c0.965,1.312,0.684,3.158-0.629,4.123C778.743,1139.678,778.131,1139.864,777.524,1139.864z
				 M766.812,1123.399c-1.022,0-2.016-0.533-2.561-1.483c-0.994-1.732-1.959-3.479-2.896-5.245
				c-0.763-1.439-0.216-3.223,1.223-3.987c1.44-0.765,3.223-0.216,3.987,1.223c0.906,1.708,1.841,3.4,2.802,5.076
				c0.81,1.412,0.322,3.215-1.091,4.025C767.814,1123.272,767.309,1123.399,766.812,1123.399z M757.966,1105.859
				c-1.135,0-2.216-0.659-2.701-1.763c-0.802-1.826-1.577-3.666-2.322-5.516c-0.609-1.511,0.122-3.229,1.633-3.837
				c1.508-0.61,3.228,0.123,3.837,1.633c0.724,1.795,1.474,3.578,2.251,5.348c0.656,1.491-0.022,3.231-1.513,3.886
				C758.765,1105.778,758.362,1105.859,757.966,1105.859z M750.994,1087.492c-1.244,0-2.402-0.795-2.805-2.043
				c-0.612-1.896-1.197-3.802-1.755-5.718c-0.455-1.564,0.444-3.2,2.008-3.655c1.565-0.454,3.199,0.443,3.655,2.008
				c0.54,1.86,1.108,3.711,1.703,5.551c0.501,1.55-0.349,3.212-1.899,3.713C751.601,1087.446,751.294,1087.492,750.994,1087.492z
				 M745.873,1068.527c-1.355,0-2.575-0.94-2.878-2.318c-0.426-1.945-0.825-3.898-1.196-5.857c-0.303-1.6,0.747-3.144,2.347-3.447
				c1.609-0.309,3.145,0.748,3.447,2.347c0.362,1.905,0.749,3.803,1.163,5.694c0.349,1.591-0.659,3.163-2.249,3.512
				C746.294,1068.504,746.082,1068.527,745.873,1068.527z M742.576,1049.157c-1.469,0-2.74-1.095-2.923-2.59
				c-0.243-1.976-0.458-3.958-0.645-5.942c-0.154-1.622,1.036-3.06,2.658-3.214c1.612-0.167,3.06,1.036,3.213,2.657
				c0.183,1.93,0.393,3.858,0.628,5.781c0.199,1.616-0.951,3.088-2.568,3.286C742.817,1049.15,742.695,1049.157,742.576,1049.157z
				 M741.082,1029.563c-1.587,0-2.896-1.261-2.946-2.858c-0.06-1.993-0.095-3.986-0.101-5.979c-0.005-1.629,1.311-2.953,2.94-2.957
				c0.003,0,0.006,0,0.009,0c1.625,0,2.944,1.314,2.949,2.94c0.006,1.939,0.038,3.877,0.099,5.815
				c0.05,1.627-1.23,2.987-2.858,3.038C741.143,1029.563,741.113,1029.563,741.082,1029.563z M741.378,1009.914
				c-0.06,0-0.12-0.002-0.18-0.006c-1.625-0.097-2.863-1.495-2.766-3.121c0.119-1.989,0.266-3.977,0.441-5.962
				c0.142-1.622,1.557-2.822,3.195-2.679c1.622,0.142,2.822,1.572,2.679,3.195c-0.169,1.931-0.312,3.866-0.429,5.801
				C744.224,1008.708,742.925,1009.914,741.378,1009.914z M743.452,990.371c-0.148,0-0.297-0.01-0.448-0.034
				c-1.611-0.246-2.717-1.75-2.471-3.36c0.3-1.972,0.629-3.938,0.984-5.898c0.291-1.602,1.824-2.661,3.428-2.376
				c1.602,0.291,2.666,1.825,2.376,3.428c-0.346,1.907-0.664,3.819-0.957,5.735C746.141,989.327,744.884,990.371,743.452,990.371z
				 M747.313,971.104c-0.236,0-0.476-0.029-0.716-0.088c-1.58-0.395-2.541-1.996-2.147-3.576c0.484-1.935,0.994-3.864,1.532-5.783
				c0.441-1.569,2.075-2.481,3.635-2.044c1.568,0.44,2.483,2.068,2.044,3.635c-0.523,1.866-1.019,3.739-1.488,5.62
				C749.837,970.208,748.634,971.104,747.313,971.104z M752.977,952.287c-0.327,0-0.659-0.055-0.986-0.171
				c-1.535-0.544-2.337-2.23-1.793-3.765c0.667-1.881,1.362-3.752,2.085-5.61c0.59-1.52,2.3-2.27,3.816-1.68
				c1.518,0.59,2.27,2.299,1.68,3.817c-0.702,1.805-1.375,3.62-2.023,5.445C755.327,951.532,754.19,952.287,752.977,952.287z
				 M760.407,934.093c-0.413,0-0.833-0.087-1.232-0.272c-1.479-0.682-2.125-2.434-1.444-3.913c0.835-1.811,1.692-3.61,2.572-5.397
				c0.72-1.462,2.488-2.061,3.948-1.343c1.461,0.719,2.063,2.487,1.343,3.948c-0.857,1.742-1.693,3.495-2.507,5.26
				C762.589,933.456,761.523,934.093,760.407,934.093z M769.386,916.606c-0.493,0-0.993-0.125-1.453-0.386
				c-1.416-0.804-1.912-2.604-1.108-4.02c0.983-1.732,1.987-3.451,3.012-5.156c0.839-1.395,2.651-1.848,4.047-1.008
				c1.396,0.839,1.847,2.651,1.008,4.047c-1,1.664-1.979,3.34-2.939,5.03C771.411,916.069,770.412,916.606,769.386,916.606z
				 M779.781,899.927c-0.571,0-1.149-0.165-1.657-0.512c-1.346-0.917-1.694-2.75-0.778-4.097c1.118-1.643,2.257-3.274,3.414-4.891
				c0.947-1.325,2.79-1.631,4.114-0.682c1.325,0.948,1.629,2.79,0.682,4.114c-1.131,1.58-2.242,3.173-3.336,4.777
				C781.651,899.476,780.725,899.927,779.781,899.927z M791.464,884.127c-0.647,0-1.298-0.211-1.841-0.647
				c-1.272-1.018-1.476-2.874-0.459-4.145c1.242-1.55,2.5-3.087,3.778-4.61c1.047-1.248,2.907-1.41,4.154-0.365
				c1.248,1.047,1.411,2.907,0.365,4.154c-1.249,1.489-2.48,2.991-3.694,4.507C793.185,883.749,792.329,884.127,791.464,884.127z
				 M804.309,869.258c-0.719,0-1.439-0.261-2.007-0.789c-1.192-1.11-1.26-2.976-0.152-4.168c1.352-1.453,2.719-2.892,4.104-4.318
				c1.135-1.168,3.001-1.197,4.17-0.062c1.168,1.135,1.196,3.001,0.061,4.17c-1.354,1.396-2.693,2.804-4.016,4.226
				C805.889,868.942,805.1,869.258,804.309,869.258z M818.194,855.354c-0.789,0-1.575-0.315-2.156-0.936
				c-1.112-1.19-1.048-3.056,0.142-4.168c1.45-1.354,2.914-2.693,4.393-4.019c1.211-1.087,3.076-0.985,4.164,0.229
				c1.087,1.212,0.985,3.076-0.228,4.164c-1.449,1.299-2.884,2.611-4.304,3.936C819.637,855.091,818.915,855.354,818.194,855.354z
				 M833.003,842.439c-0.856,0-1.705-0.37-2.288-1.087c-1.028-1.262-0.839-3.12,0.424-4.149c1.537-1.252,3.086-2.49,4.65-3.714
				c1.28-1.003,3.135-0.779,4.14,0.504c1.004,1.282,0.779,3.136-0.504,4.14c-1.533,1.201-3.053,2.414-4.561,3.643
				C834.316,842.222,833.658,842.439,833.003,842.439z M848.633,830.528c-0.922,0-1.83-0.43-2.405-1.238
				c-0.945-1.327-0.635-3.168,0.691-4.112c1.616-1.15,3.242-2.286,4.879-3.407c1.345-0.919,3.179-0.577,4.099,0.768
				c0.92,1.344,0.576,3.178-0.768,4.099c-1.607,1.1-3.204,2.214-4.789,3.343C849.821,830.35,849.224,830.528,848.633,830.528z
				 M864.991,819.633c-0.986,0-1.949-0.493-2.507-1.392c-0.86-1.383-0.436-3.201,0.947-4.061c1.685-1.047,3.379-2.08,5.084-3.096
				c1.399-0.838,3.208-0.376,4.042,1.022c0.834,1.398,0.377,3.208-1.022,4.042c-1.672,0.998-3.336,2.012-4.99,3.04
				C866.06,819.49,865.521,819.633,864.991,819.633z M881.989,809.767c-1.048,0-2.064-0.561-2.596-1.547
				c-0.775-1.433-0.241-3.222,1.191-3.996c1.745-0.944,3.499-1.872,5.26-2.784c1.45-0.751,3.227-0.182,3.975,1.262
				c0.749,1.447,0.183,3.226-1.262,3.975c-1.731,0.896-3.454,1.807-5.168,2.735C882.943,809.652,882.463,809.767,881.989,809.767z
				 M899.555,800.94c-1.112,0-2.175-0.632-2.675-1.705c-0.687-1.477-0.048-3.231,1.428-3.918c1.8-0.838,3.606-1.66,5.42-2.465
				c1.487-0.666,3.231,0.01,3.891,1.497c0.661,1.488-0.009,3.231-1.497,3.891c-1.782,0.792-3.557,1.6-5.324,2.423
				C900.394,800.851,899.971,800.94,899.555,800.94z M917.617,793.172c-1.175,0-2.286-0.706-2.743-1.865
				c-0.599-1.515,0.144-3.228,1.658-3.827c1.847-0.729,3.699-1.444,5.558-2.14c1.52-0.575,3.225,0.2,3.796,1.725
				c0.572,1.524-0.2,3.224-1.725,3.796c-1.826,0.685-3.646,1.386-5.46,2.104C918.344,793.104,917.978,793.172,917.617,793.172z
				 M936.106,786.483c-1.238,0-2.391-0.786-2.8-2.026c-0.511-1.546,0.329-3.214,1.877-3.723c1.882-0.622,3.769-1.228,5.661-1.818
				c1.558-0.483,3.208,0.383,3.694,1.937c0.485,1.555-0.382,3.208-1.937,3.694c-1.861,0.581-3.718,1.177-5.571,1.787
				C936.724,786.435,936.411,786.483,936.106,786.483z M954.929,780.818c-1.297,0-2.485-0.862-2.843-2.174
				c-0.428-1.57,0.498-3.192,2.07-3.621c1.911-0.521,3.826-1.028,5.745-1.521c1.578-0.4,3.184,0.546,3.589,2.124
				c0.404,1.577-0.546,3.184-2.124,3.589c-1.89,0.485-3.776,0.984-5.659,1.497C955.447,780.784,955.186,780.818,954.929,780.818z
				 M974.015,776.12c-1.354,0-2.574-0.939-2.877-2.316c-0.35-1.591,0.656-3.164,2.246-3.513c1.933-0.425,3.87-0.838,5.809-1.234
				c1.599-0.33,3.155,0.701,3.481,2.296c0.327,1.596-0.701,3.154-2.296,3.481c-1.912,0.392-3.82,0.798-5.727,1.217
				C974.439,776.097,974.226,776.12,974.015,776.12z M1172.23,772.806c-0.136,0-0.275-0.01-0.414-0.029l-2.681-0.374
				c-1.614-0.223-2.74-1.711-2.518-3.324s1.715-2.742,3.324-2.518l2.694,0.376c1.613,0.227,2.737,1.717,2.51,3.33
				C1174.94,771.74,1173.677,772.806,1172.23,772.806z M993.305,772.352c-1.41,0-2.657-1.015-2.903-2.451
				c-0.274-1.606,0.804-3.129,2.409-3.404c1.951-0.333,3.904-0.655,5.859-0.962c1.613-0.248,3.119,0.848,3.371,2.455
				c0.252,1.609-0.847,3.118-2.455,3.371c-1.93,0.303-3.857,0.619-5.781,0.948C993.638,772.338,993.47,772.352,993.305,772.352z
				 M1155.896,770.662c-0.118,0-0.237-0.007-0.357-0.021c-1.944-0.234-3.889-0.462-5.836-0.682
				c-1.618-0.183-2.782-1.643-2.599-3.262c0.184-1.617,1.656-2.77,3.262-2.599c1.961,0.222,3.921,0.451,5.88,0.687
				c1.616,0.195,2.769,1.664,2.574,3.281C1158.639,769.563,1157.366,770.662,1155.896,770.662z M1012.749,769.471
				c-1.464,0-2.734-1.089-2.922-2.58c-0.204-1.615,0.942-3.091,2.557-3.294c1.962-0.248,3.927-0.482,5.895-0.704
				c1.6-0.177,3.077,0.982,3.26,2.601c0.181,1.618-0.983,3.077-2.601,3.26c-1.941,0.218-3.879,0.45-5.816,0.694
				C1012.997,769.463,1012.872,769.471,1012.749,769.471z M1136.349,768.56c-0.093,0-0.186-0.004-0.28-0.013
				c-1.949-0.183-3.898-0.359-5.849-0.526c-1.623-0.139-2.826-1.568-2.687-3.19c0.139-1.624,1.568-2.811,3.19-2.687
				c1.968,0.169,3.935,0.347,5.898,0.532c1.621,0.153,2.813,1.591,2.659,3.212C1139.138,767.415,1137.853,768.56,1136.349,768.56z
				 M1032.299,767.427c-1.517,0-2.807-1.163-2.935-2.702c-0.136-1.623,1.069-3.05,2.692-3.185c1.971-0.165,3.942-0.319,5.916-0.46
				c1.614-0.132,3.035,1.107,3.151,2.731c0.116,1.624-1.107,3.035-2.731,3.151c-1.949,0.139-3.897,0.291-5.843,0.454
				C1032.464,767.424,1032.382,767.427,1032.299,767.427z M1116.753,766.992c-0.065,0-0.13-0.002-0.196-0.007
				c-1.953-0.128-3.907-0.247-5.861-0.358c-1.626-0.092-2.869-1.485-2.777-3.111c0.092-1.627,1.5-2.851,3.111-2.777
				c1.972,0.111,3.942,0.232,5.913,0.362c1.625,0.107,2.856,1.51,2.749,3.135C1119.591,765.795,1118.294,766.992,1116.753,766.992z
				 M1051.915,766.172c-1.569,0-2.874-1.235-2.944-2.817c-0.072-1.627,1.188-3.005,2.814-3.078c1.974-0.087,3.949-0.165,5.923-0.231
				c1.661-0.069,2.992,1.22,3.047,2.848c0.055,1.627-1.22,2.991-2.848,3.046c-1.954,0.066-3.907,0.142-5.859,0.229
				C1052.003,766.171,1051.959,766.172,1051.915,766.172z M1097.12,766.002c-0.035,0-0.069-0.001-0.104-0.002
				c-1.956-0.068-3.912-0.127-5.868-0.177c-1.628-0.041-2.914-1.395-2.873-3.023c0.04-1.627,1.319-2.909,3.023-2.873
				c1.975,0.05,3.948,0.11,5.922,0.179c1.628,0.057,2.902,1.422,2.845,3.049C1100.01,764.748,1098.701,766.002,1097.12,766.002z
				 M1071.564,765.654c-1.616,0-2.934-1.304-2.948-2.924c-0.013-1.629,1.296-2.96,2.924-2.974c1.606-0.013,3.211-0.02,4.818-0.02
				l1.112,0.001c1.629,0.004,2.945,1.328,2.941,2.956c-0.004,1.626-1.324,2.941-2.949,2.941c-0.003,0-0.005,0-0.008,0l-1.097-0.001
				c-1.59,0-3.179,0.007-4.768,0.02C1071.582,765.654,1071.573,765.654,1071.564,765.654z"/>
		</g>
		<g>
			<path style="fill:#BDD0FB;" d="M832.041,1146.673c-0.961,0-1.903-0.469-2.469-1.331c-1.097-1.673-2.167-3.412-3.179-5.171
				c-0.813-1.411-0.327-3.215,1.084-4.027c1.411-0.813,3.215-0.327,4.027,1.084c0.956,1.66,1.965,3.301,3.001,4.879
				c0.893,1.362,0.514,3.19-0.848,4.083C833.157,1146.517,832.595,1146.673,832.041,1146.673z M822.924,1129.289
				c-1.164,0-2.267-0.694-2.733-1.84c-0.754-1.853-1.467-3.764-2.122-5.68c-0.527-1.541,0.296-3.218,1.836-3.745
				c1.542-0.526,3.217,0.297,3.745,1.836c0.619,1.811,1.294,3.618,2.005,5.369c0.613,1.508-0.113,3.228-1.622,3.841
				C823.67,1129.219,823.294,1129.289,822.924,1129.289z M817.256,1110.493c-1.372,0-2.6-0.963-2.886-2.359
				c-0.398-1.951-0.755-3.956-1.057-5.956c-0.243-1.611,0.866-3.113,2.476-3.357c1.615-0.234,3.114,0.865,3.357,2.475
				c0.287,1.902,0.624,3.804,1.003,5.657c0.326,1.595-0.703,3.153-2.299,3.48C817.651,1110.473,817.452,1110.493,817.256,1110.493z
				 M1568.52,1100.74c-0.012,0-0.022,0-0.033,0c-1.981-0.021-3.964-0.059-5.945-0.111c-1.628-0.044-2.911-1.4-2.868-3.028
				c0.044-1.627,1.369-2.912,3.027-2.868c1.949,0.053,3.899,0.088,5.849,0.109c1.629,0.017,2.934,1.352,2.917,2.98
				C1571.451,1099.441,1570.134,1100.74,1568.52,1100.74z M1582.277,1100.607c-1.588,0-2.898-1.263-2.946-2.86
				c-0.048-1.628,1.232-2.987,2.86-3.036c1.949-0.058,3.896-0.132,5.844-0.224c1.655-0.048,3.007,1.182,3.084,2.808
				c0.076,1.627-1.181,3.007-2.808,3.084c-1.981,0.092-3.963,0.168-5.946,0.228
				C1582.337,1100.607,1582.307,1100.607,1582.277,1100.607z M1548.88,1099.993c-0.065,0-0.13-0.002-0.196-0.007
				c-1.978-0.13-3.956-0.276-5.93-0.438c-1.623-0.134-2.831-1.558-2.697-3.181c0.134-1.623,1.543-2.833,3.181-2.697
				c1.942,0.16,3.887,0.304,5.832,0.432c1.625,0.107,2.856,1.51,2.749,3.135C1551.717,1098.796,1550.42,1099.993,1548.88,1099.993z
				 M1601.902,1099.451c-1.512,0-2.798-1.155-2.934-2.689c-0.144-1.622,1.055-3.053,2.677-3.197c1.942-0.172,3.882-0.363,5.819-0.57
				c1.608-0.168,3.073,0.998,3.246,2.619c0.173,1.619-0.999,3.073-2.619,3.245c-1.973,0.212-3.948,0.405-5.926,0.581
				C1602.077,1099.448,1601.989,1099.451,1601.902,1099.451z M1529.308,1098.171c-0.118,0-0.237-0.007-0.356-0.021
				c-1.969-0.237-3.935-0.49-5.896-0.759c-1.613-0.222-2.742-1.709-2.521-3.322c0.222-1.615,1.715-2.734,3.321-2.522
				c1.93,0.265,3.864,0.515,5.8,0.748c1.617,0.195,2.77,1.663,2.575,3.28C1532.052,1097.072,1530.779,1098.171,1529.308,1098.171z
				 M1621.423,1097.114c-1.433,0-2.691-1.046-2.911-2.507c-0.244-1.611,0.864-3.114,2.474-3.357
				c1.927-0.292,3.851-0.602,5.768-0.932c1.615-0.272,3.129,0.802,3.407,2.406c0.275,1.605-0.802,3.13-2.406,3.407
				c-1.957,0.336-3.919,0.652-5.885,0.949C1621.718,1097.103,1621.57,1097.114,1621.423,1097.114z M1509.865,1095.302
				c-0.168,0-0.337-0.014-0.508-0.044c-1.949-0.339-3.895-0.688-5.839-1.051c-1.6-0.3-2.655-1.84-2.356-3.441
				c0.3-1.599,1.84-2.644,3.441-2.357c1.917,0.359,3.838,0.705,5.762,1.038c1.605,0.278,2.68,1.805,2.402,3.41
				C1512.518,1094.29,1511.272,1095.302,1509.865,1095.302z M1640.758,1093.541c-1.354,0-2.574-0.94-2.877-2.317
				c-0.349-1.591,0.657-3.164,2.247-3.513c1.905-0.418,3.803-0.855,5.695-1.31c1.586-0.379,3.176,0.594,3.557,2.177
				c0.381,1.584-0.594,3.176-2.177,3.557c-1.93,0.465-3.867,0.91-5.81,1.336C1641.18,1093.518,1640.967,1093.541,1640.758,1093.541z
				 M1490.579,1091.528c-0.208,0-0.421-0.023-0.633-0.069c-1.93-0.422-3.859-0.854-5.784-1.299c-1.587-0.366-2.576-1.949-2.21-3.536
				c0.366-1.586,1.95-2.58,3.536-2.21c1.903,0.439,3.808,0.866,5.717,1.283c1.591,0.348,2.598,1.919,2.251,3.51
				C1493.155,1090.587,1491.935,1091.528,1490.579,1091.528z M814.979,1090.992c-1.583,0-2.892-1.256-2.945-2.851
				c-0.047-1.414-0.071-2.831-0.071-4.248c0-0.595,0.004-1.19,0.013-1.787c0.025-1.628,1.385-2.867,2.993-2.906
				c1.628,0.025,2.929,1.364,2.905,2.993c-0.009,0.567-0.013,1.134-0.013,1.7c0,1.352,0.022,2.704,0.067,4.053
				c0.055,1.627-1.221,2.991-2.849,3.045C815.047,1090.992,815.013,1090.992,814.979,1090.992z M1659.81,1088.668
				c-1.276,0-2.451-0.833-2.829-2.118c-0.459-1.563,0.436-3.201,1.999-3.66c1.868-0.549,3.729-1.117,5.582-1.707
				c1.544-0.498,3.21,0.363,3.703,1.916c0.494,1.551-0.364,3.21-1.916,3.703c-1.894,0.603-3.796,1.185-5.707,1.746
				C1660.365,1088.629,1660.084,1088.668,1659.81,1088.668z M1471.465,1086.957c-0.246,0-0.495-0.031-0.744-0.096
				c-1.913-0.497-3.823-1.005-5.731-1.523c-1.571-0.426-2.499-2.047-2.071-3.619c0.427-1.571,2.049-2.502,3.619-2.071
				c1.886,0.513,3.775,1.015,5.667,1.506c1.576,0.409,2.522,2.02,2.112,3.596
				C1473.973,1086.077,1472.776,1086.957,1471.465,1086.957z M1678.457,1082.432c-1.192,0-2.314-0.728-2.76-1.909
				c-0.575-1.523,0.194-3.224,1.718-3.799c1.82-0.687,3.631-1.394,5.434-2.121c1.51-0.616,3.227,0.118,3.838,1.63
				c0.61,1.51-0.119,3.228-1.63,3.838c-1.843,0.745-3.697,1.469-5.561,2.171C1679.153,1082.37,1678.802,1082.432,1678.457,1082.432z
				 M1452.532,1081.668c-0.279,0-0.563-0.04-0.845-0.124c-1.893-0.565-3.783-1.14-5.67-1.724c-1.556-0.481-2.428-2.132-1.947-3.688
				c0.481-1.557,2.135-2.428,3.688-1.947c1.87,0.578,3.743,1.147,5.616,1.708c1.561,0.466,2.448,2.108,1.982,3.669
				C1454.975,1080.841,1453.802,1081.668,1452.532,1081.668z M1433.788,1075.742c-0.309,0-0.623-0.049-0.933-0.153
				c-1.873-0.625-3.745-1.257-5.613-1.899c-1.541-0.529-2.36-2.206-1.832-3.746c0.529-1.542,2.206-2.36,3.747-1.832
				c1.853,0.635,3.707,1.264,5.564,1.883c1.544,0.516,2.38,2.185,1.864,3.73C1436.173,1074.961,1435.022,1075.742,1433.788,1075.742
				z M1696.564,1074.774c-1.106,0-2.167-0.626-2.669-1.692c-0.694-1.474-0.063-3.23,1.41-3.925c1.758-0.828,3.504-1.679,5.238-2.55
				c1.458-0.728,3.228-0.144,3.959,1.311c0.731,1.455,0.144,3.228-1.311,3.958c-1.779,0.894-3.569,1.765-5.371,2.615
				C1697.414,1074.683,1696.985,1074.774,1696.564,1074.774z M815.852,1071.375c-0.117,0-0.235-0.007-0.354-0.021
				c-1.617-0.194-2.771-1.661-2.577-3.278c0.237-1.982,0.522-3.989,0.848-5.965c0.264-1.607,1.782-2.701,3.388-2.43
				c1.607,0.264,2.695,1.782,2.43,3.388c-0.312,1.9-0.583,3.803-0.811,5.708C818.596,1070.274,817.323,1071.375,815.852,1071.375z
				 M1415.226,1069.257c-0.336,0-0.677-0.058-1.011-0.18c-1.854-0.677-3.705-1.36-5.556-2.051c-1.525-0.57-2.3-2.268-1.731-3.795
				c0.57-1.526,2.269-2.296,3.794-1.731c1.836,0.685,3.673,1.365,5.514,2.036c1.53,0.559,2.317,2.251,1.759,3.781
				C1417.56,1068.514,1416.43,1069.257,1415.226,1069.257z M1713.972,1065.651c-1.016,0-2.006-0.527-2.553-1.47
				c-0.818-1.408-0.339-3.213,1.07-4.031c1.677-0.973,3.341-1.969,4.991-2.987c1.388-0.855,3.204-0.422,4.058,0.962
				c0.854,1.386,0.424,3.203-0.962,4.058c-1.696,1.045-3.405,2.068-5.128,3.068
				C1714.984,1065.522,1714.474,1065.651,1713.972,1065.651z M1396.839,1062.293c-0.358,0-0.723-0.066-1.077-0.204
				c-1.836-0.722-3.671-1.448-5.502-2.179c-1.513-0.604-2.249-2.32-1.645-3.832c0.604-1.513,2.32-2.248,3.832-1.645
				c1.822,0.728,3.645,1.449,5.471,2.166c1.516,0.595,2.263,2.307,1.667,3.823
				C1399.128,1061.583,1398.016,1062.293,1396.839,1062.293z M1730.504,1055.036c-0.924,0-1.834-0.433-2.409-1.245
				c-0.942-1.329-0.627-3.169,0.702-4.11c1.58-1.119,3.145-2.26,4.695-3.423c1.302-0.976,3.151-0.713,4.129,0.588
				c0.977,1.302,0.714,3.15-0.589,4.129c-1.592,1.196-3.201,2.369-4.826,3.519
				C1731.688,1054.86,1731.092,1055.036,1730.504,1055.036z M1378.607,1054.927c-0.377,0-0.76-0.073-1.131-0.227
				c-1.821-0.756-3.639-1.518-5.456-2.284c-1.501-0.633-2.205-2.362-1.572-3.863c0.633-1.5,2.366-2.203,3.863-1.572
				c1.808,0.762,3.618,1.52,5.429,2.272c1.503,0.625,2.216,2.351,1.592,3.855C1380.86,1054.242,1379.763,1054.927,1378.607,1054.927
				z M819.572,1052.093c-0.251,0-0.507-0.033-0.762-0.101c-1.573-0.42-2.508-2.035-2.089-3.609c0.516-1.934,1.072-3.862,1.666-5.778
				c0.482-1.555,2.137-2.423,3.69-1.943c1.555,0.482,2.426,2.135,1.943,3.69c-0.571,1.841-1.105,3.692-1.601,5.551
				C822.068,1051.223,820.876,1052.093,819.572,1052.093z M1360.513,1047.232c-0.394,0-0.793-0.08-1.177-0.247l-5.413-2.366
				c-1.492-0.656-2.169-2.395-1.515-3.886c0.655-1.493,2.39-2.17,3.886-1.515l5.397,2.36c1.493,0.65,2.176,2.387,1.525,3.881
				C1362.734,1046.57,1361.651,1047.232,1360.513,1047.232z M1745.979,1042.946c-0.828,0-1.653-0.348-2.237-1.025
				c-1.062-1.235-0.922-3.097,0.312-4.159c1.463-1.258,2.91-2.54,4.339-3.844c1.203-1.099,3.068-1.013,4.166,0.188
				c1.098,1.203,1.014,3.068-0.188,4.166c-1.473,1.345-2.963,2.665-4.469,3.962
				C1747.345,1042.712,1746.661,1042.946,1745.979,1042.946z M1342.531,1039.278c-0.404,0-0.815-0.083-1.208-0.26l-5.383-2.43
				c-1.484-0.671-2.141-2.419-1.469-3.902c0.671-1.485,2.42-2.142,3.902-1.471l5.37,2.424c1.485,0.668,2.148,2.414,1.48,3.899
				C1344.731,1038.63,1343.656,1039.278,1342.531,1039.278z M825.894,1033.496c-0.377,0-0.761-0.073-1.132-0.226
				c-1.503-0.626-2.215-2.352-1.59-3.856c0.769-1.85,1.576-3.686,2.42-5.506c0.685-1.479,2.439-2.118,3.915-1.435
				c1.477,0.685,2.12,2.438,1.435,3.915c-0.811,1.749-1.586,3.512-2.325,5.291C828.146,1032.813,827.05,1033.496,825.894,1033.496z
				 M1324.637,1031.135c-0.413,0-0.831-0.087-1.231-0.271l-5.361-2.472c-1.478-0.684-2.122-2.435-1.44-3.915
				c0.683-1.476,2.434-2.121,3.914-1.44l5.351,2.468c1.479,0.681,2.127,2.431,1.447,3.912
				C1326.821,1030.497,1325.754,1031.135,1324.637,1031.135z M1760.211,1029.42c-0.727,0-1.454-0.267-2.023-0.804
				c-1.184-1.117-1.239-2.983-0.121-4.168c1.324-1.403,2.623-2.831,3.894-4.282c1.072-1.225,2.937-1.347,4.161-0.273
				c1.225,1.073,1.347,2.936,0.274,4.161c-1.32,1.505-2.667,2.986-4.04,4.441C1761.775,1029.109,1760.994,1029.42,1760.211,1029.42z
				 M1306.8,1022.871c-0.418,0-0.842-0.089-1.245-0.277l-5.345-2.494c-1.475-0.689-2.113-2.444-1.424-3.919
				c0.69-1.475,2.447-2.115,3.919-1.425l5.344,2.494c1.475,0.689,2.114,2.443,1.426,3.919
				C1308.974,1022.24,1307.91,1022.871,1306.8,1022.871z M834.618,1015.895c-0.503,0-1.012-0.13-1.478-0.399
				c-1.408-0.818-1.887-2.622-1.069-4.032c1.008-1.734,2.049-3.449,3.125-5.141c0.872-1.375,2.694-1.781,4.071-0.907
				c1.374,0.873,1.781,2.696,0.907,4.071c-1.033,1.625-2.034,3.272-3.002,4.94C836.623,1015.368,835.634,1015.895,834.618,1015.895z
				 M1288.991,1014.549c-0.419,0-0.844-0.09-1.248-0.279l-5.338-2.496c-1.475-0.689-2.113-2.444-1.423-3.919
				c0.688-1.476,2.444-2.116,3.919-1.423l5.342,2.498c1.475,0.69,2.112,2.445,1.421,3.92
				C1291.162,1013.92,1290.099,1014.549,1288.991,1014.549z M1772.807,1014.348c-0.61,0-1.226-0.188-1.754-0.58
				c-1.308-0.969-1.583-2.816-0.613-4.125c1.149-1.551,2.271-3.123,3.368-4.715c0.925-1.341,2.762-1.678,4.102-0.755
				c1.341,0.924,1.679,2.761,0.755,4.102c-1.135,1.648-2.298,3.275-3.487,4.88C1774.6,1013.935,1773.71,1014.348,1772.807,1014.348z
				 M1271.181,1006.239c-0.416,0-0.839-0.088-1.241-0.276l-5.347-2.479c-1.478-0.683-2.122-2.435-1.439-3.913
				c0.683-1.477,2.436-2.121,3.914-1.439l5.358,2.483c1.476,0.686,2.118,2.44,1.431,3.917
				C1273.358,1005.607,1272.292,1006.239,1271.181,1006.239z M845.6,999.603c-0.633,0-1.269-0.203-1.807-0.62
				c-1.286-0.999-1.518-2.852-0.519-4.138c1.233-1.587,2.498-3.146,3.794-4.677c1.053-1.245,2.911-1.397,4.156-0.346
				c1.243,1.052,1.398,2.912,0.346,4.156c-1.242,1.468-2.456,2.963-3.638,4.485C847.349,999.212,846.479,999.603,845.6,999.603z
				 M1253.321,998.013c-0.41,0-0.825-0.086-1.223-0.268c-1.786-0.815-3.574-1.628-5.364-2.437c-1.484-0.671-2.142-2.418-1.471-3.902
				c0.67-1.483,2.416-2.143,3.902-1.471c1.796,0.812,3.591,1.628,5.383,2.446c1.481,0.677,2.134,2.426,1.458,3.908
				C1255.511,997.372,1254.44,998.013,1253.321,998.013z M1783.588,997.924c-0.502,0-1.01-0.128-1.475-0.397
				c-1.409-0.816-1.89-2.62-1.073-4.03c0.969-1.672,1.911-3.362,2.827-5.066c0.77-1.434,2.553-1.976,3.993-1.202
				c1.434,0.771,1.973,2.558,1.202,3.993c-0.945,1.759-1.918,3.504-2.919,5.231C1785.596,997.397,1784.605,997.924,1783.588,997.924
				z M1235.386,989.942c-0.399,0-0.804-0.082-1.193-0.254c-1.794-0.795-3.59-1.587-5.387-2.376c-1.492-0.654-2.17-2.393-1.516-3.885
				c0.654-1.491,2.396-2.17,3.885-1.516c1.805,0.791,3.607,1.587,5.408,2.385c1.489,0.659,2.161,2.402,1.5,3.891
				C1237.596,989.287,1236.517,989.942,1235.386,989.942z M858.718,984.979c-0.772,0-1.543-0.301-2.121-0.9
				c-1.131-1.172-1.098-3.039,0.073-4.17c0.681-0.658,1.369-1.307,2.062-1.951c0.78-0.722,1.567-1.435,2.357-2.14
				c1.216-1.086,3.078-0.977,4.163,0.239c1.084,1.216,0.977,3.08-0.239,4.163c-0.762,0.68-1.521,1.368-2.273,2.065
				c-0.663,0.614-1.322,1.237-1.973,1.866C860.193,984.705,859.455,984.979,858.718,984.979z M1217.36,982.096
				c-0.387,0-0.78-0.077-1.157-0.238c-1.803-0.77-3.608-1.534-5.416-2.294c-1.501-0.632-2.207-2.36-1.575-3.862
				c0.632-1.501,2.36-2.203,3.862-1.575c1.817,0.764,3.632,1.534,5.445,2.308c1.498,0.639,2.193,2.372,1.554,3.869
				C1219.594,981.424,1218.505,982.096,1217.36,982.096z M1792.508,980.419c-0.399,0-0.805-0.082-1.194-0.254
				c-1.489-0.661-2.16-2.404-1.499-3.891c0.785-1.769,1.543-3.551,2.273-5.343c0.614-1.508,2.335-2.235,3.843-1.619
				c1.508,0.613,2.234,2.333,1.619,3.842c-0.753,1.85-1.534,3.687-2.344,5.512C1794.717,979.765,1793.639,980.419,1792.508,980.419z
				 M1199.212,974.539c-0.37,0-0.746-0.07-1.11-0.218c-1.814-0.737-3.632-1.469-5.451-2.193c-1.513-0.603-2.251-2.318-1.648-3.831
				c0.603-1.512,2.315-2.25,3.831-1.648c1.832,0.731,3.662,1.466,5.49,2.209c1.508,0.613,2.235,2.333,1.621,3.842
				C1201.479,973.846,1200.376,974.539,1199.212,974.539z M873.696,972.252c-0.895,0-1.779-0.406-2.358-1.176
				c-0.979-1.302-0.718-3.15,0.584-4.129c1.601-1.204,3.221-2.379,4.858-3.524c1.338-0.933,3.175-0.607,4.107,0.728
				c0.933,1.335,0.607,3.173-0.728,4.106c-1.582,1.105-3.146,2.24-4.691,3.403C874.936,972.059,874.313,972.252,873.696,972.252z
				 M1180.922,967.339c-0.349,0-0.704-0.062-1.05-0.195c-1.829-0.698-3.661-1.388-5.495-2.072c-1.526-0.568-2.302-2.266-1.733-3.792
				c0.568-1.526,2.267-2.3,3.793-1.733c1.848,0.688,3.695,1.384,5.538,2.088c1.521,0.581,2.284,2.285,1.704,3.806
				C1183.23,966.617,1182.11,967.339,1180.922,967.339z M1799.535,962.066c-0.301,0-0.609-0.047-0.911-0.145
				c-1.549-0.502-2.398-2.165-1.895-3.715c0.597-1.841,1.164-3.692,1.703-5.55c0.453-1.564,2.086-2.459,3.653-2.012
				c1.565,0.454,2.465,2.089,2.012,3.653c-0.556,1.918-1.142,3.828-1.759,5.729C1801.934,961.273,1800.778,962.066,1799.535,962.066
				z M890.046,961.352c-1.011,0-1.994-0.519-2.544-1.452c-0.826-1.403-0.359-3.211,1.044-4.037c1.72-1.014,3.458-2,5.208-2.957
				c1.43-0.781,3.221-0.257,4.002,1.172c0.781,1.429,0.256,3.221-1.172,4.002c-1.697,0.928-3.379,1.883-5.045,2.864
				C891.07,961.221,890.555,961.352,890.046,961.352z M1162.474,960.566c-0.324,0-0.656-0.055-0.979-0.168
				c-1.847-0.651-3.696-1.294-5.545-1.928c-1.541-0.529-2.36-2.206-1.833-3.746c0.529-1.54,2.203-2.359,3.747-1.832
				c1.865,0.64,3.727,1.289,5.589,1.944c1.536,0.541,2.343,2.225,1.803,3.761C1164.829,959.808,1163.69,960.566,1162.474,960.566z
				 M1143.846,954.298c-0.299,0-0.602-0.046-0.901-0.142c-1.862-0.596-3.726-1.184-5.593-1.761c-1.555-0.482-2.426-2.134-1.945-3.69
				c0.482-1.556,2.131-2.422,3.69-1.945c1.884,0.584,3.768,1.178,5.649,1.781c1.55,0.496,2.404,2.157,1.907,3.708
				C1146.253,953.5,1145.093,954.298,1143.846,954.298z M907.471,952.286c-1.119,0-2.188-0.64-2.684-1.724
				c-0.677-1.481-0.025-3.231,1.456-3.908c1.812-0.828,3.638-1.63,5.478-2.404c1.496-0.633,3.23,0.07,3.862,1.573
				c0.633,1.5-0.072,3.23-1.573,3.862c-1.784,0.752-3.556,1.53-5.315,2.333C908.297,952.2,907.881,952.286,907.471,952.286z
				 M1125.037,948.61c-0.268,0-0.539-0.036-0.808-0.113c-1.879-0.535-3.763-1.059-5.647-1.572c-1.571-0.428-2.498-2.049-2.069-3.621
				c0.427-1.572,2.049-2.498,3.621-2.07c1.905,0.519,3.809,1.049,5.708,1.59c1.567,0.445,2.476,2.077,2.03,3.643
				C1127.503,947.763,1126.322,948.61,1125.037,948.61z M925.709,944.996c-1.221,0-2.363-0.765-2.786-1.984
				c-0.534-1.538,0.281-3.219,1.819-3.751c1.88-0.653,3.771-1.279,5.671-1.88c1.553-0.491,3.21,0.37,3.701,1.922
				c0.492,1.553-0.37,3.21-1.922,3.701c-1.85,0.585-3.689,1.195-5.518,1.829C926.355,944.943,926.029,944.996,925.709,944.996z
				 M1106.04,943.584c-0.232,0-0.467-0.028-0.703-0.085c-1.898-0.464-3.797-0.916-5.7-1.356c-1.587-0.368-2.575-1.952-2.208-3.538
				c0.367-1.588,1.952-2.573,3.538-2.208c1.926,0.446,3.848,0.904,5.769,1.374c1.582,0.386,2.551,1.982,2.165,3.564
				C1108.572,942.681,1107.366,943.584,1106.04,943.584z M1804.615,943.079c-0.203,0-0.409-0.021-0.615-0.065
				c-1.593-0.338-2.61-1.904-2.272-3.497c0.402-1.896,0.775-3.796,1.118-5.701c0.289-1.603,1.815-2.665,3.425-2.379
				c1.602,0.288,2.667,1.822,2.379,3.425c-0.353,1.964-0.737,3.924-1.153,5.879C1807.202,942.129,1805.978,943.079,1804.615,943.079
				z M944.531,939.381c-1.319,0-2.52-0.891-2.857-2.228c-0.399-1.578,0.558-3.182,2.137-3.58c1.927-0.488,3.861-0.95,5.801-1.391
				c1.588-0.368,3.168,0.635,3.529,2.223c0.36,1.589-0.635,3.169-2.223,3.529c-1.894,0.429-3.782,0.882-5.661,1.356
				C945.013,939.351,944.77,939.381,944.531,939.381z M1086.859,939.308c-0.193,0-0.388-0.019-0.585-0.059
				c-1.915-0.386-3.831-0.758-5.75-1.118c-1.6-0.299-2.655-1.84-2.355-3.441c0.299-1.6,1.849-2.65,3.441-2.355
				c1.944,0.364,3.887,0.742,5.827,1.132c1.596,0.322,2.63,1.877,2.309,3.473C1089.465,938.34,1088.235,939.308,1086.859,939.308z
				 M1067.51,935.86c-0.15,0-0.301-0.011-0.454-0.035c-1.929-0.298-3.86-0.584-5.794-0.854c-1.613-0.226-2.738-1.716-2.511-3.329
				c0.226-1.613,1.721-2.743,3.329-2.511c1.961,0.275,3.92,0.563,5.876,0.866c1.61,0.249,2.713,1.756,2.464,3.364
				C1070.195,934.818,1068.939,935.86,1067.51,935.86z M963.756,935.328c-1.411,0-2.658-1.016-2.903-2.453
				c-0.274-1.606,0.805-3.129,2.411-3.403c1.957-0.334,3.919-0.647,5.885-0.938c1.602-0.24,3.11,0.873,3.349,2.485
				c0.238,1.611-0.875,3.11-2.485,3.349c-1.924,0.285-3.843,0.59-5.758,0.917C964.088,935.313,963.921,935.328,963.756,935.328z
				 M1048.016,933.326c-0.104,0-0.207-0.005-0.312-0.016c-1.94-0.203-3.883-0.393-5.827-0.565c-1.622-0.145-2.819-1.577-2.675-3.199
				c0.144-1.622,1.564-2.821,3.199-2.675c1.975,0.177,3.949,0.368,5.92,0.575c1.619,0.17,2.794,1.621,2.624,3.241
				C1050.786,932.201,1049.506,933.326,1048.016,933.326z M983.236,932.731c-1.499,0-2.783-1.139-2.932-2.664
				c-0.157-1.621,1.029-3.063,2.65-3.22c1.976-0.192,3.955-0.363,5.935-0.515c1.618-0.124,3.041,1.09,3.166,2.715
				c0.125,1.623-1.09,3.041-2.714,3.166c-1.941,0.149-3.88,0.318-5.817,0.506C983.428,932.727,983.332,932.731,983.236,932.731z
				 M1028.413,931.784c-0.052,0-0.104-0.001-0.156-0.004c-1.943-0.101-3.889-0.184-5.838-0.25c-1.628-0.055-2.903-1.419-2.848-3.046
				c0.055-1.629,1.418-2.891,3.046-2.848c1.986,0.066,3.968,0.152,5.945,0.254c1.627,0.084,2.877,1.471,2.792,3.098
				C1031.274,930.562,1029.971,931.784,1028.413,931.784z M1002.859,931.492c-1.588,0-2.898-1.263-2.946-2.862
				c-0.048-1.627,1.232-2.986,2.86-3.035c1.985-0.059,3.971-0.099,5.955-0.12c1.617,0.01,2.963,1.289,2.98,2.917
				c0.017,1.628-1.288,2.963-2.917,2.98c-1.948,0.021-3.895,0.06-5.844,0.118C1002.919,931.492,1002.889,931.492,1002.859,931.492z
				 M1807.681,923.662c-0.103,0-0.205-0.005-0.308-0.015c-1.62-0.169-2.797-1.618-2.629-3.238c0.201-1.927,0.369-3.856,0.506-5.783
				c0.115-1.624,1.51-2.863,3.15-2.732c1.624,0.115,2.847,1.525,2.732,3.15c-0.141,1.991-0.315,3.983-0.521,5.973
				C1810.453,922.534,1809.173,923.662,1807.681,923.662z M1808.63,904.031c-1.618,0-2.936-1.306-2.948-2.927
				c-0.014-1.937-0.061-3.869-0.14-5.799c-0.067-1.627,1.198-3.001,2.825-3.067c1.665-0.071,3.001,1.198,3.067,2.825
				c0.083,1.995,0.131,3.994,0.146,5.997c0.012,1.628-1.299,2.958-2.928,2.97C1808.645,904.031,1808.637,904.031,1808.63,904.031z
				 M1807.348,884.422c-1.465,0-2.736-1.09-2.922-2.582c-0.24-1.919-0.515-3.83-0.824-5.734c-0.261-1.607,0.83-3.122,2.438-3.383
				c1.603-0.252,3.122,0.83,3.383,2.438c0.321,1.974,0.606,3.956,0.854,5.945c0.203,1.617-0.944,3.09-2.559,3.293
				C1807.594,884.414,1807.47,884.422,1807.348,884.422z M1803.7,865.117c-1.315,0-2.513-0.886-2.855-2.218
				c-0.479-1.869-0.994-3.726-1.545-5.57c-0.467-1.56,0.419-3.203,1.98-3.67c1.556-0.472,3.203,0.419,3.67,1.98
				c0.574,1.919,1.111,3.851,1.609,5.797c0.404,1.577-0.547,3.184-2.125,3.588C1804.188,865.086,1803.942,865.117,1803.7,865.117z
				 M1797.553,846.46c-1.162,0-2.263-0.692-2.731-1.834c-0.728-1.782-1.494-3.547-2.296-5.296c-0.68-1.48-0.03-3.23,1.45-3.91
				c1.477-0.681,3.231-0.03,3.91,1.45c0.837,1.824,1.636,3.666,2.396,5.524c0.616,1.507-0.106,3.229-1.615,3.845
				C1798.303,846.389,1797.925,846.46,1797.553,846.46z M1788.824,828.869c-1.007,0-1.988-0.516-2.539-1.445
				c-0.973-1.641-2-3.286-3.051-4.888c-0.893-1.362-0.513-3.191,0.849-4.083c1.363-0.893,3.191-0.513,4.083,0.849
				c1.099,1.677,2.173,3.398,3.191,5.114c0.831,1.401,0.369,3.21-1.032,4.04C1789.853,828.737,1789.336,828.869,1788.824,828.869z
				 M1777.541,812.801c-0.85,0-1.692-0.365-2.276-1.071c-1.223-1.481-2.49-2.944-3.766-4.346c-1.095-1.206-1.007-3.071,0.198-4.166
				c1.208-1.095,3.073-1.005,4.166,0.198c1.338,1.473,2.667,3.006,3.95,4.56c1.037,1.255,0.859,3.114-0.396,4.151
				C1778.867,812.581,1778.201,812.801,1777.541,812.801z"/>
		</g>
		<g>
			<g>
				
					<linearGradient id="SVGID_00000165208245598167074550000018316366119422240129_" gradientUnits="userSpaceOnUse" x1="635.0664" y1="282.1713" x2="815.946" y2="726.1495">
					<stop  offset="0" style="stop-color:#E1473D"/>
					<stop  offset="1" style="stop-color:#E9605A"/>
				</linearGradient>
				<path style="fill:url(#SVGID_00000165208245598167074550000018316366119422240129_);" d="M937.445,456.784
					c-0.929-14.358-9.6-27.077-22.597-33.25l-168.387-79.973c-10.784-5.122-23.299-5.122-34.083,0l-168.387,79.973
					c-12.997,6.173-21.668,18.892-22.596,33.25c-15.795,244.147,140.749,333.104,192.066,355.575c10.177,4.457,21.74,4.457,31.917,0
					C796.696,789.888,953.24,700.931,937.445,456.784z"/>
				<path style="opacity:0.67;fill:#FFFFFF;" d="M678.487,378.473c-1.35,0-2.644-0.76-3.262-2.06
					c-0.855-1.801-0.089-3.953,1.711-4.807l39.787-18.897c1.802-0.856,3.953-0.089,4.807,1.711c0.855,1.801,0.089,3.953-1.711,4.807
					l-39.787,18.897C679.532,378.361,679.006,378.473,678.487,378.473z"/>
				<path style="opacity:0.67;fill:#FFFFFF;" d="M534.272,510.249c-1.937,0-3.538-1.536-3.604-3.487
					c-0.535-15.914-0.254-32.509,0.834-49.324c0.689-10.666,7.14-20.152,16.834-24.757l113.276-53.798
					c1.801-0.855,3.953-0.088,4.807,1.711c0.855,1.8,0.089,3.953-1.712,4.807L551.432,439.2c-7.331,3.482-12.21,10.649-12.73,18.704
					c-1.072,16.581-1.349,32.938-0.823,48.617c0.067,1.991-1.493,3.66-3.484,3.728C534.354,510.249,534.313,510.249,534.272,510.249
					z"/>
				
					<linearGradient id="SVGID_00000124864613552807267260000002164305737907329423_" gradientUnits="userSpaceOnUse" x1="652.5228" y1="404.3983" x2="916.709" y2="832.7005">
					<stop  offset="0" style="stop-color:#FE7062"/>
					<stop  offset="1" style="stop-color:#FF928E"/>
				</linearGradient>
				<path style="fill:url(#SVGID_00000124864613552807267260000002164305737907329423_);" d="M896.726,466.313
					c-0.186-3.64-2.353-6.889-5.645-8.452l-157.413-74.762c-2.688-1.276-5.807-1.276-8.495,0l-157.413,74.762
					c-3.292,1.564-5.459,4.813-5.645,8.452c-4.655,91.074,16.381,167.064,62.569,225.96c35.214,44.903,76.407,68.967,100.546,80.193
					c2.659,1.237,5.72,1.237,8.379,0c24.138-11.226,65.332-35.29,100.546-80.193C880.344,633.377,901.381,557.387,896.726,466.313z"
					/>
			</g>
			<g style="opacity:0.87;">
				<path style="fill:#FFFFFF;" d="M729.043,695.97c-19.159,0-32.424-14.368-32.424-33.528c0-19.896,13.632-33.528,33.16-33.528
					s32.422,13.632,32.792,33.528c0,19.16-12.897,33.528-32.792,33.528H729.043z M707.76,589.516l-5.675-116.855
					c-0.768-15.823,11.853-29.072,27.695-29.072l0,0c15.841,0,28.463,13.249,27.695,29.072L751.8,589.516
					c-0.571,11.746-10.26,20.977-22.02,20.977l0,0C718.02,610.492,708.33,601.262,707.76,589.516z"/>
			</g>
		</g>
		<g>
			<g>
				<g>
					<path style="fill:#91B3FA;" d="M1664.941,1299.41c-0.747,0-1.461-0.428-1.79-1.153c-1.091-2.4-2.147-4.821-3.166-7.261
						c-0.418-1.002,0.055-2.153,1.057-2.572c1.002-0.419,2.153,0.055,2.571,1.057c1.003,2.402,2.042,4.786,3.116,7.147
						c0.45,0.989,0.013,2.154-0.975,2.603C1665.49,1299.353,1665.214,1299.41,1664.941,1299.41z"/>
					<path style="fill:#91B3FA;" d="M1653.265,1268.384c-0.845,0-1.625-0.549-1.881-1.4c-1.505-4.993-2.87-10.097-4.057-15.169
						c-0.248-1.058,0.409-2.115,1.466-2.362c1.053-0.248,2.115,0.409,2.362,1.466c1.168,4.993,2.512,10.016,3.993,14.931
						c0.313,1.04-0.276,2.136-1.315,2.45C1653.644,1268.356,1653.453,1268.384,1653.265,1268.384z M1644.727,1228.429
						c-0.973,0-1.818-0.722-1.947-1.714c-0.611-4.72-1.096-9.529-1.442-14.295l-0.092-1.33c-0.074-1.083,0.745-2.021,1.828-2.094
						c1.1-0.076,2.021,0.746,2.094,1.829l0.092,1.312c0.34,4.691,0.817,9.426,1.419,14.073c0.139,1.077-0.62,2.063-1.697,2.202
						C1644.897,1228.425,1644.812,1228.429,1644.727,1228.429z M1642.777,1187.619c-0.022,0-0.044,0-0.066-0.001
						c-1.086-0.036-1.936-0.945-1.9-2.03c0.174-5.207,0.514-10.477,1.013-15.664c0.105-1.08,1.058-1.862,2.145-1.769
						c1.081,0.105,1.873,1.065,1.769,2.145c-0.491,5.106-0.826,10.294-0.997,15.419
						C1644.706,1186.781,1643.833,1187.619,1642.777,1187.619z M1647.489,1147.047c-0.128,0-0.258-0.013-0.389-0.038
						c-1.065-0.214-1.754-1.25-1.541-2.314c1.023-5.101,2.225-10.245,3.572-15.286c0.281-1.049,1.353-1.673,2.406-1.393
						c1.049,0.28,1.673,1.358,1.393,2.406c-1.326,4.964-2.509,10.025-3.516,15.046
						C1649.227,1146.402,1648.406,1147.047,1647.489,1147.047z M1658.807,1107.795c-0.232,0-0.468-0.042-0.699-0.13
						c-1.015-0.386-1.524-1.521-1.138-2.536c1.855-4.879,3.889-9.76,6.044-14.507c0.448-0.989,1.612-1.425,2.603-0.977
						c0.989,0.449,1.426,1.615,0.977,2.603c-2.122,4.672-4.124,9.475-5.95,14.278
						C1660.345,1107.312,1659.599,1107.795,1658.807,1107.795z M1676.423,1070.918c-0.336,0-0.677-0.086-0.989-0.268
						c-0.938-0.547-1.255-1.751-0.708-2.689c2.622-4.495,5.423-8.975,8.328-13.315c0.604-0.903,1.822-1.144,2.727-0.54
						c0.902,0.604,1.144,1.825,0.54,2.727c-2.86,4.273-5.618,8.683-8.199,13.109
						C1677.758,1070.568,1677.099,1070.918,1676.423,1070.918z M1699.816,1037.418c-0.442,0-0.886-0.148-1.253-0.451
						c-0.836-0.692-0.953-1.931-0.261-2.768c3.32-4.011,6.811-7.975,10.377-11.779c0.742-0.793,1.984-0.834,2.779-0.089
						c0.792,0.742,0.832,1.986,0.089,2.779c-3.51,3.745-6.948,7.646-10.216,11.596
						C1700.943,1037.175,1700.382,1037.418,1699.816,1037.418z M1728.336,1008.173c-0.549,0-1.095-0.229-1.484-0.675
						c-0.712-0.819-0.627-2.061,0.192-2.774c3.931-3.421,8.018-6.762,12.149-9.93c0.859-0.66,2.096-0.498,2.756,0.364
						c0.66,0.861,0.498,2.095-0.364,2.756c-4.067,3.119-8.09,6.407-11.959,9.777
						C1729.253,1008.014,1728.793,1008.173,1728.336,1008.173z M1761.226,983.967c-0.659,0-1.303-0.331-1.675-0.934
						c-0.57-0.924-0.282-2.136,0.641-2.705c4.427-2.729,9.004-5.355,13.602-7.806c0.956-0.51,2.15-0.149,2.659,0.81
						c0.511,0.958,0.149,2.148-0.81,2.659c-4.526,2.413-9.03,4.998-13.387,7.683
						C1761.935,983.873,1761.578,983.967,1761.226,983.967z M1797.629,965.48c-0.776,0-1.51-0.462-1.821-1.224
						c-0.411-1.006,0.072-2.153,1.077-2.563c4.823-1.968,9.773-3.808,14.715-5.469c1.033-0.347,2.145,0.209,2.49,1.236
						c0.347,1.03-0.207,2.144-1.237,2.49c-4.864,1.636-9.737,3.446-14.482,5.382C1798.127,965.433,1797.876,965.48,1797.629,965.48z
						 M1972.923,960.571c-0.212,0-0.428-0.036-0.641-0.109c-4.851-1.673-9.82-3.212-14.764-4.575
						c-1.047-0.288-1.662-1.371-1.373-2.417c0.289-1.045,1.373-1.664,2.417-1.373c5.024,1.384,10.071,2.948,15.002,4.648
						c1.026,0.354,1.571,1.473,1.217,2.5C1974.501,960.06,1973.739,960.571,1972.923,960.571z M1836.59,953.226
						c-0.899,0-1.71-0.619-1.916-1.533c-0.239-1.059,0.426-2.111,1.485-2.351c5.074-1.146,10.258-2.148,15.41-2.979
						c1.066-0.175,2.081,0.557,2.254,1.628c0.173,1.072-0.556,2.081-1.628,2.254c-5.071,0.818-10.175,1.804-15.17,2.932
						C1836.879,953.211,1836.733,953.226,1836.59,953.226z M1933.328,950.49c-0.107,0-0.218-0.009-0.327-0.027
						c-5.052-0.849-10.205-1.55-15.318-2.082c-1.08-0.112-1.864-1.079-1.752-2.159s1.076-1.859,2.159-1.752
						c5.194,0.54,10.429,1.253,15.562,2.115c1.071,0.18,1.793,1.194,1.614,2.264C1935.103,949.811,1934.271,950.49,1933.328,950.49z
						 M1877.033,947.504c-1.032,0-1.899-0.804-1.96-1.849c-0.065-1.084,0.761-2.015,1.845-2.079
						c5.028-0.3,10.127-0.452,15.156-0.452l0.547,0.001c1.086,0.006,1.961,0.891,1.955,1.976c-0.006,1.082-0.885,1.955-1.966,1.955
						c-0.004,0-0.007,0-0.011,0l-0.526-0.001c-4.951,0-9.971,0.15-14.922,0.444C1877.111,947.503,1877.072,947.504,1877.033,947.504
						z"/>
					<path style="fill:#91B3FA;" d="M2003.629,973.525c-0.297,0-0.599-0.067-0.882-0.21c-2.319-1.167-4.658-2.3-7.017-3.394
						c-0.985-0.458-1.413-1.627-0.956-2.611c0.458-0.986,1.626-1.411,2.611-0.956c2.397,1.113,4.775,2.263,7.13,3.45
						c0.969,0.488,1.36,1.67,0.872,2.64C2005.041,973.129,2004.349,973.525,2003.629,973.525z"/>
				</g>
				<g>
					<path style="fill:#91B3FA;" d="M2129.097,1120.035c-0.832,0-1.605-0.533-1.872-1.368c-0.795-2.48-1.627-4.943-2.497-7.388
						c-0.364-1.022,0.171-2.147,1.194-2.511c1.021-0.363,2.146,0.17,2.511,1.194c0.883,2.483,1.729,4.987,2.535,7.507
						c0.331,1.034-0.238,2.141-1.273,2.471C2129.498,1120.005,2129.295,1120.035,2129.097,1120.035z"/>
					<path style="fill:#91B3FA;" d="M1891.546,1445.402c-4.619,0-9.296-0.129-13.896-0.383c-1.084-0.061-1.914-0.988-1.854-2.072
						s1-1.923,2.071-1.854c4.529,0.25,9.132,0.377,13.683,0.377l1.523-0.004c0.004,0,0.008,0,0.012,0
						c1.081,0,1.96,0.872,1.966,1.954c0.006,1.087-0.869,1.972-1.954,1.977L1891.546,1445.402z M1917.951,1444.019
						c-0.995,0-1.847-0.751-1.953-1.76c-0.113-1.08,0.67-2.047,1.75-2.161c5.024-0.527,10.093-1.215,15.068-2.046
						c1.069-0.18,2.084,0.544,2.262,1.615c0.179,1.07-0.544,2.084-1.616,2.262c-5.053,0.844-10.203,1.543-15.304,2.078
						C1918.088,1444.015,1918.019,1444.019,1917.951,1444.019z M1852.99,1442.405c-0.102,0-0.204-0.008-0.307-0.024
						c-5.069-0.794-10.179-1.759-15.187-2.865c-1.061-0.234-1.73-1.284-1.495-2.344c0.235-1.062,1.284-1.734,2.344-1.495
						c4.929,1.089,9.957,2.039,14.947,2.821c1.073,0.168,1.806,1.174,1.638,2.246
						C1854.777,1441.713,1853.941,1442.405,1852.99,1442.405z M1957.462,1436.637c-0.866,0-1.659-0.576-1.896-1.451
						c-0.285-1.047,0.333-2.128,1.381-2.412c4.867-1.323,9.758-2.817,14.54-4.442c1.033-0.351,2.145,0.202,2.494,1.229
						c0.349,1.028-0.201,2.144-1.229,2.494c-4.859,1.651-9.829,3.169-14.775,4.512
						C1957.806,1436.614,1957.632,1436.637,1957.462,1436.637z M1813.901,1432.968c-0.203,0-0.411-0.033-0.615-0.1
						c-4.868-1.604-9.753-3.384-14.52-5.288c-1.008-0.403-1.498-1.547-1.096-2.555c0.402-1.008,1.545-1.497,2.555-1.096
						c4.692,1.875,9.501,3.626,14.292,5.205c1.031,0.34,1.591,1.451,1.252,2.482
						C1815.496,1432.443,1814.727,1432.968,1813.901,1432.968z M1995.266,1422.975c-0.746,0-1.459-0.427-1.789-1.151
						c-0.451-0.988-0.015-2.154,0.972-2.604c4.582-2.092,9.161-4.355,13.61-6.728c0.961-0.512,2.149-0.148,2.66,0.809
						c0.511,0.958,0.149,2.149-0.809,2.66c-4.52,2.411-9.173,4.711-13.829,6.835
						C1995.817,1422.917,1995.54,1422.975,1995.266,1422.975z M2030.336,1403.387c-0.633,0-1.256-0.305-1.635-0.872
						c-0.605-0.902-0.364-2.123,0.538-2.727c4.19-2.808,8.347-5.782,12.358-8.844c0.862-0.659,2.097-0.495,2.756,0.37
						c0.658,0.864,0.493,2.097-0.37,2.756c-4.075,3.11-8.299,6.133-12.555,8.984
						C2031.093,1403.28,2030.712,1403.387,2030.336,1403.387z M2061.808,1378.403c-0.525,0-1.049-0.209-1.437-0.624
						c-0.741-0.793-0.699-2.037,0.095-2.779c3.682-3.439,7.311-7.045,10.787-10.715c0.748-0.789,1.992-0.822,2.779-0.076
						c0.788,0.747,0.823,1.991,0.076,2.779c-3.531,3.729-7.218,7.391-10.958,10.886
						C2062.771,1378.227,2062.289,1378.403,2061.808,1378.403z M2088.883,1348.692c-0.42,0-0.845-0.134-1.203-0.411
						c-0.858-0.665-1.016-1.9-0.351-2.759c3.094-3.996,6.102-8.137,8.94-12.308c0.611-0.9,1.834-1.13,2.731-0.519
						c0.898,0.61,1.13,1.833,0.519,2.731c-2.883,4.237-5.939,8.444-9.081,12.503
						C2090.051,1348.43,2089.469,1348.692,2088.883,1348.692z M2110.863,1315.025c-0.317,0-0.638-0.077-0.937-0.238
						c-0.954-0.518-1.307-1.713-0.789-2.667c2.414-4.442,4.72-9.014,6.853-13.589c0.458-0.984,1.634-1.409,2.612-0.95
						c0.985,0.459,1.41,1.628,0.951,2.613c-2.167,4.647-4.509,9.291-6.96,13.804
						C2112.235,1314.653,2111.56,1315.025,2110.863,1315.025z M2127.15,1278.257c-0.215,0-0.433-0.036-0.648-0.11
						c-1.025-0.358-1.566-1.479-1.208-2.504c1.668-4.781,3.206-9.668,4.57-14.524c0.293-1.046,1.374-1.656,2.425-1.361
						c1.045,0.294,1.655,1.379,1.361,2.425c-1.386,4.933-2.949,9.897-4.643,14.756
						C2128.723,1277.749,2127.963,1278.257,2127.15,1278.257z M2137.278,1239.329c-0.112,0-0.225-0.01-0.341-0.03
						c-1.069-0.186-1.784-1.206-1.597-2.275c0.868-4.966,1.593-10.031,2.153-15.051c0.12-1.079,1.101-1.854,2.171-1.735
						c1.079,0.12,1.856,1.092,1.735,2.171c-0.569,5.101-1.304,10.246-2.188,15.293
						C2139.045,1238.657,2138.216,1239.329,2137.278,1239.329z M2140.968,1199.305c-0.007,0-0.014,0-0.022,0
						c-1.086-0.012-1.956-0.902-1.944-1.988c0.01-0.93,0.015-1.862,0.015-2.794c0-4.118-0.104-8.294-0.308-12.413
						c-0.055-1.085,0.781-2.007,1.865-2.061c1.084-0.041,2.008,0.78,2.061,1.865c0.208,4.184,0.314,8.426,0.314,12.609
						c0,0.948-0.005,1.893-0.015,2.839C2142.921,1198.439,2142.044,1199.305,2140.968,1199.305z M2138.216,1159.191
						c-0.958,0-1.797-0.7-1.943-1.676c-0.748-5.007-1.658-10.043-2.704-14.968c-0.226-1.062,0.452-2.106,1.514-2.332
						c1.061-0.23,2.106,0.451,2.332,1.514c1.063,5.003,1.988,10.118,2.748,15.206c0.16,1.073-0.581,2.074-1.655,2.234
						C2138.409,1159.184,2138.312,1159.191,2138.216,1159.191z"/>
					<path style="fill:#91B3FA;" d="M1776.702,1417.25c-0.306,0-0.617-0.071-0.908-0.224c-2.342-1.223-4.663-2.481-6.963-3.775
						c-0.945-0.533-1.281-1.732-0.749-2.678c0.532-0.946,1.728-1.281,2.678-0.749c2.263,1.275,4.548,2.514,6.854,3.718
						c0.963,0.502,1.335,1.689,0.832,2.652C1778.095,1416.866,1777.411,1417.25,1776.702,1417.25z"/>
				</g>
				<g>
					<path style="fill:#91B3FA;" d="M1777.795,1348.014c0.938,0.865,2.322,1.039,3.445,0.435l32.049-17.253
						c14.794,8.37,31.03,14.441,48.209,17.738l13.239,33.879c0.464,1.189,1.631,1.951,2.906,1.9l43.623-1.766
						c1.275-0.052,2.377-0.907,2.743-2.128l10.457-34.839c16.856-4.677,32.548-12.04,46.616-21.579l33.34,14.604
						c1.169,0.511,2.533,0.225,3.398-0.712l29.597-32.095c0.865-0.938,1.04-2.321,0.435-3.444l-17.252-32.049
						c8.37-14.794,14.44-31.03,17.738-48.209l33.879-13.24c1.189-0.464,1.951-1.631,1.9-2.906l-1.767-43.623
						c-0.052-1.275-0.906-2.377-2.128-2.743l-34.839-10.456c-4.675-16.857-12.039-32.547-21.578-46.616l14.605-33.34
						c0.511-1.168,0.226-2.533-0.712-3.397l-32.095-29.597c-0.938-0.865-2.322-1.039-3.445-0.435l-32.049,17.253
						c-14.794-8.37-31.03-14.441-48.209-17.738l-13.24-33.879c-0.464-1.188-1.631-1.951-2.906-1.9l-43.624,1.767
						c-1.274,0.051-2.376,0.906-2.742,2.128l-10.457,34.839c-16.856,4.675-32.548,12.039-46.617,21.578l-33.339-14.604
						c-1.168-0.513-2.534-0.226-3.399,0.711l-29.597,32.095c-0.865,0.938-1.039,2.321-0.435,3.445l17.252,32.049
						c-8.37,14.794-14.441,31.03-17.738,48.209l-33.88,13.24c-1.188,0.463-1.951,1.631-1.899,2.906l1.767,43.622
						c0.052,1.275,0.906,2.377,2.128,2.744l34.839,10.457c4.676,16.855,12.04,32.547,21.578,46.616l-14.604,33.339
						c-0.512,1.168-0.226,2.533,0.712,3.398L1777.795,1348.014z"/>
					<g>
						<path style="fill:#BDD0FB;" d="M1891.641,1234.029c-6.863,0-13.656-1.712-19.855-5.079
							c-9.792-5.32-16.925-14.132-20.088-24.817c-3.162-10.685-1.974-21.961,3.344-31.752s14.133-16.924,24.817-20.087
							c22.059-6.525,45.311,6.106,51.839,28.161c3.162,10.685,1.974,21.961-3.345,31.751c-5.319,9.792-14.132,16.925-24.816,20.088
							C1899.618,1233.454,1895.617,1234.029,1891.641,1234.029z M1891.682,1156.474c-3.358,0-6.768,0.476-10.148,1.476
							c-18.938,5.605-29.784,25.572-24.18,44.509c2.715,9.174,8.84,16.741,17.247,21.309c8.407,4.566,18.089,5.589,27.262,2.871
							c9.174-2.715,16.742-8.84,21.308-17.247c4.567-8.407,5.588-18.088,2.872-27.262
							C1921.438,1166.572,1907.139,1156.474,1891.682,1156.474z"/>
					</g>
					<g>
						<path style="fill:#BDD0FB;" d="M1892.215,1299.859c-6.178,0-12.343-0.522-18.387-1.56c-0.017-0.003-0.036-0.007-0.053-0.01
							c-0.044-0.008-0.087-0.014-0.13-0.022c-1.436-0.25-2.447-1.497-2.446-2.906c0.001-0.166,0.015-0.335,0.044-0.504
							c0.278-1.605,1.811-2.678,3.409-2.402c7.137,1.239,14.461,1.714,21.76,1.421c25.941-1.051,50.02-11.631,68.257-29.9
							c0.975-0.977,1.934-1.977,2.876-2.998c17.582-19.066,27.126-43.543,27.123-69.327c0-1.407-0.029-2.818-0.085-4.233
							c-1.107-27.329-12.79-52.592-32.896-71.134c-20.106-18.541-46.21-28.126-73.561-27.037
							c-55.01,2.229-98.254,47.692-98.256,102.26c0,1.394,0.028,2.793,0.084,4.199c0.752,18.547,6.501,36.51,16.628,51.948
							c0.326,0.497,0.483,1.057,0.483,1.611c0.002,0.962-0.467,1.905-1.331,2.473c-1.362,0.892-3.19,0.512-4.083-0.849
							c-10.711-16.33-16.794-35.33-17.588-54.944c-0.06-1.486-0.09-2.966-0.09-4.439c0.002-57.712,45.736-105.794,103.915-108.149
							c28.9-1.187,56.533,8.986,77.797,28.594c21.264,19.61,33.62,46.327,34.79,75.231c0.061,1.495,0.091,2.988,0.091,4.477
							c0.004,27.269-10.09,53.155-28.685,73.319c-19.61,21.265-46.327,33.621-75.231,34.792
							C1895.174,1299.829,1893.693,1299.859,1892.215,1299.859z"/>
					</g>
				</g>
			</g>
			<path style="fill:#91B3FA;" d="M2068.565,1051.333l17.134-11.059c8.635,4.018,17.973,6.688,27.714,7.767l8.899,18.334
				c0.312,0.643,0.998,1.017,1.708,0.932l24.286-2.924c0.71-0.086,1.287-0.612,1.438-1.31l4.293-19.923
				c9.207-3.36,17.644-8.169,25.078-14.122l19.269,6.677c0.676,0.233,1.425,0.013,1.866-0.549l15.105-19.24
				c0.442-0.563,0.477-1.343,0.09-1.943l-11.059-17.134c4.017-8.635,6.688-17.972,7.766-27.714l18.335-8.899
				c0.643-0.312,1.017-0.998,0.932-1.707l-2.924-24.286c-0.085-0.71-0.612-1.287-1.311-1.437l-19.923-4.293
				c-3.36-9.207-8.169-17.644-14.122-25.078l6.676-19.27c0.234-0.675,0.013-1.425-0.548-1.867l-19.241-15.105
				c-0.562-0.442-1.343-0.478-1.943-0.09l-17.134,11.059c-8.635-4.018-17.972-6.688-27.713-7.766l-8.899-18.335
				c-0.312-0.643-0.998-1.017-1.708-0.932l-24.287,2.924c-0.709,0.085-1.287,0.611-1.437,1.31l-4.293,19.923
				c-9.207,3.36-17.644,8.17-25.078,14.122l-19.269-6.676c-0.675-0.234-1.425-0.014-1.866,0.548l-15.105,19.241
				c-0.441,0.562-0.478,1.342-0.09,1.943l11.059,17.134c-4.018,8.634-6.688,17.972-7.766,27.713l-18.335,8.899
				c-0.643,0.312-1.017,0.998-0.931,1.708l2.924,24.286c0.086,0.71,0.612,1.287,1.311,1.438l19.923,4.293
				c3.36,9.206,8.169,17.644,14.122,25.078l-6.676,19.27c-0.234,0.675-0.014,1.425,0.548,1.866l19.24,15.105
				C2067.185,1051.685,2067.965,1051.721,2068.565,1051.333z"/>
			<g>
				<path style="fill:#BDD0FB;" d="M2123.316,983.895c-3.407,0-6.806-0.715-10.013-2.141c-6.021-2.676-10.639-7.537-13.004-13.687
					c-2.365-6.151-2.194-12.854,0.483-18.875c2.676-6.021,7.538-10.64,13.689-13.005c6.151-2.366,12.852-2.193,18.873,0.483
					c6.021,2.677,10.641,7.538,13.005,13.689c2.365,6.149,2.194,12.853-0.483,18.874c-2.676,6.021-7.538,10.639-13.688,13.005l0,0
					C2129.303,983.344,2126.307,983.895,2123.316,983.895z M2131.12,979.486h0.019H2131.12z M2123.332,940.431
					c-2.276,0-4.556,0.419-6.743,1.26c-4.68,1.8-8.38,5.314-10.417,9.896c-2.037,4.583-2.167,9.683-0.368,14.363
					c3.716,9.66,14.6,14.493,24.258,10.784l0,0c4.68-1.8,8.38-5.315,10.417-9.897c2.037-4.581,2.167-9.682,0.368-14.362
					c-1.8-4.68-5.314-8.38-9.896-10.417C2128.511,940.975,2125.923,940.431,2123.332,940.431z"/>
			</g>
			<g>
				<path style="fill:#91B3FA;" d="M2024.856,1047.798c-0.545,0-1.089-0.226-1.476-0.667c-1.742-1.979-3.455-4.047-5.088-6.145
					c-0.667-0.856-0.514-2.092,0.344-2.759c0.854-0.667,2.089-0.515,2.759,0.344c1.586,2.036,3.246,4.042,4.937,5.963
					c0.718,0.815,0.638,2.057-0.177,2.774C2025.78,1047.636,2025.317,1047.798,2024.856,1047.798z"/>
				<path style="fill:#91B3FA;" d="M2006.488,1020.695c-0.717,0-1.407-0.393-1.755-1.075c-2.077-4.088-3.972-8.348-5.632-12.663
					c-0.206-0.538-0.41-1.076-0.61-1.615c-0.376-1.018,0.143-2.149,1.161-2.526c1.022-0.374,2.149,0.143,2.526,1.161
					c0.194,0.524,0.392,1.048,0.592,1.57c1.611,4.188,3.45,8.323,5.467,12.292c0.491,0.968,0.106,2.151-0.862,2.643
					C2007.091,1020.627,2006.787,1020.695,2006.488,1020.695z M1993.926,982.538c-0.944,0-1.778-0.682-1.937-1.643
					c-0.85-5.113-1.404-10.328-1.647-15.497c-0.051-1.085,0.787-2.005,1.872-2.056c1.076-0.038,2.005,0.787,2.056,1.872
					c0.235,5.015,0.773,10.074,1.597,15.036c0.178,1.071-0.545,2.084-1.617,2.262
					C1994.141,982.53,1994.033,982.538,1993.926,982.538z M1993.53,942.378c-0.095,0-0.19-0.007-0.286-0.02
					c-1.074-0.156-1.819-1.155-1.662-2.229c0.746-5.118,1.804-10.254,3.145-15.263c0.281-1.048,1.353-1.678,2.406-1.39
					c1.049,0.28,1.672,1.358,1.391,2.407c-1.301,4.861-2.328,9.845-3.051,14.812C1995.33,941.674,1994.49,942.378,1993.53,942.378z
					 M2005.317,903.983c-0.288,0-0.58-0.062-0.855-0.197c-0.977-0.473-1.386-1.648-0.913-2.625
					c2.257-4.662,4.811-9.238,7.593-13.603c0.584-0.914,1.802-1.181,2.715-0.601c0.916,0.584,1.184,1.799,0.601,2.715
					c-2.699,4.236-5.18,8.677-7.37,13.201C2006.748,903.575,2006.046,903.983,2005.317,903.983z M2028.124,870.936
					c-0.486,0-0.971-0.179-1.352-0.538c-0.788-0.747-0.823-1.991-0.077-2.78c3.558-3.76,7.377-7.347,11.35-10.662
					c0.833-0.694,2.073-0.583,2.769,0.251c0.695,0.834,0.583,2.073-0.251,2.769c-3.855,3.216-7.56,6.696-11.012,10.345
					C2029.165,870.73,2028.645,870.936,2028.124,870.936z M2059.884,846.378c-0.693,0-1.365-0.367-1.724-1.016
					c-0.524-0.951-0.177-2.147,0.773-2.671c4.521-2.491,9.25-4.749,14.058-6.712c1.006-0.415,2.152,0.072,2.563,1.077
					c0.411,1.005-0.072,2.153-1.077,2.563c-4.667,1.905-9.258,4.097-13.645,6.516
					C2060.53,846.299,2060.204,846.378,2059.884,846.378z M2097.59,832.55c-0.917,0-1.738-0.644-1.926-1.578
					c-0.214-1.065,0.475-2.1,1.54-2.315c5.079-1.022,10.271-1.753,15.432-2.171c1.092-0.092,2.03,0.718,2.119,1.8
					c0.088,1.083-0.718,2.031-1.8,2.118c-5.009,0.407-10.047,1.115-14.975,2.108C2097.849,832.538,2097.719,832.55,2097.59,832.55z"
					/>
				<path style="fill:#91B3FA;" d="M2145.601,831.904c-0.112,0-0.224-0.01-0.337-0.029c-2.527-0.438-5.105-0.805-7.664-1.092
					c-1.079-0.121-1.855-1.093-1.735-2.172c0.121-1.08,1.115-1.858,2.172-1.734c2.637,0.296,5.294,0.674,7.896,1.125
					c1.07,0.185,1.787,1.203,1.602,2.272C2147.37,831.23,2146.54,831.904,2145.601,831.904z"/>
			</g>
			<g>
				<path style="fill:#91B3FA;" d="M2233.257,889.6c-0.643,0-1.274-0.315-1.65-0.895c-1.405-2.162-2.889-4.302-4.412-6.363
					c-0.645-0.873-0.461-2.104,0.413-2.749c0.875-0.646,2.104-0.46,2.749,0.413c1.569,2.123,3.098,4.329,4.546,6.557
					c0.592,0.91,0.333,2.128-0.577,2.719C2233.996,889.497,2233.624,889.6,2233.257,889.6z"/>
				<path style="fill:#91B3FA;" d="M2127.39,1092.259c-1.058,0-1.931-0.841-1.964-1.905c-0.033-1.085,0.819-1.992,1.905-2.025
					c4.938-0.153,9.923-0.598,14.816-1.323c1.082-0.156,2.073,0.583,2.233,1.657c0.159,1.074-0.583,2.073-1.657,2.233
					c-5.042,0.747-10.181,1.206-15.271,1.363C2127.431,1092.259,2127.41,1092.259,2127.39,1092.259z M2166.246,1085.067
					c-0.814,0-1.575-0.51-1.857-1.323c-0.356-1.025,0.187-2.145,1.213-2.502c1.365-0.473,2.729-0.972,4.089-1.495
					c3.274-1.258,6.527-2.661,9.668-4.169c0.975-0.468,2.152-0.058,2.623,0.921c0.47,0.978,0.058,2.153-0.922,2.622
					c-3.235,1.554-6.586,2.999-9.958,4.296c-1.4,0.538-2.805,1.051-4.212,1.54
					C2166.677,1085.032,2166.46,1085.067,2166.246,1085.067z M2201.223,1066.687c-0.604,0-1.199-0.276-1.584-0.8
					c-0.645-0.874-0.459-2.104,0.416-2.748c3.976-2.932,7.821-6.126,11.429-9.496c0.794-0.738,2.037-0.699,2.779,0.095
					c0.741,0.794,0.698,2.038-0.095,2.779c-3.719,3.473-7.683,6.765-11.781,9.786
					C2202.037,1066.563,2201.628,1066.687,2201.223,1066.687z M2229.087,1038.712c-0.403,0-0.809-0.123-1.16-0.38
					c-0.875-0.641-1.066-1.871-0.424-2.747c2.915-3.982,5.634-8.182,8.08-12.484c0.536-0.945,1.739-1.275,2.68-0.737
					c0.945,0.537,1.274,1.736,0.737,2.68c-2.521,4.433-5.322,8.761-8.326,12.865
					C2230.289,1038.434,2229.692,1038.712,2229.087,1038.712z M2247.375,1003.694c-0.212,0-0.427-0.034-0.639-0.107
					c-1.026-0.353-1.572-1.471-1.22-2.499c1.607-4.676,2.958-9.494,4.019-14.323c0.233-1.061,1.288-1.73,2.341-1.498
					c1.061,0.232,1.732,1.281,1.499,2.341c-1.092,4.976-2.485,9.942-4.14,14.759
					C2248.955,1003.182,2248.191,1003.694,2247.375,1003.694z M2254.448,964.816c-0.019,0-0.038,0-0.058-0.001
					c-1.086-0.032-1.94-0.937-1.908-2.022c0.034-1.209,0.052-2.422,0.052-3.635c0.001-3.731-0.165-7.512-0.493-11.238
					c-0.095-1.082,0.705-2.036,1.785-2.131c1.089-0.081,2.036,0.706,2.131,1.785c0.339,3.841,0.51,7.739,0.509,11.585
					c0,1.251-0.017,2.5-0.053,3.747C2256.381,963.973,2255.508,964.816,2254.448,964.816z M2249.561,925.599
					c-0.857,0-1.646-0.566-1.891-1.432c-1.076-3.807-2.347-7.622-3.776-11.339c-0.352-0.913-0.713-1.822-1.083-2.724
					c-0.412-1.005,0.069-2.153,1.073-2.565c1.008-0.411,2.154,0.071,2.565,1.073c0.381,0.929,0.751,1.863,1.114,2.804
					c1.472,3.829,2.782,7.759,3.891,11.682c0.295,1.044-0.312,2.131-1.357,2.427
					C2249.918,925.574,2249.738,925.599,2249.561,925.599z"/>
				<path style="fill:#91B3FA;" d="M2102.825,1090.693c-0.104,0-0.207-0.008-0.312-0.025c-2.615-0.417-5.251-0.918-7.835-1.489
					c-1.061-0.235-1.73-1.284-1.496-2.344c0.235-1.062,1.284-1.73,2.344-1.496c2.508,0.555,5.067,1.042,7.605,1.447
					c1.072,0.17,1.802,1.178,1.632,2.25C2104.61,1090.004,2103.775,1090.693,2102.825,1090.693z"/>
			</g>
			<g>
				<path style="fill:#BDD0FB;" d="M2123.533,1020.756c-0.663,0-1.324-0.01-1.986-0.032c-1.244-0.039-2.484-0.117-3.719-0.231
					c-1.528-0.142-2.675-1.426-2.676-2.93c0-0.092,0.004-0.185,0.013-0.278c0.151-1.623,1.603-2.813,3.209-2.664
					c3.948,0.369,7.965,0.311,11.94-0.169c13.324-1.604,25.375-7.771,34.39-17.511c1.047-1.131,2.052-2.31,3.014-3.535
					c7.832-9.975,11.977-22.027,11.978-34.513c0-2.261-0.136-4.536-0.411-6.817c-3.696-30.697-31.668-52.657-62.377-48.971
					c-28.435,3.424-49.38,27.684-49.377,55.639c0.001,2.225,0.133,4.474,0.406,6.737c1.215,10.092,5.134,19.649,11.331,27.636
					c0.417,0.537,0.619,1.174,0.619,1.805c0,0.88-0.393,1.751-1.141,2.332c-1.286,1-3.141,0.765-4.137-0.522
					c-6.852-8.831-11.184-19.394-12.527-30.547c-0.302-2.502-0.448-4.987-0.448-7.446c-0.003-30.895,23.144-57.707,54.57-61.491
					c16.431-1.98,32.656,2.561,45.677,12.784c13.02,10.222,21.281,24.903,23.259,41.338c0.303,2.52,0.454,5.035,0.454,7.533
					c-0.001,13.8-4.582,27.119-13.237,38.143c-10.222,13.021-24.903,21.282-41.339,23.26
					C2128.531,1020.607,2126.028,1020.756,2123.533,1020.756z"/>
			</g>
		</g>
		<g>
			
				<linearGradient id="SVGID_00000091702927438975417740000015024565543713808525_" gradientUnits="userSpaceOnUse" x1="1152.9203" y1="1136.9767" x2="1084.9198" y2="1728.9773">
				<stop  offset="0" style="stop-color:#E1473D"/>
				<stop  offset="1" style="stop-color:#E9605A"/>
			</linearGradient>
			<path style="fill:url(#SVGID_00000091702927438975417740000015024565543713808525_);" d="M1110.885,1039.409h-17.375
				c-0.486,0-0.881-0.394-0.881-0.881v-74.599c0-30.436,22.719-56.082,52.932-59.754l38.352-4.661
				c21.638-2.63,43.447,6.833,56.205,25.519c6.946,10.174,10.262,22.394,10.262,34.713v30.124c0,0.487-0.395,0.881-0.881,0.881
				h-17.375c-0.487,0-0.881-0.394-0.881-0.881v-30.592c0-6.869-1.439-13.732-4.699-19.778
				c-8.135-15.092-24.301-22.937-40.323-20.989l-38.352,4.661c-20.608,2.504-36.104,19.997-36.104,40.757v74.599
				C1111.765,1039.015,1111.371,1039.409,1110.885,1039.409z"/>
			
				<linearGradient id="SVGID_00000024711359394555486390000016460678431210347696_" gradientUnits="userSpaceOnUse" x1="1166.6121" y1="1138.55" x2="1098.6115" y2="1730.5507">
				<stop  offset="0" style="stop-color:#E1473D"/>
				<stop  offset="1" style="stop-color:#E9605A"/>
			</linearGradient>
			<path style="fill:url(#SVGID_00000024711359394555486390000016460678431210347696_);" d="M1086.972,1022.288l167.75-9.294
				c6.813-0.378,12.545,5.046,12.545,11.869v132.894c0,6.565-5.322,11.887-11.887,11.887h-163.72c-6.414,0-11.672-5.089-11.881-11.5
				l-4.03-123.6C1075.538,1028.088,1080.522,1022.645,1086.972,1022.288z"/>
			
				<linearGradient id="SVGID_00000145741206480303519390000009089430507598653353_" gradientUnits="userSpaceOnUse" x1="1183.0551" y1="1085.7152" x2="1125.2756" y2="1161.3726">
				<stop  offset="0" style="stop-color:#A22B25"/>
				<stop  offset="1" style="stop-color:#C0423C"/>
			</linearGradient>
			<path style="fill:url(#SVGID_00000145741206480303519390000009089430507598653353_);" d="M1198.852,1131.575l-10.153-29.19
				c-1.221-3.509-0.389-7.433,2.221-10.078c5.203-5.272,8.303-12.624,7.936-20.698c-0.648-14.239-12.28-25.784-26.523-26.331
				c-15.762-0.606-28.731,11.993-28.731,27.621c0,8.67,3.993,16.404,10.24,21.47c3.24,2.628,4.571,6.946,3.201,10.886l-9.155,26.32
				c-2.226,6.401,2.526,13.086,9.303,13.086h32.358C1196.326,1144.661,1201.079,1137.975,1198.852,1131.575z"/>
		</g>
		<g>
			<path style="fill:#7D97F4;" d="M1491.719,1264.208l-320.244-1.784c-13.11-0.073-21.254,14.222-14.505,25.462l1.608,2.678
				c3.038,5.061,8.509,8.157,14.412,8.157h318.636c9.284,0,16.81-7.526,16.81-16.81v-0.894
				C1508.435,1271.77,1500.966,1264.26,1491.719,1264.208z"/>
			<path style="fill:#7D97F4;" d="M1536.453,1281.391v0.521c0,9.284,7.526,16.81,16.81,16.81h71.09
				c7.613,0,14.275-5.116,16.24-12.471l0,0c2.839-10.624-5.12-21.068-16.117-21.148l-71.091-0.521
				C1544.055,1264.513,1536.453,1272.059,1536.453,1281.391z"/>
		</g>
		<g>
			<path style="fill:#7D97F4;" d="M1414.684,1324.55l-243.21-1.784c-13.11-0.073-21.254,14.222-14.505,25.462l1.608,2.678
				c3.038,5.061,8.509,8.157,14.412,8.157h241.602c9.284,0,16.81-7.526,16.81-16.81v-0.894
				C1431.4,1332.112,1423.932,1324.601,1414.684,1324.55z"/>
			<path style="fill:#7D97F4;" d="M1459.419,1341.732v0.521c0,9.284,7.526,16.81,16.81,16.81h71.09
				c7.613,0,14.275-5.116,16.24-12.471l0,0c2.839-10.624-5.12-21.068-16.117-21.148l-71.091-0.521
				C1467.02,1324.855,1459.419,1332.4,1459.419,1341.732z"/>
		</g>
	</g>
</g>
</svg>
